<svg xmlns="http://www.w3.org/2000/svg" xmlns:xlink="http://www.w3.org/1999/xlink" width="1003" height="379" version="1.1" viewBox="0 0 1003 379"><title>Group 7</title><desc>Created with Sketch.</desc><defs><linearGradient id="linearGradient-1" x1="16.712%" x2="131.517%" y1="19.688%" y2="118%"><stop offset="0%" stop-color="#12CE66"/><stop offset="97.769%" stop-color="#7EE6D1"/></linearGradient><linearGradient id="linearGradient-2" x1="-63.435%" x2="100.908%" y1="-88.498%" y2="129.529%"><stop offset="0%" stop-color="#7EE6D1"/><stop offset="100%" stop-color="#12CE66"/></linearGradient><path id="path-3" d="M3,0 L1000,0 C1001.65685,-3.04359188e-16 1003,1.34314575 1003,3 L1003,376 C1003,377.656854 1001.65685,379 1000,379 L3,379 C1.34314575,379 2.02906125e-16,377.656854 0,376 L0,3 C-2.02906125e-16,1.34314575 1.34314575,3.04359188e-16 3,0 Z"/><linearGradient id="linearGradient-5" x1="33.134%" x2="7.664%" y1="20.439%" y2="72.797%"><stop offset="0%" stop-color="#7EE6D1" stop-opacity="0"/><stop offset="100%" stop-color="#0ECD78"/></linearGradient><path id="path-6" d="M490.899582,495.950039 C405.866718,495.950039 309.305804,521.809295 215.611222,493.236531 C90.7703398,455.165503 -191.019779,575.566682 -234.904488,393.177672 C-287.962713,172.662655 -83.8579367,-9.93042565 60.560351,-51.7427776 C160.052351,-80.5525078 317.987021,-36.3076029 402.483401,43.8327383 C404.97546,46.1880217 407.44156,48.6040084 409.899008,51.0564169 C464.69835,106.089922 507.262373,186.230263 527.415171,276.653723 C531.568603,295.301741 536.734434,325.714035 539.183228,358.032409 C544.132734,423.130502 538.127564,495.950039 490.899582,495.950039 Z"/></defs><g id="Page-1" fill="none" fill-rule="evenodd" stroke="none" stroke-width="1"><g id="Premium-Page-Design-for-weForms" transform="translate(-221.000000, -87.000000)"><g id="Group-7" transform="translate(221.000000, 87.000000)"><mask id="mask-4" fill="#fff"><use xlink:href="#path-3"/></mask><g id="Rectangle-5-Copy-25"><use fill="url(#linearGradient-1)" xlink:href="#path-3"/><use fill="url(#linearGradient-2)" xlink:href="#path-3"/></g><g id="Fill-1-Copy-7" mask="url(#mask-4)" transform="translate(148.556961, 223.053398) rotate(174.000000) translate(-148.556961, -223.053398)"><use fill="url(#linearGradient-1)" xlink:href="#path-6"/><use fill="url(#linearGradient-5)" xlink:href="#path-6"/></g><path id="Fill-1-Copy-8" fill="#000" d="M1563.56506,590.845707 C1478.53219,590.845707 1381.97128,619.029895 1288.2767,587.888235 C1163.43582,546.394349 881.645696,677.620455 837.760988,478.833369 C784.702762,238.492475 988.807539,39.4829711 1133.22583,-6.08861022 C1232.71783,-37.4885413 1390.6525,10.734297 1475.14888,98.0798278 C1477.64094,100.646868 1480.10704,103.280069 1482.56448,105.952967 C1537.36383,165.934377 1579.92785,253.279908 1600.08065,351.833084 C1604.23408,372.157692 1609.39991,405.304269 1611.8487,440.528296 C1616.79821,511.479173 1610.79304,590.845707 1563.56506,590.845707 Z" mask="url(#mask-4)" opacity=".03" transform="translate(1221.222437, 293.413706) scale(-1, 1) rotate(174.000000) translate(-1221.222437, -293.413706)"/></g></g></g></svg>