<svg xmlns="http://www.w3.org/2000/svg" xmlns:xlink="http://www.w3.org/1999/xlink" width="276" height="269" version="1.1" viewBox="0 0 276 269"><title>Group 8</title><desc>Created with Sketch.</desc><defs><linearGradient id="linearGradient-1" x1="50%" x2="50%" y1="0%" y2="100%"><stop offset="0%" stop-color="#3FFBB3"/><stop offset="100%" stop-color="#06E168"/></linearGradient><rect id="path-2" width="26.765" height="9.707" x="145.628" y="71.466" rx="4.853"/><mask id="mask-3" width="29.199" height="12.14" x="-1.217" y="-1.217" maskContentUnits="userSpaceOnUse" maskUnits="objectBoundingBox"><rect width="29.199" height="12.14" x="144.412" y="70.249" fill="#fff"/><use fill="#000" xlink:href="#path-2"/></mask><linearGradient id="linearGradient-4" x1="50%" x2="50%" y1="100%" y2="2.145%"><stop offset="0%" stop-color="#FFF"/><stop offset="100%" stop-color="#E2FEFF"/></linearGradient><rect id="path-5" width="107.062" height="150.454" x="0" y="0" rx="7.3"/><filter id="filter-6" width="296.1%" height="239.6%" x="-85%" y="-49.8%" filterUnits="objectBoundingBox"><feOffset dx="14" dy="30" in="SourceAlpha" result="shadowOffsetOuter1"/><feGaussianBlur in="shadowOffsetOuter1" result="shadowBlurOuter1" stdDeviation="30"/><feColorMatrix in="shadowBlurOuter1" type="matrix" values="0 0 0 0 0 0 0 0 0 0 0 0 0 0 0 0 0 0 0.3 0"/></filter><linearGradient id="linearGradient-7" x1="98.282%" x2="2.411%" y1="100%" y2="6.98%"><stop offset="0%" stop-color="#00E9F0"/><stop offset="100%" stop-color="#0096FF"/></linearGradient><linearGradient id="linearGradient-8" x1="14.552%" x2="82.772%" y1="14.691%" y2="85.252%"><stop offset="0%" stop-color="#C444FB"/><stop offset="100%" stop-color="#5B56D7"/></linearGradient><rect id="path-9" width="51.098" height="14.56" x="90.151" y="78.382" rx="7.28"/><filter id="filter-10" width="170.5%" height="347.3%" x="-35.2%" y="-61.8%" filterUnits="objectBoundingBox"><feOffset dx="0" dy="9" in="SourceAlpha" result="shadowOffsetOuter1"/><feGaussianBlur in="shadowOffsetOuter1" result="shadowBlurOuter1" stdDeviation="4.5"/><feColorMatrix in="shadowBlurOuter1" type="matrix" values="0 0 0 0 0 0 0 0 0 0 0 0 0 0 0 0 0 0 0.245923913 0"/></filter><linearGradient id="linearGradient-11" x1="19.773%" x2="68.557%" y1="0%" y2="100%"><stop offset="0%" stop-color="#F9FBFE"/><stop offset="100%" stop-color="#B7D6FF"/></linearGradient><path id="path-12" d="M24.7117707,18.6771132 C24.1505488,18.6771132 23.581672,18.79009 23.0490552,19.00013 C22.3086492,17.4792633 20.7985273,16.4351759 19.060069,16.4351759 C18.4404285,16.4351759 17.8498965,16.5580593 17.3131501,16.7799028 C16.5583409,15.3039318 15.0696727,14.297152 13.3604237,14.297152 C12.9322553,14.297152 12.5129505,14.359753 12.1120777,14.4808448 C12.1124806,13.9566406 12.1128835,13.4161011 12.1132864,12.8762993 L12.1161066,6.24924343 C12.1169124,5.12822209 12.1172145,4.60918194 12.1127828,4.3407565 C12.1171138,1.94727003 10.1178868,0 7.66057702,0 C5.19077775,0 3.18137783,2.10250782 3.18137783,4.68685353 L3.18137783,21.4009937 C1.53205834,21.9784193 0.076124717,23.5712666 0.0150873058,25.8451367 C-0.080497683,29.4022216 0.197998096,33.90338 3.22740769,37.1634791 C5.78483493,39.9156038 9.7871164,41.2535155 15.4632935,41.2535155 C20.5682772,41.2535155 24.3438339,39.6822729 26.6851122,36.5836295 C28.3294963,34.4072441 29.1986247,31.4743774 29.1986247,28.1019338 L29.1907684,23.3599619 C29.1908691,20.779621 27.1815699,18.6771132 24.7117707,18.6771132 Z"/><filter id="filter-13" width="276.9%" height="225.2%" x="-88.4%" y="-33.5%" filterUnits="objectBoundingBox"><feMorphology in="SourceAlpha" operator="dilate" radius="1.825" result="shadowSpreadOuter1"/><feOffset dx="0" dy="12" in="shadowSpreadOuter1" result="shadowOffsetOuter1"/><feGaussianBlur in="shadowOffsetOuter1" result="shadowBlurOuter1" stdDeviation="6"/><feComposite in="shadowBlurOuter1" in2="SourceAlpha" operator="out" result="shadowBlurOuter1"/><feColorMatrix in="shadowBlurOuter1" type="matrix" values="0 0 0 0 0 0 0 0 0 0 0 0 0 0 0 0 0 0 0.2 0"/></filter></defs><g id="Page-1" fill="none" fill-rule="evenodd" stroke="none" stroke-width="1"><g id="Premium-Page-Design-for-weForms" fill-rule="nonzero" transform="translate(-843.000000, -172.000000)"><g id="Group-8" transform="translate(889.000000, 201.000000)"><rect id="Rectangle-Copy" width="107.062" height="150.454" x="122.513" y="0" fill="url(#linearGradient-1)" rx="7.3"/><rect id="Rectangle-Copy-2" width="26.765" height="9.707" x="184.925" y="23.053" fill="#BDFFE4" rx="4.853"/><rect id="Rectangle-Copy-4" width="26.765" height="9.707" x="184.925" y="48.412" fill="#91FFCD" rx="4.853"/><rect id="Rectangle-Copy-3" width="26.765" height="9.707" x="145.628" y="23.053" fill="#BDFFE4" rx="4.853"/><rect id="Rectangle-Copy-5" width="26.765" height="9.707" x="145.628" y="48.412" fill="#91FFCD" rx="4.853"/><rect id="Rectangle-Copy-7" width="26.765" height="9.707" x="184.925" y="71.466" fill="#76FFB3" rx="4.853"/><use id="Rectangle-Copy-6" fill="#1BD47B" stroke="#00793F" stroke-dasharray="2.433" stroke-width="2.433" mask="url(#mask-3)" xlink:href="#path-2"/><rect id="Rectangle-Copy-8" width="26.765" height="9.707" x="145.628" y="96.824" fill="#37FF90" rx="4.853"/><g id="Rectangle"><use fill="#000" fill-opacity="1" filter="url(#filter-6)" xlink:href="#path-5"/><use fill="url(#linearGradient-4)" xlink:href="#path-5"/></g><rect id="Rectangle-Copy-11" width="65.697" height="9.707" x="20.804" y="23.053" fill="#C6E5E7" rx="4.853"/><rect id="Rectangle-Copy-12" width="65.697" height="9.707" x="20.804" y="43.802" fill="#C6E5E7" rx="4.853"/><rect id="Rectangle-Copy-14" width="24.332" height="9.707" x="20.804" y="115.267" fill="url(#linearGradient-7)" opacity=".696" rx="4.853"/><rect id="Rectangle-Copy-13" width="65.697" height="43.68" x="20.804" y="62.244" fill="#C6E5E7" rx="7.3"/><g id="Rectangle-Copy-9"><use fill="#000" fill-opacity="1" filter="url(#filter-10)" xlink:href="#path-9"/><use fill="url(#linearGradient-8)" xlink:href="#path-9"/></g><g id="flaticon1542861857-svg" transform="translate(120.201005, 94.519084)"><g id="Path"><use fill="#000" fill-opacity="1" filter="url(#filter-13)" xlink:href="#path-12"/><use fill="url(#linearGradient-11)" stroke="#FFF" stroke-width="3.65" xlink:href="#path-12"/></g></g></g></g></g></svg>