<svg xmlns="http://www.w3.org/2000/svg" xmlns:xlink="http://www.w3.org/1999/xlink" width="88" height="88" version="1.1" viewBox="0 0 88 88"><title>Group 3</title><desc>Created with Sketch.</desc><defs><path id="path-1" d="M34.9669858,18.1778675 L17.786999,25.5046682 C16.0248412,26.2651751 13.9788036,25.4527995 13.2182861,23.6899655 C12.4577685,21.9278325 13.2701555,19.8818235 15.0337151,19.1213166 L32.213001,11.7945159 C33.9758597,11.034009 36.0211964,11.8463846 36.7817139,13.6085177 C37.5422315,15.3720526 36.7298445,17.4173606 34.9669858,18.1778675 M34.9669858,30.8793843 L17.786999,38.206185 C16.0248412,38.9666919 13.9788036,38.1543163 13.2182861,36.3914823 C12.4577685,34.6286483 13.2701555,32.5833403 15.0337151,31.8228334 L32.213001,24.4960327 C33.9758597,23.7355258 36.0211964,24.5479014 36.7817139,26.3107354 C37.5422315,28.0735694 36.7298445,30.1188774 34.9669858,30.8793843 M47.5207828,4.00930832 C45.5132968,1.56236858 42.4649181,0 39.0527526,0 L10.9472474,0 C7.75868112,0 4.88763966,1.36400594 2.88646209,3.53968654 C1.09416399,5.48896739 0,8.09081224 0,10.9484958 L0,21.0320464 L0,39.0522051 C0,45.0984103 4.90095748,50 10.9472474,50 L34.288478,50 L39.0527526,50 C41.6111758,50 43.9642241,49.1224381 45.827317,47.652592 C48.3689176,45.6472369 50,42.5407239 50,39.0522051 L50,10.9484958 C50,8.3151092 49.0705564,5.89830936 47.5207828,4.00930832"/><filter id="filter-2" width="230%" height="230%" x="-65%" y="-49%" filterUnits="objectBoundingBox"><feOffset dx="0" dy="8" in="SourceAlpha" result="shadowOffsetOuter1"/><feGaussianBlur in="shadowOffsetOuter1" result="shadowBlurOuter1" stdDeviation="9.5"/><feColorMatrix in="shadowBlurOuter1" type="matrix" values="0 0 0 0 0 0 0 0 0 0 0 0 0 0 0 0 0 0 0.163043478 0"/></filter></defs><g id="Page-1" fill="none" fill-rule="evenodd" stroke="none" stroke-width="1"><g id="Premium-Page-Design-for-weForms" transform="translate(-266.000000, -152.000000)"><g id="Group-3" transform="translate(285.000000, 163.000000)"><g id="Fill-1"><use fill="#000" fill-opacity="1" filter="url(#filter-2)" xlink:href="#path-1"/><use fill="#FFF" fill-rule="evenodd" xlink:href="#path-1"/></g><g id="Page-1-Copy-6" fill="#4CDAA0" transform="translate(13.076923, 11.538462)"><path id="Fill-1" d="M22.4734843,6.65402042 L4.95080724,13.9647562 C3.1534996,14.7235956 1.06664956,13.9130012 0.290961897,12.1540325 C-0.484725767,10.3957631 0.343865941,8.35424032 2.14260342,7.59540091 L19.6645656,0.284665163 C21.4625881,-0.474174241 23.5487233,0.336420108 24.3244109,2.09468947 C25.1000986,3.85435762 24.2715069,5.89518101 22.4734843,6.65402042 M22.4734843,19.3276876 L4.95080724,26.6384233 C3.1534996,27.3972627 1.06664956,26.5866684 0.290961897,24.8276996 C-0.484725767,23.0687308 0.343865941,21.0279075 2.14260342,20.269068 L19.6645656,12.9583323 C21.4625881,12.1994929 23.5487233,13.0100872 24.3244109,14.769056 C25.1000986,16.5280248 24.2715069,18.5688481 22.4734843,19.3276876"/></g></g></g></g></svg>