<svg xmlns="http://www.w3.org/2000/svg" viewBox="0 0 471 308"><defs><style>.cls-1{fill:#007fc9;}.cls-2{fill:#fff;}</style></defs><title>Asset 5</title><g id="Layer_2" data-name="Layer 2"><g id="Layer_1-2" data-name="Layer 1"><rect class="cls-1" width="471" height="308"/><g id="_3cJxNl.tif" data-name="3cJxNl.tif"><path class="cls-2" d="M104.86,139.82c.14-.81.24-1.64.41-2.44a12.42,12.42,0,0,1,9.54-9.23c1-.19,2.06-.25,3.12-.38-5.83,17.66-5.69,35.07.74,52.42a12.67,12.67,0,0,1-6.91-1.29,12.26,12.26,0,0,1-6.46-8.1c-.21-.81-.29-1.66-.43-2.5Z"/><path class="cls-2" d="M157.25,154.06c0,4.76,0,9.53,0,14.29a11.63,11.63,0,0,1-3.18,7.78,12.11,12.11,0,0,1-7,3.91,13.22,13.22,0,0,1-2.26.18H128.69a.62.62,0,0,1-.66-.42,55.83,55.83,0,0,1-4.54-14.06c-.44-2.5-.68-5-.94-7.58a52.43,52.43,0,0,1-.1-9.16c.17-2.28.42-4.56.73-6.83a47.75,47.75,0,0,1,2.24-9.27c.55-1.58,1.19-3.13,1.81-4.69a.63.63,0,0,1,.44-.31,9.35,9.35,0,0,1,1.17,0c5.43,0,10.86-.06,16.29,0a11.94,11.94,0,0,1,10.61,6.44,11.33,11.33,0,0,1,1.53,5.75Q157.25,147.08,157.25,154.06Zm-31.46.1c.11,1.45.14,2.92.34,4.36.25,1.8.56,3.6,1,5.38a25.47,25.47,0,0,0,2.81,6.94c1.09,1.88,2.28,3.72,3.55,5.48a2,2,0,0,0,3.07.26c1-.83,1-1.66.22-2.86-1-1.49-2-3-2.94-4.56a28.46,28.46,0,0,1-3.68-14.2c0-1.92.14-3.84.33-5.75a24.24,24.24,0,0,1,2-7.27,36,36,0,0,1,4.46-7.44,1.65,1.65,0,0,0,.21-2c-1-1.31-2.58-1.8-3.81-.14-.66.89-1.28,1.81-1.89,2.74a32.61,32.61,0,0,0-4.41,9.68A37.2,37.2,0,0,0,125.79,154.16Zm11.11-.53c.16,1.6.26,3.21.51,4.79a24.1,24.1,0,0,0,4.29,9.9,5.66,5.66,0,0,0,.81,1,1.41,1.41,0,0,0,2-.1c.55-.46.62-.9.18-1.63-.3-.51-.64-1-1-1.47a21.14,21.14,0,0,1-3.51-8.8,25.6,25.6,0,0,1-.11-6.42,17,17,0,0,1,1.7-6.09c.9-1.73,2-3.35,3-5a1.28,1.28,0,0,0,.13-1,1.51,1.51,0,0,0-2.64-.34A24.39,24.39,0,0,0,136.9,153.62Z"/><path class="cls-2" d="M215.73,161.86l12-31.61,11.49,31.62h.17c.25-.56.5-1.12.74-1.69l6.62-16c1.53-3.7,3.06-7.4,4.57-11.1a.79.79,0,0,1,.88-.6c2.2,0,4.41,0,6.73,0l-19.83,47.19c-3.92-10.33-7.62-20.66-11.41-31l-.24,0-11.72,31-.15,0-18.86-47.22h6.9a.55.55,0,0,1,.63.44c1.37,3.56,2.78,7.11,4.16,10.66s2.82,7.28,4.23,10.93q1.35,3.48,2.71,7c.05.13.13.25.19.38Z"/><path class="cls-2" d="M184,129.8l21.17,47.12c-.27,0-.45,0-.62,0-2.09,0-4.19,0-6.28,0-.48,0-.64-.2-.78-.64-.25-.76-.62-1.49-.94-2.23-1-2.37-2.06-4.74-3.07-7.12a1.17,1.17,0,0,0-1.26-.83c-5.84,0-11.68,0-17.51,0a.78.78,0,0,0-.84.52c-1.47,3.24-3,6.48-4.42,9.72a.79.79,0,0,1-.86.57c-2.2,0-4.41,0-6.71,0l22-47.19Zm-.36,30h6.06c.56,0,.62-.1.41-.58l-2.87-6.58q-1.55-3.55-3.1-7.1a2.06,2.06,0,0,0-.32-.41,1.9,1.9,0,0,0-.37.41q-3.11,6.79-6.21,13.58c-.28.62-.25.68.45.68Z"/><path class="cls-2" d="M291.3,174.25V177h-.63c-1.8,0-3.6,0-5.39,0-.44,0-.57-.12-.57-.56q0-23.79,0-47.59c0-.42.09-.58.56-.58q2.72,0,5.45,0c.44,0,.58.11.57.55,0,2,0,3.93,0,5.89q0,8.12,0,16.23a1.4,1.4,0,0,0,0,.33,3.52,3.52,0,0,0,.17.43,1.52,1.52,0,0,0,.42-.2,13.07,13.07,0,0,1,3.75-2.49,11.71,11.71,0,0,1,8-.43,12.79,12.79,0,0,1,8.08,7,16.48,16.48,0,0,1,1.5,9,14.91,14.91,0,0,1-3.61,8.85,12.13,12.13,0,0,1-7.86,4.22,12.43,12.43,0,0,1-8.55-2,17.83,17.83,0,0,1-1.42-1.15C291.66,174.46,291.52,174.39,291.3,174.25Zm15.33-11.18.15,0a32.28,32.28,0,0,0-.75-3.66,7.5,7.5,0,0,0-8.44-5.29,7.72,7.72,0,0,0-6.31,5.8,12.26,12.26,0,0,0-.34,4.07,8.73,8.73,0,0,0,1.94,5.26,7.66,7.66,0,0,0,11,.71A9,9,0,0,0,306.64,163.06Z"/><path class="cls-2" d="M323.18,164.55a8.34,8.34,0,0,0,1.7,4.77,7,7,0,0,0,6.49,2.57c2.47-.2,4-1.7,5.36-3.53.43-.58.83-1.17,1.29-1.83l5.55,3.08c-.64.92-1.21,1.82-1.86,2.66a12.86,12.86,0,0,1-7.52,5.06A15.37,15.37,0,0,1,323.11,176a12.6,12.6,0,0,1-6.22-8.44,18.7,18.7,0,0,1,.39-10.65c1.53-4.47,4.52-7.46,9.19-8.49a14.3,14.3,0,0,1,10.61,1.43,11.92,11.92,0,0,1,5.33,6.91,20.37,20.37,0,0,1,.84,7.23c0,.4-.16.46-.54.46q-9.59,0-19.18,0Zm.43-5.46.72,0h11.51c.39,0,.73-.11.53-.57a11.81,11.81,0,0,0-1.09-2.16,5.84,5.84,0,0,0-4.55-2.38,6.53,6.53,0,0,0-6.4,3.32A18.17,18.17,0,0,0,323.61,159.09Z"/><path class="cls-2" d="M280.24,169.63c-.76,1.05-1.42,2.07-2.18,3a12.54,12.54,0,0,1-7.3,4.71c-4,.83-7.87.62-11.45-1.55a12.62,12.62,0,0,1-5.51-7.18,19.42,19.42,0,0,1-.7-7.78,15.32,15.32,0,0,1,2.25-6.92,11.74,11.74,0,0,1,6.32-5,15.32,15.32,0,0,1,9.8,0,11.29,11.29,0,0,1,6.26,5,15,15,0,0,1,2.11,7.2c0,1,.06,1.92.11,2.88,0,.39-.14.54-.51.53l-1.39,0H260.58c-.78,0-.79,0-.68.82a7.56,7.56,0,0,0,3,5.36,7.32,7.32,0,0,0,5,1.24c2.43-.18,4-1.62,5.35-3.44.36-.49.67-1,1-1.5.12-.15.43-.34.54-.28C276.64,167.62,278.38,168.59,280.24,169.63Zm-7-10.56c-.31-.73-.53-1.36-.84-1.93a5.92,5.92,0,0,0-5.2-3.12,6.6,6.6,0,0,0-6.74,4.37c-.24.71-.22.75.53.75h11.45C272.67,159.13,272.88,159.1,273.25,159.07Z"/><path class="cls-2" d="M347.83,176.93c0-.41,0-.79,0-1.18q0-13,0-26c0-1.16,0-.93,1-.94,1.63,0,3.26,0,4.89,0,.2,0,.4,0,.67,0v2.33l1.8-1.53a7,7,0,0,1,5.21-1.58,10.43,10.43,0,0,1,4.45,1.41c.26.14.41.28.25.61-.92,1.81-1.82,3.62-2.74,5.44,0,0-.05,0-.11.1-.53-.28-1.06-.61-1.63-.83-2.86-1.14-5.94,0-6.77,3.65a18.53,18.53,0,0,0-.45,3.84c-.05,4.69,0,9.38,0,14.06,0,.16,0,.33,0,.54Z"/></g></g></g></svg>