<svg xmlns="http://www.w3.org/2000/svg" viewBox="0 0 20 20.02"><defs><style>.cls-1{fill:#007fc9;}</style></defs><title>Aweber</title><g id="Layer_2" data-name="Layer 2"><g id="Layer_1-2" data-name="Layer 1"><path class="cls-1" d="M0,4.6c.05-.31.09-.62.16-.93A4.74,4.74,0,0,1,3.8.14C4.19.07,4.58,0,5,0a29.4,29.4,0,0,0,.28,20,4.84,4.84,0,0,1-2.64-.49A4.68,4.68,0,0,1,.16,16.42c-.08-.31-.11-.64-.16-1Z"/><path class="cls-1" d="M20,10c0,1.82,0,3.64,0,5.45a4.44,4.44,0,0,1-1.21,3,4.62,4.62,0,0,1-2.69,1.49,5,5,0,0,1-.86.07H9.09a.24.24,0,0,1-.25-.16,21.31,21.31,0,0,1-1.73-5.37c-.17-1-.26-1.93-.36-2.89a20,20,0,0,1,0-3.5c.06-.87.16-1.74.28-2.61A18.22,18.22,0,0,1,7.84,2c.21-.6.45-1.19.69-1.79A.24.24,0,0,1,8.7,0a3.57,3.57,0,0,1,.44,0c2.07,0,4.14,0,6.22,0a4.56,4.56,0,0,1,4,2.46A4.32,4.32,0,0,1,20,4.71Q20,7.37,20,10Zm-12,0c0,.55.05,1.11.13,1.66s.21,1.38.37,2.05a9.72,9.72,0,0,0,1.07,2.65c.42.72.87,1.42,1.36,2.09a.75.75,0,0,0,1.17.1c.39-.32.4-.63.09-1.09S11.39,16.4,11,15.8a10.86,10.86,0,0,1-1.4-5.42c0-.73.05-1.47.13-2.2a9.25,9.25,0,0,1,.76-2.77,13.72,13.72,0,0,1,1.7-2.84.63.63,0,0,0,.08-.78.84.84,0,0,0-1.46-.05c-.25.34-.49.69-.72,1A12.44,12.44,0,0,0,8.45,6.47,14.2,14.2,0,0,0,8,10.07Zm4.24-.2c.06.61.1,1.22.19,1.83a9.2,9.2,0,0,0,1.64,3.78,2.16,2.16,0,0,0,.31.37.54.54,0,0,0,.76,0c.21-.18.23-.34.07-.62s-.24-.38-.37-.56a8.07,8.07,0,0,1-1.34-3.36,9.77,9.77,0,0,1,0-2.45,6.49,6.49,0,0,1,.65-2.32c.34-.66.77-1.28,1.14-1.93a.49.49,0,0,0,0-.39.58.58,0,0,0-1-.13A9.31,9.31,0,0,0,12.23,9.87Z"/></g></g></svg>