<svg xmlns="http://www.w3.org/2000/svg" viewBox="0 0 20 13.66"><defs><style>.cls-1{fill:#384a58;}</style></defs><title>Constant Contact</title><g id="Layer_2" data-name="Layer 2"><g id="Layer_1-2" data-name="Layer 1"><path class="cls-1" d="M9.55,7A24.14,24.14,0,0,1,12,6.5l1.09-.13a24.8,24.8,0,0,1,.84-2.62l-.11,0a25.07,25.07,0,0,0-3.35.88A24.59,24.59,0,0,0,9.55,7"/><path class="cls-1" d="M6.62,5.81C7,5.09,7.38,4.37,7.8,3.67c-.65.37-1.3.77-1.93,1.2-.48.7-.93,1.42-1.34,2.15.68-.44,1.38-.85,2.08-1.21"/><path class="cls-1" d="M9.06,7.12c.25-.77.54-1.54.86-2.3a25.52,25.52,0,0,0-3,1.3c-.33.68-.62,1.37-.89,2.06a22.85,22.85,0,0,1,3-1.07"/><path class="cls-1" d="M13.76,3.34l.36-.06A25.84,25.84,0,0,1,15.35.66a27.39,27.39,0,0,0-3.29,1,25.71,25.71,0,0,0-1.34,2.44,25.67,25.67,0,0,1,3-.77"/><path class="cls-1" d="M2.68,10c.21-.56.45-1.13.72-1.7-.45.33-.89.68-1.31,1C1.71,10,1.36,10.61,1,11.24c.53-.43,1.08-.84,1.64-1.22"/><path class="cls-1" d="M5.51,8.43c.24-.66.5-1.32.8-2a25.66,25.66,0,0,0-2.2,1.36c-.3.6-.58,1.21-.83,1.82A21.45,21.45,0,0,1,5.51,8.43"/><path class="cls-1" d="M13.55,6.32a24.44,24.44,0,0,1,3.94,0c.3-1,.61-2,1-3h-.17a24.11,24.11,0,0,0-3.85.32,24.31,24.31,0,0,0-.87,2.67"/><path class="cls-1" d="M18.27,2.91h.34A22.08,22.08,0,0,1,20,0a24,24,0,0,0-4.1.53A25.55,25.55,0,0,0,14.6,3.2a24.36,24.36,0,0,1,3.66-.28"/><path class="cls-1" d="M8.8,9.86c.49-.08,1-.15,1.47-.2.74-.08,1.49-.12,2.26-.14A21.53,21.53,0,0,1,13,6.8l-.93.12a23.85,23.85,0,0,0-2.67.55,22.22,22.22,0,0,0-.6,2.39"/><path class="cls-1" d="M2,12.3c.13-.52.29-1.06.47-1.59A20.74,20.74,0,0,0,.59,12.19c-.22.5-.42,1-.59,1.47A17,17,0,0,1,2,12.3"/><path class="cls-1" d="M8.35,9.94A22,22,0,0,1,8.91,7.6,22.43,22.43,0,0,0,5.85,8.74c-.24.68-.44,1.36-.6,2a21.43,21.43,0,0,1,3.1-.83"/></g></g></svg>