<svg xmlns="http://www.w3.org/2000/svg" viewBox="0 0 471 308"><defs><style>.cls-1{fill:#384a58;}.cls-2{fill:#fff;}</style></defs><title>Asset 3</title><g id="Layer_2" data-name="Layer 2"><g id="Layer_1-2" data-name="Layer 1"><rect class="cls-1" width="471" height="308"/><path class="cls-2" d="M127.48,160.28a7.25,7.25,0,0,0-5.55-2.26,9.83,9.83,0,0,0-7.48,3.4,12,12,0,0,0-2.87,7.92c0,4.48,3,7.49,7.42,7.49a9.89,9.89,0,0,0,7.49-3.38,11.86,11.86,0,0,0,2.89-7.9,7.75,7.75,0,0,0-1.9-5.26M119.56,173c-1.89,0-3.1-1.49-3.1-3.78,0-3,1.77-7.4,5-7.4,2.89,0,3,3.1,3,3.72,0,3.52-2.09,7.47-4.9,7.47"/><path class="cls-2" d="M111.08,172.36a.3.3,0,0,0-.14-.19.31.31,0,0,0-.24,0,12.84,12.84,0,0,1-3.69.52c-4.16,0-6.54-2.48-6.54-6.79a10.81,10.81,0,0,1,3.37-8.19,9.17,9.17,0,0,1,6-2.15,10.07,10.07,0,0,1,4.4.82.32.32,0,0,0,.25,0,.3.3,0,0,0,.17-.17l1.22-3.36a.29.29,0,0,0-.11-.34,10.89,10.89,0,0,0-5.42-1.16,14.52,14.52,0,0,0-14.93,15A10.42,10.42,0,0,0,98.24,174a10.66,10.66,0,0,0,7.69,2.82,16.16,16.16,0,0,0,6.42-1.13.3.3,0,0,0,.11-.46,7.79,7.79,0,0,1-1.39-2.87"/><path class="cls-2" d="M141.61,158a7.61,7.61,0,0,0-5.93,2.91l.25-2.19a.29.29,0,0,0-.07-.23.3.3,0,0,0-.22-.1h-3.69a.3.3,0,0,0-.29.25l0,.32c-.2,1.4-.45,3.15-.85,5.08l-2.25,12a.29.29,0,0,0,.06.24.29.29,0,0,0,.23.11h4.15a.3.3,0,0,0,.29-.24l1.5-8.05c.71-3.84,3-6.13,4.79-6.13,1.29,0,1.89.7,1.89,2.21a13.07,13.07,0,0,1-.21,2l-1.86,9.84a.29.29,0,0,0,.06.24.3.3,0,0,0,.23.11h4.15a.3.3,0,0,0,.29-.24L146,166.06a17.1,17.1,0,0,0,.33-3c0-3.13-1.82-5.09-4.74-5.09"/><path class="cls-2" d="M250.58,160.29A7.26,7.26,0,0,0,245,158a9.83,9.83,0,0,0-7.48,3.4,11.94,11.94,0,0,0-2.87,7.92c0,4.48,3,7.49,7.42,7.49a9.88,9.88,0,0,0,7.49-3.38,11.86,11.86,0,0,0,2.9-7.9,7.77,7.77,0,0,0-1.9-5.26M242.67,173c-1.89,0-3.1-1.49-3.1-3.78,0-3,1.77-7.4,5-7.4,2.89,0,3,3.1,3,3.72,0,3.52-2.09,7.47-4.89,7.47"/><path class="cls-2" d="M234,172.36a.3.3,0,0,0-.14-.19.31.31,0,0,0-.24,0,12.85,12.85,0,0,1-3.7.52c-4.16,0-6.54-2.48-6.54-6.79a10.81,10.81,0,0,1,3.37-8.19,9.17,9.17,0,0,1,6-2.15,10.09,10.09,0,0,1,4.4.82.3.3,0,0,0,.25,0,.29.29,0,0,0,.17-.17l1.22-3.36a.29.29,0,0,0-.11-.34,10.9,10.9,0,0,0-5.43-1.16,14.52,14.52,0,0,0-14.93,15,10.42,10.42,0,0,0,2.87,7.64,10.67,10.67,0,0,0,7.69,2.82,16.09,16.09,0,0,0,6.41-1.13.29.29,0,0,0,.17-.2.31.31,0,0,0-.06-.26,7.73,7.73,0,0,1-1.38-2.87"/><path class="cls-2" d="M264.84,158a7.62,7.62,0,0,0-5.93,2.91l.24-2.18a.28.28,0,0,0-.07-.23.3.3,0,0,0-.22-.1h-3.69a.29.29,0,0,0-.29.25l0,.32c-.2,1.4-.45,3.15-.85,5.08l-2.25,12a.3.3,0,0,0,.29.35h4.16a.29.29,0,0,0,.29-.24l1.5-8.05c.71-3.84,3-6.13,4.79-6.13,1.29,0,1.89.7,1.89,2.21a13.07,13.07,0,0,1-.21,2l-1.86,9.84a.28.28,0,0,0,.06.24.29.29,0,0,0,.22.11H267a.29.29,0,0,0,.29-.24l1.94-10.13a17.38,17.38,0,0,0,.33-3c0-3.14-1.82-5.09-4.74-5.09"/><path class="cls-2" d="M185.78,159.16a.29.29,0,0,0-.2-.34,18.84,18.84,0,0,0-5.35-.81,12.06,12.06,0,0,0-9.4,4,13.08,13.08,0,0,0-3.17,8.56c0,3.73,2.19,6.24,5.45,6.24a6.92,6.92,0,0,0,5.93-3.55c-.1,1.07-.19,2.06-.22,2.85a.3.3,0,0,0,.08.22.29.29,0,0,0,.21.09H183a.29.29,0,0,0,.29-.29v0a40.34,40.34,0,0,1,.71-7.84Zm-6.66,2.67a7.59,7.59,0,0,1,1.37.11l-.87,4.3c-.8,4.31-3.08,6.63-4.83,6.63-1.92,0-2.21-1.9-2.21-3,0-3.78,2.79-8,6.54-8"/><path class="cls-2" d="M197.76,158a7.62,7.62,0,0,0-5.93,2.91l.25-2.19a.29.29,0,0,0-.07-.23.3.3,0,0,0-.22-.1h-3.69a.29.29,0,0,0-.29.25l0,.3c-.2,1.4-.45,3.16-.85,5.09l-2.26,12a.3.3,0,0,0,.07.24.29.29,0,0,0,.23.11h4.15a.3.3,0,0,0,.29-.24l1.5-8.05c.71-3.84,3-6.13,4.79-6.13,1.29,0,1.89.7,1.89,2.21a13,13,0,0,1-.21,2l-1.86,9.84a.28.28,0,0,0,.06.24.28.28,0,0,0,.22.11h4.16a.3.3,0,0,0,.29-.24l1.93-10.12a17.32,17.32,0,0,0,.32-3c0-3.13-1.81-5.09-4.73-5.09"/><path class="cls-2" d="M311.27,158.73a9.74,9.74,0,0,0-3.66-.71,11.22,11.22,0,0,0-8.19,3.43,11.64,11.64,0,0,0-3.2,8.11c0,4.42,2.89,7.27,7.35,7.27a11.77,11.77,0,0,0,5.14-1,.3.3,0,0,0,.17-.28l-.14-3.22a.31.31,0,0,0-.14-.24.3.3,0,0,0-.27,0,8.66,8.66,0,0,1-3.6.8c-2.21,0-3.53-1.41-3.53-3.78,0-3.39,2.4-7,6.29-7a5.94,5.94,0,0,1,2.49.51.31.31,0,0,0,.24,0,.3.3,0,0,0,.16-.18l1.07-3.26a.3.3,0,0,0-.16-.36"/><path class="cls-2" d="M158.72,159a8.92,8.92,0,0,0-4.27-.94,8.34,8.34,0,0,0-5.25,1.67,5.5,5.5,0,0,0-2.09,4.35c0,1.91,1.21,3.53,3.59,4.8,1.8.94,2.13,1.55,2.13,2.42,0,1.06-1,1.82-2.39,1.85a9.12,9.12,0,0,1-4-1.12.29.29,0,0,0-.43.2l-.63,3.29a.29.29,0,0,0,.15.31,10.51,10.51,0,0,0,4.51,1h0a8.88,8.88,0,0,0,5.46-1.61,5.64,5.64,0,0,0,2.25-4.66c0-2.59-2.15-4.07-3.77-5s-2.1-1.37-2.1-2.14c0-1,1-1.75,2.35-1.75a6.65,6.65,0,0,1,3.11.75.28.28,0,0,0,.25,0,.28.28,0,0,0,.17-.18l1.07-3a.29.29,0,0,0-.13-.35"/><path class="cls-2" d="M166.64,173a.29.29,0,0,0-.3-.29h-.26c-.86,0-1.24-.4-1.24-1.28a14.25,14.25,0,0,1,.28-2.38l1.23-6.22h2.73a.3.3,0,0,0,.28-.2l1.11-3.22a.3.3,0,0,0,0-.27.3.3,0,0,0-.24-.12h-3.11l.91-4.72a.29.29,0,0,0-.09-.27.3.3,0,0,0-.28-.07l-4.33,1.26a.3.3,0,0,0-.21.23l-.68,3.57h-2.11a.3.3,0,0,0-.28.2l-1.11,3.22a.31.31,0,0,0,0,.27.3.3,0,0,0,.24.12h2.51l-1.32,6.81a14.64,14.64,0,0,0-.4,3.29c0,1.89,1.16,3.91,4.45,3.91a9.76,9.76,0,0,0,2.82-.37.31.31,0,0,0,.19-.24v-.1a.34.34,0,0,0,0-.18,6.49,6.49,0,0,1-.75-3"/><path class="cls-2" d="M323,159.13a.29.29,0,0,0-.24-.12h-3.1l.9-4.71a.3.3,0,0,0-.1-.27l-.07,0a.28.28,0,0,0-.21,0l-4.33,1.25a.31.31,0,0,0-.21.23L315,159h-2.12a.29.29,0,0,0-.28.2l-1.11,3.22a.31.31,0,0,0,0,.27.3.3,0,0,0,.24.12h2.51l-1.32,6.82a14.48,14.48,0,0,0-.4,3.29c0,1.89,1.17,3.91,4.45,3.91h0a9.75,9.75,0,0,0,2.82-.37.29.29,0,0,0,.19-.24l.4-3.29a.29.29,0,0,0-.09-.25.28.28,0,0,0-.25-.08,8.22,8.22,0,0,1-1.11.1h-.28c-.86,0-1.24-.39-1.24-1.28a14,14,0,0,1,.28-2.38l1.23-6.22h2.72a.3.3,0,0,0,.28-.2L323,159.4a.29.29,0,0,0,0-.27"/><path class="cls-2" d="M296.91,159.16a.29.29,0,0,0-.2-.34,18.82,18.82,0,0,0-5.35-.81,12.07,12.07,0,0,0-9.41,4,13.08,13.08,0,0,0-3.16,8.56c0,3.73,2.19,6.24,5.45,6.24a6.92,6.92,0,0,0,5.93-3.55c-.1,1.07-.19,2.06-.22,2.85a.3.3,0,0,0,.08.22.3.3,0,0,0,.21.09h3.87a.29.29,0,0,0,.29-.29.24.24,0,0,0,0,0,40.48,40.48,0,0,1,.71-7.84Zm-6.66,2.67a7.64,7.64,0,0,1,1.37.11l-.88,4.3c-.8,4.31-3.08,6.63-4.82,6.63-1.92,0-2.21-1.9-2.21-3,0-3.78,2.8-8,6.54-8"/><path class="cls-2" d="M277.43,173a.29.29,0,0,0-.3-.29h-.26c-.86,0-1.24-.4-1.24-1.28a14.38,14.38,0,0,1,.28-2.38l1.24-6.22h2.72a.29.29,0,0,0,.28-.2l1.11-3.22a.3.3,0,0,0,0-.27A.3.3,0,0,0,281,159h-3.12l.91-4.72a.3.3,0,0,0-.09-.27.3.3,0,0,0-.28-.07l-4.33,1.25a.29.29,0,0,0-.21.23l-.68,3.57h-2.9a.29.29,0,0,0-.26.15.3.3,0,0,0,0,.3,5.65,5.65,0,0,1,.58,3,.29.29,0,0,0,.29.32h1.55l-1.31,6.82a14.38,14.38,0,0,0-.4,3.29c0,1.89,1.17,3.91,4.45,3.91a9.75,9.75,0,0,0,2.82-.37.3.3,0,0,0,.2-.24v-.1a.28.28,0,0,0,0-.18,6.54,6.54,0,0,1-.76-3"/><path class="cls-2" d="M330,153.39a2.94,2.94,0,0,1-2.88,2.91,2.89,2.89,0,0,1-2.87-2.91,2.84,2.84,0,0,1,2.87-2.94,2.89,2.89,0,0,1,2.88,2.94m-.43,0a2.43,2.43,0,0,0-2.44-2.5,2.49,2.49,0,0,0-2.46,2.46,2.45,2.45,0,0,0,4.9,0m-1,1.53h-.84l-.61-1.33h-.42v1.33H326v-3.22h1.24c.6,0,1.36.16,1.37.89a.88.88,0,0,1-.71.88Zm-.79-2.29c0-.37-.35-.48-.77-.48h-.31v1H327c.43,0,.75-.08.77-.5"/><path class="cls-2" d="M214,159.13a.29.29,0,0,0-.24-.12H210.6l.91-4.71a.3.3,0,0,0-.09-.27.29.29,0,0,0-.28-.07l-4.33,1.25a.3.3,0,0,0-.21.23l-.68,3.57H203a.29.29,0,0,0-.26.15.28.28,0,0,0,0,.3,5.65,5.65,0,0,1,.58,3,.29.29,0,0,0,.29.32h1.56l-1.32,6.82c-.07.3-.12.58-.17.86a13.46,13.46,0,0,0-.23,2.43c0,1.89,1.17,3.91,4.45,3.91h0a9.76,9.76,0,0,0,2.82-.37.3.3,0,0,0,.19-.24l.39-3.29a.28.28,0,0,0-.09-.25.28.28,0,0,0-.25-.08,8.17,8.17,0,0,1-1.11.1h-.28c-.86,0-1.24-.4-1.24-1.28a14.06,14.06,0,0,1,.28-2.38l1-4.8h0l.28-1.42h2.73a.29.29,0,0,0,.28-.2L214,159.4a.29.29,0,0,0,0-.27"/><path class="cls-2" d="M359.9,164.54a77.72,77.72,0,0,1,7.93-1.59c1.14-.17,2.31-.31,3.5-.43a79.86,79.86,0,0,1,2.69-8.45l-.36.06a80.71,80.71,0,0,0-10.8,2.82,79.17,79.17,0,0,0-3,7.59"/><path class="cls-2" d="M350.49,160.74c1.15-2.34,2.43-4.65,3.8-6.88-2.1,1.2-4.19,2.49-6.21,3.85-1.55,2.25-3,4.57-4.31,6.93,2.18-1.41,4.44-2.72,6.71-3.91"/><path class="cls-2" d="M358.34,165c.79-2.48,1.72-5,2.77-7.39a82.14,82.14,0,0,0-9.61,4.18c-1.06,2.17-2,4.41-2.85,6.64a73.58,73.58,0,0,1,9.68-3.43"/><path class="cls-2" d="M373.46,152.79l1.15-.2a83.18,83.18,0,0,1,4-8.44,88.17,88.17,0,0,0-10.6,3.26,82.77,82.77,0,0,0-4.32,7.85,82.64,82.64,0,0,1,9.8-2.47"/><path class="cls-2" d="M337.8,174.31c.69-1.82,1.46-3.65,2.3-5.46-1.45,1.07-2.86,2.19-4.21,3.33-1.23,2-2.36,4-3.39,6.05,1.69-1.39,3.47-2.71,5.3-3.92"/><path class="cls-2" d="M346.92,169.17c.76-2.13,1.62-4.26,2.58-6.36a82.59,82.59,0,0,0-7.07,4.38c-1,1.93-1.87,3.9-2.67,5.86a69,69,0,0,1,7.17-3.89"/><path class="cls-2" d="M372.78,162.38a78.68,78.68,0,0,1,12.68-.07c1-3.36,2-6.55,3.09-9.53H388a77.62,77.62,0,0,0-12.39,1,78.27,78.27,0,0,0-2.82,8.58"/><path class="cls-2" d="M388,151.41h1.09a71.1,71.1,0,0,1,4.49-9.39,77.36,77.36,0,0,0-13.2,1.71,82.27,82.27,0,0,0-4.17,8.59,78.42,78.42,0,0,1,11.79-.91"/><path class="cls-2" d="M357.49,173.77c1.57-.27,3.16-.49,4.72-.66,2.37-.25,4.81-.4,7.26-.44a69.33,69.33,0,0,1,1.51-8.75c-1,.11-2,.24-3,.38a76.79,76.79,0,0,0-8.59,1.77,71.54,71.54,0,0,0-1.92,7.69"/><path class="cls-2" d="M335.48,181.64c.43-1.68.94-3.4,1.53-5.13a66.76,66.76,0,0,0-5.95,4.77c-.71,1.59-1.35,3.18-1.9,4.72a54.7,54.7,0,0,1,6.32-4.36"/><path class="cls-2" d="M356.06,174a70.66,70.66,0,0,1,1.8-7.52,72.22,72.22,0,0,0-9.85,3.66c-.76,2.2-1.41,4.39-1.93,6.54a69,69,0,0,1,10-2.68"/></g></g></svg>