<svg xmlns="http://www.w3.org/2000/svg" viewBox="0 0 471 308"><defs><style>.cls-1{fill:#242424;}.cls-2{fill:#3290d4;}.cls-3{fill:#1677be;}.cls-4{fill:#fff;}</style></defs><title>Asset 7</title><g id="Layer_2" data-name="Layer 2"><g id="Layer_1-2" data-name="Layer 1"><rect class="cls-1" width="471" height="308"/><path class="cls-2" d="M162.67,128.24l-37.13,37.13c-.49-.44-.88-.77-1.24-1.13L113,152.91c-1.14-1.14-1.4-1.13-2.57,0L86.57,176.5c-.35.35-.73.68-1.1,1l-.33-.13V176q0-21.81,0-43.63a4.24,4.24,0,0,1,2.12-4.15Zm-73.22,2.59c-.18.15-.49.31-.47.4a1.84,1.84,0,0,0,.4.88q9.21,9.24,18.46,18.45c.24.24.7.25,1.06.36-.12-.37-.12-.84-.36-1.08q-9.15-9.21-18.35-18.37C90,131.25,89.74,131.07,89.45,130.84Z"/><path class="cls-3" d="M165.3,130.17v1.16q0,22.2,0,44.4c0,3-1,4-4,4H87.9c.35-.41.57-.7.83-1q10.91-10.92,21.81-21.85c.9-.91,1.42-.89,2.3,0,3.58,3.67,7.22,7.27,10.85,10.89,1.55,1.55,2,1.56,3.56,0L164,131.08c.34-.34.62-.72.93-1.09Zm-4.15,47c.17-.16.39-.26.4-.38a1.06,1.06,0,0,0-.17-.69c-.68-.74-1.4-1.44-2.12-2.15q-8.21-8.21-16.43-16.4a3.6,3.6,0,0,0-1.16-.5c.13.39.14.9.41,1.16q9.1,9.17,18.25,18.28C160.56,176.75,160.85,176.94,161.15,177.19Z"/><path class="cls-4" d="M179.22,151.13a5,5,0,0,0,.43-.92,14.35,14.35,0,0,1,10.75-11.1c5.73-1.56,11-.77,15.33,3.76a32.61,32.61,0,0,1,2.13,2.8l-5.16,2.63a25.07,25.07,0,0,0-3.8-3.24c-4.85-2.7-11.32.36-12.67,5.82a10.76,10.76,0,0,0,1.62,9.37,8.58,8.58,0,0,0,13.95.06c.2-.27.44-.53.67-.81l5.31,2.63a13.78,13.78,0,0,1-6.48,6.12c-8,3.61-18.77-.56-21.39-9.51-.21-.7-.45-1.39-.68-2.09Z"/><path class="cls-4" d="M360.63,169c-2.68,0-5,0-7.38,0-.34,0-.74-.4-1-.72-2.83-3.67-5.63-7.36-8.55-11.2-1.11,1.33-2.53,2.26-2.38,4.29s0,4.29.06,6.43c0,1-.33,1.3-1.28,1.26-1.4-.06-2.8,0-4.2,0-.64,0-1-.17-1-.89q0-14.38,0-28.76c0-.08.07-.15.18-.4,1.79,0,3.66,0,5.52.05.24,0,.64.72.64,1.11.05,3.46,0,6.92,0,10.37,0,.41,0,.83.09,1.67,1-1.29,1.82-2.25,2.59-3.22,2.42-3,4.82-6.12,7.29-9.12a2.68,2.68,0,0,1,1.73-.84c1.83-.11,3.67,0,5.51,0,.33,0,.65.07,1.16.13L351,149.38c-.79.93-1.53,1.92-2.39,2.79-.64.66-.52,1.1,0,1.76,3.66,4.52,7.29,9.07,10.92,13.62C359.84,167.92,360.12,168.3,360.63,169Z"/><path class="cls-4" d="M219.73,169.52a11.18,11.18,0,0,1-11.58-11.45,11,11,0,0,1,11.47-11.37c6.8,0,11.69,4.72,11.66,11.34S226.64,169.44,219.73,169.52Zm-5.56-11.17c0,.18,0,.66.09,1.14a5.43,5.43,0,0,0,7,4.65c4.1-1.27,5.52-7.22,2.54-10.53a5,5,0,0,0-3.52-1.78C216.54,151.63,214.15,154.08,214.16,158.36Z"/><path class="cls-4" d="M284.86,160a5.42,5.42,0,0,0,3.71,4.54,8.14,8.14,0,0,0,7.39-1c.85-.54,1.27-.47,1.72.37a8.43,8.43,0,0,0,1.05,1.5c.82.95.42,1.51-.5,2a14.21,14.21,0,0,1-9.43,2c-6.81-1.12-10.73-6.09-9.77-13.12a10.26,10.26,0,0,1,7.42-9c4-1.24,7.74-.77,10.92,2.1,2.88,2.59,3.68,6,3.63,9.76,0,.92-.67.76-1.21.76H284.86Zm0-4.12c.19.09.31.18.42.18l9.31,0c1,0,.86-.65.65-1.26a5.05,5.05,0,0,0-5.46-3.59A5,5,0,0,0,284.9,155.83Z"/><path class="cls-4" d="M240,149.8a11.22,11.22,0,0,1,6.41-3.07c3.63-.44,6.53,1,7.62,3.95a9,9,0,0,1,.48,3c0,4.69,0,9.37,0,14.06,0,1-.27,1.33-1.26,1.29-1.43-.07-2.87,0-4.5,0,0-.6,0-1.06,0-1.52,0-3.77-.07-7.53,0-11.3.1-4.15-2.74-5-5.9-4-2,.62-3.2,1.49-3.07,4.21.17,3.8,0,7.62.06,11.43,0,.93-.29,1.24-1.21,1.19a26.78,26.78,0,0,0-3.28,0c-1,.06-1.28-.27-1.27-1.26,0-5.69,0-11.39,0-17.08,0-.79,0-1.58,0-2.36s.27-1.12,1.07-1.09a27,27,0,0,0,3.15,0c1.12-.09,1.67.25,1.51,1.45A6.2,6.2,0,0,0,240,149.8Z"/><path class="cls-4" d="M256.33,147.21c1.86,0,3.64-.06,5.41.05.33,0,.73.66.9,1.09,1.44,3.75,2.83,7.52,4.24,11.29.27.71.58,1.4.87,2.1l.36,0q1.12-3,2.24-5.94c1-2.53,1.92-5.06,2.83-7.61a1.27,1.27,0,0,1,1.45-1c1.6,0,3.2,0,5.07,0-.73,1.89-1.34,3.51-2,5.11-2.09,5.19-4.21,10.37-6.26,15.57a1.47,1.47,0,0,1-1.65,1.1c-1.31-.05-2.63.06-3.93-.05a1.87,1.87,0,0,1-1.36-.84c-2.74-6.66-5.42-13.36-8.1-20A3.8,3.8,0,0,1,256.33,147.21Z"/><path class="cls-4" d="M375,158.61c0-1.75,0-3.5,0-5.25,0-.91-.28-1.22-1.2-1.22-2.42,0-2.42,0-2.42-2.46,0,0,0-.09,0-.13,0-2.68-.2-2.39,2.29-2.33,1,0,1.41-.31,1.34-1.35s0-2.36,0-3.54c0-.73.23-1,1-1,1.22,0,2.45,0,3.68,0,.88,0,1.14.38,1.11,1.2,0,1.18,0,2.36,0,3.54,0,.85.34,1.22,1.18,1.15h.13c1,.09,2.68,0,2.8.32a12.92,12.92,0,0,1,.23,4c0,.22-.41.47-.67.62s-.43,0-.65,0c-3,0-3,0-3,3,0,2.23,0,4.47,0,6.7,0,2,1.15,2.85,3.1,2.29.78-.22,1,0,1.17.73a7.09,7.09,0,0,0,.57,2c.6,1.06.06,1.44-.78,1.87a7.59,7.59,0,0,1-5.86.51c-2.82-.89-3.95-2.75-4-5.79C375,161.85,375,160.23,375,158.61Z"/><path class="cls-4" d="M321.93,158.58c0-1.75,0-3.5,0-5.25,0-.82-.21-1.16-1.11-1.18-2.52,0-2.52-.08-2.52-2.63a4.21,4.21,0,0,0,0-.66c-.21-1.34.34-1.76,1.67-1.69,1.94.11,1.94,0,1.94-2a23.46,23.46,0,0,1,0-2.88,1.32,1.32,0,0,1,.84-.93,24.22,24.22,0,0,1,3.93,0,1.32,1.32,0,0,1,.88.92,37.21,37.21,0,0,1,0,3.8c0,.77.3,1.13,1.09,1.11a11.07,11.07,0,0,1,2.36,0c.36.07.65.57.93.91.09.11,0,.34,0,.51-.06,1.08.26,2.46-.29,3.15s-1.93.31-3,.32c-.86,0-1.15.38-1.14,1.2,0,2.8,0,5.6,0,8.4,0,2.12,1.09,2.93,3.14,2.38.69-.19,1,0,1.12.65a7.69,7.69,0,0,0,.23.89c.83,2.59.6,3.17-2,3.7a7.73,7.73,0,0,1-5.37-.55,5.5,5.5,0,0,1-2.83-5.12C321.89,162,321.93,160.28,321.93,158.58Z"/><path class="cls-4" d="M309.58,149.74c1.17-.77,2.18-1.45,3.19-2.1a5.71,5.71,0,0,1,.83-.39c2.47-1.07,2.83-.85,2.82,1.8,0,.92.28,2.07-.16,2.68s-1.63.34-2.48.55a12.39,12.39,0,0,0-2.36.78,3,3,0,0,0-1.95,3.07c.12,3.81,0,7.62.06,11.43,0,1-.22,1.53-1.36,1.43a27.92,27.92,0,0,0-3.28,0c-.75,0-1.11-.17-1.1-1q0-9.79,0-19.58c0-.94.36-1.24,1.25-1.19a18.56,18.56,0,0,0,2.89,0c1.29-.13,1.77.37,1.6,1.63A5.39,5.39,0,0,0,309.58,149.74Z"/><path class="cls-4" d="M362.4,158.22c0-3.15.06-6.3,0-9.45,0-1.31.42-1.7,1.66-1.59a23.4,23.4,0,0,0,3,0c.8,0,1.08.3,1.08,1.09q0,9.85,0,19.69c0,.73-.23,1-1,1-1.22,0-2.45-.05-3.67,0-.91,0-1.1-.36-1.09-1.17C362.42,164.61,362.4,161.42,362.4,158.22Z"/><path class="cls-4" d="M368.6,142.31a3.51,3.51,0,0,1-3.46,3.41,3.56,3.56,0,0,1-3.36-3.39,3.49,3.49,0,0,1,3.47-3.39A3.45,3.45,0,0,1,368.6,142.31Z"/></g></g></svg>