<svg xmlns="http://www.w3.org/2000/svg" viewBox="0 0 20 12.85"><defs><style>.cls-1{fill:#3290d4;}.cls-2{fill:#1677be;}</style></defs><title>Convertkit</title><g id="Layer_2" data-name="Layer 2"><g id="Layer_1-2" data-name="Layer 1"><path class="cls-1" d="M19.34,0,10.08,9.26,9.77,9,6.94,6.15c-.28-.28-.35-.28-.64,0L.36,12l-.27.25-.08,0v-.34Q0,6.48,0,1A1.06,1.06,0,0,1,.53,0ZM1.08.65S1,.72,1,.75a.46.46,0,0,0,.1.22l4.61,4.6c.06.06.18.06.27.09s0-.21-.09-.27L1.27.8Z"/><path class="cls-2" d="M20,.48V.77q0,5.54,0,11.08c0,.76-.25,1-1,1H.69c.09-.1.14-.18.21-.24Q3.62,9.89,6.34,7.16c.22-.23.36-.22.57,0,.89.91,1.8,1.81,2.71,2.72.39.39.5.39.89,0L19.68.71c.08-.08.16-.18.23-.27ZM19,12.21s.1-.07.1-.09a.26.26,0,0,0,0-.17c-.17-.18-.35-.36-.53-.54l-4.1-4.09a.9.9,0,0,0-.29-.13c0,.1,0,.22.1.29L18.76,12C18.82,12.1,18.89,12.15,19,12.21Z"/></g></g></svg>