<svg xmlns="http://www.w3.org/2000/svg" xmlns:xlink="http://www.w3.org/1999/xlink" viewBox="0 0 20 12.6"><defs><style>.cls-1{fill:#fff;}.cls-2{fill:url(#linear-gradient);}</style><linearGradient id="linear-gradient" x1="19.88" y1="12.75" x2="2.77" y2="1.59" gradientUnits="userSpaceOnUse"><stop offset="0" stop-color="#0090d4"/><stop offset="1" stop-color="#00aee5"/></linearGradient></defs><title>Get Response</title><g id="Layer_2" data-name="Layer 2"><g id="Layer_1-2" data-name="Layer 1"><rect class="cls-1" x="0.83" width="19.15" height="10.5"/><path class="cls-2" d="M19.45,0c0,.24.14.55,0,.71-1.81,2.62-3.93,4.9-7,6a6.88,6.88,0,0,1-9-4.27c-.15-.47-.3-.8-.83-.66A.94.94,0,0,0,1.87,3,8.18,8.18,0,0,0,8.25,9.74a8.4,8.4,0,0,0,7.8-2.34C17.49,6,18.68,4.43,20,2.92v.67c0,2.7,0,5.4,0,8.1,0,.67-.25.92-.86.92h-.45c-5.82,0-11.64,0-17.45,0A4.82,4.82,0,0,1,0,12.24V0Z"/></g></g></svg>