<svg xmlns="http://www.w3.org/2000/svg" xmlns:xlink="http://www.w3.org/1999/xlink" viewBox="0 0 471 308"><defs><style>.cls-1{fill:#00222c;}.cls-2{fill:#fff;}.cls-3{fill:url(#linear-gradient);}</style><linearGradient id="linear-gradient" x1="140.44" y1="172.39" x2="87.95" y2="138.14" gradientUnits="userSpaceOnUse"><stop offset="0" stop-color="#0090d4"/><stop offset="1" stop-color="#00aee5"/></linearGradient></defs><title>Asset 8</title><g id="Layer_2" data-name="Layer 2"><g id="Layer_1-2" data-name="Layer 1"><rect class="cls-1" width="471" height="308"/><rect class="cls-2" x="82" y="133.27" width="58.78" height="32.21"/><path class="cls-3" d="M139.11,133.27c.05.73.43,1.7.11,2.17-5.54,8-12.05,15-21.48,18.53A21.1,21.1,0,0,1,90,140.85c-.47-1.43-.93-2.44-2.55-2a2.88,2.88,0,0,0-2.29,3.48,25.11,25.11,0,0,0,19.58,20.82c9.3,1.92,17.29-.92,23.93-7.19,4.4-4.15,8.05-9.1,12.07-13.73v2c0,8.28-.06,16.56,0,24.84,0,2-.76,2.83-2.65,2.83h-1.38c-17.85,0-35.7,0-53.55,0a14.78,14.78,0,0,1-3.79-1.06V133.27Z"/><path class="cls-2" d="M173.17,152.39a6.66,6.66,0,0,1,1-.32c7.36-.13,7-.49,6.89,6.46,0,2.66,0,5.32,0,8.4-1.89-.63-4.4,1.77-5.18-1.86-8.61,4.75-16.52,1-19.55-4.36-3.6-6.43-2.66-14.71,3.31-19.54,5.4-4.37,15.2-3.85,19.35.86l-2.5,3.45a48.9,48.9,0,0,0-7-1.77c-4.31-.43-7.56,1.75-8.79,5.44-1.29,3.88,0,8.83,2.8,11,3.18,2.42,8.17,2.54,11.21,0,.63-.53.46-2,.66-3C171.89,156.7,174,154,173.17,152.39Z"/><path class="cls-2" d="M224.71,156.77v10h-4.94V139c4.25,0,8.49-.4,12.61.12,3.91.49,5.73,3.75,6,7.4a7.93,7.93,0,0,1-4.32,8.08l5.29,8.15.7-.45v4.31c-4.75.79-5.6.39-7.73-3.59a34.6,34.6,0,0,1-1.76-3.42C229.58,157.05,227.93,155.77,224.71,156.77Zm.15-5.15c2.65-.59,5.76,1.2,7.06-2.07a5.57,5.57,0,0,0-.31-4.53c-1.7-2.46-4.42-.89-6.75-1.24Z"/><path class="cls-2" d="M282.78,151.46c-3.5-.39-1.9-2.85-2.27-5,2.75.52,5.56-1.14,7.71,1.52,5.05-3,9.5-2.66,12.61.87,3.41,3.87,3.51,11.21.21,15.46-2.44,3.14-7.34,3.75-12.29,1.23,0,2.43-.13,4.66,0,6.86.18,2.49-1.37,2.32-3,2.29s-3.1.31-3-2.24C282.87,165.59,282.78,158.7,282.78,151.46Zm14.9,5.26c0-3.91-1.42-5.72-4.56-5.77-2.78,0-5,2.4-4.8,5.71.23,3.71,1.77,5.83,4.75,5.88S297.67,160.43,297.68,156.72Z"/><path class="cls-2" d="M352.82,162V167a42.57,42.57,0,0,1-5.49,0c-2.12-.28-2.65-2-2.68-3.87,0-2.76.13-5.53-.08-8.28-.09-1.18-.68-3.07-1.44-3.3-1.25-.38-3.43-.16-4.15.7a12,12,0,0,0-2.53,5.73c-.41,2.87-.11,5.84-.11,8.92h-5.52c0-4,.06-8,0-12,0-1.46.82-3.3-1.71-4-.52-.14-.43-2.46-.7-4.31,3,.58,6-1.37,8.27,2.07,2.88-2.19,6.1-3.58,9.85-1.93a5.58,5.58,0,0,1,3.67,5.57c0,2.3,0,4.6,0,6.9C350.08,160.88,350.05,162.55,352.82,162Z"/><path class="cls-2" d="M305.4,156.54c-.63-5.86,5.76-10.84,11.1-10.59,7.4.35,11.49,5,11.36,10.79-.14,6.35-4.33,10.48-11.29,10.59C310,167.43,305,162.85,305.4,156.54Zm16.62.35c0-3.8-1.92-5.93-5.46-6s-5.58,2.1-5.63,5.55,2.24,6,5.51,6.06S322,160.35,322,156.9Z"/><path class="cls-2" d="M391.51,157.71H378c.36,5.17,5.06,6.25,11,2.65l2.16,3.55c-4.7,4.49-12.69,4.43-16.59.06a10.88,10.88,0,0,1,1.25-15.81,10,10,0,0,1,11-1.1C390.91,149.34,391.79,153.06,391.51,157.71Zm-13.53-4h7.65l.48-.64c-1.16-.88-2.21-2.23-3.5-2.52C380.49,150,378.79,151.1,378,153.66Z"/><path class="cls-2" d="M260.36,157.67H247.06c.54,5.26,5.42,6.37,10.74,2.76.16.05.39.05.47.16,2.65,3.82,2.61,4.25-1.78,5.85-7.51,2.74-15.3-1.18-15.56-9.76-.2-6.52,4.82-11.19,11.46-10.72C258.13,146.37,261.6,152.05,260.36,157.67Zm-13.2-4.19h7.63l.38-1c-1.37-.71-2.69-1.83-4.13-2A3.41,3.41,0,0,0,247.16,153.48Z"/><path class="cls-2" d="M202.46,157.7H189.34c.49,5.26,4.36,6.2,11.08,2.7l2.17,3.6c-6.13,5.72-16.59,3.68-18.88-4-1.32-4.43.35-10.13,4-12.32,4.74-2.8,9.51-2.25,12.87,1.49C202.77,151.52,203,154.34,202.46,157.7Zm-5.33-4.1c-.38-2.35-1.57-3.35-3.76-3.23s-3.78.83-4.15,3.23Z"/><path class="cls-2" d="M369.85,152.57c-2.09-.12-4.17.83-5.53-1.62-.29-.52-1.85-.47-2.8-.41a1.77,1.77,0,0,0-1.3,1.1,1.84,1.84,0,0,0,.89,1.46c1.69.85,3.47,1.5,5.19,2.28,3.25,1.47,4.64,3.63,4.3,6.55-.29,2.47-2.58,4.39-5.71,5.06-4.19.89-7.67-.33-10.89-3.44l2.32-3.11a36.74,36.74,0,0,0,5.53,2.12c.93.2,2.07-.54,3.12-.85a10.28,10.28,0,0,0-2-2.1c-1.4-.82-3-1.31-4.43-2.05-2.61-1.34-4.38-3.24-4-6.49a6,6,0,0,1,5.54-4.9,18.11,18.11,0,0,1,7,.64C369.61,147.55,370.46,149.7,369.85,152.57Z"/><path class="cls-2" d="M278.08,152.55c-1.78-.41-4.05,1.36-5.25-1.66-.19-.47-2-.42-3-.36-.37,0-1.06,1-1,1.14a7.06,7.06,0,0,0,2,2c1.68.88,3.52,1.43,5.21,2.29,2.2,1.13,3.6,3,3.32,5.51a6.23,6.23,0,0,1-4.8,5.4A12.14,12.14,0,0,1,264,164.92c-1.24-.85-1.54-1.73-.35-2.88.86-.84,1.13-2.67,3.07-1a9.88,9.88,0,0,0,4.48,1.77c.69.13,1.57-.8,2.37-1.24-.54-.61-1-1.42-1.65-1.79-1.58-.87-3.29-1.48-4.91-2.28-2.47-1.22-4.12-3.05-3.8-6a5.38,5.38,0,0,1,5-5,17,17,0,0,1,6.41.12C278.11,147.44,278.58,148.55,278.08,152.55Z"/><path class="cls-2" d="M203.82,150.78v-4l2.7-.52v-5.11H212v5.2c2.89,0,5.61.18,4.2,4.44l-4.13.27c0,2.71-.19,5.45.05,8.15s2.35,2.91,4.7,2.82v4.57c-6.56,1.32-10.29-1.65-10.29-8.17,0-2.38,0-4.76,0-7.32Z"/></g></g></svg>