<svg xmlns="http://www.w3.org/2000/svg" viewBox="0 0 20 20.03"><defs><style>.cls-1{fill:#ccc;}.cls-2{fill:#518ef8;}.cls-3{fill:#28b446;}.cls-4{fill:#f2f2f2;}.cls-5{fill:#ffd837;}.cls-6{fill:#fff;}.cls-7{fill:#f14336;}.cls-8{fill:#7e2d25;}</style></defs><title>Google Map</title><g id="Layer_2" data-name="Layer 2"><g id="Layer_1-2" data-name="Layer 1"><path class="cls-1" d="M17.66,9.37v8.52L15,17.4,13.81,16l-5-5.53,4.22-3c2.11,2.79,2.18,2.11,2.18,2.11a1.47,1.47,0,0,1,2.38-.22Z"/><path class="cls-2" d="M7.45,8.73,16.22,20H1.72Z"/><path class="cls-3" d="M13.05,7.45,0,18.44V4A1.59,1.59,0,0,1,1.59,2.37h9.52c-.41.7,1.11,1.15,1.11,2A7.61,7.61,0,0,0,13.05,7.45Z"/><path class="cls-4" d="M17.66,17.89v.55A1.59,1.59,0,0,1,16.22,20L8.88,12.78,10.66,11l4.1,4,.23.22Z"/><path class="cls-5" d="M12.6,9l-1.95,2-1.78,1.8L1.72,20H1.59A1.6,1.6,0,0,1,0,18.44L11.12,7.17c.21.36,1.64,0,1.93.28l.53.69C13.85,8.42,12.38,8.71,12.6,9Z"/><path class="cls-6" d="M4.17,8.91A2.54,2.54,0,1,1,6,4.58l-.59.59a1.71,1.71,0,1,0,.45,1.62H4.17V6H6.71v.42A2.54,2.54,0,0,1,4.17,8.91Z"/><path class="cls-7" d="M11.11,2.37A4.76,4.76,0,1,1,18.6,8.14a10.89,10.89,0,0,0-1,1.2,15.46,15.46,0,0,0-2.38,5.82A15.31,15.31,0,0,0,12.6,9a10.86,10.86,0,0,0-.73-.86h0a4.77,4.77,0,0,1-.76-5.77Z"/><path class="cls-8" d="M15.24,2.23A2.54,2.54,0,1,1,12.7,4.76,2.54,2.54,0,0,1,15.24,2.23Z"/></g></g></svg>