<svg xmlns="http://www.w3.org/2000/svg" viewBox="0 0 20 27.61"><defs><style>.cls-1{fill:#28b446;}.cls-2{fill:#219b38;}.cls-3{fill:#6ace7c;}.cls-4{fill:#fff;}</style></defs><title>Google Sheets</title><g id="Layer_2" data-name="Layer 2"><g id="Layer_1-2" data-name="Layer 1"><path class="cls-1" d="M20,7.56V25.84a1.78,1.78,0,0,1-1.78,1.78H1.78A1.78,1.78,0,0,1,0,25.84V1.78A1.78,1.78,0,0,1,1.78,0H12.44Z"/><polygon class="cls-2" points="13.47 7.4 20 10.09 20 7.56 16.3 6.47 13.47 7.4"/><path class="cls-3" d="M20,7.56H14.22a1.78,1.78,0,0,1-1.78-1.78V0Z"/><path class="cls-4" d="M14.37,13.75H5.62a.57.57,0,0,0-.57.57v7.61a.57.57,0,0,0,.57.57h8.75a.57.57,0,0,0,.57-.57V14.32A.57.57,0,0,0,14.37,13.75ZM6.19,17.4H9.43v1.44H6.19Zm4.38,0h3.24v1.44H10.57Zm3.24-1.14H10.57V14.89h3.24v1.38ZM9.43,14.89v1.38H6.19V14.89ZM6.19,20H9.43v1.38H6.19Zm4.38,1.38V20h3.24v1.38Z"/></g></g></svg>