<?xml version="1.0" encoding="UTF-8" standalone="no"?>
<!DOCTYPE svg PUBLIC "-//W3C//DTD SVG 1.1//EN" "http://www.w3.org/Graphics/SVG/1.1/DTD/svg11.dtd">
<svg width="24px" height="25.85px" viewBox="0 0 298 321" version="1.1" xmlns="http://www.w3.org/2000/svg" xmlns:xlink="http://www.w3.org/1999/xlink" xml:space="preserve" xmlns:serif="http://www.serif.com/" style="fill-rule:evenodd;clip-rule:evenodd;stroke-linejoin:round;stroke-miterlimit:1.41421;"><g id="Layer-1" serif:id="Layer 1"><path d="M298,49.67m0,0l-0.01,3.02c-0.25,43.97 -1.83,94.11 -16.62,139.11c-1.12,3.41 -2.31,6.79 -3.59,10.14c-18.32,48.01 -50.33,82.28 -99.72,106.22c-8.661,4.2 -17.86,8.09 -27.621,11.67l-1.439,0.53l-1.44,-0.53c-65.35,-24 -105.81,-61.46 -127.34,-117.89c-18.12,-47.51 -19.93,-101.95 -20.21,-149.25l-0.01,-3.02l149,-49.67l149,49.67Zm-136.728,96.769c0.007,6.9 -5.644,12.66 -12.448,12.689c-6.846,0.029 -12.867,-5.925 -12.833,-12.689c0.036,-6.958 5.829,-12.667 12.82,-12.632c6.872,0.034 12.453,5.692 12.461,12.632Zm59.983,-1.015c0.059,-4.96 -4.15,-9.307 -9.137,-9.435c-4.982,-0.127 -9.356,4.091 -9.415,9.079c-0.061,5.305 4.078,9.617 9.243,9.627c4.93,0.011 9.25,-4.293 9.309,-9.271Zm-125.945,0c0.059,-4.96 -4.15,-9.307 -9.138,-9.435c-4.981,-0.127 -9.356,4.091 -9.414,9.079c-0.061,5.305 4.078,9.617 9.242,9.627c4.93,0.011 9.251,-4.293 9.31,-9.271Z" style="fill:#fdbc24;"/><path d="M199.351,109.33c-0.42,-5.491 4.229,-12.472 12.4,-12.771c6.798,-0.249 12.829,5.832 12.857,12.688c0.028,6.863 -5.91,12.811 -12.771,12.789c-6.792,-0.022 -12.466,-5.797 -12.486,-12.706" style="fill:#091521;fill-rule:nonzero;"/><path d="M98.627,182.351c-0.059,7.195 -5.549,12.73 -12.625,12.729c-6.847,-0.002 -12.557,-5.735 -12.559,-12.612c-0.003,-6.949 5.829,-12.531 12.86,-12.588c7.234,-0.058 12.794,6.87 12.324,12.471" style="fill:#091521;fill-rule:nonzero;"/><path d="M73.418,109.33c-0.42,-5.491 4.229,-12.472 12.4,-12.771c6.798,-0.249 12.829,5.832 12.857,12.688c0.028,6.863 -5.91,12.811 -12.77,12.789c-6.793,-0.022 -12.467,-5.797 -12.487,-12.706" style="fill:#091521;fill-rule:nonzero;"/><path d="M193.258,162.942c-0.1,6.78 -6.089,12.688 -12.723,12.546c-6.934,-0.148 -12.716,-6.089 -12.608,-12.954c0.106,-6.747 6.117,-12.771 12.767,-12.513c8.567,0.332 12.835,7.436 12.564,12.921" style="fill:#091521;fill-rule:nonzero;"/><path d="M167.932,90.744c-0.025,-6.893 5.831,-12.796 12.717,-12.819c6.742,-0.023 12.571,5.819 12.612,12.638c0.04,6.802 -5.729,12.744 -12.438,12.807c-6.919,0.066 -12.867,-5.759 -12.891,-12.626" style="fill:#091521;fill-rule:nonzero;"/><path d="M104.894,163.681c-0.347,-6.432 5.828,-12.48 12.405,-12.518c6.995,-0.04 12.838,5.833 12.8,12.713c-0.031,5.77 -4.45,12.527 -12.888,12.61c-6.882,0.068 -12.382,-5.797 -12.317,-12.805" style="fill:#091521;fill-rule:nonzero;"/><path d="M199.353,181.403c-0.017,-7.031 5.442,-12.361 12.416,-12.66c5.535,-0.238 12.745,4.521 12.824,12.614c0.069,6.89 -5.876,12.788 -12.78,12.7c-7.999,-0.102 -12.915,-7.238 -12.46,-12.654" style="fill:#091521;fill-rule:nonzero;"/><path d="M193.26,198.724c0.019,6.779 -5.776,12.715 -12.476,12.78c-6.87,0.066 -12.83,-5.814 -12.859,-12.687c-0.028,-6.743 5.783,-12.68 12.515,-12.784c6.801,-0.106 12.8,5.833 12.82,12.691" style="fill:#091521;fill-rule:nonzero;"/><path d="M130.155,198.724c0.019,6.779 -5.776,12.715 -12.476,12.78c-6.87,0.066 -12.83,-5.814 -12.859,-12.687c-0.028,-6.743 5.783,-12.68 12.515,-12.784c6.801,-0.106 12.8,5.833 12.82,12.691" style="fill:#091521;fill-rule:nonzero;"/><path d="M193.261,126.772c-0.043,6.812 -5.804,12.587 -12.609,12.643c-6.827,0.055 -12.782,-5.935 -12.728,-12.805c0.052,-6.755 5.917,-12.629 12.644,-12.661c6.863,-0.033 12.736,5.9 12.693,12.823" style="fill:#091521;fill-rule:nonzero;"/><path d="M104.828,90.744c-0.024,-6.893 5.832,-12.796 12.717,-12.819c6.743,-0.023 12.571,5.819 12.612,12.638c0.041,6.802 -5.729,12.744 -12.437,12.807c-6.92,0.066 -12.868,-5.759 -12.892,-12.626" style="fill:#091521;fill-rule:nonzero;"/><path d="M130.157,126.772c-0.042,6.812 -5.803,12.587 -12.609,12.643c-6.826,0.055 -12.781,-5.935 -12.728,-12.805c0.053,-6.755 5.918,-12.629 12.645,-12.661c6.863,-0.033 12.736,5.9 12.692,12.823" style="fill:#091521;fill-rule:nonzero;"/></g></svg>