<svg xmlns="http://www.w3.org/2000/svg" viewBox="0 0 20 22.03"><defs><style>.cls-1{fill:#f7792e;}</style></defs><title>Hubspot</title><g id="Layer_2" data-name="Layer 2"><g id="Layer_1-2" data-name="Layer 1"><g id="WpU563.tif"><path class="cls-1" d="M6.79,22a5.64,5.64,0,0,1-1.07-.73,1.6,1.6,0,0,1-.14-1.88,1.7,1.7,0,0,1,1.78-.85A.61.61,0,0,0,8,18.35c.59-.62,1.2-1.22,1.83-1.86A5.4,5.4,0,0,1,8.7,12.74a5.24,5.24,0,0,1,1.67-3.56L10,8.88,3.7,4.4a.53.53,0,0,0-.43-.09A2.28,2.28,0,0,1,.05,2.65s0,0-.05-.07q0-.32,0-.64a.43.43,0,0,0,.08-.11A2.33,2.33,0,0,1,2.54,0a2.28,2.28,0,0,1,2,2.63A.5.5,0,0,0,4.69,3q3.38,2.56,6.77,5.1a.48.48,0,0,0,.36.09c.55-.17,1.09-.36,1.67-.56,0-.73,0-1.48,0-2.22a.74.74,0,0,0-.27-.5,2,2,0,1,1,3.06-2.33,2,2,0,0,1-.79,2.3c-.13.09-.3.26-.3.39,0,.79,0,1.58,0,2.4l.42.1a5.51,5.51,0,0,1,4.3,4.33l.13.52v.92a2.29,2.29,0,0,0-.09.3,5.29,5.29,0,0,1-2.09,3.53,5.86,5.86,0,0,1-6.5.34.43.43,0,0,0-.65.08c-.52.56-1.09,1.07-1.61,1.63a1,1,0,0,0-.23.62,1.69,1.69,0,0,1-.52,1.41,6,6,0,0,1-.88.54Zm7.55-11.85a3.08,3.08,0,0,0-3,3,3.09,3.09,0,0,0,3,2.93,3.15,3.15,0,0,0,3-2.93A3,3,0,0,0,14.34,10.18Z"/></g></g></g></svg>