<svg xmlns="http://www.w3.org/2000/svg" viewBox="0 0 471 308"><defs><style>.cls-1{fill:#009cbb;}.cls-2{fill:#684c46;}.cls-3{fill:#f5dcba;}.cls-4{fill:#0788bf;}.cls-5{fill:#46b8e3;}.cls-6{fill:#ffd14f;}.cls-7{fill:#122030;}.cls-8{fill:#fff;}.cls-9{fill:#eabe8d;}.cls-10{fill:#9c7356;}</style></defs><title>Asset 1</title><g id="Layer_2" data-name="Layer 2"><g id="Layer_1-2" data-name="Layer 1"><rect class="cls-1" width="471" height="308"/><path class="cls-2" d="M298.91,183.4c-.11.35-10.19,39.11-49.82,39.1-34.25,0-50.49-29.78-50.49-29.78a17.75,17.75,0,0,1-7.13-1.07c-10-3.69-14.87-15.19-11.4-24.83l-5.52-4.22c-21.4-16.3,39.21-90.88,60.65-74l5.12,4.12c7.7-4.67,15.32-7.2,21.51-7.2,4.4,0,8.08,1.27,10.56,4,5.56,6,3.56,17.52-4,29.17a19.12,19.12,0,0,1,4,5.75c2.41,1.86,4,4.7,4.76,8.61.87,4.35,1,10.55,1.59,13.21,2,.92,1.18.5,3.36,1.59a29.82,29.82,0,0,1,8.11,5.47c5.45,1.36,7.53,7.16,4.34,11.11-.09.11-.47.56-.87,1a20.49,20.49,0,0,1,1.89,5.39,7.2,7.2,0,0,1,5,3.94C302.12,178.65,298.91,183.4,298.91,183.4ZM283.2,212.67v1.62h.62v-1.62h.64v-.51h-1.88v.51Zm1.45-.51v2.13h.57v-1.54l.46,1.54h.48l.46-1.55v1.55h.57v-2.13h-.89l-.38,1.23-.39-1.23Z"/><path class="cls-3" d="M206.69,168.81h0a33.93,33.93,0,0,0,1.3-4,25.25,25.25,0,0,1,1.29,9.41h0a19.37,19.37,0,0,0,1.7-3.14c1.52,9-5,17.18-13.64,17.18-7.66,0-13.86-6.53-13.86-14.59s6.21-14.59,13.86-14.59a13.23,13.23,0,0,1,5.58,1.23S205.86,161.79,206.69,168.81Zm75.43,31.63c10.75-8.44,12.62-18.61,12.8-19,2.64-3.17,1.93-6.3-1.57-6.3a6.53,6.53,0,0,0-2,.29,18.27,18.27,0,0,0-2.13-8.23A43.07,43.07,0,0,1,277,175.63,56.49,56.49,0,0,1,254.56,181h0c-2.61.11-4.22-.31-5.13,2.73a6.28,6.28,0,0,0,.05,3.13c.74,2.52,2.66,3.63,5.18,4.22a22,22,0,0,0,4,.49c18.9.53,34.08-14.21,34.26-14.33a2.89,2.89,0,0,0,.32-.31l-.19.44c-2.73,6.14-18.54,17.27-34.27,17l-.05,0c-3.65,0-8.08-1-10.39-3.81-3.65-4.52-1.75-12,4.06-12.22l1.94,0c14.39-.44,27.3-5.73,36.55-16.77,1.27-1.58-.15-3.75-2.9-3.81a.09.09,0,0,1-.06,0,26.46,26.46,0,0,0-8.69-6c-5.36-2.73-4.85-.37-6.1-13.61-.34-3.57-1-8.43-4.15-10.3a5.1,5.1,0,0,0-2.65-.7,4.92,4.92,0,0,0-1.55.23,8.17,8.17,0,0,0-3.92,2.48c-5.78,5.33-10.4,3.88-17.29,3.82a13.24,13.24,0,0,0-13.28,11.4h0a22.39,22.39,0,0,0,.38,9,14.41,14.41,0,0,1-2.59-2.2c1,6.34,6.79,10.48,6.79,10.48a9.42,9.42,0,0,1-2.22.12,24.2,24.2,0,0,0,6.16,3.52,23.68,23.68,0,0,0-6.46,9.3,25.16,25.16,0,0,0-1.08,10.54l1.58-2.35a20.65,20.65,0,0,0,1,10.33c.66-1.51,2.11-4.21,2.11-4.21a21.12,21.12,0,0,0,2.48,10.25c.07-1.06.48-3.78.48-3.78A21.84,21.84,0,0,0,244,204C250.73,210,268.55,211.1,282.12,200.44Z"/><path class="cls-4" d="M182.15,162.7c-.05,0-5.22-3.8-6-5-4.34-7.33,3.21-22.38,8.59-30.94,13.29-21.15,35.4-37.83,45.45-35.45l10.32,5.32a83.43,83.43,0,0,0-10.2,7.17l-2.19,1.84s-6.41,4.32-9.6,7c-12.78,10.9-25.36,27.79-30,44.08A17.69,17.69,0,0,0,182.15,162.7Z"/><path class="cls-5" d="M230.24,91.27h0c-10-2.38-32.16,14.3-45.45,35.45v0h.05l10.59,8.33a98.62,98.62,0,0,1,26.65-28.25l-1.68-11.29L223.53,94l6.31,2L229.36,94l.88-2.7Z"/><path class="cls-6" d="M240.55,96.59l-10.2,7.17-.71.56-9-7.39-.21-1.4L223.53,94l6.31,2,.11-3.92.29-.89L233,90.21Z"/><path class="cls-7" d="M260.68,89.55c-6.75,0-14.32,3.55-20.13,7-.81.48-1.62,1-2.42,1.49l-3-2.55,1.1,3.84-1.22.86-6.28-1.92,4.16,3.48c-.95.72-1.8,1.39-2.5,2l-10-8.23.53,3.69,7.24,6.38s-6.41,4.32-9.6,7c-12.78,10.9-25.36,27.79-30,44.08l.27-.15.11-.06.39-.2.25-.12.4-.18.24-.1.43-.17.2-.08.63-.21A17.84,17.84,0,0,1,204,156a77.86,77.86,0,0,1,10.35-19.17c3.87-5.07,7.6-9.6,12.07-12.09,8.46-7.95,31.27-16.38,38.57-9.07a48.51,48.51,0,0,0,4.46-8.86C272.48,98.79,272.54,89.55,260.68,89.55Z"/><polygon class="cls-7" points="231.73 96.68 230.24 91.27 229.36 93.96 229.88 96.09 231.73 96.68"/><path class="cls-8" d="M291.4,175.47a18.27,18.27,0,0,0-2.13-8.23A43.07,43.07,0,0,1,277,175.62,56.49,56.49,0,0,1,254.56,181h0c-2.61.11-4.22-.31-5.13,2.73a5,5,0,0,0-.14.86v0h0c0,.1,0,.19,0,.29,0,.28,0,.52,0,.74v.06c0,.13,0,.26,0,.38v0a2.78,2.78,0,0,0,.17.73h0v0c.74,2.49,2.66,3.59,5.17,4.18a22,22,0,0,0,4,.49c15.42.43,28.36-9.3,32.71-13A26.62,26.62,0,0,0,291.4,175.47ZM247.1,93.09a37.08,37.08,0,0,1,11.42-3.43c-3.76.85-8.34,2.8-13.78,6.12-.13.08-12.85,8.66-20.62,16.37-4.23,4.2-21.24,24.59-21.22,24.57,3.11-5.88,5.15-8.77,10.07-15,2.78-3.5,5.75-6.9,8.79-10q1.53-1.58,3.08-3.07h0A84,84,0,0,1,247.1,93.09Z"/><path class="cls-9" d="M282.12,200.44a37.6,37.6,0,0,1-5.73,3.71,18.34,18.34,0,0,1-7.33-5.4,45.35,45.35,0,0,0,9.1-3.57,49.75,49.75,0,0,0,16.76-13.71C294.74,181.83,292.86,192,282.12,200.44Zm-12.36-49a4.57,4.57,0,0,0-6.64,2.27c1.27.06,2.62,1,2.54,2.26a4.87,4.87,0,0,1,3.41-1.34A2.48,2.48,0,0,1,269.76,151.42Zm-23,31.54a6,6,0,0,1,5.64-4.71l1.94,0c14.39-.44,27.3-5.73,36.55-16.77,1.27-1.58-.15-3.75-2.9-3.81h0c-.47.49-.55,1.39-1.32,2.74-2.81,4.89-6.7,7.12-11.89,9.71-15.9,7.92-24.15,4.23-27.46,9.08a3.88,3.88,0,0,0-.52,3.81Zm28.77-33.2c-1.52-1.09-1.58-3-2.4-11.8-.27-2.81-.74-6.42-2.46-8.74a2.34,2.34,0,0,0-1.57-.67c-1.09,0-2.31,1.08-3,1.85a16.82,16.82,0,0,1-7.2,6.28,21.68,21.68,0,0,1-9.92,2c-2.44-.08-4.57-.48-6.67-.51a11.46,11.46,0,0,0-9.69,4.29,12.25,12.25,0,0,0-2.57,7c0,.32,0,.63,0,.91s.07.83.11,1.21a11.19,11.19,0,0,0,.42,2.06.11.11,0,0,1,0,0l.06.19a14.41,14.41,0,0,1-2.59-2.2c.85,5.28,5,9,6.36,10.14l.24.18,0,0,.18.13a9.42,9.42,0,0,1-2.22.12,24.2,24.2,0,0,0,6.16,3.52A21.39,21.39,0,0,1,250.38,161c2.14-1.33,4.44-2.63,6.91-3.89-.75-4.66,3.38-9.35,8.58-9.8a7.39,7.39,0,0,1,7.2,3.35c.75-.24,1.59-.5,2.53-.77Zm1.88,31.37-.15,0c-1.57.36-17.73,6.62-27.94,3.41a6.14,6.14,0,0,0,.2,2.24h0a29.89,29.89,0,0,0,5.77.51C268.69,187.33,278.38,181.22,277.37,181.14Zm-75.2-1.26h0a3.9,3.9,0,0,0,1-3.28c-.3-1.69-2.22-2-3.49-3.35l-.06-.06-.06-.07h0a2.83,2.83,0,0,1-.72-2.07,1.91,1.91,0,0,1,2.44-1.9,3.21,3.21,0,0,1,1.68,1.25h0a4.07,4.07,0,0,0-.66-1.7,5.88,5.88,0,0,0-6.17-2h0a6.1,6.1,0,0,0-.81.21l-.24.08c-.18.08-.34.14-.49.22h0a6.91,6.91,0,0,0-1.1.67C190,172.27,195.85,180.35,202.17,179.88Z"/><path class="cls-10" d="M253,152.48c.29.43.37.75.25.88s-1.07-.1-2.31-.58c-3.17-1.18-5.5-1.36-9.63.2a6.78,6.78,0,0,1-2.14.65c-.58-.09,0-1.15,1.25-2.17a9.42,9.42,0,0,1,9-1.55A7.79,7.79,0,0,1,253,152.48Zm-.63,3.24a5.6,5.6,0,0,0-4.13-.83,8.92,8.92,0,0,0-1,.25,2.28,2.28,0,0,0-.34.12,5.7,5.7,0,0,0-1.86,1.15c-.66.64-.85,1.23-.66,1.38s.65-.07,1.35-.36a11.34,11.34,0,0,1,5.64-.9c.77.05,1.29.1,1.41-.11S252.75,156,252.38,155.72Zm-51,12.15h0a4.65,4.65,0,0,1,.91,1c.73,1,.5,1.63.8,1.93a.37.37,0,0,0,.42.08c.41-.17.62-.83.65-1.29h0a4.6,4.6,0,0,0-1.25-3.22h0a6.77,6.77,0,0,0-1.83-1.47,7.65,7.65,0,0,0-2.55-.87,9.58,9.58,0,0,0-3.69.21h0c-.23.07-.52.13-.76.22a8.39,8.39,0,0,0-5.2,5.47h0a9.6,9.6,0,0,0-.19,4.79h0a6.46,6.46,0,0,0,1.41,3h0c.9,1,1.89.79,1.47-.12a7.84,7.84,0,0,1-.72-3.13,9.15,9.15,0,0,1,.56-3.63,6.82,6.82,0,0,1,1-1.78,6.51,6.51,0,0,1,2.15-1.68h0c.16-.08.32-.14.49-.22l.24-.08a6.1,6.1,0,0,1,.81-.21h0A6.17,6.17,0,0,1,201.35,167.87ZM200.9,172a1.28,1.28,0,0,1-.51-.74,1,1,0,0,1,.42-1.22c.37-.25.66-.37.66-.53s-1.21-.61-2.07.24a2.67,2.67,0,0,0,.2,3.58c1.27,1.37,3.24,1.69,3.55,3.41a3.27,3.27,0,0,1,0,.78,4.15,4.15,0,0,1-.1.78,3.81,3.81,0,0,1-4.56,2.84c-.48-.07-.79-.13-.88,0s.91,1.55,3,1.51a5.09,5.09,0,0,0,4.61-3.78,5.72,5.72,0,0,0,.21-1.24,5.13,5.13,0,0,0-.07-1.31C204.83,173.44,202,172.84,200.9,172Zm69.55-20.59c-.79-.12-1.56.65-1.73,1.74a1.78,1.78,0,0,0,1.12,2.18c.79.12,1.56-.65,1.73-1.74A1.78,1.78,0,0,0,270.45,151.41Zm-8.66,3.15a2.35,2.35,0,1,0,2.75-.36A2,2,0,0,0,261.78,154.56Zm-31.75-32c14.92-9.67,29.83-10.78,34.93-6.86h0s-.09-.25-.12-.31h0c-1.3-2.76-4.32-4.68-7-5.45a10.52,10.52,0,0,1,1.43,1.92,21.47,21.47,0,0,0-7.56-3.21s.34.24.39.3a7.28,7.28,0,0,1,1.62,2.06,16.92,16.92,0,0,0-9-1.13l-.36.08.46.12a6.24,6.24,0,0,1,3,1.68c-4.84-.85-10.17.09-13,1.7a6.66,6.66,0,0,1,.68,0,10.32,10.32,0,0,1,4.08.74c-3.05.62-7.48,2-9.86,4a20.2,20.2,0,0,1,3.78-.2,52.49,52.49,0,0,0-19.06,18.83h0A61.69,61.69,0,0,1,230,122.57Z"/><path class="cls-2" d="M265.24,143.7c0-1,.14-2.73,1.11-3h0c1.65-.57,3.85,3.66,3.95,7.43a8.29,8.29,0,0,0-4.42-.8A12.74,12.74,0,0,1,265.24,143.7Z"/></g></g></svg>