<svg xmlns="http://www.w3.org/2000/svg" viewBox="0 0 20 20.93"><defs><style>.cls-1{fill:#684c46;}.cls-2{fill:#f5dcba;}.cls-3{fill:#0788bf;}.cls-4{fill:#46b8e3;}.cls-5{fill:#ffd14f;}.cls-6{fill:#122030;}.cls-7{fill:#fff;}.cls-8{fill:#eabe8d;}.cls-9{fill:#9c7356;}</style></defs><title>Mailchmp</title><g id="Layer_2" data-name="Layer 2"><g id="Layer_1-2" data-name="Layer 1"><path class="cls-1" d="M19.69,15c0,.05-1.56,6-7.61,6a9.28,9.28,0,0,1-7.71-4.55,2.71,2.71,0,0,1-1.09-.16,3,3,0,0,1-1.74-3.79l-.84-.64C-2.58,9.29,6.68-2.11,10,.47l.78.63A6.68,6.68,0,0,1,14,0a2.12,2.12,0,0,1,1.61.6c.85.92.54,2.68-.62,4.46a2.92,2.92,0,0,1,.6.88,2.09,2.09,0,0,1,.73,1.32c.13.66.16,1.61.24,2l.51.24a4.56,4.56,0,0,1,1.24.84A1.06,1.06,0,0,1,19,12l-.13.16a3.13,3.13,0,0,1,.29.82,1.1,1.1,0,0,1,.76.6A1.64,1.64,0,0,1,19.69,15Zm-2.4,4.47v.25h.09v-.25h.1v-.08h-.29v.08Zm.22-.08v.33h.09v-.24l.07.24h.07l.07-.24v.24h.09v-.33h-.14l-.06.19-.06-.19Z"/><path class="cls-2" d="M5.6,12.73h0a5.18,5.18,0,0,0,.2-.61A3.86,3.86,0,0,1,6,13.56H6a3,3,0,0,0,.26-.48A2.2,2.2,0,0,1,4.17,15.7a2.23,2.23,0,0,1,0-4.46,2,2,0,0,1,.85.19S5.47,11.66,5.6,12.73Zm11.52,4.83a5.39,5.39,0,0,0,2-2.9c.4-.48.29-1-.24-1a1,1,0,0,0-.3,0,2.79,2.79,0,0,0-.33-1.26,6.58,6.58,0,0,1-1.87,1.28,8.63,8.63,0,0,1-3.43.81h0c-.4,0-.65,0-.78.42a1,1,0,0,0,0,.48.94.94,0,0,0,.79.64,3.36,3.36,0,0,0,.6.07A8.2,8.2,0,0,0,18.77,14l0,0,0,.07c-.42.94-2.83,2.64-5.24,2.59h0A2.08,2.08,0,0,1,12,16c-.56-.69-.27-1.84.62-1.87h.3a7.33,7.33,0,0,0,5.58-2.56c.19-.24,0-.57-.44-.58h0a4,4,0,0,0-1.33-.92c-.82-.42-.74-.06-.93-2.08-.05-.55-.15-1.29-.63-1.57a.78.78,0,0,0-.41-.11.75.75,0,0,0-.24,0,1.25,1.25,0,0,0-.6.38c-.88.81-1.59.59-2.64.58a2,2,0,0,0-2,1.74h0a3.42,3.42,0,0,0,.06,1.37,2.2,2.2,0,0,1-.4-.34,2.77,2.77,0,0,0,1,1.6,1.44,1.44,0,0,1-.34,0,3.7,3.7,0,0,0,.94.54,3.62,3.62,0,0,0-1,1.42,3.84,3.84,0,0,0-.16,1.61l.24-.36a3.16,3.16,0,0,0,.15,1.58c.1-.23.32-.64.32-.64a3.23,3.23,0,0,0,.38,1.57c0-.16.07-.58.07-.58a3.34,3.34,0,0,0,.79,1.25C12.33,19,15,19.19,17.12,17.56Z"/><path class="cls-3" d="M1.85,11.8A6.12,6.12,0,0,1,.94,11C.28,9.9,1.43,7.6,2.25,6.3,4.28,3.07,7.66.52,9.2.88l1.58.81a12.75,12.75,0,0,0-1.56,1.1l-.34.28s-1,.66-1.47,1.07a15.15,15.15,0,0,0-4.59,6.73A2.7,2.7,0,0,0,1.85,11.8Z"/><path class="cls-4" d="M9.2.88h0C7.66.52,4.28,3.07,2.25,6.3h0L3.88,7.57A15.07,15.07,0,0,1,7.95,3.26L7.69,1.53l.48-.23,1,.31-.07-.32L9.2.88Z"/><path class="cls-5" d="M10.77,1.69,9.21,2.79l-.11.09L7.72,1.75l0-.21.48-.23,1,.31,0-.6,0-.14L9.62.72Z"/><path class="cls-6" d="M13.85.62a6.53,6.53,0,0,0-3.08,1.07l-.37.23-.46-.39.17.59-.19.13L9,2l.63.53-.38.3L7.69,1.53l.08.56,1.11,1s-1,.66-1.47,1.07a15.15,15.15,0,0,0-4.59,6.73l0,0h0l.06,0,0,0,.06,0,0,0,.07,0h0l.1,0a2.73,2.73,0,0,1,1.92.09A11.9,11.9,0,0,1,6.77,7.85,6.66,6.66,0,0,1,8.61,6C9.9,4.79,13.39,3.5,14.5,4.62a7.41,7.41,0,0,0,.68-1.35C15.65,2,15.66.62,13.85.62Z"/><polygon class="cls-6" points="9.42 1.71 9.2 0.88 9.06 1.29 9.14 1.62 9.42 1.71"/><path class="cls-7" d="M18.54,13.75a2.79,2.79,0,0,0-.33-1.26,6.58,6.58,0,0,1-1.87,1.28,8.63,8.63,0,0,1-3.43.81h0c-.4,0-.65,0-.78.42a.76.76,0,0,0,0,.13h0v0s0,.08,0,.11h0v.06h0a.42.42,0,0,0,0,.11h0a.94.94,0,0,0,.79.64,3.36,3.36,0,0,0,.6.07,8,8,0,0,0,5-2A4.07,4.07,0,0,0,18.54,13.75ZM11.77,1.16A5.67,5.67,0,0,1,13.52.64a7.23,7.23,0,0,0-2.1.93,26.09,26.09,0,0,0-3.15,2.5C7.62,4.71,5,7.83,5,7.83A12.44,12.44,0,0,1,6.56,5.54C7,5,7.44,4.49,7.9,4l.47-.47h0A12.84,12.84,0,0,1,11.77,1.16Z"/><path class="cls-8" d="M17.12,17.56a5.75,5.75,0,0,1-.88.57,2.8,2.8,0,0,1-1.12-.83,6.93,6.93,0,0,0,1.39-.54,7.6,7.6,0,0,0,2.56-2.09A5.4,5.4,0,0,1,17.12,17.56Zm-1.89-7.49a.7.7,0,0,0-1,.35c.19,0,.4.16.39.34a.74.74,0,0,1,.52-.2A.38.38,0,0,1,15.23,10.07Zm-3.52,4.82a.91.91,0,0,1,.86-.72h.3a7.33,7.33,0,0,0,5.58-2.56c.19-.24,0-.57-.44-.58h0c-.07.08-.08.21-.2.42A3.75,3.75,0,0,1,16,12.92c-2.43,1.21-3.69.65-4.19,1.39a.59.59,0,0,0-.08.58Zm4.4-5.07c-.23-.17-.24-.46-.37-1.8a2.79,2.79,0,0,0-.38-1.34.36.36,0,0,0-.24-.1c-.17,0-.35.16-.46.28a2.57,2.57,0,0,1-1.1,1,3.31,3.31,0,0,1-1.52.3c-.37,0-.7-.07-1-.08a1.75,1.75,0,0,0-1.48.66,1.87,1.87,0,0,0-.39,1.07s0,.1,0,.14,0,.13,0,.18a1.71,1.71,0,0,0,.06.31h0v0a2.2,2.2,0,0,1-.4-.34,2.72,2.72,0,0,0,1,1.55l0,0h0l0,0a1.44,1.44,0,0,1-.34,0,3.7,3.7,0,0,0,.94.54,3.27,3.27,0,0,1,1.78-.74c.33-.2.68-.4,1.06-.59a1.4,1.4,0,0,1,1.31-1.5,1.13,1.13,0,0,1,1.1.51l.39-.12Zm.29,4.79h0c-.24.06-2.71,1-4.27.52a.94.94,0,0,0,0,.34h0a4.57,4.57,0,0,0,.88.08A5.54,5.54,0,0,0,16.4,14.61ZM4.91,14.42h0a.6.6,0,0,0,.15-.5c0-.26-.34-.31-.53-.51h0a.43.43,0,0,1-.11-.32.29.29,0,0,1,.37-.29A.49.49,0,0,1,5,13H5a.62.62,0,0,0-.1-.26A.9.9,0,0,0,4,12.4H4l-.12,0h0l-.08,0h0a1.06,1.06,0,0,0-.17.1C3,13.26,3.94,14.49,4.91,14.42Z"/><path class="cls-9" d="M12.68,10.23c0,.07.06.11,0,.13s-.16,0-.35-.09a1.8,1.8,0,0,0-1.47,0,1,1,0,0,1-.33.1c-.09,0,0-.18.19-.33a1.44,1.44,0,0,1,1.38-.24A1.19,1.19,0,0,1,12.68,10.23Zm-.1.49a.86.86,0,0,0-.63-.13l-.15,0-.05,0a.87.87,0,0,0-.28.18c-.1.1-.13.19-.1.21s.1,0,.21-.05a1.73,1.73,0,0,1,.86-.14c.12,0,.2,0,.21,0S12.64,10.77,12.58,10.73Zm-7.8,1.86h0a.71.71,0,0,1,.14.15C5,12.89,5,13,5,13a.06.06,0,0,0,.06,0c.06,0,.09-.13.1-.2h0A.7.7,0,0,0,5,12.35H5a1,1,0,0,0-.28-.23A1.17,1.17,0,0,0,4.35,12a1.46,1.46,0,0,0-.56,0h0l-.12,0a1.28,1.28,0,0,0-.79.84h0a1.47,1.47,0,0,0,0,.73h0a1,1,0,0,0,.21.45h0c.14.15.29.12.22,0a1.2,1.2,0,0,1-.11-.48A1.4,1.4,0,0,1,3.26,13a1,1,0,0,1,.16-.27,1,1,0,0,1,.33-.26h0l.08,0h0l.12,0H4A.94.94,0,0,1,4.78,12.59Zm-.07.63a.2.2,0,0,1-.08-.11.15.15,0,0,1,.06-.19c.06,0,.1-.06.1-.08s-.19-.09-.32,0a.41.41,0,0,0,0,.55c.19.21.49.26.54.52a.5.5,0,0,1,0,.12.63.63,0,0,1,0,.12.58.58,0,0,1-.7.43c-.07,0-.12,0-.13,0s.14.24.45.23a.78.78,0,0,0,.7-.58.87.87,0,0,0,0-.19.78.78,0,0,0,0-.2C5.31,13.44,4.88,13.34,4.71,13.21Zm10.63-3.15c-.12,0-.24.1-.26.27a.27.27,0,0,0,.17.33c.12,0,.24-.1.26-.27A.27.27,0,0,0,15.34,10.07ZM14,10.55a.36.36,0,0,0,.6.33.36.36,0,0,0-.6-.33ZM9.17,5.66c2.28-1.48,4.56-1.65,5.34-1h0l0,0h0a1.73,1.73,0,0,0-1.07-.83,1.61,1.61,0,0,1,.22.29,3.28,3.28,0,0,0-1.15-.49l.06,0a1.11,1.11,0,0,1,.25.32,2.58,2.58,0,0,0-1.38-.17h-.06l.07,0a1,1,0,0,1,.45.26,3.32,3.32,0,0,0-2,.26H10a1.58,1.58,0,0,1,.62.11A3.71,3.71,0,0,0,9.1,5a3.09,3.09,0,0,1,.58,0A8,8,0,0,0,6.77,7.85h0A9.43,9.43,0,0,1,9.17,5.66Z"/><path class="cls-1" d="M14.54,8.89c0-.16,0-.42.17-.47h0c.25-.09.59.56.6,1.13a1.27,1.27,0,0,0-.68-.12A2,2,0,0,1,14.54,8.89Z"/></g></g></svg>