<svg xmlns="http://www.w3.org/2000/svg" viewBox="0 0 471 308"><defs><style>.cls-1{fill:#ff3e00;}.cls-2{fill:#fff;}</style></defs><title>Asset 4</title><g id="Layer_2" data-name="Layer 2"><g id="Layer_1-2" data-name="Layer 1"><rect class="cls-1" width="471" height="308"/><g id="_2KskgR.tif" data-name="2KskgR.tif"><path class="cls-2" d="M135.26,118.67c1.34-2,3.39-2.38,5.55-2.22a5.09,5.09,0,0,1,4.79,3.88c2.64,7.85,5.44,15.65,8.19,23.46.06.17.14.33.34.82.89-2.59,1.7-4.88,2.48-7.19,1.92-5.67,3.9-11.32,5.7-17,1.06-3.38,3.87-4.09,6.79-3.93a5.8,5.8,0,0,1,.68.19c2.53.47,3.28,1.31,3.3,3.9,0,4.56,0,9.12,0,13.68,0,4.94,0,9.88,0,14.81,0,1.29-.06,2.59-1.31,3.41A3.58,3.58,0,0,1,166,149.7c-.1-6.27,0-12.53-.05-18.8a6.37,6.37,0,0,0-.24-2c-.18.43-.37.86-.53,1.3q-3.53,9.7-7.06,19.41c-.8,2.2-1.9,3-4,3a4.1,4.1,0,0,1-4.29-3c-1.73-4.51-3.42-9-5.13-13.54a49.91,49.91,0,0,0-2.28-5.38q0,9.24,0,18.49c0,1.31-.09,2.88-1.44,3.24a13.21,13.21,0,0,1-4.63,0c-.39,0-.71-.8-1.06-1.22Z"/><path class="cls-2" d="M211.37,115c1.81.82,3.3,1.85,3.15,4.19a3.89,3.89,0,0,1-3.83,3.75,4,4,0,0,1-1.87-7.65,4.69,4.69,0,0,0,.55-.29Z"/><path class="cls-2" d="M235.65,182.28c4.31-4.5,10-6.63,16.26-7.43a72.45,72.45,0,0,1,8.9-.57c15-.06,30,0,45-.06a26.45,26.45,0,0,0,16.63-5.65,15.44,15.44,0,0,0,4.91-6.79c.47-1.24,1-2.51,2.5-2.55A4.45,4.45,0,0,1,334,161a3.46,3.46,0,0,1,.27,2.62c-2.26,6.82-7.07,11.35-13.44,14.3A37.06,37.06,0,0,1,305,181.39q-23.23-.06-46.46,0a32.29,32.29,0,0,0-12.39,2.28c-3.46,1.42-6.18,3.6-7.28,7.39-.46,1.59-1.83,2-3.24,2s-2.9-.21-3.38-1.77c-1.63-5.36-5.88-7.56-10.77-8.68a47.16,47.16,0,0,0-10.06-1.16c-15.86-.12-31.74.21-47.59-.16-8.75-.2-16.68-3.3-22.77-10a21.18,21.18,0,0,1-4.46-7.79,2.42,2.42,0,0,1,1.22-3.24,8.34,8.34,0,0,1,3.56-.84,2.62,2.62,0,0,1,1.8,1.53c2.66,7.37,8.48,10.77,15.59,12.42a35.7,35.7,0,0,0,7.83.86c15.29.08,30.59,0,45.89.05,6.09,0,12,1,17.4,4A67.46,67.46,0,0,1,235.65,182.28Z"/><path class="cls-2" d="M239.3,139.57c0,3.28,0,6.36,0,9.44,0,1.33,0,2.81-1.4,3.45a4.74,4.74,0,0,1-4.85-.22,3.16,3.16,0,0,1-1.1-2.26c-.07-10.25-.05-20.5,0-30.76a2.44,2.44,0,0,1,2.47-2.54c4.32,0,8.66-.27,13,.06,4.75.36,8.89,1.75,10.35,7.89,1.57,6.61-.82,13.23-9.08,14.77a22.89,22.89,0,0,1-3.83.17C243,139.59,241.26,139.57,239.3,139.57Zm0-6.08c2.15,0,4.19.11,6.21,0,2.78-.19,4.62-1.83,4.88-4.07.37-3.27-.66-5.53-3.39-6.16a57.24,57.24,0,0,0-7.7-.76Z"/><path class="cls-2" d="M297,141.28a5.56,5.56,0,0,0,4.08,5.91c3,.83,5.5-.33,8-1.74s4.43-.56,5,2.2a2.89,2.89,0,0,1-1.26,2.93,13.42,13.42,0,0,1-7.4,2.78,17.25,17.25,0,0,1-10-1.57,11.38,11.38,0,0,1-5.86-8.23,17.67,17.67,0,0,1,.92-10.67,12.13,12.13,0,0,1,10.28-7.72,13.78,13.78,0,0,1,7.95,1.16c3.57,1.69,5.4,4.72,6.1,8.48a22.93,22.93,0,0,1,.3,3.8,2.21,2.21,0,0,1-2.48,2.58c-4.65.07-9.3.08-13.95.11Zm10.72-5.55a4.77,4.77,0,0,0-2.58-4.36,5.54,5.54,0,0,0-6.08.54,4.16,4.16,0,0,0-1.88,3.82Z"/><path class="cls-2" d="M194.3,149.59c-3.48,3.79-7.51,4.29-11.86,3-3.64-1.07-5.07-3.78-5.22-6.94s1-6,4.14-7.25a48.94,48.94,0,0,1,8-2c1.33-.28,2.73-.18,4.08-.36a1.23,1.23,0,0,0,.81-.83,3.67,3.67,0,0,0-3.74-4.28,8.41,8.41,0,0,0-5.2,1.43c-.67.44-1.35.86-2.06,1.23a3,3,0,0,1-4.16-.76,3,3,0,0,1,.27-4.19,10.39,10.39,0,0,1,5.25-2.88,19.8,19.8,0,0,1,11.13.08,7.35,7.35,0,0,1,5.37,7.14q.15,8.11.2,16.22c0,3.21-1.81,4.53-4.91,3.66C194.88,152.4,194.45,151.2,194.3,149.59Zm-.13-9.06a33.79,33.79,0,0,0-3.78.4,32,32,0,0,0-4.8,1.4,2.28,2.28,0,0,0-1.25,2.86,2.79,2.79,0,0,0,1.31,1.81,7.13,7.13,0,0,0,6.81-1C194.38,144.68,194.43,142.75,194.17,140.53Z"/><path class="cls-2" d="M259.26,139.2a13,13,0,0,1,9.19-13.5c5.69-1.53,10.82-.71,15,3.69a12,12,0,0,1,3,6.13,15.89,15.89,0,0,1-2.1,12.32,12.53,12.53,0,0,1-9.7,5.58,14.69,14.69,0,0,1-8.77-1.57c-4.35-2.4-6.31-6.26-6.65-11.08C259.23,140.24,259.26,139.72,259.26,139.2Zm13.76,8a5.42,5.42,0,0,0,5.78-3.82,11.51,11.51,0,0,0-.07-8.26,5.57,5.57,0,0,0-5.8-3.85,5.47,5.47,0,0,0-5.58,4,11.38,11.38,0,0,0-.08,7.88A5.46,5.46,0,0,0,273,147.19Z"/><path class="cls-2" d="M327.67,131.4c0,4.75,0,9.25,0,13.76,0,1.64,1,2.23,2.55,1.76.45-.13.9-.27,1.33-.45,1.86-.75,2.83-.58,3.59.67.91,1.49.75,3.8-.58,4.61a11.25,11.25,0,0,1-4.15,1.56c-2.72.37-5.49.4-7.78-1.61a6.12,6.12,0,0,1-2.09-4.77c0-4.89,0-9.79,0-14.68,0-.23,0-.46,0-.56-1.16-.3-2.4-.34-3.22-.94-.55-.41-.68-1.62-.69-2.47,0-1.92.54-2.26,4-2.6,0-1.48.06-3,0-4.49a2.64,2.64,0,0,1,1.72-2.81,8.94,8.94,0,0,1,3.13-.68c1.7,0,2.29.73,2.29,2.51s0,3.6,0,5.59c1.25,0,2.42,0,3.59,0,1.82.05,2.59.92,2.57,2.81s-.75,2.73-2.6,2.78C330.1,131.43,329,131.4,327.67,131.4Z"/><path class="cls-2" d="M219.35,134.74q0-7.54,0-15.09c0-2.38,1-3.29,3.71-3.3s3.7.91,3.7,3.3q0,14.94,0,29.89c0,2.52-1,3.33-3.93,3.33-2.52,0-3.48-.91-3.48-3.33Q219.35,142.14,219.35,134.74Z"/><path class="cls-2" d="M213.94,139.28q0,5.34,0,10.68a2.61,2.61,0,0,1-2.87,2.9c-.47,0-.95,0-1.42,0-1.89,0-3.08-1.05-3.09-2.93q-.07-10.47,0-20.94a3.07,3.07,0,0,1,1.81-3.11,4.45,4.45,0,0,1,4.68.45,3.11,3.11,0,0,1,.85,2.11C214,132.06,213.94,135.67,213.94,139.28Z"/></g></g></g></svg>