<?xml version="1.0" ?><svg data-name="Layer 1" id="Layer_1" viewBox="0 0 128 128" xmlns="http://www.w3.org/2000/svg"><defs><style>.cls-1{fill:#ff7d00;}.cls-2{fill:#fff;}</style></defs><title/><circle class="cls-1" cx="64" cy="64" r="60"/><rect class="cls-2" height="62.32" width="41.52" x="44.39" y="30.75"/><rect class="cls-1" height="5.81" width="6.13" x="58.08" y="56.99"/><rect class="cls-1" height="5.81" width="6.13" x="65.93" y="56.99"/><rect class="cls-1" height="5.81" width="6.13" x="50.22" y="65.12"/><rect class="cls-1" height="5.81" width="6.13" x="58.08" y="65.12"/><rect class="cls-1" height="5.81" width="6.13" x="65.93" y="65.12"/><rect class="cls-1" height="5.81" width="6.13" x="50.22" y="73.24"/><rect class="cls-1" height="5.81" width="6.13" x="58.08" y="73.24"/><rect class="cls-1" height="5.81" width="6.13" x="65.93" y="73.24"/><rect class="cls-1" height="5.81" width="6.13" x="50.22" y="56.99"/><rect class="cls-1" height="5.81" width="6.13" x="50.22" y="81.37"/><rect class="cls-1" height="5.81" width="6.13" x="58.08" y="81.37"/><rect class="cls-1" height="5.81" width="6.13" x="65.93" y="81.37"/><rect class="cls-1" height="5.81" width="6.13" x="73.96" y="56.99"/><rect class="cls-1" height="5.81" width="6.13" x="73.96" y="65.12"/><rect class="cls-1" height="5.81" width="6.13" x="73.96" y="73.24"/><rect class="cls-1" height="5.81" width="6.13" x="73.96" y="81.37"/><rect class="cls-1" height="16.53" width="32.45" x="49.7" y="35.52"/></svg>