<svg xmlns="http://www.w3.org/2000/svg" id="Layer_1" data-name="Layer 1" viewBox="0 0 128 128"><defs><style>.cls-1{fill:#ff7d00}.cls-2{fill:#fff}</style></defs><title/><circle cx="64" cy="64" r="60" class="cls-1"/><rect width="41.52" height="62.32" x="44.39" y="30.75" class="cls-2"/><rect width="6.13" height="5.81" x="58.08" y="56.99" class="cls-1"/><rect width="6.13" height="5.81" x="65.93" y="56.99" class="cls-1"/><rect width="6.13" height="5.81" x="50.22" y="65.12" class="cls-1"/><rect width="6.13" height="5.81" x="58.08" y="65.12" class="cls-1"/><rect width="6.13" height="5.81" x="65.93" y="65.12" class="cls-1"/><rect width="6.13" height="5.81" x="50.22" y="73.24" class="cls-1"/><rect width="6.13" height="5.81" x="58.08" y="73.24" class="cls-1"/><rect width="6.13" height="5.81" x="65.93" y="73.24" class="cls-1"/><rect width="6.13" height="5.81" x="50.22" y="56.99" class="cls-1"/><rect width="6.13" height="5.81" x="50.22" y="81.37" class="cls-1"/><rect width="6.13" height="5.81" x="58.08" y="81.37" class="cls-1"/><rect width="6.13" height="5.81" x="65.93" y="81.37" class="cls-1"/><rect width="6.13" height="5.81" x="73.96" y="56.99" class="cls-1"/><rect width="6.13" height="5.81" x="73.96" y="65.12" class="cls-1"/><rect width="6.13" height="5.81" x="73.96" y="73.24" class="cls-1"/><rect width="6.13" height="5.81" x="73.96" y="81.37" class="cls-1"/><rect width="32.45" height="16.53" x="49.7" y="35.52" class="cls-1"/></svg>