<svg xmlns="http://www.w3.org/2000/svg" viewBox="0 0 20 18.46"><defs><style>.cls-1{fill:#1abc9c;}</style></defs><title>reCaptcha</title><g id="Layer_2" data-name="Layer 2"><g id="Layer_1-2" data-name="Layer 1"><g id="hh78V4.tif"><path class="cls-1" d="M10,10h9.06a.82.82,0,0,1,.94.94q0,3.29,0,6.59a.82.82,0,0,1-.94.94H.94A.82.82,0,0,1,0,17.52q0-3.3,0-6.61A.81.81,0,0,1,.91,10ZM3.07,14.6l-.08,0a.77.77,0,0,0,.11,1.54H4.63a.73.73,0,0,0,.69-.46c.23-.49-.08-1-.7-1.1v-.73h.09a.77.77,0,0,0-.13-1.54H3.07a.76.76,0,0,0-.76.66.78.78,0,0,0,.61.88l.15,0Z"/><path class="cls-1" d="M10,0h9c.65,0,.94.29.94.94q0,3.69,0,7.38a.81.81,0,0,1-.91.92H.94C.3,9.23,0,8.94,0,8.29Q0,4.62,0,.94C0,.3.29,0,.94,0ZM3.86,7a2,2,0,0,0,.51-.27c1-1,2.08-2.06,3.11-3.1a.71.71,0,0,0,.17-.78.77.77,0,0,0-1.32-.26L3.57,5.33a4.19,4.19,0,0,0-.33.35.73.73,0,0,0-.09.81A.88.88,0,0,0,3.86,7ZM7,7a1.76,1.76,0,0,0,.47-.24Q9,5.17,10.57,3.59a.7.7,0,0,0,.16-.76.77.77,0,0,0-1.28-.31c-.52.51-1,1-1.55,1.54L6.38,5.6a.73.73,0,0,0-.17.86A.83.83,0,0,0,7,7Zm3,0L10,7a2.48,2.48,0,0,0,.54-.31c1-1,2-2,3-3a.77.77,0,1,0-1.09-1.1l-1,.95L9.46,5.59a.75.75,0,0,0-.18.86A.74.74,0,0,0,10,6.92Zm3.11,0a1.91,1.91,0,0,0,.49-.26q1.58-1.55,3.13-3.12a.77.77,0,0,0-1.1-1.08Q14.06,4.06,12.5,5.64a.71.71,0,0,0-.13.84A.85.85,0,0,0,13.11,7ZM4.67,3.11a.87.87,0,0,0-.5-.73.71.71,0,0,0-.83.12c-.28.26-.55.53-.82.81A.77.77,0,0,0,3.62,4.4c.27-.25.54-.51.78-.79A2.61,2.61,0,0,0,4.67,3.11ZM16.17,7a1.92,1.92,0,0,0,.48-.23,11,11,0,0,0,.87-.86.77.77,0,0,0-1.09-1.08c-.3.28-.59.57-.87.87a.7.7,0,0,0-.11.81A.84.84,0,0,0,16.17,7Z"/></g></g></g></svg>