<svg xmlns="http://www.w3.org/2000/svg" viewBox="0 0 471 308"><defs><style>.cls-1{fill:#9da3a1;}.cls-2{fill:#fff;}</style></defs><title>Asset 9</title><g id="Layer_2" data-name="Layer 2"><g id="Layer_1-2" data-name="Layer 1"><rect class="cls-1" width="471" height="308"/><g id="YOFLFu.tif"><path class="cls-2" d="M188.44,185c6.66,0,13.17.08,19.67-.09.91,0,1.95-1.15,2.64-2,4.2-5.1,10.29-4.93,14.11.37a4.16,4.16,0,0,0,2.63,1.78c6.4.15,12.8.08,19.71.08,0-2.16-.32-4,.11-5.6.31-1.18,1.59-2.11,2.44-3.15.81,1,2.27,1.93,2.32,2.94a121,121,0,0,1,0,14.62c-.56,7.7-5.94,12.39-13.82,12.39q-20.69,0-41.38-.09c-8,0-13.6-5.25-13.64-13.33q-.19-38.88,0-77.76c0-8.53,5.47-13.5,14.08-13.51h41c8.33,0,13.74,5.4,13.83,13.82,0,4.38,0,8.77,0,13.6,1.29-.53,2.41-1,3.56-1.47a23.63,23.63,0,0,1,28.26,9,23.32,23.32,0,0,1-2.35,28.64c-5.92,6.34-12.24,12.31-18.4,18.43a11,11,0,0,1-1.78,1c0-3.35-.1-6.25,0-9.14.09-1.84-.47-2.78-2.35-3.23C240.29,167.89,236,146.49,246,134c2.2-2.74,1.22-8,1.74-12.46H188.44Zm78.26-11.5c4.08-4.19,7.57-7.7,11-11.3,6-6.32,6.85-14.87,2.38-22.64-3.6-6.26-12-9.74-19.73-8.19s-13.71,8.17-14.67,16.66a17.81,17.81,0,0,0,11.17,18.37c2.89,1.18,6.12,1.51,9.45,2.28ZM225.87,190.1c-4.93,7.53-10.06,7.86-15.86.95a2.72,2.72,0,0,0-1.66-1c-6.61-.07-13.22,0-19.76,0-1,7.57,2.15,11.42,9.19,11.44q19.93.07,39.87,0c7,0,10.29-4,9.16-11.29Zm-37.25-73.76h58.13c1.67-4.85-2.44-9.92-7.57-9.94-14.39,0-28.77-.06-43.16.17C190.85,106.66,187.94,110.74,188.62,116.34Zm28.16,75,1.46.08c.93-1.27,2.54-2.53,2.57-3.82,0-1.1-1.87-3.21-2.75-3.12-1.31.13-3.23,1.65-3.46,2.85S216,190,216.77,191.33Z"/><path class="cls-2" d="M264.08,142.32c3.44,0,6.91-.21,10.32.12,1.09.11,2,1.65,3.06,2.53-1,.75-2,2.11-3.05,2.14-7,.2-14,.24-21,0-1.09,0-2.13-1.57-3.2-2.42,1.07-.85,2.07-2.33,3.21-2.44,3.53-.32,7.11-.12,10.67-.12Z"/><path class="cls-2" d="M263.93,157.5c-3.33,0-6.68.21-10-.11-1.18-.12-2.23-1.54-3.34-2.37,1.12-.66,2.22-1.86,3.35-1.9q10-.27,20,0c1.09,0,2.14,1.28,3.2,2-1.07.81-2.09,2.2-3.23,2.31-3.3.31-6.65.11-10,.11Z"/></g></g></g></svg>