<svg clip-rule="evenodd" fill-rule="evenodd" height="512" image-rendering="optimizeQuality" shape-rendering="geometricPrecision" text-rendering="geometricPrecision" viewBox="0 0 43.3492 43.3492" width="512" xmlns="http://www.w3.org/2000/svg"><g id="Layer_x0020_1"><g id="_340432920"><path id="_340434648" d="m9.5104 13.8046c1.5233 0 2.7622 1.239 2.7622 2.762.0002 1.523-1.2391 2.762-2.762 2.7619-1.522 0-2.7614-1.2389-2.7614-2.7619.0003-1.523 1.2391-2.762 2.7612-2.762zm6.8373 3.1493h21.8153c.184 0 .3332.1493.3332.3334l.0001 4.8442c0 .1841-.1495.3334-.3333.3334h-21.8151c-.1841 0-.3336-.1493-.3336-.3334l.0003-4.8442c0-.1841.149-.3334.3331-.3334zm24.1918-10.5262h-37.7299v33.9875c0 1.2504 1.0176 2.2672 2.2672 2.2672h33.1964c1.2496 0 2.2662-1.0168 2.2662-2.2672zm-28.9329 13.3541c1.4606.1842 2.5616 1.4331 2.5616 2.9046l.0001 2.5944c0 .184-.1495.3335-.3333.3334h-8.6477c-.184 0-.3338-.1493-.3338-.3334l.0001-2.5944c0-1.4715 1.1011-2.7203 2.5616-2.9046.128-.0166.2544.0432.323.1525.3875.612 1.0499.9774 1.7722.9774.7234-.0001 1.3859-.3654 1.7732-.9774.0685-.1093.1945-.169.323-.1525zm2.5616 9.3579v.01c.0001-.0034.0001-.0067 0-.01zm-8.9746-.3334 8.6387-.0001c-.0762.0006-.1528.0273-.2154.0811l-.6784.5858-3.1684 2.7356c-.1528.132-.3662.132-.5182 0l-3.1685-2.7356-.6784-.5857c-.0614-.053-.1364-.0797-.2114-.0811zm8.3077 1.0619.5514-.4762c.0738-.0635.1128-.1522.1155-.2423l.0001 5.8207v.0012c0 .0774-.0266.1551-.0809.218-.0539.0628-.1266.1004-.2026.1118-.013.0019-.0261.0031-.0395.0035-.0034.0001-.0069.0002-.0103.0002h-8.6477c-.0141 0-.0281-.0009-.0421-.0027-.079-.0099-.1548-.0479-.2108-.1128-.0543-.0629-.081-.1406-.0809-.218 0-.0024 0-.0047 0-.0072l.0001-5.8166c.0023.0907.0413.1802.1157.2442l.5513.4761 2.5334 2.1875.2921-.2522c.1399-.1205.3498-.1049.4706.0345.1198.1393.1051.3498-.0347.4702l-.2178.1881.2516.2172c.2015.174.4482.261.6955.261.2467 0 .4936-.0871.6948-.2611l.2516-.2172-.2176-.188c-.1391-.1204-.1548-.3309-.035-.4702.1209-.1394.3308-.155.4707-.0345l.2921.2522zm2.8464-.568h21.8153c.184 0 .3332.1494.3332.3335l.0001 4.8441c0 .1842-.1495.3332-.3333.3332h-21.8151c-.1841 0-.3336-.149-.3336-.3332l.0003-4.8442c0-.1841.149-.3334.3331-.3334z" fill="#e0e0e0"/><path id="_340434768" d="m5.0767.6669c-1.2492 0-2.2671 1.0168-2.2671 2.2666v37.4817c0 1.2504 1.0176 2.2672 2.2671 2.2672h33.1965c1.2496 0 2.2661-1.0168 2.2661-2.2672l.0002-37.4817c0-1.2499-1.0169-2.2666-2.2664-2.2666h-33.1964zm33.1965 42.6823h-33.1965c-1.6176 0-2.9341-1.3163-2.9341-2.934l.0004-37.4817c0-1.6175 1.3161-2.9335 2.9337-2.9335l33.1965-.0001c1.6177 0 2.933 1.3161 2.933 2.9336l.0003 37.4817c0 1.6177-1.3158 2.9341-2.9333 2.934z"/><path id="_340435224" d="m6.4299 2.4878c-.3997 0-.7262.3258-.7262.7261.0002.4002.3265.7259.7259.7259.4005 0 .7268-.3256.7268-.7259.0003-.4003-.3265-.726-.7265-.7261zm0 2.1188c-.7678 0-1.3931-.6247-1.3931-1.3927.0001-.7681.6253-1.3929 1.3928-1.3929.7685 0 1.3928.6249 1.3928 1.3929.0001.768-.6243 1.3928-1.3925 1.3927z"/><path id="_340435080" d="m10.496 2.4878c-.4001 0-.7259.3258-.7259.7261.0004.4002.3256.7259.7259.7259.4005 0 .7259-.3256.7259-.7259.0001-.4003-.3256-.726-.7259-.7261zm0 2.1188c-.7682 0-1.3928-.6247-1.3928-1.3927.0002-.7681.6243-1.3929 1.3928-1.3929.7678 0 1.3928.6249 1.3928 1.3929.0002.768-.6252 1.3928-1.3928 1.3927z"/><path id="_340434984" d="m14.5618 2.4878c-.4005 0-.7262.3258-.7262.7261.0002.4002.3256.7259.7259.7259.4004 0 .726-.3256.726-.7259.0003-.4003-.3256-.726-.7257-.7261zm0 2.1188c-.7678 0-1.3931-.6247-1.3931-1.3927.0001-.7681.6252-1.3929 1.3928-1.3929.7685 0 1.3928.6249 1.3928 1.3929.0001.768-.6243 1.3928-1.3925 1.3927z"/><path id="_340434936" d="m5.5206 24.9473h7.9807v-2.2609c0-1.0698-.7537-1.9871-1.7827-2.2097-.5208.6938-1.3311 1.1019-2.2082 1.1019-.8767-.0001-1.6862-.408-2.2072-1.1019-1.0288.2226-1.7827 1.1399-1.7827 2.2097zm8.3144.6669h-8.6477c-.184 0-.3338-.1493-.3338-.3334l.0001-2.5944c0-1.4715 1.1011-2.7203 2.5616-2.9046.128-.0166.2544.0432.323.1525.3875.612 1.0499.9774 1.7722.9774.7234 0 1.3859-.3654 1.7732-.9774.0686-.1093.1945-.169.323-.1525 1.4606.1842 2.5616 1.4331 2.5616 2.9046l.0001 2.5944c0 .184-.1495.3334-.3333.3334z"/><path id="_340435056" d="m9.5106 14.4714c-1.1547 0-2.0946.94-2.0946 2.0952.0002 1.1553.9395 2.0952 2.0944 2.0952 1.156-.0001 2.0953-.9399 2.0953-2.0952.0001-1.1552-.9395-2.0951-2.0951-2.0952zm0 4.8571c-1.522 0-2.7614-1.2389-2.7614-2.7619.0003-1.523 1.2391-2.762 2.7612-2.762 1.5233 0 2.7622 1.239 2.7622 2.762.0002 1.5229-1.2391 2.762-2.762 2.7619z"/><path id="_340434792" d="m16.6812 21.798h21.1481v-4.1773h-21.1481zm21.4818.6669h-21.8151c-.1841 0-.3336-.1493-.3336-.3334l.0003-4.8442c0-.1841.149-.3334.3331-.3334h21.8153c.184 0 .3332.1493.3332.3334l.0001 4.8442c0 .1841-.1495.3334-.3333.3334z"/><path id="_340434288" d="m16.6812 34.1444h21.1481v-4.1773h-21.1481zm21.4818.6666h-21.8151c-.1841 0-.3336-.149-.3336-.3332l.0003-4.8441c0-.1842.149-.3335.3331-.3335h21.8153c.184 0 .3332.1494.3332.3335l.0001 4.8441c0 .1842-.1495.3332-.3333.3332z"/><path id="_340434264" d="m5.5206 34.6384h7.9807v-5.1654h-7.9807zm8.3144.6667h-8.6477c-.184 0-.3338-.1494-.3338-.3335l.0001-5.832c0-.1841.1493-.3333.3334-.3333l8.648-.0001c.184 0 .3332.1493.3332.3335l.0001 5.8319c0 .1841-.1495.3335-.3333.3335z"/><path id="_340434072" d="m9.5113 32.9744c-.2473 0-.494-.087-.6955-.261l-3.8465-3.3214c-.1399-.1204-.1548-.3309-.0349-.4703.1209-.1394.3308-.1548.4706-.0343l3.8469 3.3213c.152.132.3654.132.5182 0l3.8468-3.3214c.14-.1204.3499-.1048.4705.0344.12.1394.1051.35-.0347.4703l-3.8466 3.3213c-.2012.174-.4482.2611-.6948.2611z"/><path id="_340434000" d="m13.835 35.3051c-.0774 0-.1548-.0261-.2182-.0808l-3.3767-2.9162c-.1391-.1204-.1548-.3309-.035-.4703.1209-.1393.3309-.1549.4707-.0344l3.3772 2.916c.1395.1202.1542.3313.0344.4702-.0656.0764-.1589.1155-.2524.1155zm-8.6477 0c-.0937 0-.187-.0391-.2529-.1155-.1198-.139-.1052-.3499.0347-.4701l3.377-2.9161c.1399-.1205.3498-.1049.4706.0344.1198.1394.1051.3499-.0347.4703l-3.3766 2.9162c-.0637.0547-.1411.0808-.2181.0808z"/><path id="_340433904" d="m40.8728 6.4277h-38.3965c-.184 0-.3337-.1493-.3337-.3334.0004-.1843.1494-.3335.3335-.3335l38.3967-.0001c.1845 0 .3334.1494.3334.3336.0003.184-.1493.3334-.3334.3334z"/><path id="_340433952" d="m16.3721 22.1068h21.7655v-4.7948h-21.7655zm21.7909.0492h-21.8151c-.0141 0-.0245-.0109-.0245-.0245l.0003-4.8441c0-.0136.0101-.0247.024-.0247h21.8153c.0129 0 .0241.0111.0241.0247l.0001 4.8441c0 .0135-.0114.0245-.0242.0245z"/><path id="_340434048" d="m2.8096 5.7608h37.7299v-2.8273c0-1.2499-1.0169-2.2666-2.2664-2.2666h-33.1963c-1.2493 0-2.2672 1.0168-2.2672 2.2666v2.8273zm13.1447-2.5469c.0001.768-.6243 1.3928-1.3925 1.3927-.7678 0-1.3931-.6247-1.3931-1.3927.0001-.7681.6252-1.3929 1.3928-1.3929.7685 0 1.3928.6249 1.3928 1.3929zm-5.4583-1.3929c.7678 0 1.3928.6249 1.3928 1.3929.0002.768-.6252 1.3928-1.3928 1.3927-.7682 0-1.3928-.6247-1.3928-1.3927.0002-.7681.6243-1.3929 1.3928-1.3929zm-4.0664 0c.7685 0 1.3928.6249 1.3928 1.3929.0001.768-.6243 1.3928-1.3925 1.3927-.7678 0-1.3931-.6247-1.3931-1.3927.0001-.7681.6253-1.3929 1.3928-1.3929z" fill="#ff7f62"/><g fill="#ba5d47"><path id="_340434504" d="m7.1564 3.2139c.0003-.4003-.3265-.726-.7265-.7261-.3997 0-.7262.3258-.7262.7261.0002.4002.3265.7259.7259.7259.4005 0 .7268-.3257.7268-.7259z"/><path id="_340434528" d="m10.496 2.4878c-.4001 0-.7259.3258-.7259.7261.0003.4002.3256.7259.7259.7259.4006 0 .7259-.3257.7259-.7259.0001-.4003-.3256-.726-.7259-.7261z"/><path id="_340433184" d="m14.5618 2.4878c-.4005 0-.7262.3258-.7262.7261.0002.4002.3256.7259.7259.7259.4004 0 .726-.3257.726-.7259.0003-.4003-.3256-.726-.7257-.7261z"/></g><path id="_340433784" d="m10.2061 32.7133c-.2012.174-.4481.2611-.6948.2611-.2473 0-.494-.087-.6955-.261l-.2516-.2172-2.4804 2.1422h6.8545l-2.4806-2.1423z" fill="#fff176"/><path id="_340433520" d="m16.6812 29.967v4.1774h21.1481v-4.1774z" fill="#ffcc80"/><path id="_340433328" d="m16.6812 21.798h21.1481v-4.1773h-21.1481z" fill="#ffcc80"/><path id="_340433472" d="m12.9385 29.4731h-6.8551l3.1685 2.7356c.152.132.3654.132.5182 0z" fill="#e6d96a"/><path id="_340433160" d="m8.054 32.0556-2.5334-2.1875v4.3751z" fill="#fff176"/><path id="_340433592" d="m13.5013 29.8682-2.5334 2.1874 2.5334 2.1874z" fill="#fff176"/><path id="_340433568" d="m5.5206 24.9473h7.9807v-2.2609c0-1.0699-.7537-1.9871-1.7827-2.2097-.5208.6938-1.3311 1.1019-2.2082 1.1019-.8767-.0001-1.6862-.408-2.2072-1.1019-1.0288.2226-1.7827 1.14-1.7827 2.2097z" fill="#7986cb"/><path id="_340432968" d="m9.5104 18.6618c1.156-.0001 2.0953-.9399 2.0953-2.0952.0001-1.1552-.9395-2.0951-2.0951-2.0952-1.1547 0-2.0946.94-2.0946 2.0952.0002 1.1553.9395 2.0952 2.0944 2.0952z" fill="#fcc09c"/></g><g id="_340430568"><path id="_340432344" d="m9.5104 13.8046c1.5233 0 2.7622 1.239 2.7622 2.762.0002 1.523-1.2391 2.762-2.762 2.7619-1.522 0-2.7614-1.2389-2.7614-2.7619.0003-1.523 1.2391-2.762 2.7612-2.762zm6.8373 3.1493h21.8153c.184 0 .3332.1493.3332.3334l.0001 4.8442c0 .1841-.1495.3334-.3333.3334h-21.8151c-.1841 0-.3336-.1493-.3336-.3334l.0003-4.8442c0-.1841.149-.3334.3331-.3334zm24.1918-10.5262h-37.7299v33.9875c0 1.2504 1.0176 2.2672 2.2672 2.2672h33.1964c1.2496 0 2.2662-1.0168 2.2662-2.2672zm-28.9329 13.3541c1.4606.1842 2.5616 1.4331 2.5616 2.9046l.0001 2.5944c0 .184-.1495.3335-.3333.3334h-8.6477c-.184 0-.3338-.1493-.3338-.3334l.0001-2.5944c0-1.4715 1.1011-2.7203 2.5616-2.9046.128-.0166.2544.0432.323.1525.3875.612 1.0499.9774 1.7722.9774.7234-.0001 1.3859-.3654 1.7732-.9774.0685-.1093.1945-.169.323-.1525zm2.5616 9.3579v.01c.0001-.0034.0001-.0067 0-.01zm-8.9746-.3334 8.6387-.0001c-.0762.0006-.1528.0273-.2154.0811l-.6784.5858-3.1684 2.7356c-.1528.132-.3662.132-.5182 0l-3.1685-2.7356-.6784-.5857c-.0614-.053-.1364-.0797-.2114-.0811zm8.3077 1.0619.5514-.4762c.0738-.0635.1128-.1522.1155-.2423l.0001 5.8207v.0012c0 .0774-.0266.1551-.0809.218-.0539.0628-.1266.1004-.2026.1118-.013.0019-.0261.0031-.0395.0035-.0034.0001-.0069.0002-.0103.0002h-8.6477c-.0141 0-.0281-.0009-.0421-.0027-.079-.0099-.1548-.0479-.2108-.1128-.0543-.0629-.081-.1406-.0809-.218 0-.0024 0-.0047 0-.0072l.0001-5.8166c.0023.0907.0413.1802.1157.2442l.5513.4761 2.5334 2.1875.2921-.2522c.1399-.1205.3498-.1049.4706.0345.1198.1393.1051.3498-.0347.4702l-.2178.1881.2516.2172c.2015.174.4482.261.6955.261.2467 0 .4936-.0871.6948-.2611l.2516-.2172-.2176-.188c-.1391-.1204-.1548-.3309-.035-.4702.1209-.1394.3308-.155.4707-.0345l.2921.2522zm2.8464-.568h21.8153c.184 0 .3332.1494.3332.3335l.0001 4.8441c0 .1842-.1495.3332-.3333.3332h-21.8151c-.1841 0-.3336-.149-.3336-.3332l.0003-4.8442c0-.1841.149-.3334.3331-.3334z" fill="#e0e0e0"/><path id="_340432848" d="m5.0767.6669c-1.2492 0-2.2671 1.0168-2.2671 2.2666v37.4817c0 1.2504 1.0176 2.2672 2.2671 2.2672h33.1965c1.2496 0 2.2661-1.0168 2.2661-2.2672l.0002-37.4817c0-1.2499-1.0169-2.2666-2.2664-2.2666h-33.1964zm33.1965 42.6823h-33.1965c-1.6176 0-2.9341-1.3163-2.9341-2.934l.0004-37.4817c0-1.6175 1.3161-2.9335 2.9337-2.9335l33.1965-.0001c1.6177 0 2.933 1.3161 2.933 2.9336l.0003 37.4817c0 1.6177-1.3158 2.9341-2.9333 2.934z"/><path id="_340432392" d="m6.4299 2.4878c-.3997 0-.7262.3258-.7262.7261.0002.4002.3265.7259.7259.7259.4005 0 .7268-.3256.7268-.7259.0003-.4003-.3265-.726-.7265-.7261zm0 2.1188c-.7678 0-1.3931-.6247-1.3931-1.3927.0001-.7681.6253-1.3929 1.3928-1.3929.7685 0 1.3928.6249 1.3928 1.3929.0001.768-.6243 1.3928-1.3925 1.3927z"/><path id="_340432608" d="m10.496 2.4878c-.4001 0-.7259.3258-.7259.7261.0004.4002.3256.7259.7259.7259.4005 0 .7259-.3256.7259-.7259.0001-.4003-.3256-.726-.7259-.7261zm0 2.1188c-.7682 0-1.3928-.6247-1.3928-1.3927.0002-.7681.6243-1.3929 1.3928-1.3929.7678 0 1.3928.6249 1.3928 1.3929.0002.768-.6252 1.3928-1.3928 1.3927z"/><path id="_340432464" d="m14.5618 2.4878c-.4005 0-.7262.3258-.7262.7261.0002.4002.3256.7259.7259.7259.4004 0 .726-.3256.726-.7259.0003-.4003-.3256-.726-.7257-.7261zm0 2.1188c-.7678 0-1.3931-.6247-1.3931-1.3927.0001-.7681.6252-1.3929 1.3928-1.3929.7685 0 1.3928.6249 1.3928 1.3929.0001.768-.6243 1.3928-1.3925 1.3927z"/><path id="_340432440" d="m5.5206 24.9473h7.9807v-2.2609c0-1.0698-.7537-1.9871-1.7827-2.2097-.5208.6938-1.3311 1.1019-2.2082 1.1019-.8767-.0001-1.6862-.408-2.2072-1.1019-1.0288.2226-1.7827 1.1399-1.7827 2.2097zm8.3144.6669h-8.6477c-.184 0-.3338-.1493-.3338-.3334l.0001-2.5944c0-1.4715 1.1011-2.7203 2.5616-2.9046.128-.0166.2544.0432.323.1525.3875.612 1.0499.9774 1.7722.9774.7234 0 1.3859-.3654 1.7732-.9774.0686-.1093.1945-.169.323-.1525 1.4606.1842 2.5616 1.4331 2.5616 2.9046l.0001 2.5944c0 .184-.1495.3334-.3333.3334z"/><path id="_340432536" d="m9.5106 14.4714c-1.1547 0-2.0946.94-2.0946 2.0952.0002 1.1553.9395 2.0952 2.0944 2.0952 1.156-.0001 2.0953-.9399 2.0953-2.0952.0001-1.1552-.9395-2.0951-2.0951-2.0952zm0 4.8571c-1.522 0-2.7614-1.2389-2.7614-2.7619.0003-1.523 1.2391-2.762 2.7612-2.762 1.5233 0 2.7622 1.239 2.7622 2.762.0002 1.5229-1.2391 2.762-2.762 2.7619z"/><path id="_340432512" d="m16.6812 21.798h21.1481v-4.1773h-21.1481zm21.4818.6669h-21.8151c-.1841 0-.3336-.1493-.3336-.3334l.0003-4.8442c0-.1841.149-.3334.3331-.3334h21.8153c.184 0 .3332.1493.3332.3334l.0001 4.8442c0 .1841-.1495.3334-.3333.3334z"/><path id="_340432992" d="m16.6812 34.1444h21.1481v-4.1773h-21.1481zm21.4818.6666h-21.8151c-.1841 0-.3336-.149-.3336-.3332l.0003-4.8441c0-.1842.149-.3335.3331-.3335h21.8153c.184 0 .3332.1494.3332.3335l.0001 4.8441c0 .1842-.1495.3332-.3333.3332z"/><path id="_340431888" d="m5.5206 34.6384h7.9807v-5.1654h-7.9807zm8.3144.6667h-8.6477c-.184 0-.3338-.1494-.3338-.3335l.0001-5.832c0-.1841.1493-.3333.3334-.3333l8.648-.0001c.184 0 .3332.1493.3332.3335l.0001 5.8319c0 .1841-.1495.3335-.3333.3335z"/><path id="_340431624" d="m9.5113 32.9744c-.2473 0-.494-.087-.6955-.261l-3.8465-3.3214c-.1399-.1204-.1548-.3309-.0349-.4703.1209-.1394.3308-.1548.4706-.0343l3.8469 3.3213c.152.132.3654.132.5182 0l3.8468-3.3214c.14-.1204.3499-.1048.4705.0344.12.1394.1051.35-.0347.4703l-3.8466 3.3213c-.2012.174-.4482.2611-.6948.2611z"/><path id="_340431600" d="m13.835 35.3051c-.0774 0-.1548-.0261-.2182-.0808l-3.3767-2.9162c-.1391-.1204-.1548-.3309-.035-.4703.1209-.1393.3309-.1549.4707-.0344l3.3772 2.916c.1395.1202.1542.3313.0344.4702-.0656.0764-.1589.1155-.2524.1155zm-8.6477 0c-.0937 0-.187-.0391-.2529-.1155-.1198-.139-.1052-.3499.0347-.4701l3.377-2.9161c.1399-.1205.3498-.1049.4706.0344.1198.1394.1051.3499-.0347.4703l-3.3766 2.9162c-.0637.0547-.1411.0808-.2181.0808z"/><path id="_340431936" d="m40.8728 6.4277h-38.3965c-.184 0-.3337-.1493-.3337-.3334.0004-.1843.1494-.3335.3335-.3335l38.3967-.0001c.1845 0 .3334.1494.3334.3336.0003.184-.1493.3334-.3334.3334z"/><path id="_340431864" d="m16.3721 22.1068h21.7655v-4.7948h-21.7655zm21.7909.0492h-21.8151c-.0141 0-.0245-.0109-.0245-.0245l.0003-4.8441c0-.0136.0101-.0247.024-.0247h21.8153c.0129 0 .0241.0111.0241.0247l.0001 4.8441c0 .0135-.0114.0245-.0242.0245z"/><path id="_340432008" d="m2.8096 5.7608h37.7299v-2.8273c0-1.2499-1.0169-2.2666-2.2664-2.2666h-33.1963c-1.2493 0-2.2672 1.0168-2.2672 2.2666v2.8273zm13.1447-2.5469c.0001.768-.6243 1.3928-1.3925 1.3927-.7678 0-1.3931-.6247-1.3931-1.3927.0001-.7681.6252-1.3929 1.3928-1.3929.7685 0 1.3928.6249 1.3928 1.3929zm-5.4583-1.3929c.7678 0 1.3928.6249 1.3928 1.3929.0002.768-.6252 1.3928-1.3928 1.3927-.7682 0-1.3928-.6247-1.3928-1.3927.0002-.7681.6243-1.3929 1.3928-1.3929zm-4.0664 0c.7685 0 1.3928.6249 1.3928 1.3929.0001.768-.6243 1.3928-1.3925 1.3927-.7678 0-1.3931-.6247-1.3931-1.3927.0001-.7681.6253-1.3929 1.3928-1.3929z" fill="#ff7f62"/><g fill="#ba5d47"><path id="_340431792" d="m7.1564 3.2139c.0003-.4003-.3265-.726-.7265-.7261-.3997 0-.7262.3258-.7262.7261.0002.4002.3265.7259.7259.7259.4005 0 .7268-.3257.7268-.7259z"/><path id="_340431984" d="m10.496 2.4878c-.4001 0-.7259.3258-.7259.7261.0003.4002.3256.7259.7259.7259.4006 0 .7259-.3257.7259-.7259.0001-.4003-.3256-.726-.7259-.7261z"/><path id="_340431912" d="m14.5618 2.4878c-.4005 0-.7262.3258-.7262.7261.0002.4002.3256.7259.7259.7259.4004 0 .726-.3257.726-.7259.0003-.4003-.3256-.726-.7257-.7261z"/></g><path id="_340430928" d="m10.2061 32.7133c-.2012.174-.4481.2611-.6948.2611-.2473 0-.494-.087-.6955-.261l-.2516-.2172-2.4804 2.1422h6.8545l-2.4806-2.1423z" fill="#fff176"/><path id="_340430856" d="m16.6812 29.967v4.1774h21.1481v-4.1774z" fill="#ffcc80"/><path id="_340431504" d="m16.6812 21.798h21.1481v-4.1773h-21.1481z" fill="#ffcc80"/><path id="_340431552" d="m12.9385 29.4731h-6.8551l3.1685 2.7356c.152.132.3654.132.5182 0z" fill="#e6d96a"/><path id="_340431456" d="m8.054 32.0556-2.5334-2.1875v4.3751z" fill="#fff176"/><path id="_340431312" d="m13.5013 29.8682-2.5334 2.1874 2.5334 2.1874z" fill="#fff176"/><path id="_340431360" d="m5.5206 24.9473h7.9807v-2.2609c0-1.0699-.7537-1.9871-1.7827-2.2097-.5208.6938-1.3311 1.1019-2.2082 1.1019-.8767-.0001-1.6862-.408-2.2072-1.1019-1.0288.2226-1.7827 1.14-1.7827 2.2097z" fill="#7986cb"/><path id="_340430904" d="m9.5104 18.6618c1.156-.0001 2.0953-.9399 2.0953-2.0952.0001-1.1552-.9395-2.0951-2.0951-2.0952-1.1547 0-2.0946.94-2.0946 2.0952.0002 1.1553.9395 2.0952 2.0944 2.0952z" fill="#fcc09c"/></g></g></svg>