<?xml version="1.0" encoding="utf-8"?>
<!-- Generator: Adobe Illustrator 21.0.0, SVG Export Plug-In . SVG Version: 6.00 Build 0)  -->
<svg version="1.1" id="Layer_1" xmlns="http://www.w3.org/2000/svg" xmlns:xlink="http://www.w3.org/1999/xlink" x="0px" y="0px"
	 viewBox="0 0 31 31" style="enable-background:new 0 0 31 31;" xml:space="preserve">
<style type="text/css">
	.st0{fill:url(#SVGID_1_);}
	.st1{fill:#FFFFFF;}
</style>
<g>
	<linearGradient id="SVGID_1_" gradientUnits="userSpaceOnUse" x1="15.5" y1="0.905" x2="15.5" y2="30.1574">
		<stop  offset="0" style="stop-color:#D92231"/>
		<stop  offset="1" style="stop-color:#BA2234"/>
	</linearGradient>
	<rect y="0" class="st0" width="31" height="31"/>
	<path class="st1" d="M18.2,16.5L18.2,16.5L18.2,16.5L18.2,16.5L18.2,16.5z M23.4,24.5c-0.1-0.1-0.1-0.2-0.2-0.3
		c-0.5-0.6-1.2-0.7-1.9-0.9c-0.5-0.1-1-0.1-1.7-0.1h-7.4c0.2-0.5,0.6-1.2,1.2-2c0.7-0.9,1.7-2,3-3.2c0.4-0.4,0.8-0.7,1-1
		c0.2-0.1,0.4-0.4,0.7-0.6c2.9-2.8,5.2-6,4.9-10.2c0-0.5-0.2-1-0.5-1.3c-0.7-0.6-1.9-0.6-2.7-0.6h-8.5C9.8,4.4,8,4.8,8,6.6
		c0,0.7,0.3,1.3,0.8,1.7C9.1,8.5,9.5,8.7,10,8.7c0.3,0.1,0.7,0.1,1.1,0.1h7.1c0,0.1,0,0.2,0,0.4c-0.1,0.4-0.2,0.8-0.4,1.2
		c-0.3,0.5-0.9,1.3-1.9,2.2c-0.3,0.2-0.7,0.6-1.3,1.1c-2.2,1.9-3.9,3.6-5,5.1c-0.8,1-1.3,2-1.7,3.1c-0.5,1.4-0.8,2.8-0.4,4.2
		c0.4,1.8,2.9,1.7,4.3,1.7c2.7,0.1,5.4,0,8.1,0c1.4,0,2.3-0.2,2.9-0.5C23.8,26.8,23.9,25.4,23.4,24.5z"/>
</g>
</svg>
