<svg xmlns="http://www.w3.org/2000/svg" xmlns:xlink="http://www.w3.org/1999/xlink" width="150" height="30" version="1.1" viewBox="0 0 150 30"><title>convertkit-long</title><desc>Created with Sketch.</desc><g id="Page-1" fill="none" fill-rule="evenodd" stroke="none" stroke-width="1"><g id="Individual-Form-Integration-Page-Design---weForms" transform="translate(-1056.000000, -409.000000)"><g id="Group-13" transform="translate(1004.000000, 342.000000)"><g id="convertkit-long" transform="translate(52.000000, 67.000000)"><path id="Path" fill="#FB6970" d="M15.5641513,23.6840741 C21.1654982,23.6840741 25.4948339,19.4425926 25.4948339,14.210537 C25.4948339,9.30881481 21.4274908,6.31585185 18.7335793,6.31585185 C14.9821956,6.31585185 11.9753506,8.95444444 11.5469557,12.8715556 C11.4676199,13.5968889 10.8941697,14.2052407 10.1664945,14.1999815 C8.95673432,14.1913148 7.19802583,14.181 6.08472325,14.1848519 C5.60542435,14.1864815 5.20913284,13.7966296 5.23284133,13.3165741 C5.40084871,9.91935185 6.53411439,6.74287037 8.6951845,4.30281481 C11.0964945,1.59144815 14.5934871,0 18.7335793,0 C25.6894834,0 32.2560886,6.33492593 32.2560886,14.210537 C32.2560886,22.9307407 25.0476015,30 15.712214,30 C9.05453875,30 2.34922509,25.6390741 0.00815907749,19.5422222 C-0.000525752768,19.5196296 -0.00192935424,19.4959259 0.00230339483,19.4714815 C0.033445941,19.2911111 0.0953581181,19.1262963 0.156327306,18.9640741 C0.24497417,18.7281481 0.331625461,18.4974815 0.31897048,18.2316481 L0.27850738,17.3823704 C0.258571956,16.9634074 0.494730627,16.5738333 0.876732472,16.3956111 L1.21515498,16.2376852 C1.6010369,16.0576481 1.8753321,15.703037 1.95125461,15.2861667 C2.06468635,14.6633519 2.61020295,14.210537 3.24693727,14.210537 C4.24119926,14.210537 5.10586716,14.8732407 5.43068266,15.815537 C6.99392989,20.3507407 9.47909594,23.6840741 15.5641513,23.6840741 Z"/><path id="Path" fill="#212F4F" d="M139.387103,10.4787037 C138.14641,10.4787037 137.764945,9.73718519 137.764945,8.90004444 C137.764945,8.01507407 138.074886,7.32138889 139.387103,7.32138889 C140.698856,7.32138889 141.008782,8.01507407 141.008782,8.90004444 C141.008782,9.73718519 140.675018,10.4787037 139.387103,10.4787037 Z"/><path id="Path" fill="#212F4F" d="M116.74445,20.7465741 L116.74445,14.5993889 L114.999815,14.5908148 L114.999815,13.8751296 C114.999815,13.0957778 115.631849,12.465037 116.409269,12.4688704 L116.74445,12.4705741 L116.74445,9.86335556 L119.535314,9.07405556 L119.535314,12.4705741 L122.063911,12.4705741 L122.063911,13.1931481 C122.063911,13.9697778 121.436089,14.5993889 120.661476,14.5993889 L119.535314,14.5993889 L119.535314,20.3877963 C119.535314,21.2787963 120.038782,21.5917778 120.687657,21.6994074 C121.451974,21.8261111 122.087749,22.3807778 122.087749,23.157463 L122.087749,24.2147593 C119.445074,24.2147593 116.74445,24.097963 116.74445,20.7465741 Z"/><path id="Shape" fill="#212F4F" d="M61.6859225,12.205594 C58.8949631,12.1337815 55.4599631,13.9037815 55.4599631,18.3288333 C55.4599631,22.6820556 58.8949631,24.4042593 61.6859225,24.332537 C64.5484317,24.4042593 67.9595941,22.6820556 67.9595941,18.3288333 C67.9595941,13.9037815 64.5484317,12.1337815 61.6859225,12.205594 Z M61.7065867,22.1598333 C59.6789299,22.1598333 58.2404059,20.678537 58.2404059,18.2388333 C58.2404059,15.9186481 59.6798155,14.3901481 61.7075092,14.3901481 C63.7350185,14.3901481 65.1584502,15.9155185 65.1584502,18.2356481 C65.1584502,20.6753889 63.7341328,22.1598333 61.7065867,22.1598333 Z"/><path id="Path" fill="#212F4F" d="M75.2907011,12.2318519 C77.7237454,12.2318519 80.2524354,12.9015537 80.2524354,17.6853333 L80.2524354,24.0957222 L78.696845,24.0957222 C77.9223247,24.0957222 77.2944096,23.4660926 77.2944096,22.6894815 L77.2944096,17.4461852 C77.2944096,15.1738148 76.459631,14.3127778 75.0044465,14.3127778 C74.193321,14.3127778 73.1439299,14.9346667 72.6428782,15.4369815 L72.6428782,22.6894815 C72.6428782,23.4660926 72.0150554,24.0957222 71.2404446,24.0957222 L69.8280443,24.0957222 L69.8280443,12.5188204 L71.4018173,12.5188204 C71.960738,12.5188204 72.4456642,12.9056333 72.57131,13.4516796 C73.2869373,12.6623519 74.2173063,12.2318519 75.2907011,12.2318519 Z"/><path id="Path" fill="#212F4F" d="M83.4422325,12.4983704 C84.0350369,12.4983704 84.5638007,12.8720574 84.7630996,13.4318389 L87.317214,20.6069444 L89.871107,13.4319333 C90.0702583,12.8720574 90.5989852,12.4983704 91.1917528,12.4983704 L93.2089299,12.4983704 L89.0492804,23.1805185 C88.8389114,23.7200556 88.3204797,24.0752222 87.7427122,24.0752222 L85.9574539,24.0752222 L81.4250923,12.4983704 L83.4422325,12.4983704 Z"/><path id="Shape" fill="#212F4F" d="M104.237325,23.5127778 C103.354723,23.8715556 101.56428,24.3494444 99.7037085,24.3494444 C96.4355535,24.3494444 93.9326568,22.4600556 93.9326568,18.2024444 C93.9326568,14.3753889 96.3588745,12.3291481 99.3171033,12.3291481 C102.967657,12.3291481 104.525295,14.7862407 104.36262,18.1312407 C104.328967,18.8223704 103.72917,19.326463 103.03917,19.326463 L96.7459594,19.326463 C96.8890037,21.1922222 98.2484317,22.1728519 100.037491,22.1728519 C100.740111,22.1728519 101.478727,22.137037 102.363672,21.9712963 C103.30238,21.7954074 104.237325,22.4651111 104.237325,23.4226852 L104.237325,23.5127778 Z M101.836347,17.3651111 C102.028026,15.5343704 100.795738,14.5297407 99.3171033,14.5297407 C97.8379889,14.5297407 96.8408487,15.6429815 96.7459594,17.3651111 L101.836347,17.3651111 Z"/><path id="Path" fill="#212F4F" d="M108.080046,12.5224222 C108.61297,12.5224222 109.077177,12.8880019 109.202934,13.4074222 C110.157066,12.689813 111.350074,12.2354074 112.18452,12.2354074 C112.256513,12.2354074 112.709502,12.2354072 113.425221,12.3310791 L113.425221,13.5723296 C113.425221,14.2395926 112.850221,14.7468333 112.18452,14.7468333 C111.421605,14.7468333 110.300111,15.0339444 109.417509,15.5362037 L109.417509,24.0992407 L106.578967,24.0992407 L106.578967,12.5224222 L108.080046,12.5224222 Z"/><path id="Path" fill="#212F4F" d="M140.81821,22.6584815 L140.81821,12.4879259 L139.405946,12.4879259 C138.631332,12.4879259 138.003506,13.1175037 138.003506,13.8941759 L138.003506,24.0647407 L139.415762,24.0647407 C140.190369,24.0647407 140.81821,23.4351667 140.81821,22.6584815 Z"/><path id="Path" fill="#212F4F" d="M144.656734,20.7709259 L144.656734,14.6236852 L142.772325,14.6236852 L142.772325,13.9011111 C142.772325,13.1244815 143.400151,12.4948704 144.174766,12.4948704 L144.656734,12.4948704 L144.656734,9.88774444 L147.447601,9.09838889 L147.447601,12.4948704 L149.976199,12.4948704 L149.976199,13.2174444 C149.976199,13.9941111 149.348376,14.6236852 148.573764,14.6236852 L147.447601,14.6236852 L147.447601,20.4121481 C147.447601,21.3031852 147.951531,21.6161667 148.600406,21.7237593 C149.364262,21.8505 150.000037,22.4051296 150.000037,23.1817593 L150.000037,24.2391667 C147.35738,24.2391667 144.656734,24.1222963 144.656734,20.7709259 Z"/><path id="Path" fill="#212F4F" d="M41.5121771,15.9373519 C41.5299815,10.524537 45.6008118,7.49987037 49.5072694,7.49987037 C51.6770295,7.49987037 53.6665867,7.96862222 55.3027675,9.1404963 L54.6407565,10.0511667 C54.1980627,10.6603333 53.3584133,10.9024259 52.6593358,10.6252593 C51.6723432,10.2339259 50.7428598,10.1512963 50.0503321,10.1512963 C46.8539852,10.1512963 44.4433948,12.2106481 44.4261624,15.9372037 C44.4433948,19.6637222 46.8539852,21.7528519 50.0503321,21.7528519 C50.7428598,21.7528519 51.6723432,21.6702037 52.6593358,21.2788889 C53.3584133,21.0017222 54.1980627,21.2143889 54.6407565,21.8235926 L55.3027675,22.7342222 C53.6665867,23.9060926 51.6770295,24.3748519 49.5072694,24.3748519 C45.6008118,24.3748519 41.5299815,21.3502037 41.5121771,15.9373519 Z"/><path id="Path" fill="#212F4F" d="M125.548459,7.5845 C126.323081,7.5845 126.950904,8.21409815 126.950904,8.99075 L126.950904,15.4379444 L132.691568,8.20494259 C132.955683,7.84525185 133.375018,7.63296593 133.820517,7.63296593 L136.370627,7.63296593 L129.880129,15.8505 L136.370627,24.0648704 L133.820517,24.0648704 C133.375018,24.0648704 132.955683,23.8525741 132.691568,23.4928519 L126.950904,16.2618148 L126.950904,22.6585185 C126.950904,23.4351481 126.323081,24.0647778 125.548459,24.0647778 L124.064207,24.0648704 L124.064207,7.5845 L125.548459,7.5845 Z"/></g></g></g></g></svg>