<svg xmlns="http://www.w3.org/2000/svg" viewBox="0 0 357.13 81.69"><defs><style>.cls-1{fill:#008dd3}.cls-2{fill:#2a327f}.cls-3{fill:#c3c5c6}.cls-4{fill:#aaabae}.cls-5{fill:#00a1e4}</style></defs><title>ERP</title><g id="Layer_2" data-name="Layer 2"><g id="Layer_1-2" data-name="Layer 1"><path d="M167.66,15.27c.73,0,1.06.33.93,1.06L160.32,59c-.67,3.5-1.59,5.69-2.72,6.55s-3.5,1.32-7.15,1.32c-4.1,0-6.75-.39-7.87-1.25s-2.12-3-3-6.62l-5.89-25-6,25c-2.06,7.41-2.12,7.48-10.79,7.87-3.64,0-6.09-.46-7.21-1.32s-2-3-2.72-6.55L98.83,16.33c-.13-.73.14-1.06.86-1.06h8.81c.46,0,.79.33.92,1.06l7.08,37.92c.34,1.65.67,2,1.53,2,1.06,0,1.25-.33,1.72-2l8.67-36.14a1.3,1.3,0,0,1,1.39-1.05h7.81a1.23,1.23,0,0,1,1.32,1.05l8.73,36.14c.47,1.65.6,2,1.66,2,.86,0,1.19-.39,1.52-2l7.08-37.92c.2-.86.4-1.06,1-1.06Z" class="cls-1"/><path d="M208.56,18.51c2.85,2.38,4.24,6.82,4.24,13.37,0,6.82-1.06,10.65-4.31,13s-7.41,3-15.08,3H185.2V65.43c0,.86-.2,1.06-1,1.06H175.8c-.79,0-1-.2-1-1.06V16.53c0-.73.2-.86,1-.93,5.36-.46,11.19-.73,17.61-.73C200.75,14.87,205.78,16.06,208.56,18.51ZM185.2,23.94V40h7.15c4,0,6.75-.46,8-1.39s1.91-3.11,1.91-6.42-.66-5.49-2-6.55-4-1.65-7.94-1.65Z" class="cls-1"/><path d="M264.61,15.27a.88.88,0,0,1,1,1v7.08a.88.88,0,0,1-1,1H240.86v12.5h21.7c.73,0,1.06.33,1.06,1v6.75c0,.66-.33,1-1.06,1h-21.7V57.43h23.75a.88.88,0,0,1,1,1V65.5a.88.88,0,0,1-1,1H231.46c-.66,0-1-.33-1-1.06V16.26a.88.88,0,0,1,1-1Z" class="cls-2"/><path d="M307.1,18.51c2.85,2.38,4.24,6.82,4.24,13.37,0,5-.73,8.6-2.25,10.92s-4.11,3.77-7.88,4.5l11.25,17.87c.53.73.2,1.32-.79,1.32h-8.34A2.69,2.69,0,0,1,300.68,65L289.83,48h-6.09V65.43c0,.86-.2,1.06-1,1.06h-8.41c-.79,0-1-.2-1-1.06V16.53c0-.73.2-.86,1-.93,5.36-.46,11.19-.73,17.61-.73C299.29,14.87,304.32,16.06,307.1,18.51Zm-23.36,5.43V40h7.15c4,0,6.75-.46,8-1.39s1.92-3.11,1.92-6.42-.67-5.49-2-6.55-4-1.65-7.94-1.65Z" class="cls-2"/><path d="M352.9,18.51c2.84,2.38,4.23,6.82,4.23,13.37,0,6.82-1.06,10.65-4.3,13s-7.41,3-15.09,3h-8.2V65.43c0,.86-.2,1.06-1,1.06h-8.4c-.79,0-1-.2-1-1.06V16.53c0-.73.2-.86,1-.93,5.36-.46,11.18-.73,17.6-.73C345.09,14.87,350.12,16.06,352.9,18.51Zm-23.36,5.43V40h7.14c4,0,6.75-.46,8-1.39s1.92-3.11,1.92-6.42-.66-5.49-2-6.55-4-1.65-7.95-1.65Z" class="cls-2"/><path d="M61.19,9.54a14.48,14.48,0,0,0-3.79-.45C51.48,9.09,45.5,11,40,13.17a73,73,0,0,0-13,6.56c-2.66,1.72-8.47,4.72-8.78,8.29-.23,2.62,2.94,4.52,5.19,4.81,2.06.26,3.68-.78,5.4-1.88,2.37-1.52,4.55-2.83,6.64-4,7.95-4.42,21.71-10.18,30.59-13.25A35.09,35.09,0,0,0,61.19,9.54Z" class="cls-3"/><path d="M16.21,29.85v0Z" class="cls-4"/><path d="M61.89,60.51,60,61.29c-2.21.92-4.49,1.88-6.79,2.66a49.81,49.81,0,0,1-7.85,1.93,17.21,17.21,0,0,1-2.73.24c-4.66,0-6.81-2.41-7.8-4.63a8.2,8.2,0,0,1,.1-6.82c3.85-8,30.6-17.8,33.64-18.9,3.33-1.2,8.68-2.77,12.45-3.86.42-6.51-6.08-14.14-9.5-15.64-6.23,1.61-25.19,8.91-35.89,14.86-2.06,1.14-4.2,2.43-6.55,3.93-1.61,1-3.41,2.18-5.67,2.18a5.92,5.92,0,0,1-.84-.05,8,8,0,0,1-6.42-4.77c-1.83-4.68,1-7.59,3.12-9.72L20,22l0-.06C26.55,16.14,37.59,8.09,59,4.24A40.85,40.85,0,1,0,80.64,50,111.58,111.58,0,0,1,61.89,60.51Z" class="cls-5"/><path d="M76.74,38.36A148.6,148.6,0,0,0,54.46,46,64.58,64.58,0,0,0,44,51.8c-1.79,1.25-6.13,4.08-6.27,6.53-.19,3.38,4.51,5.05,7.26,4.43,5.72-1.27,10.39-4.4,15.36-7a112.19,112.19,0,0,0,15.81-9.62,35.16,35.16,0,0,0,.65-6.7C76.76,39.09,76.75,38.73,76.74,38.36Z" class="cls-3"/></g></g></svg>