<svg width="193" height="29" viewBox="0 0 193 29" xmlns="http://www.w3.org/2000/svg"><g fill="none" fill-rule="evenodd"><path d="M15.663 20.282c-1.221 0-2.01-.973-2.01-2.477 0-1.98 1.145-4.844 3.214-4.844 1.87 0 1.963 2.026 1.963 2.432 0 2.308-1.354 4.889-3.167 4.889m5.123-8.333c.793.88 1.228 2.103 1.228 3.444 0 1.957-.664 3.796-1.871 5.173-1.25 1.427-2.973 2.21-4.85 2.21-2.871 0-4.801-1.968-4.801-4.901 0-1.961.66-3.804 1.86-5.184 1.245-1.434 2.963-2.224 4.84-2.224 1.482 0 2.725.512 3.594 1.482zm-10.617 7.906c.208 1.008.89 1.873.896 1.881.037.047.05.11.037.168a.194.194 0 0 1-.108.131c-.499.222-1.9.742-4.155.742-2.045 0-3.766-.637-4.977-1.845C.644 19.72 0 17.99 0 15.931c0-3.252 1.362-6.142 3.737-7.932 1.656-1.27 3.651-1.913 5.929-1.913 1.66 0 2.985.395 3.511.762.072.048.102.14.072.225l-.788 2.201a.184.184 0 0 1-.11.114.195.195 0 0 1-.16-.01c-.45-.249-1.469-.539-2.85-.539-1.438 0-2.843.512-3.857 1.404-1.387 1.235-2.183 3.19-2.183 5.36 0 2.825 1.543 4.446 4.234 4.446.843 0 1.692-.12 2.392-.34a.19.19 0 0 1 .242.146zm19.76-9.388c1.89 0 3.063 1.277 3.063 3.332 0 .51-.087 1.304-.213 1.935l-1.25 6.627a.19.19 0 0 1-.187.158h-2.687a.188.188 0 0 1-.148-.07.188.188 0 0 1-.039-.158l1.203-6.442c.062-.38.136-.88.136-1.323 0-.988-.388-1.448-1.222-1.448-1.164 0-2.644 1.501-3.101 4.012l-.973 5.271a.192.192 0 0 1-.188.158h-2.687a.189.189 0 0 1-.147-.07.192.192 0 0 1-.04-.158l1.459-7.871c.259-1.262.419-2.404.549-3.322l.029-.207a.192.192 0 0 1 .188-.165h2.387c.055 0 .106.023.14.063a.19.19 0 0 1 .05.15l-.162 1.432c1.015-1.233 2.357-1.904 3.84-1.904zm70.535 1.482c.792.88 1.229 2.103 1.229 3.444 0 1.957-.667 3.797-1.874 5.173-1.25 1.427-2.97 2.21-4.848 2.21-2.874 0-4.802-1.968-4.802-4.901 0-1.961.66-3.803 1.86-5.184 1.244-1.434 2.965-2.224 4.84-2.224 1.48 0 2.724.512 3.595 1.482zm-5.124 8.333c1.814 0 3.166-2.58 3.166-4.89 0-.405-.093-2.43-1.962-2.43-2.07 0-3.214 2.864-3.214 4.843 0 1.504.79 2.477 2.01 2.477zm-5.596-.426c.208 1.007.888 1.872.896 1.881a.2.2 0 0 1 .036.168.19.19 0 0 1-.109.13c-.496.222-1.898.742-4.152.742-2.046 0-3.766-.637-4.978-1.845-1.217-1.212-1.86-2.942-1.86-5.001 0-3.252 1.362-6.142 3.737-7.932 1.655-1.27 3.649-1.912 5.925-1.912 1.662 0 2.987.395 3.513.761.072.05.103.14.072.225l-.788 2.202a.19.19 0 0 1-.27.103c-.451-.248-1.468-.539-2.85-.539-1.437 0-2.844.513-3.859 1.405-1.385 1.235-2.18 3.19-2.18 5.359 0 2.825 1.542 4.446 4.232 4.446.844 0 1.693-.12 2.393-.34a.191.191 0 0 1 .153.02.191.191 0 0 1 .09.127zm19.95-9.389c1.89 0 3.061 1.277 3.061 3.332 0 .51-.087 1.304-.21 1.935l-1.254 6.629a.187.187 0 0 1-.187.156h-2.686a.184.184 0 0 1-.146-.07.185.185 0 0 1-.04-.158l1.204-6.442c.062-.38.136-.88.136-1.323 0-.988-.389-1.448-1.224-1.448-1.164 0-2.642 1.501-3.102 4.012l-.972 5.273a.19.19 0 0 1-.186.156H101.4a.185.185 0 0 1-.145-.07.188.188 0 0 1-.041-.158l1.458-7.871a55.22 55.22 0 0 0 .55-3.322l.028-.207a.19.19 0 0 1 .188-.165h2.386c.056 0 .107.023.142.063a.181.181 0 0 1 .048.15l-.158 1.432c1.012-1.233 2.356-1.904 3.839-1.904zm-51.173.747l-1.16 5.948c-.314 1.663-.503 3.768-.458 5.133v.031a.192.192 0 0 1-.19.193H54.21a.19.19 0 0 1-.137-.058.2.2 0 0 1-.054-.141c.017-.515.076-1.166.141-1.867-1.227 1.903-2.74 2.324-3.84 2.324-2.11 0-3.528-1.639-3.528-4.081 0-2.07.748-4.113 2.049-5.604 1.045-1.198 2.949-2.626 6.088-2.626 1.135 0 2.492.207 3.464.527a.193.193 0 0 1 .128.22zM54.21 12.96c-2.422 0-4.232 2.768-4.232 5.243 0 .74.185 1.985 1.43 1.985 1.129 0 2.606-1.521 3.125-4.34l.564-2.815a4.839 4.839 0 0 0-.887-.073zm12.063-2.494c1.89 0 3.062 1.277 3.062 3.332 0 .51-.086 1.306-.21 1.935l-1.252 6.627a.192.192 0 0 1-.187.158h-2.689a.183.183 0 0 1-.145-.07.185.185 0 0 1-.041-.158l1.204-6.442c.062-.38.136-.878.136-1.323 0-.988-.388-1.448-1.222-1.448-1.165 0-2.644 1.501-3.1 4.012l-.974 5.271a.191.191 0 0 1-.189.158h-2.685a.184.184 0 0 1-.147-.07.193.193 0 0 1-.042-.158l1.46-7.871c.26-1.268.42-2.415.552-3.335l.026-.194a.19.19 0 0 1 .188-.165h2.386c.057 0 .108.023.143.063a.193.193 0 0 1 .047.15l-.16 1.432c1.014-1.233 2.357-1.904 3.84-1.904zm73.472.461c.091.04.135.143.105.238l-.695 2.133a.191.191 0 0 1-.26.114 3.797 3.797 0 0 0-1.612-.334c-2.516 0-4.07 2.392-4.07 4.61 0 1.549.855 2.475 2.286 2.475 1.026 0 1.787-.278 2.333-.521a.192.192 0 0 1 .178.012.203.203 0 0 1 .09.156l.092 2.108a.193.193 0 0 1-.107.182c-.313.16-1.482.676-3.326.676-2.89 0-4.757-1.868-4.757-4.762 0-2.01.737-3.896 2.072-5.304 1.371-1.447 3.255-2.244 5.302-2.244.987 0 1.893.248 2.369.461zm-98.737.15a.194.194 0 0 1 .082.232l-.695 1.968a.183.183 0 0 1-.112.116.184.184 0 0 1-.16-.012 4.25 4.25 0 0 0-2.014-.49c-.898 0-1.523.469-1.523 1.141 0 .501.38.893 1.355 1.399 1.051.58 2.443 1.546 2.443 3.241 0 1.258-.504 2.313-1.456 3.048-.893.691-2.114 1.056-3.531 1.056h-.002c-1.082-.02-2.172-.269-2.919-.67a.193.193 0 0 1-.098-.206l.405-2.15a.194.194 0 0 1 .106-.139.193.193 0 0 1 .173.006c.609.34 1.65.735 2.59.735.908-.021 1.547-.517 1.547-1.211 0-.572-.214-.974-1.379-1.587-1.545-.838-2.327-1.897-2.327-3.147a3.62 3.62 0 0 1 1.354-2.849c.859-.703 2.066-1.093 3.4-1.093 1.279 0 2.265.317 2.761.613zm5.124 9.177c.023.731.188 1.381.485 1.933a.215.215 0 0 1 .023.118l-.008.065a.196.196 0 0 1-.126.161c-.414.146-1.146.245-1.825.245-2.122 0-2.877-1.322-2.877-2.557 0-.68.077-1.325.259-2.154l.852-4.46h-1.622a.193.193 0 0 1-.182-.257l.719-2.108a.193.193 0 0 1 .182-.128h1.368l.442-2.338a.193.193 0 0 1 .134-.15l2.804-.82a.193.193 0 0 1 .24.223l-.588 3.085h2.015c.062 0 .12.03.157.08.034.05.045.116.023.175l-.718 2.107a.192.192 0 0 1-.18.13h-1.766l-.796 4.072c-.122.681-.182 1.19-.182 1.558 0 .579.248.838.806.838.048 0 .096-.003.145-.003h.02a.19.19 0 0 1 .196.185zm101.21-9.062a.198.198 0 0 1 .024.175l-.719 2.107a.191.191 0 0 1-.18.13h-1.762l-.796 4.073c-.124.678-.181 1.189-.181 1.556 0 .58.247.837.803.837.05 0 .099 0 .15-.003h.031a5.23 5.23 0 0 0 .715-.063c.06-.01.12.007.162.05a.192.192 0 0 1 .06.164l-.257 2.153a.188.188 0 0 1-.125.16c-.412.146-1.146.245-1.823.245h-.002c-2.123 0-2.88-1.322-2.88-2.558 0-.678.077-1.323.259-2.152l.851-4.461h-1.622a.196.196 0 0 1-.156-.082.201.201 0 0 1-.024-.175l.719-2.107c.025-.078.1-.13.18-.13h1.37l.44-2.338a.198.198 0 0 1 .136-.15l2.804-.818a.18.18 0 0 1 .138.013c.016.007.03.017.045.029a.195.195 0 0 1 .06.18l-.585 3.085h2.006c.064 0 .122.029.159.08zm-16.893.021l-1.157 5.948c-.316 1.663-.504 3.768-.461 5.133a.191.191 0 0 1-.186.223h-2.505a.19.19 0 0 1-.138-.056.202.202 0 0 1-.054-.142c.019-.514.076-1.166.14-1.866-1.227 1.903-2.74 2.323-3.84 2.323-2.108 0-3.526-1.64-3.526-4.08 0-2.071.747-4.114 2.048-5.605 1.044-1.198 2.951-2.625 6.088-2.625 1.134 0 2.492.206 3.463.526a.191.191 0 0 1 .128.221zm-4.31 1.748c-2.421 0-4.232 2.766-4.232 5.242 0 .74.185 1.984 1.43 1.984 1.129 0 2.607-1.52 3.123-4.338l.569-2.816a4.877 4.877 0 0 0-.89-.072zm-8.299 7.293c.026.731.19 1.381.487 1.933a.182.182 0 0 1 .023.118l-.008.065a.195.195 0 0 1-.127.161c-.412.146-1.146.245-1.824.245-2.12 0-2.878-1.321-2.878-2.557 0-.68.077-1.325.26-2.153l.851-4.461h-1.004a.192.192 0 0 1-.19-.207c.065-.904-.187-1.686-.376-1.993a.199.199 0 0 1-.003-.195.188.188 0 0 1 .165-.098h1.875l.44-2.338a.194.194 0 0 1 .136-.15l2.804-.82a.192.192 0 0 1 .181.042c.049.047.07.114.057.18l-.587 3.086h2.016a.192.192 0 0 1 .18.255l-.72 2.108a.19.19 0 0 1-.18.13h-1.764l-.8 4.07c-.12.682-.18 1.19-.18 1.559 0 .579.249.838.807.838.047 0 .095-.003.144-.003h.021a.188.188 0 0 1 .194.185zm34.048-12.82c0 .94-.772 1.904-1.864 1.904-1.061.022-1.861-.91-1.861-1.904.001-1.393 1.115-1.924 1.86-1.924.482 0 1.865.364 1.865 1.924zm-.279.017c.006-.933-.701-1.637-1.574-1.637a1.62 1.62 0 0 0-1.594 1.61c0 1.068.95 1.589 1.55 1.61.883 0 1.614-.743 1.618-1.583zm-.663.998h-.542l-.397-.867h-.274v.867h-.476V6.341h.804c.392 0 .879.103.885.585.006.288-.164.477-.461.575l.46.95zm-.509-1.496c0-.245-.226-.315-.5-.315h-.2v.64h.2c.28 0 .487-.055.5-.325zm-73.682 4.239a.198.198 0 0 1 .024.175l-.719 2.107a.189.189 0 0 1-.18.13h-1.765l-.183.93h.007l-.616 3.143c-.122.678-.182 1.189-.182 1.556 0 .579.248.837.804.837.05 0 .1 0 .149-.003h.031c.257-.005.505-.029.716-.063.061-.01.12.007.163.05a.191.191 0 0 1 .058.164l-.254 2.153a.192.192 0 0 1-.126.16c-.413.146-1.146.245-1.824.245h-.002c-2.123 0-2.88-1.322-2.88-2.558 0-.518.045-1.016.147-1.59.032-.18.068-.366.111-.562l.853-4.461H70.08a.198.198 0 0 1-.14-.062.202.202 0 0 1-.05-.146c.066-.902-.188-1.686-.375-1.992a.193.193 0 0 1 .164-.293h1.874l.44-2.34a.196.196 0 0 1 .135-.149l2.803-.818a.187.187 0 0 1 .182.042c.05.046.072.113.06.18l-.59 3.085H76.6c.062 0 .119.029.156.08z" fill="#2B5E8C"/><path d="M171.22 14.733a49.809 49.809 0 0 1 7.398-1.322 52.83 52.83 0 0 1 1.743-5.53l-.23.04a51.854 51.854 0 0 0-6.99 1.846 51.863 51.863 0 0 0-1.92 4.966M165.124 12.248a54.404 54.404 0 0 1 2.462-4.502 64.778 64.778 0 0 0-4.019 2.523 53.323 53.323 0 0 0-2.787 4.54 53.329 53.329 0 0 1 4.344-2.56" fill="#FCD98D"/><path d="M170.207 15.008A52.941 52.941 0 0 1 172 10.168a52.882 52.882 0 0 0-6.218 2.738 52.29 52.29 0 0 0-1.845 4.346 47.363 47.363 0 0 1 6.269-2.245" fill="#809EBA"/><path d="M179.993 7.04c.252-.047.5-.092.745-.134a54.995 54.995 0 0 1 2.57-5.524 56.607 56.607 0 0 0-6.864 2.136 54.347 54.347 0 0 0-2.794 5.14 52.758 52.758 0 0 1 6.343-1.618M156.916 21.13c.444-1.189.943-2.39 1.491-3.574a54.088 54.088 0 0 0-2.723 2.18 51.297 51.297 0 0 0-2.194 3.963 43.915 43.915 0 0 1 3.426-2.569" fill="#2B5E8C"/><path d="M162.817 17.764a52.584 52.584 0 0 1 1.67-4.16 53.297 53.297 0 0 0-4.579 2.865 50.905 50.905 0 0 0-1.73 3.838 44.798 44.798 0 0 1 4.64-2.543" fill="#F9B31B"/><path d="M179.552 13.322c2.792-.238 5.6-.254 8.203-.046.62-2.203 1.277-4.285 2.003-6.241-.12-.002-.24-.002-.363-.002-2.616 0-5.315.226-8.021.67a51.494 51.494 0 0 0-1.822 5.619" fill="#809EBA"/><path d="M189.391 6.141c.244 0 .478.002.704.006A46.88 46.88 0 0 1 193 0c-1.953.076-4.95.334-8.54 1.117a54.298 54.298 0 0 0-2.701 5.62 50.385 50.385 0 0 1 7.632-.596M169.66 20.776a49.423 49.423 0 0 1 3.056-.43 53.525 53.525 0 0 1 4.699-.29c.19-1.847.522-3.771.98-5.726a49.389 49.389 0 0 0-7.493 1.409 46.902 46.902 0 0 0-1.242 5.037" fill="#F9B31B"/><path d="M155.414 25.928c.276-1.097.609-2.224.99-3.357a43.644 43.644 0 0 0-3.85 3.12 43.43 43.43 0 0 0-1.228 3.093 35.182 35.182 0 0 1 4.088-2.856" fill="#FCD98D"/><path d="M168.733 20.945a46.96 46.96 0 0 1 1.165-4.921 46.59 46.59 0 0 0-6.377 2.396 46.106 46.106 0 0 0-1.247 4.28 44.477 44.477 0 0 1 6.46-1.755" fill="#2B5E8C"/></g></svg>