<svg xmlns="http://www.w3.org/2000/svg" xmlns:xlink="http://www.w3.org/1999/xlink" width="403" height="109" version="1.1" viewBox="0 0 403 109"><title>icon-mailchimp</title><desc>Created with Sketch.</desc><g id="Page-1" fill="none" fill-rule="evenodd" stroke="none" stroke-width="1"><g id="icon-mailchimp" transform="translate(-48.000000, -196.000000)"><polygon id="Path" points="0 0 500 0 500 500 0 500"/><path id="Path" fill="#000" d="M204.9,237.3 C199.7,237.3 197.2,241.4 196,244 C195.3,245.5 195.2,246.6 194.6,246.6 C193.9,246.6 194.4,245.6 193.8,243.4 C193,240.5 190.6,237.3 185.4,237.3 C180,237.3 177.7,241.9 176.6,244.4 C175.8,246.1 175.8,246.6 175.3,246.6 C174.5,246.6 175.2,245.2 175.5,243.6 C176.2,240.4 175.7,238 175.7,238 L167.1,238 L167.1,270.3 L178.8,270.3 C178.8,270.3 178.8,256.8 178.8,254.2 C178.8,251 180.1,247 182.4,247 C185,247 185.6,249 185.6,252.8 L185.6,270.3 L197.4,270.3 C197.4,270.3 197.4,256.7 197.4,254.2 C197.4,251.4 198.6,247 201,247 C203.7,247 204.1,249.8 204.1,252.8 L204.1,270.3 L215.7,270.3 C215.7,270.3 215.7,257.5 215.7,251.3 C215.7,242.9 212.7,237.3 204.9,237.3 Z"/><path id="Path" fill="#000" d="M404,237.3 C398.8,237.3 396.3,241.4 395.1,244 C394.4,245.5 394.3,246.6 393.7,246.6 C393,246.6 393.5,245.3 392.9,243.4 C392,240.5 389.9,237.3 384.5,237.3 C379.1,237.3 376.8,241.9 375.7,244.4 C374.9,246.1 374.9,246.6 374.4,246.6 C373.6,246.6 374.3,245.2 374.6,243.6 C375.3,240.4 374.8,238 374.8,238 L366.2,238 L366.2,270.3 L377.9,270.3 C377.9,270.3 377.9,256.8 377.9,254.2 C377.9,251 379.2,247 381.5,247 C384.1,247 384.7,249 384.7,252.8 L384.7,270.3 L396.5,270.3 C396.5,270.3 396.5,256.7 396.5,254.2 C396.5,251.4 397.7,247 400.1,247 C402.8,247 403.2,249.8 403.2,252.8 L403.2,270.3 L414.8,270.3 C414.8,270.3 414.8,257.5 414.8,251.3 C414.8,242.9 411.8,237.3 404,237.3 Z"/><path id="Shape" fill="#000" fill-rule="nonzero" d="M235.7,237.3 C226.7,237.3 220.3,240.6 220.3,240.6 L220.3,250.3 C220.3,250.3 227.4,246.2 233.2,246.2 C237.8,246.2 238.4,248.7 238.2,250.8 C238.2,250.8 236.9,250.4 232.8,250.4 C223.2,250.4 218.4,254.7 218.4,261.7 C218.4,268.3 223.8,271.1 228.4,271.1 C235.1,271.1 238,266.6 238.9,264.5 C239.5,263 239.6,262 240.2,262 C240.8,262 240.6,262.7 240.6,264.2 C240.5,266.8 240.7,268.7 241.1,270.4 L249.9,270.4 L249.9,254.5 C249.8,244.5 246.3,237.3 235.7,237.3 Z M232.8,262.8 C230,263.4 228.5,262.6 228.5,260.7 C228.5,258.2 231.1,257.1 234.9,257.1 C236.6,257.1 238.1,257.2 238.1,257.2 C238.2,258.4 235.8,262.1 232.8,262.8 Z"/><polygon id="Path" fill="#000" points="269.2 228.2 280.9 228.2 280.9 270.3 269.2 270.3"/><path id="Path" fill="#000" d="M293.8,254.2 C293.8,251.3 296.5,248.6 301.5,248.6 C306.9,248.6 311.2,251.2 312.2,251.8 L312.2,240.6 C312.2,240.6 308.8,237.3 300.3,237.3 C291.4,237.3 284,242.5 284,253.7 C284,264.9 290.7,271.1 300.3,271.1 C307.8,271.1 312.2,267 312.2,267 L312.2,256.3 C310.8,257.1 306.9,259.8 301.5,259.8 C295.9,259.8 293.8,257.2 293.8,254.2 Z"/><path id="Path" fill="#000" d="M336,237.3 C329.2,237.3 326.6,243.7 326.1,244.9 C325.6,246.1 325.3,246.7 324.9,246.6 C324.2,246.6 324.7,245.2 325,244.4 C325.5,242.8 326.7,238.4 326.7,233.1 C326.7,229.5 326.2,228.3 326.2,228.3 L316,228.3 L316,270.4 L327.7,270.4 C327.7,270.4 327.7,256.9 327.7,254.3 C327.7,251.7 328.7,247.1 331.7,247.1 C334.1,247.1 334.9,248.9 334.9,252.6 C334.9,256.3 334.9,270.4 334.9,270.4 L346.6,270.4 C346.6,270.4 346.6,260.5 346.6,253.3 C346.7,244.9 345.3,237.3 336,237.3 Z"/><path id="Path" fill="#000" d="M350.5,238.1 L350.5,270.4 L362.2,270.4 L362.2,238.1 C362.2,238.1 360.2,239.3 356.3,239.3 C352.5,239.2 350.5,238.1 350.5,238.1 Z"/><ellipse id="Oval" cx="356.3" cy="232.6" fill="#000" rx="7.2" ry="4.7"/><path id="Path" fill="#000" d="M253.6,238.1 L253.6,270.4 L265.3,270.4 L265.3,238.1 C265.3,238.1 263.3,239.3 259.4,239.3 C255.6,239.2 253.6,238.1 253.6,238.1 Z"/><ellipse id="Oval" cx="259.5" cy="232.6" fill="#000" rx="7.2" ry="4.7"/><path id="Shape" fill="#000" fill-rule="nonzero" d="M438.1,237.3 C432.1,237.3 429.3,241.8 428.1,244.4 C427.3,246.1 427.3,246.6 426.8,246.6 C426,246.6 426.7,245.2 427,243.6 C427.7,240.4 427.2,238 427.2,238 L418.6,238 L418.6,279.2 L430.3,279.2 C430.3,279.2 430.3,272.5 430.3,266.1 C431.7,268.5 434.3,271 438.2,271 C446.7,271 451,263.8 451,254.1 C451,243.2 445.9,237.3 438.1,237.3 Z M434.9,263.4 C432.2,263.4 430.2,260 430.2,255.2 C430.2,250.6 432.2,247 434.8,247 C438.1,247 439.5,250 439.5,255.2 C439.4,260.6 438.2,263.4 434.9,263.4 Z"/><path id="Path" fill="#000" d="M125.6,247 C126.4,246.9 127.1,246.9 127.8,247 C128.2,246.1 128.3,244.5 127.9,242.8 C127.4,240.2 126.6,238.7 125.1,238.9 C123.6,239.1 123.5,241 124.1,243.6 C124.5,245 125,246.3 125.6,247 Z"/><path id="Path" fill="#000" d="M112.7,249.1 C113.8,249.6 114.4,249.9 114.7,249.6 C114.9,249.4 114.8,249.1 114.6,248.7 C114.1,247.8 113,247 111.8,246.5 C109.4,245.5 106.6,245.8 104.4,247.4 C103.7,247.9 103,248.7 103.1,249.1 C103.1,249.2 103.2,249.4 103.5,249.4 C104.1,249.5 106.2,248.4 108.6,248.3 C110.2,248.1 111.6,248.6 112.7,249.1 Z"/><path id="Path" fill="#000" d="M110.5,250.3 C109.1,250.5 108.3,251 107.8,251.4 C107.4,251.8 107.1,252.2 107.1,252.5 C107.1,252.6 107.2,252.7 107.2,252.8 C107.3,252.9 107.3,252.9 107.4,252.9 C107.7,252.9 108.4,252.6 108.4,252.6 C110.3,251.9 111.6,252 112.9,252.1 C113.6,252.2 113.9,252.2 114.1,252 C114.1,251.9 114.2,251.8 114.1,251.6 C113.9,251 112.5,250.1 110.5,250.3 Z"/><path id="Path" fill="#000" d="M121.3,254.8 C122.3,255.3 123.3,255.1 123.6,254.4 C123.9,253.7 123.4,252.8 122.5,252.3 C121.5,251.8 120.5,252 120.2,252.7 C119.8,253.4 120.3,254.4 121.3,254.8 Z"/><path id="Path" fill="#000" d="M127.4,249.5 C126.6,249.5 126,250.3 126,251.4 C126,252.5 126.6,253.3 127.4,253.3 C128.2,253.3 128.8,252.5 128.8,251.4 C128.8,250.4 128.1,249.5 127.4,249.5 Z"/><path id="Path" fill="#000" d="M75.5,268.6 C75.3,268.4 75,268.4 74.7,268.5 C74.5,268.5 74.2,268.6 74,268.6 C73.4,268.6 73,268.3 72.7,267.9 C72.3,267.4 72.4,266.6 72.8,265.6 C72.9,265.5 72.9,265.3 73,265.2 C73.6,263.8 74.7,261.5 73.5,259.3 C72.6,257.6 71.2,256.6 69.5,256.4 C67.8,256.2 66.2,256.8 65.1,258 C63.4,259.9 63.1,262.5 63.5,263.4 C63.6,263.7 63.8,263.8 63.9,263.8 C64.2,263.8 64.6,263.6 64.9,262.9 C64.9,262.8 64.9,262.8 65,262.7 C65.1,262.3 65.3,261.6 65.7,261 C66.1,260.3 66.8,259.8 67.6,259.7 C68.4,259.5 69.3,259.7 70,260.1 C71.2,260.9 71.7,262.4 71.1,263.8 C70.8,264.5 70.4,265.9 70.5,267 C70.7,269.3 72.1,270.2 73.4,270.3 C74.6,270.3 75.5,269.7 75.7,269.1 C75.6,268.9 75.5,268.7 75.5,268.6 Z"/><path id="Shape" fill="#000" fill-rule="nonzero" d="M146.9,264.4 C146.9,264.2 146.5,263.1 146.1,261.8 C145.7,260.5 145.2,259.5 145.2,259.5 C146.9,257 146.9,254.7 146.7,253.4 C146.5,251.8 145.8,250.5 144.5,249.1 C143.2,247.7 140.4,246.3 136.6,245.2 C136.2,245.1 134.7,244.7 134.6,244.6 C134.6,244.5 134.5,239.9 134.4,237.9 C134.3,236.5 134.2,234.2 133.5,232 C132.7,229 131.2,226.4 129.4,224.7 C134.4,219.5 137.5,213.8 137.5,208.9 C137.5,199.5 125.9,196.6 111.6,202.5 C111.6,202.5 108.6,203.8 108.6,203.8 C108.6,203.8 103.1,198.4 103,198.4 C86.7,184.2 35.8,240.8 52.1,254.5 L55.7,257.5 C54.8,259.9 54.4,262.6 54.7,265.6 C55.1,269.4 57,273 60.2,275.8 C63.2,278.5 67.1,280.1 71,280.1 C77.3,294.7 91.8,303.6 108.8,304.2 C127,304.7 142.3,296.2 148.7,280.9 C149.1,279.8 150.9,275 150.9,270.7 C150.8,266.2 148.4,264.4 146.9,264.4 Z M72.4,275.9 C71.8,276 71.3,276 70.7,276 C65.2,275.9 59.3,270.9 58.7,265 C58,258.5 61.4,253.5 67.2,252.3 C67.9,252.2 68.7,252.1 69.7,252.1 C73,252.3 77.8,254.8 78.9,262 C79.9,268.4 78.4,274.9 72.4,275.9 Z M66.3,248.5 C62.6,249.2 59.4,251.3 57.5,254.1 C56.3,253.1 54.1,251.2 53.7,250.5 C50.6,244.5 57.1,232.9 61.7,226.4 C73,210.2 90.8,197.9 99,200.1 C100.3,200.5 104.8,205.6 104.8,205.6 C104.8,205.6 96.6,210.2 88.9,216.5 C78.7,224.5 70.9,236 66.3,248.5 Z M124,273.4 C124.1,273.3 124.2,273.2 124.2,273.1 C124.2,272.9 124,272.8 123.9,272.8 C123.9,272.8 115.3,274.1 107.2,271.1 C108.1,268.2 110.4,269.3 114,269.5 C120.4,269.9 126.2,268.9 130.4,267.7 C134.1,266.6 138.9,264.6 142.7,261.6 C144,264.4 144.4,267.4 144.4,267.4 C144.4,267.4 145.4,267.2 146.2,267.7 C147,268.2 147.5,269.2 147.2,271.7 C146.4,276.5 144.4,280.4 141,283.9 C138.9,286.1 136.4,288.1 133.5,289.5 C132,290.3 130.3,291 128.6,291.6 C115.7,295.8 102.5,291.2 98.3,281.2 C98,280.5 97.7,279.7 97.4,278.9 C95.6,272.3 97.1,264.5 101.9,259.5 C102.2,259.2 102.5,258.8 102.5,258.3 C102.5,257.9 102.3,257.5 102,257.2 C100.3,254.8 94.5,250.6 95.7,242.5 C96.5,236.7 101.6,232.6 106.3,232.9 C106.7,232.9 107.1,232.9 107.5,233 C109.5,233.1 111.3,233.4 113,233.5 C115.8,233.6 118.3,233.2 121.3,230.7 C122.3,229.9 123.1,229.1 124.5,228.9 C124.6,228.9 125,228.7 125.7,228.8 C126.4,228.8 127.1,229 127.8,229.5 C130.2,231.1 130.5,235 130.7,237.8 C130.8,239.4 131,243.3 131,244.5 C131.2,247.1 131.8,247.4 133.2,247.9 C134,248.2 134.7,248.3 135.7,248.6 C138.9,249.5 140.8,250.4 142,251.6 C142.7,252.3 143,253.1 143.1,253.8 C143.5,256.5 141,259.9 134.4,263 C127.2,266.4 118.4,267.2 112.3,266.5 C111.8,266.4 110.2,266.3 110.2,266.3 C105.3,265.6 102.6,271.9 105.5,276.2 C107.4,279 112.5,280.8 117.6,280.8 C129.3,280.8 138.3,275.8 141.7,271.5 C141.8,271.4 141.8,271.4 142,271.1 C142.2,270.9 142,270.7 141.8,270.9 C139.1,272.8 126.9,280.2 113.9,278 C113.9,278 112.3,277.7 110.9,277.2 C109.8,276.8 107.4,275.6 107.1,273.2 C117.3,276.5 124,273.4 124,273.4 Z M87.2,226.3 C91.2,221.6 96.2,217.6 100.7,215.3 C100.9,215.2 101,215.4 100.9,215.5 C100.5,216.1 99.9,217.5 99.7,218.5 C99.7,218.7 99.8,218.8 100,218.7 C102.8,216.8 107.6,214.8 111.8,214.5 C112,214.5 112.1,214.7 111.9,214.8 C111.3,215.3 110.6,216 110,216.7 C109.9,216.8 110,217 110.1,217 C113.1,217 117.2,218.1 120,219.6 C120.2,219.7 120.1,220.1 119.8,220 C115.7,219.1 108.9,218.3 101.9,220 C95.6,221.5 90.9,223.9 87.4,226.4 C87.3,226.7 87.1,226.5 87.2,226.3 Z"/></g></g></svg>