<svg height="60" viewBox="26 -29 310 59.999998" width="310" xmlns="http://www.w3.org/2000/svg" xmlns:xlink="http://www.w3.org/1999/xlink"><linearGradient id="a" gradientUnits="userSpaceOnUse" x1="173.86652910025" x2="216.74884160251" y1="53.70541126707" y2="53.70541126707"><stop offset="0" stop-color="#e96f0b"/><stop offset="1" stop-color="#f37901"/></linearGradient><g fill="#757575" transform="matrix(.94570319 0 0 .94570319 61.462557 -127.56522)"><path d="m158.21679 127.97343 4.35282 11.42615h-8.43358zm-1.6323-3.80871-9.52179 25.02869h3.53667l2.44846-6.80127h10.60998l2.44846 6.80127h3.53667l-9.52179-25.02869z"/><path d="m208.00213 149.19341h3.26461v-25.02869h-3.26461z"/><path d="m174.53986 134.50266c1.0882-1.63231 3.26461-2.99256 5.44102-2.99256 4.35281 0 6.52922 2.99256 6.52922 7.34537v10.60999h-3.26461v-10.06588c0-3.53667-1.90436-4.89692-4.35282-4.89692-2.72051 0-4.62487 2.72051-4.62487 5.16897v9.52178h-3.26461v-17.41126h3.26461z"/><path d="m189.23061 144.02444c0-3.80871 3.53666-5.98512 7.61743-5.98512 2.44846 0 4.08076.5441 4.62487 1.0882v-.5441c0-2.72051-2.17641-4.08076-4.35282-4.08076-1.90436 0-3.53666.81615-4.08077 2.44846l-2.99256-1.36026c.5441-1.63231 2.72051-4.08076 7.07333-4.08076 4.08076 0 7.61743 2.44845 7.61743 7.34537v10.33794h-2.99256v-2.44846h-.27205c-.81616 1.36026-2.72051 2.99256-5.71308 2.99256-3.53666 0-6.52922-2.1764-6.52922-5.71307m12.2423-2.17641s-1.36026-1.0882-4.08077-1.0882c-3.26461 0-4.62487 1.90436-4.62487 3.26461 0 1.90436 1.90436 2.72051 3.53667 2.72051 2.44846 0 5.16897-2.17641 5.16897-4.89692"/><path clip-rule="evenodd" d="m215.89161 156.81084 3.80871-8.97768-6.80127-15.77896h3.26461l5.16897 11.97024 5.16897-11.97024h3.26461l-10.60999 24.75664z" fill-rule="evenodd"/><path clip-rule="evenodd" d="m263.77259 137.76727c-.81616-2.17641-2.72051-3.53666-4.62487-3.53666-2.72051 0-5.16897 2.44845-5.16897 5.98512 0 3.53666 2.44846 5.98512 5.16897 5.98512 1.90436 0 3.80871-1.36025 4.62487-3.26461l2.72051 1.6323c-1.36026 2.99257-4.08077 4.89692-7.34538 4.89692-4.62487 0-8.43358-4.08076-8.43358-9.24973 0-5.44102 3.80871-9.24974 8.43358-9.24974 3.26461 0 5.98512 1.90436 7.34538 4.89692z" fill-rule="evenodd"/><path d="m275.47078 149.73751c4.35282 0 6.52922-2.44846 6.52922-5.44102 0-6.52922-9.52178-4.08076-9.52178-7.88948 0-1.36025 1.0882-2.1764 2.99256-2.1764s3.80871.81615 4.62487 2.1764l1.90435-1.90435c-1.0882-1.36026-4.08076-3.26462-6.80127-3.26462-4.08077 0-6.25717 2.44846-6.25717 5.44102 0 6.25718 9.79383 4.08077 9.79383 7.34538 0 1.63231-1.0882 2.72051-3.26461 2.72051s-3.26461-1.36025-4.35282-2.72051l-2.44846 1.90436c1.63231 1.63231 4.08077 3.80871 6.80128 3.80871z"/><path d="m244.45696 149.19341h3.26462v-17.41126h-3.26462z"/><path clip-rule="evenodd" d="m245.81722 123.34857c1.36026 0 2.17641 1.0882 2.17641 2.1764 0 1.36026-1.08821 2.17641-2.17641 2.17641s-2.17641-1.0882-2.17641-2.17641c0-1.0882 1.08821-2.1764 2.17641-2.1764z" fill-rule="evenodd"/><path clip-rule="evenodd" d="m241.19235 146.4729.5441 2.44846c-1.0882 0-2.1764 0-3.26461 0-2.99256 0-4.35281-2.17641-4.35281-5.44102v-8.43358h-3.26462v-3.26461h3.26462v-5.16897h3.26461v5.16897h3.80871v3.26461h-3.80871v8.97768c0 2.44846 1.90436 2.44846 3.80871 2.44846z" fill-rule="evenodd"/><path d="m40.690758 134.23061v4.08076h9.521786c-.272051 2.17641-1.088204 3.80872-2.176408 4.89692-1.360255 1.36025-3.536663 2.99256-7.345378 2.99256-5.713071 0-10.337938-4.62487-10.337938-10.60999 0-5.71307 4.624867-10.60999 10.337938-10.60999 3.264613 0 5.441021 1.36026 7.073327 2.72051l2.72051-2.72051c-2.448459-2.17641-5.44102-4.08076-9.793837-4.08076-7.889479 0-14.690754 6.52922-14.690754 14.4187s6.801275 14.4187 14.690754 14.4187c4.352817 0 7.617429-1.36025 10.065888-4.08076 2.72051-2.72051 3.536663-6.25717 3.536663-9.24974 0-.81615 0-1.90435-.272051-2.44846h-13.3305z"/><path d="m64.903298 130.96599c-5.168969 0-9.249734 3.80872-9.249734 9.24974s4.080765 9.24973 9.249734 9.24973c5.16897 0 9.249735-4.08076 9.249735-9.24973 0-5.44102-4.080765-9.24974-9.249735-9.24974zm0 14.96281c-2.72051 0-5.168969-2.44846-5.168969-5.71307s2.448459-5.71307 5.168969-5.71307 5.16897 2.1764 5.16897 5.71307c0 3.53666-2.44846 5.71307-5.16897 5.71307z"/><path d="m109.51966 132.87035c-1.0882-1.0882-2.72051-2.17641-5.16897-2.17641-4.624862 0-8.705628 4.08077-8.705628 9.24974s4.080766 9.24973 8.705628 9.24973c2.17641 0 4.08077-1.0882 4.89692-2.17641h.27205v1.36026c0 3.53666-1.90435 5.44102-4.89691 5.44102-2.44846 0-4.08077-1.90436-4.624871-3.26461l-3.536664 1.36025c1.088205 2.44846 3.808715 5.44102 8.161535 5.44102 4.89691 0 8.97768-2.72051 8.97768-9.79383v-16.86717h-3.80872v2.17641zm-4.62486 13.05845c-2.72051 0-4.896921-2.44846-4.896921-5.71307s2.176411-5.71307 4.896921-5.71307 4.89691 2.44846 4.89691 5.71307-2.1764 5.71307-4.89691 5.71307z"/><path d="m85.035073 130.96599c-5.168969 0-9.249734 3.80872-9.249734 9.24974s4.080765 9.24973 9.249734 9.24973 9.249734-4.08076 9.249734-9.24973c.272051-5.44102-4.080765-9.24974-9.249734-9.24974zm0 14.96281c-2.72051 0-5.168969-2.44846-5.168969-5.71307s2.448459-5.71307 5.168969-5.71307 5.168969 2.1764 5.168969 5.71307c0 3.53666-2.448459 5.71307-5.168969 5.71307z"/><path d="m116.59299 121.17216h4.08077v28.2933h-4.08077z"/><path d="m131.82785 145.9288c-2.17641 0-3.53667-1.0882-4.62487-2.72051l12.51435-5.16897-.54411-1.0882c-.81615-2.17641-3.26461-5.98513-7.88948-5.98513-4.89691 0-8.70563 3.80872-8.70563 9.24974 0 5.16897 4.08077 9.24973 9.24974 9.24973 4.35281 0 6.80127-2.72051 7.88948-4.08076l-3.26462-2.17641c-1.0882 1.63231-2.44846 2.72051-4.62486 2.72051zm-.27205-11.42614c1.6323 0 2.99256.81615 3.53666 2.1764l-8.43358 3.53667c0-4.08077 2.72051-5.71307 4.89692-5.71307z"/></g><g clip-rule="evenodd" fill-rule="evenodd" transform="matrix(.31824946 0 0 .31824946 4.704641 -10.327962)"><path d="m148.15091 96.687566h-7.07333-39.4474c-5.713067 0-10.337934-4.624867-10.337934-10.337938v-22.308183c0-5.713071 4.624867-10.337938 10.337934-10.337938h29.38151v-32.646121c0-5.713071 4.62487-10.337939 10.33794-10.337939h32.64612v85.696068h-25.84484z" fill="#ffc517"/><path d="m206.64187 96.687566h-32.64612v-115.349628c0-5.713071 4.62487-10.337938 10.33794-10.337938h22.30818c5.71308 0 10.33794 4.624867 10.33794 10.337938v105.01169c-.27205 5.713071-4.89692 10.337938-10.33794 10.337938z" fill="#f57e02"/><path d="m216.70776 53.703507v32.646121c0 5.713071-4.62487 10.337938-10.33794 10.337938h-32.64612v-85.968119z" fill="url(#a)"/></g></svg>