<svg xmlns="http://www.w3.org/2000/svg" id="Layer_1" data-name="Layer 1" viewBox="0 0 757.05 246.67"><defs><style>.cls-1{fill:#099e55}.cls-2{fill:#7ecaa7}.cls-3{fill:#0c7742}.cls-4{fill:#edf7f6}.cls-5{fill:#959595}</style></defs><title>Google Sheets</title><path d="M128.45,5.31H30.34A19.39,19.39,0,0,0,11,24.64V220.87a19.39,19.39,0,0,0,19.34,19.34H177.58a19.39,19.39,0,0,0,19.33-19.34V73.09l-.67-.67H128.45Z" class="cls-1"/><polygon points="128.45 5.31 128.45 73.09 196.91 73.09 129.13 5.31 128.45 5.31" class="cls-2"/><polygon points="196.91 123.89 196.91 73.09 128.45 73.09 196.23 123.42 196.91 123.89" class="cls-3"/><path d="M161.36,113.06v-8H44.29v82.5H161.36v-8h0V162.71h0v-8h0V137.88h0v-8h0V113.06Zm-109.06,0H85.77v16.81H52.3Zm0,24.82H85.77V154.7H52.3Zm0,24.83H85.77v16.81H52.3Zm101,16.81H93.79V162.71h59.55Zm0-24.82H93.79V137.88h59.55Zm0-24.83H93.79V113.06h59.55Z" class="cls-4"/><path d="M349.39,154.87q0,14.53-10.55,22.68t-28.64,8.14q-19.59,0-30.14-5.05V168.28a78.75,78.75,0,0,0,14.77,4.52,77.35,77.35,0,0,0,15.83,1.66q12.81,0,19.29-4.86t6.48-13.53a17.38,17.38,0,0,0-2.3-9.38,21.3,21.3,0,0,0-7.68-6.75,108.58,108.58,0,0,0-16.4-7q-15.37-5.49-22-13t-6.59-19.67q0-12.74,9.57-20.28t25.32-7.53a74.66,74.66,0,0,1,30.23,6l-4,11.15a68.27,68.27,0,0,0-26.53-5.73q-10.17,0-15.9,4.37a14.42,14.42,0,0,0-5.73,12.14,18.66,18.66,0,0,0,2.11,9.38,19.92,19.92,0,0,0,7.12,6.71A89.27,89.27,0,0,0,319,123.21q17.34,6.18,23.86,13.27T349.39,154.87Z" class="cls-5"/><path d="M426.57,184.18V130.75q0-10.09-4.6-15.07t-14.39-5q-13.05,0-19,7.09t-6,23.21v43.18H370V66.91h12.51v35.5A77.74,77.74,0,0,1,382,113h.76a25.42,25.42,0,0,1,10.51-9.38,34.12,34.12,0,0,1,15.56-3.43q15.15,0,22.73,7.19t7.57,22.88v53.88Z" class="cls-5"/><path d="M499.67,185.69q-18.32,0-28.9-11.15t-10.59-31q0-20,9.84-31.73t26.41-11.75q15.52,0,24.57,10.21t9,26.94v7.91H473.14q.38,14.55,7.35,22.09t19.64,7.53a66.63,66.63,0,0,0,26.37-5.57v11.15A66.24,66.24,0,0,1,514,184.45,70.58,70.58,0,0,1,499.67,185.69Zm-3.39-75.14q-9.94,0-15.86,6.48t-7,17.94h43.18q0-11.84-5.28-18.13T496.28,110.55Z" class="cls-5"/><path d="M586.27,185.69q-18.32,0-28.9-11.15t-10.59-31q0-20,9.83-31.73T583,100.08q15.53,0,24.57,10.21t9,26.94v7.91h-56.9q.38,14.55,7.35,22.09t19.63,7.53a66.67,66.67,0,0,0,26.38-5.57v11.15a66.32,66.32,0,0,1-12.55,4.11A70.41,70.41,0,0,1,586.27,185.69Zm-3.39-75.14q-10,0-15.87,6.48T560,135h43.18q0-11.84-5.27-18.13T582.88,110.55Z" class="cls-5"/><path d="M664.65,175.37a41.6,41.6,0,0,0,6.4-.49,42.22,42.22,0,0,0,4.9-1v9.57a23,23,0,0,1-6,1.62,44.65,44.65,0,0,1-7.12.64q-24,0-24-25.25V111.3H627v-6l11.83-5.2,5.28-17.64h7.23v19.14h24v9.72h-24v48.62q0,7.46,3.55,11.45T664.65,175.37Z" class="cls-5"/><path d="M745.74,161.65q0,11.53-8.59,17.79T713,185.69q-16.42,0-25.62-5.2V168.88a61.55,61.55,0,0,0,12.77,4.75,53.16,53.16,0,0,0,13.15,1.74q9.81,0,15.08-3.13a10.78,10.78,0,0,0,1.09-17.79q-4.18-3.42-16.32-8.1-11.52-4.29-16.39-7.5a22.33,22.33,0,0,1-7.23-7.27,18.9,18.9,0,0,1-2.38-9.72,18.52,18.52,0,0,1,8.22-15.94q8.21-5.85,22.53-5.84A65.91,65.91,0,0,1,744,105.5l-4.45,10.18q-12.43-5.13-22.53-5.13-8.89,0-13.42,2.79a8.63,8.63,0,0,0-4.52,7.69,9.37,9.37,0,0,0,1.7,5.65,16.75,16.75,0,0,0,5.46,4.45,123.19,123.19,0,0,0,14.47,6.1q14.7,5.36,19.86,10.78A19,19,0,0,1,745.74,161.65Z" class="cls-5"/></svg>