<svg xmlns="http://www.w3.org/2000/svg" width="256" height="117.106" viewBox="0 0 256 117.106"><path fill="#ff4a00" d="m153.61812 50.84713h-6.3811c-.13108-.52224-.22887-1.12795-.29389-1.81557a20.821159 20.821159 0 0 1 0-4.02435c.065-.68608.16281-1.29127.29389-1.81659h15.90285v50.35714a23.76723 23.76723 0 0 1 -2.40489.29287 33.336587 33.336587 0 0 1 -2.40642.0973 32.220418 32.220418 0 0 1 -2.30504-.0973 23.69555 23.69555 0 0 1 -2.40386-.29441v-42.70114.001zm55.36147 12.66391c0-1.83298-.24576-3.58301-.73524-5.25316-.49152-1.6676-1.21345-3.12323-2.15963-4.3674-.95079-1.24212-2.16066-2.24104-3.63318-2.99317-1.47201-.75265-3.22307-1.12948-5.25163-1.12948-3.99158 0-7.05132 1.21242-9.17767 3.63266-2.12686 2.42076-3.41865 5.79077-3.87741 10.11055h24.83527zm-24.93255 7.26329c.13107 5.49688 1.55444 9.52225 4.27011 12.07306 2.71465 2.55182 6.72364 3.82979 12.02442 3.82979 4.6449 0 9.06247-.81921 13.25067-2.45506.52224.98151.9472 2.17601 1.27489 3.583a23.362747 23.362747 0 0 1 .5888 4.1713c-2.1581.91853-4.53226 1.60257-7.11532 2.06184-2.58664.45671-5.44926.68711-8.58836.68711-4.58243 0-8.5095-.64001-11.77967-1.9149-3.27273-1.27745-5.97202-3.07714-8.09889-5.39908-2.12635-2.32245-3.6813-5.0714-4.66282-8.24583-.981-3.17288-1.47303-6.6581-1.47303-10.45358 0-3.72995.47411-7.21516 1.42337-10.45513.94721-3.2374 2.40642-6.05189 4.36739-8.44038 1.96405-2.38953 4.43396-4.2865 7.41178-5.69349 2.97628-1.40699 6.49323-2.1115 10.5524-2.1115 3.4678 0 6.51064.58982 9.12903 1.76743 2.61634 1.17761 4.80926 2.79759 6.5767 4.85892 1.76641 2.06184 3.10786 4.51588 4.02435 7.36109.91546 2.84776 1.37524 5.93924 1.37524 9.27751 0 .91649-.0348 1.8811-.0998 2.89487a98.651413 98.651413 0 0 1 -.19559 2.60098h-34.25768l.001.002zm45.25604-27.58371a27.433179 27.433179 0 0 1 2.06133-.29389c.65281-.064 1.34145-.0973 2.06133-.0973s1.43873.0333 2.15963.0973c.71937.0666 1.37422.16487 1.96354.29389.19456.98202.39117 2.27586.58676 3.87741.19609 1.60359.29593 2.96041.29593 4.0735 1.37371-2.22414 3.18979-4.15593 5.4467-5.7923 2.25794-1.63483 5.15332-2.45404 8.68666-2.45404.52327 0 1.06293.0174 1.61947.0502.47617.0256.95233.0737 1.42337.14592.13005.58983.23041 1.21243.29492 1.86574.0645.65383.0973 1.34146.0973 2.06082 0 .78593-.0486 1.60462-.14643 2.45352a50.843543 50.843543 0 0 1 -.34305 2.45353 6.7625501 6.7625501 0 0 0 -1.62049-.1961h-1.32609c-1.76641 0-3.45193.24576-5.05502.73575-1.60462.49152-3.04335 1.35886-4.31926 2.60098-1.27489 1.24417-2.2902 2.94607-3.04131 5.10571-.75418 2.15963-1.12948 4.94084-1.12948 8.3431v25.03188c-.79616.13824-1.59899.23706-2.40539.29389-.88219.0655-1.6845.0973-2.40386.0973a33.029384 33.029384 0 0 1 -2.4054-.0973 28.621029 28.621029 0 0 1 -2.5037-.29337v-50.35561zm-68.8922-26.88841a9.755726 9.755726 0 0 1 -.62618 3.43965 9.7690382 9.7690382 0 0 1 -3.44067.62669h-.0143a9.7587981 9.7587981 0 0 1 -3.44067-.62618 9.745998 9.745998 0 0 1 -.6272-3.44067v-.0154c0-1.21089.22221-2.37058.62464-3.44067a9.7372939 9.7372939 0 0 1 3.44169-.62618h.0133c1.21141 0 2.37058.22221 3.44067.62618a9.7398539 9.7398539 0 0 1 .62618 3.44067v.0154h.002zm11.99421-2.72386h-9.51099l6.72466-6.72517a16.360579 16.360579 0 0 0 -3.84105-3.84003l-6.72569 6.72517v-9.5115a16.371843 16.371843 0 0 0 -2.70645-.22682h-.0174c-.92263 0-1.82632.0789-2.70696.22682v9.5115l-6.72722-6.72568a16.27149 16.27149 0 0 0 -2.07874 1.75924l-.003.003a16.396931 16.396931 0 0 0 -1.75771 2.07874l6.72722 6.72466h-9.51304s-.2263 1.7869-.2263 2.71055v.0113c0 .92365.0783 1.82887.22681 2.71003h9.51304l-6.72825 6.72415a16.409731 16.409731 0 0 0 3.84157 3.84106l6.7262-6.72466v9.51201c.87962.14746 1.78177.22528 2.70338.2263h.023a16.440452 16.440452 0 0 0 2.70338-.2263v-9.51201l6.72671 6.72619a16.420995 16.420995 0 0 0 2.08027-1.75924h.002a16.453252 16.453252 0 0 0 1.7572-2.08027l-6.72466-6.72671h9.51303c.14746-.88065.22529-1.7828.22529-2.70441v-.0236c0-.90625-.0758-1.80994-.22529-2.70338v-.001zm-172.40509 78.5957 26.50338-41.22862h-23.3627469c-.1955855-1.1776-.2933783-2.48526-.2933783-3.92553 0-1.37371.099329-2.65116.2954263-3.82979h37.7910219l.491524 1.27847-26.699477 41.32488h25.029832c.196098 1.30919.294914 2.64962.294914 4.02333 0 1.31073-.0983 2.55336-.294402 3.73097h-39.26457007l-.49152393-1.37524zm76.465764-22.28395c-.981512-.12954-2.22517-.25908-3.72995-.39168-1.505292-.12954-2.781206-.1961-3.826719-.1961-4.058144 0-7.150137.75264-9.275466 2.25794-2.128401 1.50631-3.189785 3.79548-3.189785 6.87109 0 1.96302.358402 3.50108 1.078792 4.61316.718854 1.11412 1.619469 1.96302 2.699286 2.55234 1.080328.5888 2.273298.94925 3.581468 1.08033 1.308171.13056 2.552341.19558 3.72995.19558 1.505292 0 3.059225-.0819 4.662822-.24576 1.602572-.16231 3.025944-.40858 4.270114-.73575v-16.00115zm0-9.52021c0-3.86255-.981512-6.54546-2.944024-8.05075-1.964048-1.50529-4.810278-2.25794-8.540228-2.25794-2.292242 0-4.433956.18125-6.429236.54068a49.18977 49.18977 0 0 0 -5.841966 1.42184c-1.24417-2.15964-1.863695-4.7427-1.863695-7.75482 2.222098-.71885 4.675621-1.27489 7.360059-1.6676 2.682901-.39322 5.267498-.58982 7.755326-.58982 6.543412 0 11.516508 1.48993 14.919799 4.46723 3.401755 2.97986 5.104681 7.73997 5.104681 14.28287v31.50975c-2.29173.52327-5.071913 1.06292-8.343619 1.61947a59.790302 59.790302 0 0 1 -10.01224.83457c-3.20617 0-6.103089-.29338-8.686661-.8827-2.585621-.59034-4.778023-1.53703-6.577205-2.84776-1.80123-1.30766-3.189786-2.97679-4.172833-5.00484-.981-2.02908-1.472012-4.4826-1.472012-7.36262 0-2.81295.57242-5.28388 1.717774-7.41177a15.47942 15.47942 0 0 1 4.663333-5.30027c1.963024-1.40494 4.22045-2.45352 6.77279-3.13961 2.552852-.68762 5.23473-1.03169 8.048704-1.03169 2.094097 0 3.811871.0502 5.153834.14848 1.340426.0973 2.469907.21197 3.386395.34305v-1.86523zm29.839596 24.93051a19.261594 19.261594 0 0 0 3.82877.98202c1.30868.19712 3.00854.29492 5.10468.29492 2.35522 0 4.51383-.3753 6.47685-1.12795 1.96405-.75111 3.64854-1.91387 5.05553-3.48521 1.40699-1.56981 2.51906-3.54819 3.33724-5.93925.81767-2.38696 1.22779-5.2163 1.22779-8.49005 0-5.23473-.96667-9.39016-2.8959-12.46628-1.93179-3.07509-5.08932-4.61315-9.47207-4.61315-1.63586 0-3.20771.29389-4.71044.88372-1.50734.5888-2.84777 1.47252-4.02589 2.65013-1.17761 1.17761-2.12635 2.66754-2.84572 4.46672-.72192 1.80123-1.08033 3.94243-1.08033 6.42975v20.41616-.001zm-9.717835-42.1108c.665605-.13108 1.33633-.22887 2.012176-.29389a22.871223 22.871223 0 0 1 2.110989-.0973c.6523 0 1.33889.0338 2.06031.0973.71885.0666 1.40596.16537 2.06133.2944.0645.13312.14745.54016.24576 1.22778.0973.68763.19558 1.42338.2944 2.20777.0983.78592.1961 1.5401.2944 2.25793.0983.72091.14746 1.17915.14746 1.37525.65281-1.04603 1.43873-2.06133 2.35522-3.04284.91649-.98203 2.01371-1.86523 3.28963-2.64962 1.27591-.78593 2.71464-1.40699 4.31875-1.86575 1.60257-.45773 3.38588-.68864 5.34942-.68864 2.94402 0 5.67659.49152 8.19718 1.47355 2.51804.98304 4.67614 2.50216 6.47686 4.564 1.79867 2.06184 3.20514 4.67972 4.22045 7.85261 1.01376 3.17647 1.52065 6.92229 1.52065 11.24053 0 8.63751-2.33986 15.39597-7.01958 20.27025-4.67972 4.87581-11.30351 7.31244-19.876 7.31244-1.44026 0-2.91176-.0983-4.41706-.2944-1.50631-.19712-2.81397-.45927-3.92707-.78491v23.06784a28.523748 28.523748 0 0 1 -2.50165.2944c-.88423.064-1.68654.0973-2.40642.0973a33.305866 33.305866 0 0 1 -2.40437-.0973 23.71091 23.71091 0 0 1 -2.404371-.2944v-73.52379z"/></svg>