<?xml version="1.0" ?><svg enable-background="new 0 0 512 512" id="Layer_1" version="1.1" viewBox="0 0 512 512" xml:space="preserve" xmlns="http://www.w3.org/2000/svg" xmlns:xlink="http://www.w3.org/1999/xlink"><g><g><linearGradient gradientUnits="userSpaceOnUse" id="SVGID_1_" x1="-0.0000027" x2="512" y1="256" y2="256"><stop offset="0" style="stop-color:#33B49D"/><stop offset="1" style="stop-color:#00A185"/></linearGradient><circle cx="256" cy="256" fill="url(#SVGID_1_)" r="256"/><linearGradient gradientUnits="userSpaceOnUse" id="SVGID_2_" x1="42.6666641" x2="469.3333435" y1="256.0005188" y2="256.0005188"><stop offset="0" style="stop-color:#00A185"/><stop offset="1" style="stop-color:#33B49D"/></linearGradient><path d="M256,469.3338623c-117.6314697,0-213.3333435-95.7018738-213.3333435-213.3333435    c0-117.6309204,95.7018661-213.333313,213.3333435-213.333313c117.636261,0,213.3333435,95.7024002,213.3333435,213.333313    C469.3333435,373.6319885,373.636261,469.3338623,256,469.3338623z" fill="url(#SVGID_2_)"/></g><path d="M364.0303955,279.3434753v-32.6176147H332.979187v-33.7450562   C332.979187,174.9450684,302.0335999,144,263.9979858,144c-38.0350037,0-68.9809723,30.9450684-68.9809723,68.9808044v33.7450562   h-31.0474091v32.6176147h21.5461273v10h-21.5461273v21.0207825h21.5461273v10h-21.5461273v21.0202637h21.5461273v10h-21.5461273   V384h200.060791v-32.6154785h-21.5466614v-10h21.5466614v-21.0202637h-21.5466614v-10h21.5466614v-21.0207825h-21.5466614v-10   H364.0303955z M227.8675232,212.9808044c0-19.9216003,16.2084656-36.1301422,36.1304626-36.1301422   c19.9220276,0,36.131073,16.2085419,36.131073,36.1301422v33.7450562h-72.2615356V212.9808044z M283.6299744,350.4250793   h-39.2634735l7.9490204-34.7962646c-4.7990417-3.5792236-7.9490204-9.2490845-7.9490204-15.6960144   c0-10.8421326,8.789978-19.6319885,19.631485-19.6319885c10.8424988,0,19.6319885,8.789856,19.6319885,19.6319885   c0,6.4469299-3.1495056,12.1167908-7.9494934,15.6960144L283.6299744,350.4250793z" opacity="0.3"/><path d="M356.0303955,271.3434753v-32.6176147H324.979187v-33.7450562   C324.979187,166.9450684,294.0335083,136,255.9979706,136c-38.0349884,0-68.9809113,30.9450684-68.9809113,68.9808044v33.7450562   h-31.0474548v32.6176147h21.5461273v10h-21.5461273v21.0207825h21.5461273v10h-21.5461273v21.0202637h21.5461273v10h-21.5461273   V376h200.060791v-32.6154785h-21.5466614v-10h21.5466614v-21.0202637h-21.5466614v-10h21.5466614v-21.0207825h-21.5466614v-10   H356.0303955z M219.8675232,204.9808044c0-19.9216003,16.2084656-36.1301422,36.1304474-36.1301422   c19.9220428,0,36.1310577,16.2085419,36.1310577,36.1301422v33.7450562h-72.2615051V204.9808044z M275.6299744,342.4250793   h-39.2634735l7.9490051-34.7962646c-4.7990112-3.5792236-7.9490051-9.2490845-7.9490051-15.6960144   c0-10.8421326,8.7899933-19.6319885,19.6314697-19.6319885c10.842514,0,19.6320038,8.789856,19.6320038,19.6319885   c0,6.4469299-3.1495056,12.1167908-7.9494934,15.6960144L275.6299744,342.4250793z" fill="#FFFFFF"/></g></svg>