<?xml version="1.0" ?><!DOCTYPE svg  PUBLIC '-//W3C//DTD SVG 1.1//EN'  'http://www.w3.org/Graphics/SVG/1.1/DTD/svg11.dtd'><svg enable-background="new 0 0 512 512" height="512px" id="Layer_1" version="1.1" viewBox="0 0 512 512" width="512px" xml:space="preserve" xmlns="http://www.w3.org/2000/svg" xmlns:xlink="http://www.w3.org/1999/xlink"><path d="M492.775,442.732c0,34.171-27.703,61.872-61.873,61.872H81.159c-34.171,0-61.874-27.701-61.874-61.872  V92.987c0-34.171,27.703-61.873,61.874-61.873h349.744c34.17,0,61.873,27.701,61.873,61.873V442.732z" fill="#257016"/><path d="M492.775,417.988c0,34.172-27.703,61.873-61.873,61.873H81.159c-34.171,0-61.874-27.701-61.874-61.873  V68.243c0-34.171,27.703-61.872,61.874-61.872h349.744c34.17,0,61.873,27.701,61.873,61.872V417.988z" fill="#65BC54"/><path d="M492.775,417.988V263.633c-6.494-6.465-12.995-12.921-19.495-19.374c-16.528-16.797-33.276-33.398-50-50  c-16.462-16.729-33.175-33.224-49.794-49.798c-13.978-13.941-31.047-24.604-49.303-31.999  c-20.192-8.179-41.915-12.398-63.674-12.904c-20.203-0.469-40.509,2.229-59.796,8.304c-17.497,5.512-34.192,13.809-48.782,24.968  c-13.372,10.229-24.984,22.918-33.177,37.676c-7.883,14.198-12.383,30.174-12.593,46.438c-0.273,21.133,6.752,41.688,18.873,58.899  c6.483,9.207,14.486,16.968,22.418,24.896c8.335,8.332,16.666,16.669,25,25c1,1,2,2.001,3,3c0.5,0.501,1,1.002,1.502,1.5  c0.313,0.313,0.393,1.089,0.508,1.514c0.538,1.992,0.909,4.027,1.115,6.08c0.431,4.296,0.134,8.645-0.744,12.869  c-2.096,10.086-7.35,19.297-13.758,27.259c-2.478,3.077-5.153,5.995-7.969,8.765l93.135,93.135h181.661  C465.072,479.861,492.775,452.16,492.775,417.988z" fill="#449234"/><path d="M256.033,99.506c-82.739,0-149.879,53.176-149.879,118.677c0,38.637,23.365,72.983,59.5,94.654  c19.702,18.044,17.766,47.026-9.548,73.89c33.139,0,85.834-19.568,97.56-50.032c0.802,0,1.581,0,2.367,0  c82.732,0,149.873-53.074,149.873-118.566C405.906,152.62,338.766,99.506,256.033,99.506z M175.851,258.979  c-8.414,0-16.722-2.186-20.867-4.477l3.387-13.771c4.478,2.296,11.358,4.587,18.461,4.587c7.648,0,11.691-3.165,11.691-7.975  c0-4.588-3.499-7.21-12.343-10.378c-12.237-4.261-20.212-11.035-20.212-21.741c0-12.565,10.489-22.177,27.859-22.177  c8.303,0,14.417,1.747,18.792,3.711l-3.715,13.44c-2.957-1.418-8.197-3.497-15.409-3.497c-7.209,0-10.707,3.279-10.707,7.106  c0,4.695,4.154,6.766,13.663,10.372c12.994,4.813,19.112,11.585,19.112,21.964C205.563,248.493,196.059,258.979,175.851,258.979z   M280.218,257.885l-1.091-28.188c-0.324-8.849-0.656-19.557-0.656-30.263h-0.324c-2.296,9.396-5.355,19.88-8.196,28.517  l-8.961,28.735h-13.002l-7.866-28.516c-2.403-8.631-4.912-19.119-6.663-28.736h-0.218c-0.438,9.94-0.762,21.305-1.308,30.481  l-1.315,27.97h-15.405l4.698-73.636h22.185l7.208,24.581c2.292,8.52,4.589,17.703,6.226,26.329h0.328  c2.08-8.52,4.592-18.242,6.996-26.436l7.861-24.473h21.744l4.039,73.636H280.218z M327.359,258.979  c-8.41,0-16.718-2.186-20.867-4.477l3.391-13.771c4.475,2.296,11.355,4.587,18.461,4.587c7.646,0,11.695-3.165,11.695-7.975  c0-4.588-3.503-7.21-12.348-10.378c-12.24-4.261-20.215-11.035-20.215-21.741c0-12.565,10.488-22.177,27.859-22.177  c8.303,0,14.418,1.747,18.796,3.711l-3.715,13.44c-2.956-1.418-8.197-3.497-15.41-3.497c-7.208,0-10.706,3.279-10.706,7.106  c0,4.695,4.154,6.766,13.659,10.372c12.998,4.813,19.116,11.585,19.116,21.964C357.076,248.493,347.571,258.979,327.359,258.979z" fill="#FFFFFF"/></svg>