<svg xmlns="http://www.w3.org/2000/svg" xmlns:xlink="http://www.w3.org/1999/xlink" width="170" height="112" version="1.1" viewBox="0 0 170 112"><title>Group 47</title><desc>Created with Sketch.</desc><g id="Page-1" fill="none" fill-rule="evenodd" stroke="none" stroke-width="1"><g id="Premium-Page-Design-for-weForms" fill-rule="nonzero" transform="translate(-995.000000, -1844.000000)"><g id="Group-47" transform="translate(995.000000, 1844.000000)"><rect id="Rectangle" width="170" height="112" x="0" y="0" fill="#E8E8E8" rx="5"/><path id="Shape" fill="#FFF" d="M74.5,53 C72.575,53 71,54.575 71,56.5 C71,58.425 72.575,60 74.5,60 C76.425,60 78,58.425 78,56.5 C78,54.575 76.425,53 74.5,53 Z M95.5,53 C93.575,53 92,54.575 92,56.5 C92,58.425 93.575,60 95.5,60 C97.425,60 99,58.425 99,56.5 C99,54.575 97.425,53 95.5,53 Z M85,53 C83.075,53 81.5,54.575 81.5,56.5 C81.5,58.425 83.075,60 85,60 C86.925,60 88.5,58.425 88.5,56.5 C88.5,54.575 86.925,53 85,53 Z" transform="translate(85.000000, 56.500000) scale(1, -1) translate(-85.000000, -56.500000)"/></g></g></g></svg>