<svg xmlns="http://www.w3.org/2000/svg" xmlns:xlink="http://www.w3.org/1999/xlink" width="290" height="182" version="1.1" viewBox="0 0 290 182"><title>Group 9</title><desc>Created with Sketch.</desc><defs><path id="path-1" d="M140,0 L286.048193,-4.4408921e-16 C287.977862,-7.98563766e-16 289.542169,1.5643063 289.542169,3.4939759 L289.542169,37.0361446 L140,37.0361446 L140,0 Z"/><filter id="filter-2" width="100.7%" height="105.4%" x="-.3%" y="-1.4%" filterUnits="objectBoundingBox"><feOffset dx="0" dy="1" in="SourceAlpha" result="shadowOffsetOuter1"/><feColorMatrix in="shadowOffsetOuter1" type="matrix" values="0 0 0 0 0.91372549 0 0 0 0 0.933333333 0 0 0 0 0.941176471 0 0 0 1 0"/></filter></defs><g id="Page-1" fill="none" fill-rule="evenodd" stroke="none" stroke-width="1"><g id="Premium-Page-Design-for-weForms" transform="translate(-221.000000, -623.000000)"><g id="Group-11" transform="translate(221.000000, 623.000000)"><g id="Group-9"><rect id="Rectangle-11-Copy-39" width="290" height="181.77" x="0" y="0" fill="#FFF"/><g id="Customizable-Custom-Fields"><g id="Group-5-Copy" fill="#FFF" transform="translate(0.000000, 21.024203)"><path id="Rectangle-5-Copy-8" d="M3.4939759,0 L136.987952,-4.4408921e-16 C138.917621,-7.98563766e-16 140.481928,1.5643063 140.481928,3.4939759 L140.481928,157.228916 C140.481928,159.158585 138.917621,160.722892 136.987952,160.722892 L3.4939759,160.722892 C1.5643063,160.722892 -1.54004047e-15,159.158585 -1.77635684e-15,157.228916 L4.4408921e-16,3.4939759 C2.07772839e-16,1.5643063 1.5643063,-1.42188228e-15 3.4939759,-1.77635684e-15 Z"/></g><path id="Rectangle-6-Copy-73" fill="#5DA9D6" d="M23.060241,59.4579379 L27.9518072,59.4579379 C29.4955429,59.4579379 30.746988,60.709383 30.746988,62.2531187 L30.746988,62.2531187 C30.746988,63.7968544 29.4955429,65.0482994 27.9518072,65.0482994 L23.060241,65.0482994 C21.5165053,65.0482994 20.2650602,63.7968544 20.2650602,62.2531187 L20.2650602,62.2531187 C20.2650602,60.709383 21.5165053,59.4579379 23.060241,59.4579379 Z"/><path id="Rectangle-6-Copy-75" fill="#5DA9D6" d="M23.060241,72.0362512 L27.9518072,72.0362512 C29.4955429,72.0362512 30.746988,73.2876962 30.746988,74.8314319 L30.746988,74.8314319 C30.746988,76.3751676 29.4955429,77.6266126 27.9518072,77.6266126 L23.060241,77.6266126 C21.5165053,77.6266126 20.2650602,76.3751676 20.2650602,74.8314319 L20.2650602,74.8314319 C20.2650602,73.2876962 21.5165053,72.0362512 23.060241,72.0362512 Z"/><path id="Rectangle-6-Copy-74" fill="#95A5A6" d="M42.626506,59.4579379 L85.253012,59.4579379 C86.7967477,59.4579379 88.0481928,60.709383 88.0481928,62.2531187 L88.0481928,62.2531187 C88.0481928,63.7968544 86.7967477,65.0482994 85.253012,65.0482994 L42.626506,65.0482994 C41.0827703,65.0482994 39.8313253,63.7968544 39.8313253,62.2531187 L39.8313253,62.2531187 C39.8313253,60.709383 41.0827703,59.4579379 42.626506,59.4579379 Z" opacity=".2"/><path id="Rectangle-6-Copy-77" fill="#95A5A6" d="M24.4578313,111.867577 L58.6987952,111.867577 C60.2425309,111.867577 61.4939759,113.119022 61.4939759,114.662757 L61.4939759,118.156733 C61.4939759,119.700469 60.2425309,120.951914 58.6987952,120.951914 L24.4578313,120.951914 C22.9140956,120.951914 21.6626506,119.700469 21.6626506,118.156733 L21.6626506,114.662757 C21.6626506,113.119022 22.9140956,111.867577 24.4578313,111.867577 Z" opacity=".2"/><path id="Rectangle-6-Copy-82" fill="#95A5A6" d="M24.4578313,148.903721 L58.6987952,148.903721 C60.2425309,148.903721 61.4939759,150.155166 61.4939759,151.698902 L61.4939759,155.192878 C61.4939759,156.736613 60.2425309,157.988058 58.6987952,157.988058 L24.4578313,157.988058 C22.9140956,157.988058 21.6626506,156.736613 21.6626506,155.192878 L21.6626506,151.698902 C21.6626506,150.155166 22.9140956,148.903721 24.4578313,148.903721 Z" opacity=".2"/><path id="Rectangle-6-Copy-81" fill="#95A5A6" d="M69.8795181,111.867577 L104.120482,111.867577 C105.664218,111.867577 106.915663,113.119022 106.915663,114.662757 L106.915663,118.156733 C106.915663,119.700469 105.664218,120.951914 104.120482,120.951914 L69.8795181,120.951914 C68.3357824,120.951914 67.0843373,119.700469 67.0843373,118.156733 L67.0843373,114.662757 C67.0843373,113.119022 68.3357824,111.867577 69.8795181,111.867577 Z" opacity=".2"/><path id="Rectangle-6-Copy-83" fill="#95A5A6" d="M69.8795181,148.903721 L104.120482,148.903721 C105.664218,148.903721 106.915663,150.155166 106.915663,151.698902 L106.915663,155.192878 C106.915663,156.736613 105.664218,157.988058 104.120482,157.988058 L69.8795181,157.988058 C68.3357824,157.988058 67.0843373,156.736613 67.0843373,155.192878 L67.0843373,151.698902 C67.0843373,150.155166 68.3357824,148.903721 69.8795181,148.903721 Z" opacity=".2"/><path id="Rectangle-6-Copy-76" fill="#95A5A6" d="M42.626506,72.0362512 L104.819277,72.0362512 C106.363013,72.0362512 107.614458,73.2876962 107.614458,74.8314319 L107.614458,74.8314319 C107.614458,76.3751676 106.363013,77.6266126 104.819277,77.6266126 L42.626506,77.6266126 C41.0827703,77.6266126 39.8313253,76.3751676 39.8313253,74.8314319 L39.8313253,74.8314319 C39.8313253,73.2876962 41.0827703,72.0362512 42.626506,72.0362512 Z" opacity=".2"/><text id="Format" fill="#758598" font-family="Lato-Regular, Lato" font-size="10.265" font-weight="normal" letter-spacing=".093" line-spacing="20.964"><tspan x="21.663" y="44.416">Format</tspan></text><text id="First-Name" fill="#758598" font-family="Lato-Regular, Lato" font-size="10.265" font-weight="normal" letter-spacing=".093" line-spacing="20.964"><tspan x="21.663" y="96.825">First Name</tspan></text><text id="Last-Name" fill="#758598" font-family="Lato-Regular, Lato" font-size="10.265" font-weight="normal" letter-spacing=".093" line-spacing="20.964"><tspan x="21.663" y="133.861">Last Name</tspan></text><path id="Rectangle-5-Copy-11" fill="#FFF" d="M143.951807,0.060347585 L286.506024,0.060347585 C288.435694,0.060347585 290,1.62465388 290,3.55432349 L290,178.253119 C290,180.182788 288.435694,181.747095 286.506024,181.747095 L143.951807,181.747095 C142.022138,181.747095 140.457831,180.182788 140.457831,178.253119 L140.457831,3.55432349 C140.457831,1.62465388 142.022138,0.060347585 143.951807,0.060347585 Z"/><g id="Rectangle-5-Copy-12"><use fill="#000" fill-opacity="1" filter="url(#filter-2)" xlink:href="#path-1"/><use fill="#FFF" fill-rule="evenodd" xlink:href="#path-1"/></g><path id="Rectangle-6-Copy-78" fill="#95A5A6" d="M162.819277,87.4097452 L266.939759,87.4097452 C268.483495,87.4097452 269.73494,88.6611902 269.73494,90.2049259 L269.73494,91.6025163 C269.73494,93.1462519 268.483495,94.397697 266.939759,94.397697 L162.819277,94.397697 C161.275541,94.397697 160.024096,93.1462519 160.024096,91.6025163 L160.024096,90.2049259 C160.024096,88.6611902 161.275541,87.4097452 162.819277,87.4097452 Z" opacity=".2"/><path id="Rectangle-6-Copy-79" fill="#95A5A6" d="M162.819277,117.457938 L266.939759,117.457938 C268.483495,117.457938 269.73494,118.709383 269.73494,120.253119 L269.73494,121.650709 C269.73494,123.194445 268.483495,124.44589 266.939759,124.44589 L162.819277,124.44589 C161.275541,124.44589 160.024096,123.194445 160.024096,121.650709 L160.024096,120.253119 C160.024096,118.709383 161.275541,117.457938 162.819277,117.457938 Z" opacity=".2"/><path id="Rectangle-6-Copy-80" fill="#FFF" stroke="#354D53" stroke-width=".699" d="M162.819277,149.253119 C161.468508,149.253119 160.373494,150.348133 160.373494,151.698902 L160.373494,164.97601 C160.373494,166.326779 161.468508,167.421793 162.819277,167.421793 L266.939759,167.421793 C268.290528,167.421793 269.385542,166.326779 269.385542,164.97601 L269.385542,151.698902 C269.385542,150.348133 268.290528,149.253119 266.939759,149.253119 L162.819277,149.253119 Z" opacity=".2"/><text id="Name" fill="#3B80F4" font-family="Lato-Regular, Lato" font-size="10.482" font-weight="normal" letter-spacing=".095" line-spacing="20.964"><tspan x="160.024" y="56.88">Name</tspan></text><text id="Field-Label-Copy" fill="#758598" font-family="Lato-Regular, Lato" font-size="10.265" font-weight="normal" letter-spacing=".093" line-spacing="20.964"><tspan x="160.024" y="75.277">Field Label</tspan></text><text id="Meta-Key-Copy" fill="#758598" font-family="Lato-Regular, Lato" font-size="10.265" font-weight="normal" letter-spacing=".093" line-spacing="20.964"><tspan x="160.024" y="105.325">Meta Key</tspan></text><text id="Help-Text-Copy" fill="#758598" font-family="Lato-Regular, Lato" font-size="10.265" font-weight="normal" letter-spacing=".093" line-spacing="20.964"><tspan x="160.024" y="135.958">Help Text</tspan></text><path id="Add-Fields-Copy" fill="#A0AAB5" d="M164.420844,20.9530891 L163.372222,18.0366966 C163.341151,17.9499881 163.308528,17.8491076 163.27435,17.7340521 C163.240173,17.6189966 163.207549,17.4964393 163.176479,17.3663766 C163.111231,17.6365069 163.04443,17.8616121 162.976075,18.041699 L161.927453,20.9530891 L164.420844,20.9530891 Z M166.303704,23.6143597 L165.604623,23.6143597 C165.523839,23.6143597 165.458592,23.5926829 165.40888,23.5493286 C165.359167,23.5059744 165.321883,23.4509487 165.297027,23.3842498 L164.672514,21.6534234 L161.675783,21.6534234 L161.05127,23.3842498 C161.032628,23.4442788 160.996897,23.4976371 160.944078,23.5443262 C160.891258,23.5910154 160.826011,23.6143597 160.748335,23.6143597 L160.049253,23.6143597 L162.719745,16.4459371 L163.633212,16.4459371 L166.303704,23.6143597 Z M170.046969,19.7525158 C169.891617,19.5290747 169.723839,19.3731685 169.54363,19.2847925 C169.363422,19.1964165 169.161467,19.1522292 168.937759,19.1522292 C168.499666,19.1522292 168.162557,19.3206413 167.926421,19.6574705 C167.690286,19.9942996 167.57222,20.4745241 167.57222,21.0981583 C167.57222,21.4283176 167.598629,21.7109497 167.651449,21.9460632 C167.704269,22.1811766 167.781944,22.3746003 167.884476,22.5263402 C167.987009,22.6780801 168.112842,22.7889652 168.26198,22.858999 C168.411119,22.9290328 168.58045,22.9640492 168.76998,22.9640492 C169.0434,22.9640492 169.281862,22.8973513 169.485374,22.7639537 C169.688885,22.630556 169.876082,22.4421346 170.046969,22.1986838 L170.046969,19.7525158 Z M170.876546,16.2458416 L170.876546,23.6143597 L170.382528,23.6143597 C170.264461,23.6143597 170.189893,23.5526642 170.158822,23.4292713 L170.084254,22.8139775 C169.882296,23.074103 169.652378,23.2842013 169.394493,23.4442785 C169.136608,23.6043557 168.838336,23.6843931 168.499668,23.6843931 C168.229355,23.6843931 167.983902,23.6285337 167.763302,23.5168131 C167.542702,23.4050925 167.354729,23.2408491 167.199376,23.0240779 C167.044024,22.8073066 166.924405,22.5371803 166.840514,22.2136909 C166.756624,21.8902015 166.71468,21.518361 166.71468,21.0981583 C166.71468,20.7246448 166.761285,20.3769823 166.854496,20.0551603 C166.947707,19.7333384 167.081308,19.4540412 167.255303,19.2172603 C167.429297,18.9804794 167.642903,18.7945591 167.896128,18.659494 C168.149352,18.5244288 168.434419,18.4568972 168.751338,18.4568972 C169.040293,18.4568972 169.288076,18.5094218 169.494695,18.6144725 C169.701313,18.7195232 169.885403,18.8654247 170.046969,19.0521815 L170.046969,16.2458416 L170.876546,16.2458416 Z M175.351517,19.7525158 C175.196164,19.5290747 175.028386,19.3731685 174.848178,19.2847925 C174.667969,19.1964165 174.466014,19.1522292 174.242307,19.1522292 C173.804214,19.1522292 173.467104,19.3206413 173.230969,19.6574705 C172.994833,19.9942996 172.876767,20.4745241 172.876767,21.0981583 C172.876767,21.4283176 172.903177,21.7109497 172.955997,21.9460632 C173.008816,22.1811766 173.086491,22.3746003 173.189024,22.5263402 C173.291556,22.6780801 173.41739,22.7889652 173.566528,22.858999 C173.715666,22.9290328 173.884998,22.9640492 174.074527,22.9640492 C174.347947,22.9640492 174.586409,22.8973513 174.789921,22.7639537 C174.993432,22.630556 175.180629,22.4421346 175.351517,22.1986838 L175.351517,19.7525158 Z M176.181094,16.2458416 L176.181094,23.6143597 L175.687076,23.6143597 C175.569008,23.6143597 175.49444,23.5526642 175.46337,23.4292713 L175.388801,22.8139775 C175.186843,23.074103 174.956925,23.2842013 174.69904,23.4442785 C174.441156,23.6043557 174.142884,23.6843931 173.804216,23.6843931 C173.533903,23.6843931 173.28845,23.6285337 173.06785,23.5168131 C172.847249,23.4050925 172.659276,23.2408491 172.503924,23.0240779 C172.348571,22.8073066 172.228952,22.5371803 172.145062,22.2136909 C172.061171,21.8902015 172.019227,21.518361 172.019227,21.0981583 C172.019227,20.7246448 172.065832,20.3769823 172.159043,20.0551603 C172.252255,19.7333384 172.385856,19.4540412 172.55985,19.2172603 C172.733845,18.9804794 172.947451,18.7945591 173.200675,18.659494 C173.453899,18.5244288 173.738966,18.4568972 174.055885,18.4568972 C174.34484,18.4568972 174.592624,18.5094218 174.799242,18.6144725 C175.005861,18.7195232 175.18995,18.8654247 175.351517,19.0521815 L175.351517,16.2458416 L176.181094,16.2458416 Z M181.150929,17.2363145 L181.150929,19.7425111 L183.89599,19.7425111 L183.89599,20.5328884 L181.150929,20.5328884 L181.150929,23.6143597 L180.246783,23.6143597 L180.246783,16.4459371 L184.362045,16.4459371 L184.362045,17.2363145 L181.150929,17.2363145 Z M186.264394,18.5469402 L186.264394,23.6143597 L185.434817,23.6143597 L185.434817,18.5469402 L186.264394,18.5469402 Z M186.441495,16.9561807 C186.441495,17.0428892 186.425183,17.1237604 186.392559,17.1987966 C186.359935,17.2738328 186.316437,17.3405306 186.262064,17.3988921 C186.207691,17.4572536 186.143997,17.5031083 186.070982,17.5364578 C185.997966,17.5698072 185.921068,17.5864817 185.840285,17.5864817 C185.759502,17.5864817 185.684157,17.5698072 185.614248,17.5364578 C185.54434,17.5031083 185.482977,17.4572536 185.430157,17.3988921 C185.377337,17.3405306 185.335392,17.2738328 185.304322,17.1987966 C185.273252,17.1237604 185.257717,17.0428892 185.257717,16.9561807 C185.257717,16.8694722 185.273252,16.7869336 185.304322,16.7085625 C185.335392,16.6301913 185.377337,16.5618261 185.430157,16.5034646 C185.482977,16.4451031 185.54434,16.3992483 185.614248,16.3658989 C185.684157,16.3325495 185.759502,16.315875 185.840285,16.315875 C185.921068,16.315875 185.997966,16.3325495 186.070982,16.3658989 C186.143997,16.3992483 186.207691,16.4451031 186.262064,16.5034646 C186.316437,16.5618261 186.359935,16.6301913 186.392559,16.7085625 C186.425183,16.7869336 186.441495,16.8694722 186.441495,16.9561807 Z M190.86986,20.527886 C190.86986,20.3211196 190.842674,20.1318645 190.7883,19.960115 C190.733927,19.7883654 190.654699,19.6399627 190.550613,19.5149024 C190.446527,19.3898421 190.319916,19.2931302 190.170778,19.2247639 C190.02164,19.1563975 189.852309,19.1222149 189.662779,19.1222149 C189.265077,19.1222149 188.950493,19.2464396 188.719019,19.4948928 C188.487544,19.743346 188.343845,20.0876737 188.287918,20.527886 L190.86986,20.527886 Z M191.540978,22.9040205 C191.438446,23.0374182 191.31572,23.1533057 191.172795,23.2516865 C191.029871,23.3500673 190.876852,23.4309385 190.713732,23.4943024 C190.550612,23.5576663 190.382057,23.6051885 190.208063,23.6368704 C190.034068,23.6685524 189.86163,23.6843931 189.690742,23.6843931 C189.364502,23.6843931 189.0639,23.6251988 188.788927,23.5068083 C188.513953,23.3884179 188.276268,23.2150035 188.075863,22.9865599 C187.875459,22.7581164 187.719332,22.4754843 187.607479,22.1386551 C187.495625,21.8018259 187.439699,21.4149784 187.439699,20.978101 C187.439699,20.6245971 187.490188,20.2944428 187.591167,19.9876281 C187.692146,19.6808134 187.837398,19.4148557 188.026928,19.1897471 C188.216457,18.9646385 188.447929,18.7878892 188.721349,18.659494 C188.994769,18.5310987 189.302362,18.466902 189.644137,18.466902 C189.926878,18.466902 190.188642,18.5177591 190.429439,18.6194749 C190.670235,18.7211906 190.878403,18.8679259 191.053952,19.059685 C191.2295,19.2514442 191.366984,19.4882216 191.46641,19.7700242 C191.565835,20.0518268 191.615547,20.3728102 191.615547,20.732984 C191.615547,20.8730515 191.601566,20.9664285 191.573602,21.0131177 C191.545639,21.0598069 191.49282,21.0831512 191.415144,21.0831512 L188.259955,21.0831512 C188.269276,21.4033056 188.310444,21.6817691 188.383459,21.91855 C188.456475,22.1553309 188.558229,22.3529233 188.688725,22.511333 C188.819221,22.6697428 188.974571,22.7881315 189.154779,22.8665026 C189.334988,22.9448738 189.536943,22.9840587 189.76065,22.9840587 C189.968822,22.9840587 190.148252,22.9582133 190.298943,22.9065217 C190.449635,22.8548301 190.579352,22.7989707 190.688099,22.7389417 C190.796845,22.6789128 190.887725,22.6230533 190.960741,22.5713617 C191.033756,22.5196701 191.096673,22.4938247 191.149493,22.4938247 C191.217848,22.4938247 191.270667,22.5221713 191.307951,22.5788653 L191.540978,22.9040205 Z M193.573823,16.2458416 L193.573823,23.6143597 L192.744246,23.6143597 L192.744246,16.2458416 L193.573823,16.2458416 Z M198.076757,19.7525158 C197.921405,19.5290747 197.753627,19.3731685 197.573418,19.2847925 C197.39321,19.1964165 197.191255,19.1522292 196.967547,19.1522292 C196.529454,19.1522292 196.192345,19.3206413 195.956209,19.6574705 C195.720074,19.9942996 195.602008,20.4745241 195.602008,21.0981583 C195.602008,21.4283176 195.628417,21.7109497 195.681237,21.9460632 C195.734057,22.1811766 195.811732,22.3746003 195.914264,22.5263402 C196.016797,22.6780801 196.14263,22.7889652 196.291768,22.858999 C196.440907,22.9290328 196.610238,22.9640492 196.799768,22.9640492 C197.073188,22.9640492 197.31165,22.8973513 197.515161,22.7639537 C197.718673,22.630556 197.90587,22.4421346 198.076757,22.1986838 L198.076757,19.7525158 Z M198.906334,16.2458416 L198.906334,23.6143597 L198.412316,23.6143597 C198.294249,23.6143597 198.219681,23.5526642 198.18861,23.4292713 L198.114041,22.8139775 C197.912084,23.074103 197.682166,23.2842013 197.424281,23.4442785 C197.166396,23.6043557 196.868124,23.6843931 196.529456,23.6843931 C196.259143,23.6843931 196.01369,23.6285337 195.79309,23.5168131 C195.57249,23.4050925 195.384516,23.2408491 195.229164,23.0240779 C195.073812,22.8073066 194.954192,22.5371803 194.870302,22.2136909 C194.786412,21.8902015 194.744468,21.518361 194.744468,21.0981583 C194.744468,20.7246448 194.791073,20.3769823 194.884284,20.0551603 C194.977495,19.7333384 195.111096,19.4540412 195.285091,19.2172603 C195.459085,18.9804794 195.672691,18.7945591 195.925916,18.659494 C196.17914,18.5244288 196.464207,18.4568972 196.781126,18.4568972 C197.070081,18.4568972 197.317864,18.5094218 197.524483,18.6144725 C197.731101,18.7195232 197.915191,18.8654247 198.076757,19.0521815 L198.076757,16.2458416 L198.906334,16.2458416 Z M203.055066,19.3823391 C203.017782,19.4557078 202.960302,19.4923916 202.882626,19.4923916 C202.836021,19.4923916 202.783202,19.4740497 202.724168,19.4373654 C202.665134,19.400681 202.592896,19.3598286 202.507452,19.3148068 C202.422009,19.2697851 202.320254,19.228099 202.202187,19.1897471 C202.084119,19.1513953 201.944304,19.1322197 201.782738,19.1322197 C201.642921,19.1322197 201.517087,19.1513953 201.405234,19.1897471 C201.29338,19.228099 201.19784,19.2806235 201.11861,19.3473224 C201.03938,19.4140212 200.978794,19.4915575 200.936849,19.5799334 C200.894904,19.6683094 200.873931,19.7641876 200.873931,19.8675708 C200.873931,19.9976335 200.908885,20.1060175 200.978794,20.192726 C201.048702,20.2794345 201.141135,20.3544696 201.256096,20.4178335 C201.371057,20.4811974 201.501551,20.5370568 201.647582,20.5854135 C201.793613,20.6337702 201.943526,20.685461 202.097324,20.7404875 C202.251123,20.7955141 202.401036,20.8563759 202.547067,20.9230747 C202.693098,20.9897736 202.823592,21.0731459 202.938553,21.1731941 C203.053513,21.2732424 203.145947,21.3957997 203.215855,21.5408697 C203.285764,21.6859397 203.320717,21.8601878 203.320717,22.0636193 C203.320717,22.2970652 203.28188,22.5129995 203.204204,22.7114286 C203.126528,22.9098576 203.011569,23.0816046 202.859324,23.2266746 C202.707078,23.3717446 202.520658,23.4859646 202.300058,23.5693382 C202.079458,23.6527117 201.824684,23.6943979 201.535729,23.6943979 C201.206382,23.6943979 200.90811,23.636871 200.640904,23.5218155 C200.373698,23.40676 200.146887,23.259191 199.960465,23.0791041 L200.156208,22.7389417 C200.181064,22.6955875 200.21058,22.6622385 200.244758,22.6388939 C200.278935,22.6155494 200.322433,22.6038772 200.375253,22.6038772 C200.43118,22.6038772 200.490213,22.6272215 200.552354,22.6739107 C200.614495,22.7205999 200.689839,22.7722907 200.77839,22.8289847 C200.866941,22.8856787 200.974909,22.9373696 201.102298,22.9840587 C201.229687,23.0307479 201.388144,23.0540922 201.577674,23.0540922 C201.73924,23.0540922 201.880609,23.0315817 202.001783,22.9865599 C202.122958,22.9415382 202.223936,22.8806764 202.304719,22.8039728 C202.385502,22.7272691 202.445312,22.6388944 202.48415,22.5388462 C202.522988,22.4387979 202.542406,22.3320814 202.542406,22.2186933 C202.542406,22.0786257 202.507453,21.9627382 202.437544,21.8710273 C202.367636,21.7793164 202.275202,21.7009464 202.160242,21.6359151 C202.045281,21.5708837 201.91401,21.5141905 201.766426,21.4658339 C201.618841,21.4174772 201.468152,21.3666201 201.314353,21.313261 C201.160554,21.2599019 201.009865,21.1990402 200.86228,21.1306738 C200.714695,21.0623075 200.583425,20.976434 200.468464,20.8730508 C200.353503,20.7696676 200.26107,20.642108 200.191162,20.4903681 C200.121253,20.3386283 200.086299,20.1543755 200.086299,19.9376042 C200.086299,19.7441776 200.123583,19.5582573 200.198152,19.3798379 C200.272722,19.2014185 200.381466,19.0446786 200.524391,18.9096134 C200.667315,18.7745482 200.84286,18.666998 201.051032,18.5869593 C201.259204,18.5069207 201.49689,18.466902 201.764095,18.466902 C202.0748,18.466902 202.353653,18.5194266 202.600663,18.6244772 C202.847673,18.7295279 203.06128,18.873762 203.241488,19.0571838 L203.055066,19.3823391 Z"/><path id="Field-Options-Copy" fill="#8E44AD" d="M220.610014,17.2363145 L220.610014,19.7425111 L223.355075,19.7425111 L223.355075,20.5328884 L220.610014,20.5328884 L220.610014,23.6143597 L219.705869,23.6143597 L219.705869,16.4459371 L223.82113,16.4459371 L223.82113,17.2363145 L220.610014,17.2363145 Z M225.72348,18.5469402 L225.72348,23.6143597 L224.893903,23.6143597 L224.893903,18.5469402 L225.72348,18.5469402 Z M225.90058,16.9561807 C225.90058,17.0428892 225.884268,17.1237604 225.851644,17.1987966 C225.819021,17.2738328 225.775523,17.3405306 225.721149,17.3988921 C225.666776,17.4572536 225.603082,17.5031083 225.530067,17.5364578 C225.457051,17.5698072 225.380153,17.5864817 225.29937,17.5864817 C225.218587,17.5864817 225.143242,17.5698072 225.073333,17.5364578 C225.003425,17.5031083 224.942062,17.4572536 224.889242,17.3988921 C224.836422,17.3405306 224.794478,17.2738328 224.763407,17.1987966 C224.732337,17.1237604 224.716802,17.0428892 224.716802,16.9561807 C224.716802,16.8694722 224.732337,16.7869336 224.763407,16.7085625 C224.794478,16.6301913 224.836422,16.5618261 224.889242,16.5034646 C224.942062,16.4451031 225.003425,16.3992483 225.073333,16.3658989 C225.143242,16.3325495 225.218587,16.315875 225.29937,16.315875 C225.380153,16.315875 225.457051,16.3325495 225.530067,16.3658989 C225.603082,16.3992483 225.666776,16.4451031 225.721149,16.5034646 C225.775523,16.5618261 225.819021,16.6301913 225.851644,16.7085625 C225.884268,16.7869336 225.90058,16.8694722 225.90058,16.9561807 Z M230.328945,20.527886 C230.328945,20.3211196 230.301759,20.1318645 230.247386,19.960115 C230.193012,19.7883654 230.113784,19.6399627 230.009698,19.5149024 C229.905612,19.3898421 229.779002,19.2931302 229.629863,19.2247639 C229.480725,19.1563975 229.311394,19.1222149 229.121864,19.1222149 C228.724162,19.1222149 228.409579,19.2464396 228.178104,19.4948928 C227.946629,19.743346 227.80293,20.0876737 227.747003,20.527886 L230.328945,20.527886 Z M231.000064,22.9040205 C230.897531,23.0374182 230.774805,23.1533057 230.631881,23.2516865 C230.488957,23.3500673 230.335937,23.4309385 230.172817,23.4943024 C230.009697,23.5576663 229.841142,23.6051885 229.667148,23.6368704 C229.493153,23.6685524 229.320715,23.6843931 229.149827,23.6843931 C228.823588,23.6843931 228.522985,23.6251988 228.248012,23.5068083 C227.973038,23.3884179 227.735353,23.2150035 227.534949,22.9865599 C227.334544,22.7581164 227.178417,22.4754843 227.066564,22.1386551 C226.95471,21.8018259 226.898784,21.4149784 226.898784,20.978101 C226.898784,20.6245971 226.949273,20.2944428 227.050252,19.9876281 C227.151231,19.6808134 227.296483,19.4148557 227.486013,19.1897471 C227.675543,18.9646385 227.907014,18.7878892 228.180434,18.659494 C228.453854,18.5310987 228.761447,18.466902 229.103222,18.466902 C229.385963,18.466902 229.647728,18.5177591 229.888524,18.6194749 C230.12932,18.7211906 230.337489,18.8679259 230.513037,19.059685 C230.688585,19.2514442 230.82607,19.4882216 230.925495,19.7700242 C231.02492,20.0518268 231.074632,20.3728102 231.074632,20.732984 C231.074632,20.8730515 231.060651,20.9664285 231.032687,21.0131177 C231.004724,21.0598069 230.951905,21.0831512 230.874229,21.0831512 L227.71904,21.0831512 C227.728361,21.4033056 227.769529,21.6817691 227.842545,21.91855 C227.91556,22.1553309 228.017314,22.3529233 228.14781,22.511333 C228.278306,22.6697428 228.433656,22.7881315 228.613865,22.8665026 C228.794073,22.9448738 228.996028,22.9840587 229.219736,22.9840587 C229.427908,22.9840587 229.607337,22.9582133 229.758028,22.9065217 C229.90872,22.8548301 230.038437,22.7989707 230.147184,22.7389417 C230.255931,22.6789128 230.34681,22.6230533 230.419826,22.5713617 C230.492841,22.5196701 230.555758,22.4938247 230.608578,22.4938247 C230.676933,22.4938247 230.729752,22.5221713 230.767036,22.5788653 L231.000064,22.9040205 Z M233.032909,16.2458416 L233.032909,23.6143597 L232.203332,23.6143597 L232.203332,16.2458416 L233.032909,16.2458416 Z M237.535842,19.7525158 C237.38049,19.5290747 237.212712,19.3731685 237.032503,19.2847925 C236.852295,19.1964165 236.65034,19.1522292 236.426633,19.1522292 C235.988539,19.1522292 235.65143,19.3206413 235.415294,19.6574705 C235.179159,19.9942996 235.061093,20.4745241 235.061093,21.0981583 C235.061093,21.4283176 235.087502,21.7109497 235.140322,21.9460632 C235.193142,22.1811766 235.270817,22.3746003 235.37335,22.5263402 C235.475882,22.6780801 235.601715,22.7889652 235.750854,22.858999 C235.899992,22.9290328 236.069323,22.9640492 236.258853,22.9640492 C236.532273,22.9640492 236.770735,22.8973513 236.974247,22.7639537 C237.177758,22.630556 237.364955,22.4421346 237.535842,22.1986838 L237.535842,19.7525158 Z M238.365419,16.2458416 L238.365419,23.6143597 L237.871402,23.6143597 C237.753334,23.6143597 237.678766,23.5526642 237.647695,23.4292713 L237.573127,22.8139775 C237.371169,23.074103 237.141251,23.2842013 236.883366,23.4442785 C236.625481,23.6043557 236.327209,23.6843931 235.988541,23.6843931 C235.718228,23.6843931 235.472776,23.6285337 235.252175,23.5168131 C235.031575,23.4050925 234.843602,23.2408491 234.688249,23.0240779 C234.532897,22.8073066 234.413278,22.5371803 234.329387,22.2136909 C234.245497,21.8902015 234.203553,21.518361 234.203553,21.0981583 C234.203553,20.7246448 234.250158,20.3769823 234.343369,20.0551603 C234.43658,19.7333384 234.570181,19.4540412 234.744176,19.2172603 C234.918171,18.9804794 235.131777,18.7945591 235.385001,18.659494 C235.638225,18.5244288 235.923292,18.4568972 236.240211,18.4568972 C236.529166,18.4568972 236.776949,18.5094218 236.983568,18.6144725 C237.190186,18.7195232 237.374276,18.8654247 237.535842,19.0521815 L237.535842,16.2458416 L238.365419,16.2458416 Z M248.601671,20.0326496 C248.601671,20.5695753 248.522442,21.0623056 248.363983,21.5108554 C248.205524,21.9594051 247.98182,22.3454189 247.692864,22.6689083 C247.403909,22.9923977 247.056702,23.2433483 246.651233,23.4217677 C246.245763,23.6001871 245.797579,23.6893955 245.306665,23.6893955 C244.815752,23.6893955 244.368344,23.6001871 243.964428,23.4217677 C243.560513,23.2433483 243.214082,22.9923977 242.925127,22.6689083 C242.636172,22.3454189 242.412468,21.9594051 242.254009,21.5108554 C242.095549,21.0623056 242.016321,20.5695753 242.016321,20.0326496 C242.016321,19.4957239 242.095549,19.0029935 242.254009,18.5544438 C242.412468,18.1058941 242.636172,17.7190466 242.925127,17.3938897 C243.214082,17.0687328 243.560513,16.8161147 243.964428,16.6360279 C244.368344,16.455941 244.815752,16.3658989 245.306665,16.3658989 C245.797579,16.3658989 246.245763,16.455941 246.651233,16.6360279 C247.056702,16.8161147 247.403909,17.0687328 247.692864,17.3938897 C247.98182,17.7190466 248.205524,18.1058941 248.363983,18.5544438 C248.522442,19.0029935 248.601671,19.4957239 248.601671,20.0326496 Z M247.674222,20.0326496 C247.674222,19.5924372 247.618296,19.1972525 247.506443,18.8470835 C247.394589,18.4969146 247.236132,18.2009429 247.031067,17.9591596 C246.826002,17.7173763 246.577442,17.531456 246.28538,17.4013933 C245.993318,17.2713305 245.667083,17.2063001 245.306665,17.2063001 C244.949355,17.2063001 244.624674,17.2713305 244.332612,17.4013933 C244.040549,17.531456 243.791213,17.7173763 243.584594,17.9591596 C243.377976,18.2009429 243.218742,18.4969146 243.106888,18.8470835 C242.995035,19.1972525 242.939109,19.5924372 242.939109,20.0326496 C242.939109,20.472862 242.995035,20.867213 243.106888,21.2157144 C243.218742,21.5642159 243.377976,21.8593539 243.584594,22.1011372 C243.791213,22.3429205 244.040549,22.528007 244.332612,22.6564023 C244.624674,22.7847976 244.949355,22.8489943 245.306665,22.8489943 C245.667083,22.8489943 245.993318,22.7847976 246.28538,22.6564023 C246.577442,22.528007 246.826002,22.3429205 247.031067,22.1011372 C247.236132,21.8593539 247.394589,21.5642159 247.506443,21.2157144 C247.618296,20.867213 247.674222,20.472862 247.674222,20.0326496 Z M250.522662,22.3937769 C250.674908,22.6138831 250.841132,22.7689556 251.021341,22.858999 C251.201549,22.9490425 251.403504,22.9940635 251.627212,22.9940635 C252.068412,22.9940635 252.407075,22.8256515 252.64321,22.4888223 C252.879346,22.1519931 252.997412,21.6717686 252.997412,21.0481344 C252.997412,20.7179751 252.970226,20.4345093 252.915852,20.1977284 C252.861479,19.9609475 252.783027,19.76669 252.680495,19.6149502 C252.577962,19.4632103 252.452129,19.3523251 252.302991,19.2822913 C252.153852,19.2122575 251.984521,19.1772412 251.794991,19.1772412 C251.524678,19.1772412 251.28777,19.243939 251.084258,19.3773367 C250.880747,19.5107344 250.69355,19.6991558 250.522662,19.9426066 L250.522662,22.3937769 Z M250.480718,19.3323152 C250.679569,19.0688548 250.909486,18.8570891 251.170478,18.6970119 C251.43147,18.5369347 251.729742,18.4568972 252.065303,18.4568972 C252.338723,18.4568972 252.585729,18.5127567 252.806329,18.6244772 C253.02693,18.7361978 253.214903,18.901275 253.370255,19.1197137 C253.525608,19.3381524 253.645227,19.6091124 253.729117,19.9326018 C253.813008,20.2560912 253.854952,20.6279317 253.854952,21.0481344 C253.854952,21.421648 253.808347,21.7693105 253.715136,22.0911324 C253.621924,22.4129543 253.487547,22.6914178 253.311999,22.9265313 C253.136451,23.1616447 252.922068,23.3467312 252.668843,23.4817964 C252.415619,23.6168616 252.130552,23.6843931 251.813633,23.6843931 C251.524678,23.6843931 251.276895,23.6318686 251.070277,23.5268179 C250.863658,23.4217672 250.681122,23.2758657 250.522662,23.0891089 L250.522662,25.3301789 L249.688425,25.3301789 L249.688425,18.5469402 L250.187103,18.5469402 C250.305171,18.5469402 250.378185,18.6086357 250.406149,18.7320286 L250.480718,19.3323152 Z M259.317958,23.6143597 L258.488381,23.6143597 L258.488381,19.2922961 L256.055577,19.2922961 L256.055577,22.3337483 C256.055577,22.5471846 256.103735,22.7055919 256.200054,22.8089752 C256.296372,22.9123584 256.420652,22.9640492 256.572897,22.9640492 C256.659894,22.9640492 256.735239,22.9515433 256.798934,22.9265313 C256.862628,22.9015192 256.917777,22.8740064 256.964383,22.8439919 C257.010989,22.8139774 257.050603,22.7864645 257.083227,22.7614525 C257.115851,22.7364404 257.144591,22.7239345 257.169447,22.7239345 C257.212946,22.7239345 257.251783,22.7522811 257.28596,22.8089752 L257.528309,23.2341782 C257.385385,23.3775807 257.212946,23.4901333 257.010988,23.5718394 C256.80903,23.6535455 256.600861,23.6943979 256.386475,23.6943979 C256.01363,23.6943979 255.727009,23.582679 255.526605,23.3592379 C255.3262,23.1357967 255.226,22.8139796 255.226,22.3937769 L255.226,19.2922961 L254.657413,19.2922961 C254.6077,19.2922961 254.565756,19.2764554 254.531578,19.2447734 C254.497401,19.2130915 254.480312,19.1639018 254.480312,19.097203 L254.480312,18.7420334 L255.253963,18.6319808 L255.445045,17.0712356 C255.454366,17.0212115 255.475339,16.9803591 255.507963,16.9486771 C255.540587,16.9169952 255.583308,16.9011544 255.636128,16.9011544 L256.055577,16.9011544 L256.055577,18.646988 L259.317958,18.646988 L259.317958,23.6143597 Z M259.523022,16.921164 C259.523022,17.0078725 259.50671,17.0887436 259.474086,17.1637798 C259.441462,17.238816 259.397964,17.3046802 259.343591,17.3613742 C259.289218,17.4180682 259.226301,17.4630892 259.154839,17.4964387 C259.083377,17.5297881 259.007255,17.5464625 258.926472,17.5464625 C258.845689,17.5464625 258.770344,17.5297881 258.700436,17.4964387 C258.630527,17.4630892 258.569164,17.4180682 258.516344,17.3613742 C258.463525,17.3046802 258.42158,17.238816 258.39051,17.1637798 C258.359439,17.0887436 258.343904,17.0078725 258.343904,16.921164 C258.343904,16.8344555 258.359439,16.7519169 258.39051,16.6735458 C258.42158,16.5951746 258.463525,16.5268093 258.516344,16.4684478 C258.569164,16.4100864 258.630527,16.3642316 258.700436,16.3308822 C258.770344,16.2975327 258.845689,16.2808583 258.926472,16.2808583 C259.007255,16.2808583 259.083377,16.2975327 259.154839,16.3308822 C259.226301,16.3642316 259.289218,16.4100864 259.343591,16.4684478 C259.397964,16.5268093 259.441462,16.5951746 259.474086,16.6735458 C259.50671,16.7519169 259.523022,16.8344555 259.523022,16.921164 Z M262.753627,18.466902 C263.098509,18.466902 263.409209,18.5285975 263.685736,18.6519904 C263.962263,18.7753832 264.198395,18.9504651 264.394139,19.1772412 C264.589883,19.4040172 264.739795,19.6783121 264.843881,20.0001341 C264.947967,20.321956 265.00001,20.6812906 265.00001,21.0781488 C265.00001,21.4783418 264.947967,21.8385102 264.843881,22.1586647 C264.739795,22.4788191 264.589883,22.7522803 264.394139,22.9790564 C264.198395,23.2058324 263.962263,23.3800806 263.685736,23.5018059 C263.409209,23.6235313 263.098509,23.6843931 262.753627,23.6843931 C262.405638,23.6843931 262.092608,23.6235313 261.814527,23.5018059 C261.536447,23.3800806 261.299538,23.2058324 261.103794,22.9790564 C260.90805,22.7522803 260.758138,22.4788191 260.654052,22.1586647 C260.549966,21.8385102 260.497923,21.4783418 260.497923,21.0781488 C260.497923,20.6812906 260.549966,20.321956 260.654052,20.0001341 C260.758138,19.6783121 260.90805,19.4040172 261.103794,19.1772412 C261.299538,18.9504651 261.536447,18.7753832 261.814527,18.6519904 C262.092608,18.5285975 262.405638,18.466902 262.753627,18.466902 Z M262.753627,22.9890611 C263.219684,22.9890611 263.567668,22.8214828 263.797589,22.4863211 C264.02751,22.1511594 264.142469,21.6834408 264.142469,21.0831512 C264.142469,20.4795266 264.02751,20.0093068 263.797589,19.6724776 C263.567668,19.3356485 263.219684,19.1672364 262.753627,19.1672364 C262.517492,19.1672364 262.311653,19.21059 262.136105,19.2972985 C261.960557,19.384007 261.814528,19.5090654 261.698014,19.6724776 C261.581499,19.8358898 261.494503,20.0368171 261.437023,20.2752654 C261.379543,20.5137138 261.350803,20.7830063 261.350803,21.0831512 C261.350803,21.6834408 261.466539,22.1511594 261.698014,22.4863211 C261.929488,22.8214828 262.281356,22.9890611 262.753627,22.9890611 Z M266.916341,19.2822913 C267.018873,19.1588985 267.127618,19.0471796 267.242579,18.9471313 C267.35754,18.847083 267.479489,18.7612096 267.608432,18.6895083 C267.737374,18.617807 267.874082,18.5627813 268.01856,18.5244295 C268.163037,18.4860776 268.319164,18.466902 268.486945,18.466902 C268.744829,18.466902 268.972417,18.5127568 269.169714,18.6044677 C269.367012,18.6961786 269.531683,18.8262394 269.663732,18.994654 C269.795782,19.1630686 269.895982,19.3656633 269.964337,19.6024442 C270.032692,19.8392251 270.066869,20.1010141 270.066869,20.3878192 L270.066869,23.6143597 L269.232632,23.6143597 L269.232632,20.3878192 C269.232632,20.0043008 269.151073,19.7066617 268.987953,19.4948928 C268.824833,19.283124 268.57705,19.1772412 268.244596,19.1772412 C267.99914,19.1772412 267.769998,19.2406041 267.557166,19.3673319 C267.344333,19.4940597 267.147816,19.6658067 266.967607,19.8825779 L266.967607,23.6143597 L266.133369,23.6143597 L266.133369,18.5469402 L266.632048,18.5469402 C266.750115,18.5469402 266.82313,18.6086357 266.851093,18.7320286 L266.916341,19.2822913 Z M274.168996,19.3823391 C274.131712,19.4557078 274.074232,19.4923916 273.996556,19.4923916 C273.94995,19.4923916 273.897131,19.4740497 273.838097,19.4373654 C273.779064,19.400681 273.706826,19.3598286 273.621382,19.3148068 C273.535938,19.2697851 273.434184,19.228099 273.316116,19.1897471 C273.198049,19.1513953 273.058234,19.1322197 272.896667,19.1322197 C272.75685,19.1322197 272.631017,19.1513953 272.519163,19.1897471 C272.40731,19.228099 272.311769,19.2806235 272.23254,19.3473224 C272.15331,19.4140212 272.092724,19.4915575 272.050779,19.5799334 C272.008833,19.6683094 271.987861,19.7641876 271.987861,19.8675708 C271.987861,19.9976335 272.022815,20.1060175 272.092723,20.192726 C272.162632,20.2794345 272.255065,20.3544696 272.370026,20.4178335 C272.484987,20.4811974 272.61548,20.5370568 272.761512,20.5854135 C272.907543,20.6337702 273.057455,20.685461 273.211254,20.7404875 C273.365053,20.7955141 273.514966,20.8563759 273.660997,20.9230747 C273.807028,20.9897736 273.937522,21.0731459 274.052483,21.1731941 C274.167443,21.2732424 274.259876,21.3957997 274.329785,21.5408697 C274.399693,21.6859397 274.434647,21.8601878 274.434647,22.0636193 C274.434647,22.2970652 274.39581,22.5129995 274.318134,22.7114286 C274.240457,22.9098576 274.125499,23.0816046 273.973253,23.2266746 C273.821008,23.3717446 273.634588,23.4859646 273.413988,23.5693382 C273.193388,23.6527117 272.938614,23.6943979 272.649659,23.6943979 C272.320312,23.6943979 272.02204,23.636871 271.754834,23.5218155 C271.487628,23.40676 271.260817,23.259191 271.074394,23.0791041 L271.270137,22.7389417 C271.294994,22.6955875 271.32451,22.6622385 271.358688,22.6388939 C271.392865,22.6155494 271.436363,22.6038772 271.489183,22.6038772 C271.54511,22.6038772 271.604143,22.6272215 271.666284,22.6739107 C271.728424,22.7205999 271.803769,22.7722907 271.89232,22.8289847 C271.980871,22.8856787 272.088839,22.9373696 272.216228,22.9840587 C272.343617,23.0307479 272.502074,23.0540922 272.691603,23.0540922 C272.85317,23.0540922 272.994538,23.0315817 273.115713,22.9865599 C273.236888,22.9415382 273.337865,22.8806764 273.418648,22.8039728 C273.499432,22.7272691 273.559241,22.6388944 273.598079,22.5388462 C273.636917,22.4387979 273.656336,22.3320814 273.656336,22.2186933 C273.656336,22.0786257 273.621382,21.9627382 273.551474,21.8710273 C273.481565,21.7793164 273.389132,21.7009464 273.274172,21.6359151 C273.159211,21.5708837 273.02794,21.5141905 272.880356,21.4658339 C272.732771,21.4174772 272.582081,21.3666201 272.428283,21.313261 C272.274484,21.2599019 272.123794,21.1990402 271.97621,21.1306738 C271.828625,21.0623075 271.697354,20.976434 271.582394,20.8730508 C271.467433,20.7696676 271.375,20.642108 271.305091,20.4903681 C271.235183,20.3386283 271.200229,20.1543755 271.200229,19.9376042 C271.200229,19.7441776 271.237513,19.5582573 271.312082,19.3798379 C271.386651,19.2014185 271.495396,19.0446786 271.63832,18.9096134 C271.781244,18.7745482 271.95679,18.666998 272.164962,18.5869593 C272.373134,18.5069207 272.610819,18.466902 272.878025,18.466902 C273.18873,18.466902 273.467583,18.5194266 273.714593,18.6244772 C273.961603,18.7295279 274.175209,18.873762 274.355418,19.0571838 L274.168996,19.3823391 Z"/></g><path id="Line" fill-rule="nonzero" stroke="#E9EEF0" stroke-linecap="square" d="M140,0 L139.5,181.5"/><text id="Advance-Options" fill="#95A5A6" font-family="Lato-Regular, Lato" font-size="11" font-weight="normal" letter-spacing=".1" line-spacing="20.813"><tspan x="20" y="19">Advance Options</tspan></text></g></g></g></g></svg>