<svg xmlns="http://www.w3.org/2000/svg" xmlns:xlink="http://www.w3.org/1999/xlink" width="290" height="183" version="1.1" viewBox="0 0 290 183"><title>Group 16</title><desc>Created with Sketch.</desc><defs><path id="path-1" d="M30.0813397,81 L95.9904306,81 C97.1399228,81 98.0717703,81.9318475 98.0717703,83.0813397 L98.0717703,106.669856 C98.0717703,107.819349 97.1399228,108.751196 95.9904306,108.751196 L30.0813397,108.751196 C28.9318475,108.751196 28,107.819349 28,106.669856 L28,83.0813397 C28,81.9318475 28.9318475,81 30.0813397,81 Z"/><filter id="filter-2" width="130%" height="175.7%" x="-15%" y="-27%" filterUnits="objectBoundingBox"><feOffset dx="0" dy="3" in="SourceAlpha" result="shadowOffsetOuter1"/><feGaussianBlur in="shadowOffsetOuter1" result="shadowBlurOuter1" stdDeviation="3"/><feComposite in="shadowBlurOuter1" in2="SourceAlpha" operator="out" result="shadowBlurOuter1"/><feColorMatrix in="shadowBlurOuter1" type="matrix" values="0 0 0 0 0 0 0 0 0 0 0 0 0 0 0 0 0 0 0.052196558 0"/></filter><path id="path-3" d="M111.004785,81.3157895 L176.913876,81.3157895 C178.063368,81.3157895 178.995215,82.247637 178.995215,83.3971292 L178.995215,106.985646 C178.995215,108.135138 178.063368,109.066986 176.913876,109.066986 L111.004785,109.066986 C109.855293,109.066986 108.923445,108.135138 108.923445,106.985646 L108.923445,83.3971292 C108.923445,82.247637 109.855293,81.3157895 111.004785,81.3157895 Z"/><filter id="filter-4" width="130%" height="175.7%" x="-15%" y="-27%" filterUnits="objectBoundingBox"><feOffset dx="0" dy="3" in="SourceAlpha" result="shadowOffsetOuter1"/><feGaussianBlur in="shadowOffsetOuter1" result="shadowBlurOuter1" stdDeviation="3"/><feComposite in="shadowBlurOuter1" in2="SourceAlpha" operator="out" result="shadowBlurOuter1"/><feColorMatrix in="shadowBlurOuter1" type="matrix" values="0 0 0 0 0 0 0 0 0 0 0 0 0 0 0 0 0 0 0.052196558 0"/></filter><path id="path-5" d="M192.177033,81.3157895 L258.086124,81.3157895 C259.235617,81.3157895 260.167464,82.247637 260.167464,83.3971292 L260.167464,106.985646 C260.167464,108.135138 259.235617,109.066986 258.086124,109.066986 L192.177033,109.066986 C191.027541,109.066986 190.095694,108.135138 190.095694,106.985646 L190.095694,83.3971292 C190.095694,82.247637 191.027541,81.3157895 192.177033,81.3157895 Z"/><filter id="filter-6" width="130%" height="175.7%" x="-15%" y="-27%" filterUnits="objectBoundingBox"><feOffset dx="0" dy="3" in="SourceAlpha" result="shadowOffsetOuter1"/><feGaussianBlur in="shadowOffsetOuter1" result="shadowBlurOuter1" stdDeviation="3"/><feComposite in="shadowBlurOuter1" in2="SourceAlpha" operator="out" result="shadowBlurOuter1"/><feColorMatrix in="shadowBlurOuter1" type="matrix" values="0 0 0 0 0 0 0 0 0 0 0 0 0 0 0 0 0 0 0.052196558 0"/></filter><linearGradient id="linearGradient-7" x1="14.552%" x2="82.772%" y1="14.691%" y2="85.252%"><stop offset="0%" stop-color="#7ED500"/><stop offset="100%" stop-color="#00BF8D"/></linearGradient><circle id="path-8" cx="35.383" cy="61.196" r="7.632"/><filter id="filter-9" width="237.6%" height="237.6%" x="-68.8%" y="-49.1%" filterUnits="objectBoundingBox"><feOffset dx="0" dy="3" in="SourceAlpha" result="shadowOffsetOuter1"/><feGaussianBlur in="shadowOffsetOuter1" result="shadowBlurOuter1" stdDeviation="3"/><feColorMatrix in="shadowBlurOuter1" type="matrix" values="0 0 0 0 0.0309690403 0 0 0 0 0.665151998 0 0 0 0 0.380863086 0 0 0 0.200152853 0"/></filter></defs><g id="Page-1" fill="none" fill-rule="evenodd" stroke="none" stroke-width="1"><g id="Premium-Page-Design-for-weForms" transform="translate(-565.000000, -623.000000)"><g id="Group-16" transform="translate(565.000000, 623.000000)"><g id="Group-15"><rect id="Rectangle-11-Copy-39" width="290" height="183" x="0" y="0" fill="#FFF"/><text id="Conditional-Logic" fill="#95A5A6" font-family="Lato-Regular, Lato" font-size="13.876" font-weight="normal" letter-spacing=".126" line-spacing="20.813"><tspan x="27.751" y="34.263">Conditional Logic</tspan></text></g><g id="Group-5" transform="translate(120.000000, 54.000000)"><path id="Rectangle-6-Copy-84" fill="#95A5A6" d="M27.5095694,3 L60.4282297,3 C62.9187961,3 64.937799,5.01900298 64.937799,7.50956938 L64.937799,7.50956938 C64.937799,10.0001358 62.9187961,12.0191388 60.4282297,12.0191388 L27.5095694,12.0191388 C25.019003,12.0191388 23,10.0001358 23,7.50956938 L23,7.50956938 C23,5.01900298 25.019003,3 27.5095694,3 Z" opacity=".2"/><circle id="Oval-7-Copy" cx="7.632" cy="7.632" r="7.632" fill="#D8D8D8"/></g><path id="Rectangle-6-Copy-144" fill="#95A5A6" d="M55.5095694,57 L88.4282297,57 C90.9187961,57 92.937799,59.019003 92.937799,61.5095694 L92.937799,61.5095694 C92.937799,64.0001358 90.9187961,66.0191388 88.4282297,66.0191388 L55.5095694,66.0191388 C53.019003,66.0191388 51,64.0001358 51,61.5095694 L51,61.5095694 C51,59.019003 53.019003,57 55.5095694,57 Z" opacity=".2"/><path id="Rectangle-6-Copy-146" fill="#95A5A6" d="M35.5095694,152 L98.4282297,152 C100.918796,152 102.937799,154.019003 102.937799,156.509569 L102.937799,156.509569 C102.937799,159.000136 100.918796,161.019139 98.4282297,161.019139 L35.5095694,161.019139 C33.019003,161.019139 31,159.000136 31,156.509569 L31,156.509569 C31,154.019003 33.019003,152 35.5095694,152 Z" opacity=".2"/><path id="Rectangle-6-Copy-147" fill="#4A90E2" d="M114.509569,152 L126.42823,152 C128.918796,152 130.937799,154.019003 130.937799,156.509569 L130.937799,156.509569 C130.937799,159.000136 128.918796,161.019139 126.42823,161.019139 L114.509569,161.019139 C112.019003,161.019139 110,159.000136 110,156.509569 L110,156.509569 C110,154.019003 112.019003,152 114.509569,152 Z" opacity=".2"/><path id="Rectangle-6-Copy-148" fill="#FFAC98" d="M138.509569,152 L150.42823,152 C152.918796,152 154.937799,154.019003 154.937799,156.509569 L154.937799,156.509569 C154.937799,159.000136 152.918796,161.019139 150.42823,161.019139 L138.509569,161.019139 C136.019003,161.019139 134,159.000136 134,156.509569 L134,156.509569 C134,154.019003 136.019003,152 138.509569,152 Z" opacity=".2"/><path id="Rectangle-6-Copy-149" fill="#95A5A6" d="M166.509569,152 L255.42823,152 C257.918796,152 259.937799,154.019003 259.937799,156.509569 L259.937799,156.509569 C259.937799,159.000136 257.918796,161.019139 255.42823,161.019139 L166.509569,161.019139 C164.019003,161.019139 162,159.000136 162,156.509569 L162,156.509569 C162,154.019003 164.019003,152 166.509569,152 Z" opacity=".2"/><g id="Rectangle-Copy-85"><use fill="#000" fill-opacity="1" filter="url(#filter-2)" xlink:href="#path-1"/><path fill="#FFF" fill-rule="evenodd" stroke="#E5EBED" stroke-linejoin="square" stroke-width=".694" d="M30.0813397,81.34689 C29.1234296,81.34689 28.34689,82.1234296 28.34689,83.0813397 L28.34689,106.669856 C28.34689,107.627767 29.1234296,108.404306 30.0813397,108.404306 L95.9904306,108.404306 C96.9483408,108.404306 97.7248804,107.627767 97.7248804,106.669856 L97.7248804,83.0813397 C97.7248804,82.1234296 96.9483408,81.34689 95.9904306,81.34689 L30.0813397,81.34689 Z"/></g><path id="Rectangle-6-Copy-144" fill="#9013FE" d="M41.0095694,91 L63.9282297,91 C66.1426537,91 67.937799,92.7951454 67.937799,95.0095694 L67.937799,95.0095694 C67.937799,97.2239934 66.1426537,99.0191388 63.9282297,99.0191388 L41.0095694,99.0191388 C38.7951454,99.0191388 37,97.2239934 37,95.0095694 L37,95.0095694 C37,92.7951454 38.7951454,91 41.0095694,91 Z" opacity=".2"/><g id="Rectangle-Copy-87"><use fill="#000" fill-opacity="1" filter="url(#filter-4)" xlink:href="#path-3"/><path fill="#FFF" fill-rule="evenodd" stroke="#E5EBED" stroke-linejoin="square" stroke-width=".694" d="M111.004785,81.6626794 C110.046875,81.6626794 109.270335,82.439219 109.270335,83.3971292 L109.270335,106.985646 C109.270335,107.943556 110.046875,108.720096 111.004785,108.720096 L176.913876,108.720096 C177.871786,108.720096 178.648325,107.943556 178.648325,106.985646 L178.648325,83.3971292 C178.648325,82.439219 177.871786,81.6626794 176.913876,81.6626794 L111.004785,81.6626794 Z"/></g><g id="Rectangle-Copy-88"><use fill="#000" fill-opacity="1" filter="url(#filter-6)" xlink:href="#path-5"/><path fill="#FFF" fill-rule="evenodd" stroke="#E5EBED" stroke-linejoin="square" stroke-width=".694" d="M192.177033,81.6626794 C191.219123,81.6626794 190.442584,82.439219 190.442584,83.3971292 L190.442584,106.985646 C190.442584,107.943556 191.219123,108.720096 192.177033,108.720096 L258.086124,108.720096 C259.044035,108.720096 259.820574,107.943556 259.820574,106.985646 L259.820574,83.3971292 C259.820574,82.439219 259.044035,81.6626794 258.086124,81.6626794 L192.177033,81.6626794 Z"/></g><path id="Rectangle-6-Copy-144" fill="#F5A623" d="M121.009569,91 L143.92823,91 C146.142654,91 147.937799,92.7951454 147.937799,95.0095694 L147.937799,95.0095694 C147.937799,97.2239934 146.142654,99.0191388 143.92823,99.0191388 L121.009569,99.0191388 C118.795145,99.0191388 117,97.2239934 117,95.0095694 L117,95.0095694 C117,92.7951454 118.795145,91 121.009569,91 Z" opacity=".2"/><path id="Rectangle-6-Copy-145" fill="#24C030" d="M203.009569,91 L225.92823,91 C228.142654,91 229.937799,92.7951454 229.937799,95.0095694 L229.937799,95.0095694 C229.937799,97.2239934 228.142654,99.0191388 225.92823,99.0191388 L203.009569,99.0191388 C200.795145,99.0191388 199,97.2239934 199,95.0095694 L199,95.0095694 C199,92.7951454 200.795145,91 203.009569,91 Z" opacity=".2"/><g id="Oval-7"><use fill="#000" fill-opacity="1" filter="url(#filter-9)" xlink:href="#path-8"/><use fill="url(#linearGradient-7)" fill-rule="evenodd" xlink:href="#path-8"/></g><circle id="Oval-7-Copy-2" cx="37.117" cy="130.227" r="9.366" fill="#12CE66" opacity=".1"/><circle id="Oval-7-Copy-3" cx="61.4" cy="129.533" r="9.366" fill="#E9485E" opacity=".1"/><polygon id="+" fill="#12CE66" points="40.711 130.713 38.019 130.713 38.019 133.571 36.625 133.571 36.625 130.713 33.947 130.713 33.947 129.443 36.625 129.443 36.625 126.599 38.019 126.599 38.019 129.443 40.711 129.443"/><polygon id="-" fill="#E9485E" points="59.762 129.138 63.356 129.138 63.356 130.567 59.762 130.567"/></g></g></g></svg>