<svg xmlns="http://www.w3.org/2000/svg" xmlns:xlink="http://www.w3.org/1999/xlink" width="290" height="183" version="1.1" viewBox="0 0 290 183"><title>Group 39</title><desc>Created with Sketch.</desc><g id="Page-1" fill="none" fill-rule="evenodd" stroke="none" stroke-width="1"><g id="Premium-Page-Design-for-weForms" transform="translate(-221.000000, -1003.000000)"><g id="Group-39" transform="translate(221.000000, 1003.000000)"><path id="Rectangle-11-Copy-10" fill="#FFF" d="M3.46889952,0 L286.5311,0 C288.446921,-3.51930481e-16 290,1.55307922 290,3.46889952 L290,179.5311 C290,181.446921 288.446921,183 286.5311,183 L3.46889952,183 C1.55307922,183 2.93156981e-14,181.446921 1.37667655e-14,179.5311 L0,3.46889952 C-2.3462032e-16,1.55307922 1.55307922,3.51930481e-16 3.46889952,0 Z"/><g id="Group-32" transform="translate(61.000000, 52.000000)"><path id="Rectangle-6-Copy-151" fill="#9013FE" d="M4,36 L100,36 C102.209139,36 104,37.790861 104,40 L104,60 C104,62.209139 102.209139,64 100,64 L4,64 C1.790861,64 2.705415e-16,62.209139 0,60 L0,40 C-2.705415e-16,37.790861 1.790861,36 4,36 Z" opacity=".2"/><text id="Select-Image" fill="#9B59B6" font-family="Lato-Regular, Lato" font-size="12" font-weight="normal" letter-spacing=".109" line-spacing="20.964"><tspan x="19" y="51">Select Image</tspan></text><text id="Select-Image-Copy" fill="#333" font-family="Lato-Regular, Lato" font-size="14" font-weight="normal" letter-spacing=".127" line-spacing="20.964"><tspan x="2" y="14">Select Image</tspan></text><path id="Rectangle-6-Copy-152" fill="#EAEDED" d="M3.5,79 L147.5,79 C149.432997,79 151,80.5670034 151,82.5 L151,82.5 C151,84.4329966 149.432997,86 147.5,86 L3.5,86 C1.56700338,86 2.36723813e-16,84.4329966 0,82.5 L0,82.5 C-2.36723813e-16,80.5670034 1.56700338,79 3.5,79 Z"/></g></g></g></g></svg>