<svg xmlns="http://www.w3.org/2000/svg" xmlns:xlink="http://www.w3.org/1999/xlink" width="290" height="183" version="1.1" viewBox="0 0 290 183"><title>Group 12</title><desc>Created with Sketch.</desc><defs><path id="path-1" d="M229.712919,148 L258.851675,148 C264.215971,148 268.564593,152.348622 268.564593,157.712919 L268.564593,157.712919 C268.564593,163.077216 264.215971,167.425837 258.851675,167.425837 L229.712919,167.425837 C224.348622,167.425837 220,163.077216 220,157.712919 L220,157.712919 C220,152.348622 224.348622,148 229.712919,148 Z"/><filter id="filter-2" width="176.2%" height="290.5%" x="-38.1%" y="-74.6%" filterUnits="objectBoundingBox"><feOffset dx="0" dy="4" in="SourceAlpha" result="shadowOffsetOuter1"/><feGaussianBlur in="shadowOffsetOuter1" result="shadowBlurOuter1" stdDeviation="5.5"/><feColorMatrix in="shadowBlurOuter1" type="matrix" values="0 0 0 0 0.180392157 0 0 0 0 0.8 0 0 0 0 0.443137255 0 0 0 0.309131567 0"/></filter></defs><g id="Page-1" fill="none" fill-rule="evenodd" stroke="none" stroke-width="1"><g id="Premium-Page-Design-for-weForms" transform="translate(-909.000000, -622.000000)"><g id="Group-12" transform="translate(909.000000, 622.000000)"><rect id="Rectangle-11-Copy-7" width="290" height="169.057" x="0" y="13.648" fill="#FFF"/><path id="Rectangle-11-Copy-7" fill="#3B80F4" d="M3.46889952,0.241505663 L126.961722,0.241505663 L140.837321,13.8078505 L126.961722,26.605142 L3.46889952,26.605142 C1.55307922,26.605142 -1.80543211e-12,25.0520628 -1.80566673e-12,23.1362425 L-1.80522264e-12,3.71040518 C-1.80545726e-12,1.79458488 1.55307922,0.241505663 3.46889952,0.241505663 Z"/><polygon id="Rectangle-11-Copy-18" fill="#595ECD" points="135.287 .242 276.124 .242 290 13.085 276.124 26.605 135.287 26.605 149.163 13.523"/><path id="Rectangle-6-Copy-84" fill="#95A5A6" d="M121.509569,43 L264.42823,43 C266.918796,43 268.937799,45.019003 268.937799,47.5095694 L268.937799,47.5095694 C268.937799,50.0001358 266.918796,52.0191388 264.42823,52.0191388 L121.509569,52.0191388 C119.019003,52.0191388 117,50.0001358 117,47.5095694 L117,47.5095694 C117,45.019003 119.019003,43 121.509569,43 Z" opacity=".2"/><path id="Rectangle-6-Copy-139" fill="#F5A623" d="M24.5095694,43 L67.4282297,43 C69.9187961,43 71.937799,45.019003 71.937799,47.5095694 L71.937799,47.5095694 C71.937799,50.0001358 69.9187961,52.0191388 67.4282297,52.0191388 L24.5095694,52.0191388 C22.019003,52.0191388 20,50.0001358 20,47.5095694 L20,47.5095694 C20,45.019003 22.019003,43 24.5095694,43 Z" opacity=".2"/><path id="Rectangle-6-Copy-140" fill="#4A90E2" d="M24.5095694,73 L77.4282297,73 C79.9187961,73 81.937799,75.019003 81.937799,77.5095694 L81.937799,77.5095694 C81.937799,80.0001358 79.9187961,82.0191388 77.4282297,82.0191388 L24.5095694,82.0191388 C22.019003,82.0191388 20,80.0001358 20,77.5095694 L20,77.5095694 C20,75.019003 22.019003,73 24.5095694,73 Z" opacity=".2"/><path id="Rectangle-6-Copy-141" fill="#9013FE" d="M24.5095694,112 L77.4282297,112 C79.9187961,112 81.937799,114.019003 81.937799,116.509569 L81.937799,116.509569 C81.937799,119.000136 79.9187961,121.019139 77.4282297,121.019139 L24.5095694,121.019139 C22.019003,121.019139 20,119.000136 20,116.509569 L20,116.509569 C20,114.019003 22.019003,112 24.5095694,112 Z" opacity=".2"/><path id="Rectangle-6-Copy-86" fill="#95A5A6" d="M118.636364,57.1314578 L163.732057,57.1314578 C164.498386,57.1314578 165.119617,57.7526895 165.119617,58.5190176 L165.119617,58.5190176 C165.119617,59.2853457 164.498386,59.9065774 163.732057,59.9065774 L118.636364,59.9065774 C117.870036,59.9065774 117.248804,59.2853457 117.248804,58.5190176 L117.248804,58.5190176 C117.248804,57.7526895 117.870036,57.1314578 118.636364,57.1314578 Z" opacity=".4"/><path id="Rectangle-6-Copy-87" fill="#95A5A6" d="M118.636364,86.2702138 L163.732057,86.2702138 C164.498386,86.2702138 165.119617,86.8914455 165.119617,87.6577736 L165.119617,87.6577736 C165.119617,88.4241017 164.498386,89.0453334 163.732057,89.0453334 L118.636364,89.0453334 C117.870036,89.0453334 117.248804,88.4241017 117.248804,87.6577736 L117.248804,87.6577736 C117.248804,86.8914455 117.870036,86.2702138 118.636364,86.2702138 Z" opacity=".4"/><path id="Rectangle-6-Copy-88" fill="#95A5A6" d="M118.636364,102.227152 L163.732057,102.227152 C164.498386,102.227152 165.119617,102.848383 165.119617,103.614711 L165.119617,103.614711 C165.119617,104.38104 164.498386,105.002271 163.732057,105.002271 L118.636364,105.002271 C117.870036,105.002271 117.248804,104.38104 117.248804,103.614711 L117.248804,103.614711 C117.248804,102.848383 117.870036,102.227152 118.636364,102.227152 Z" opacity=".4"/><path id="Rectangle-6-Copy-85" fill="#95A5A6" d="M121.758373,73.0883956 L216.80622,73.0883956 C219.296786,73.0883956 221.315789,75.1073986 221.315789,77.597965 L221.315789,77.597965 C221.315789,80.0885314 219.296786,82.1075344 216.80622,82.1075344 L121.758373,82.1075344 C119.267807,82.1075344 117.248804,80.0885314 117.248804,77.597965 L117.248804,77.597965 C117.248804,75.1073986 119.267807,73.0883956 121.758373,73.0883956 Z" opacity=".2"/><path id="Rectangle-6-Copy-89" fill="#95A5A6" d="M121.758373,111.94007 L263.983254,111.94007 C266.47382,111.94007 268.492823,113.959073 268.492823,116.44964 L268.492823,129.631458 C268.492823,132.122024 266.47382,134.141027 263.983254,134.141027 L121.758373,134.141027 C119.267807,134.141027 117.248804,132.122024 117.248804,129.631458 L117.248804,116.44964 C117.248804,113.959073 119.267807,111.94007 121.758373,111.94007 Z" opacity=".2"/><g id="Rectangle-2-Copy-8"><use fill="#000" fill-opacity="1" filter="url(#filter-2)" xlink:href="#path-1"/><use fill="#2ECC71" fill-rule="evenodd" xlink:href="#path-1"/></g><path id="Rectangle-2-Copy-9" fill="#FFF" d="M237.712919,155 L251.851675,155 C253.349978,155 254.564593,156.214615 254.564593,157.712919 L254.564593,157.712919 C254.564593,159.211222 253.349978,160.425837 251.851675,160.425837 L237.712919,160.425837 C236.214615,160.425837 235,159.211222 235,157.712919 L235,157.712919 C235,156.214615 236.214615,155 237.712919,155 Z"/><path id="Part-01" fill="#FFF" d="M50.8138278,12.8474865 C51.0825532,12.8474865 51.3197079,12.8118728 51.525299,12.7406444 C51.7308902,12.669416 51.9041022,12.5698596 52.0449402,12.4419722 C52.1857782,12.3140848 52.2918099,12.1611078 52.3630383,11.9830368 C52.4342667,11.8049657 52.4698804,11.6090905 52.4698804,11.3954052 C52.4698804,10.9518463 52.3330915,10.6054224 52.0595096,10.3561229 C51.7859277,10.1068234 51.3707045,9.98217552 50.8138278,9.98217552 L49.6968421,9.98217552 L49.6968421,12.8474865 L50.8138278,12.8474865 Z M50.8138278,9.23913724 C51.2541489,9.23913724 51.636996,9.29012955 51.9623804,9.39211571 C52.2877648,9.49410187 52.5572956,9.63898479 52.7709809,9.82676882 C52.9846661,10.0145529 53.1441183,10.2411854 53.2493421,10.5066731 C53.3545659,10.7721609 53.407177,11.068402 53.407177,11.3954052 C53.407177,11.7191708 53.3505189,12.0154118 53.237201,12.2841372 C53.123883,12.5528627 52.9579556,12.7843516 52.7394139,12.9786109 C52.5208721,13.1728703 52.2505319,13.3242284 51.9283852,13.4326899 C51.6062384,13.5411513 51.234723,13.5953813 50.8138278,13.5953813 L49.6968421,13.5953813 L49.6968421,16.1984435 L48.7595455,16.1984435 L48.7595455,9.23913724 L50.8138278,9.23913724 Z M56.9872706,13.983898 C56.5890389,13.9968486 56.2498996,14.0284153 55.9698424,14.078599 C55.6897852,14.1287826 55.4615338,14.1943442 55.2850816,14.2752856 C55.1086294,14.356227 54.9807439,14.4517364 54.9014213,14.5618167 C54.8220988,14.671897 54.7824381,14.794926 54.7824381,14.9309076 C54.7824381,15.0604138 54.8034825,15.1721113 54.845572,15.2660033 C54.8876616,15.3598953 54.9451291,15.4367885 55.0179763,15.4966851 C55.0908236,15.5565817 55.1766202,15.6002894 55.2753687,15.6278095 C55.3741172,15.6553296 55.4801488,15.6690894 55.5934668,15.6690894 C55.7456366,15.6690894 55.8848537,15.6537108 56.0111223,15.622953 C56.1373909,15.5921953 56.2563729,15.5476782 56.368072,15.4894004 C56.4797712,15.4311226 56.5866122,15.361514 56.6885984,15.2805726 C56.7905845,15.1996313 56.8901409,15.1073595 56.9872706,15.0037545 L56.9872706,13.983898 Z M54.1948065,11.9733238 C54.4667696,11.7110737 54.759773,11.5151985 55.0738256,11.3856923 C55.3878782,11.256186 55.735921,11.1914339 56.1179644,11.1914339 C56.3931651,11.1914339 56.6376045,11.2367604 56.8512897,11.3274148 C57.064975,11.4180691 57.2446622,11.5443358 57.3903567,11.7062186 C57.5360512,11.8681014 57.6461299,12.0639766 57.720596,12.2938502 C57.795062,12.5237237 57.8322945,12.7762571 57.8322945,13.0514578 L57.8322945,16.1984435 L57.4486342,16.1984435 C57.3644552,16.1984435 57.299703,16.1846836 57.2543759,16.1571636 C57.2090487,16.1296435 57.173435,16.0754136 57.1475338,15.9944722 L57.0504046,15.5282521 C56.9208983,15.6480453 56.7946317,15.754077 56.6716007,15.8463502 C56.5485698,15.9386233 56.4190655,16.0163259 56.283084,16.0794602 C56.1471025,16.1425945 56.0022195,16.1911586 55.8484309,16.225154 C55.6946422,16.2591494 55.5238585,16.2761468 55.3360744,16.2761468 C55.1450527,16.2761468 54.9653655,16.2494366 54.7970074,16.1960152 C54.6286493,16.1425939 54.4821476,16.0624631 54.3574979,15.9556205 C54.2328481,15.8487779 54.1341011,15.7136078 54.0612539,15.5501061 C53.9884066,15.3866045 53.9519835,15.1931575 53.9519835,14.9697593 C53.9519835,14.7754999 54.005404,14.5885281 54.1122467,14.4088382 C54.2190893,14.2291483 54.3923013,14.0696962 54.6318878,13.930477 C54.8714744,13.7912578 55.1839034,13.6771321 55.5691845,13.5880966 C55.9544655,13.499061 56.4271562,13.4480687 56.9872706,13.4351181 L56.9872706,13.0514578 C56.9872706,12.6694144 56.9047116,12.380458 56.7395912,12.1845798 C56.5744707,11.9887017 56.333269,11.890764 56.0159787,11.890764 C55.8022935,11.890764 55.6234157,11.9174743 55.47934,11.9708956 C55.3352643,12.0243169 55.2106164,12.0842127 55.1053926,12.1505846 C55.0001688,12.2169566 54.9095158,12.2768523 54.8334309,12.3302736 C54.757346,12.3836949 54.6820716,12.4104052 54.6076055,12.4104052 C54.5493277,12.4104052 54.4991448,12.3950266 54.4570553,12.3642688 C54.4149658,12.3335111 54.3793521,12.2954692 54.3502132,12.250142 L54.1948065,11.9733238 Z M60.0574359,12.2647114 C60.2128434,11.9279952 60.4038622,11.6649396 60.6304981,11.4755368 C60.857134,11.2861339 61.1339495,11.1914339 61.4609527,11.1914339 C61.5645577,11.1914339 61.6641141,11.2027655 61.7596249,11.2254291 C61.8551358,11.2480927 61.940123,11.2837064 62.0145891,11.3322712 L61.9514551,11.9781803 C61.9320291,12.0591217 61.883465,12.0995918 61.8057613,12.0995918 C61.7604341,12.0995918 61.6940632,12.089879 61.6066465,12.070453 C61.5192298,12.0510271 61.4204827,12.0413143 61.3104024,12.0413143 C61.154995,12.0413143 61.0165873,12.0639775 60.8951752,12.1093047 C60.7737631,12.1546319 60.6653032,12.2218122 60.5697924,12.3108478 C60.4742816,12.3998833 60.388485,12.5099619 60.3124001,12.641087 C60.2363151,12.7722121 60.167516,12.9219514 60.1060005,13.0903095 L60.1060005,16.1984435 L59.2366943,16.1984435 L59.2366943,11.2788502 L59.7320532,11.2788502 C59.8259452,11.2788502 59.8906973,11.296657 59.9263115,11.3322712 C59.9619258,11.3678854 59.9862078,11.4294 59.9991584,11.5168167 L60.0574359,12.2647114 Z M64.3708549,16.2761468 C63.9823362,16.2761468 63.6836669,16.167687 63.4748381,15.950764 C63.2660093,15.7338411 63.1615965,15.421412 63.1615965,15.0134674 L63.1615965,12.0024626 L62.5691085,12.0024626 C62.517306,12.0024626 62.4735983,11.987084 62.4379841,11.9563262 C62.4023698,11.9255685 62.384563,11.8778138 62.384563,11.8130607 L62.384563,11.4682521 L63.1907353,11.3662664 L63.3898501,9.84619466 C63.3995631,9.79762982 63.4214169,9.75796913 63.4554123,9.7272114 C63.4894077,9.69645367 63.5339248,9.68107504 63.5889649,9.68107504 L64.0260463,9.68107504 L64.0260463,11.3759793 L65.4489888,11.3759793 L65.4489888,12.0024626 L64.0260463,12.0024626 L64.0260463,14.9551899 C64.0260463,15.1623998 64.0762292,15.3161862 64.1765965,15.4165535 C64.2769638,15.5169208 64.4064681,15.5671037 64.5651132,15.5671037 C64.6557676,15.5671037 64.7342796,15.5549627 64.8006515,15.5306803 C64.8670235,15.5063979 64.924491,15.4796876 64.9730558,15.4505487 C65.0216207,15.4214098 65.0629002,15.3946996 65.0968955,15.3704171 C65.1308909,15.3461347 65.1608388,15.3339937 65.18674,15.3339937 C65.2320672,15.3339937 65.2725373,15.3615134 65.3081515,15.4165535 L65.5606874,15.8293526 C65.4117552,15.9685717 65.232068,16.077841 65.0216204,16.1571636 C64.8111728,16.2364861 64.5942531,16.2761468 64.3708549,16.2761468 Z M73.6630277,12.7212186 C73.6630277,13.3298979 73.5974661,13.8568184 73.4663411,14.3019961 C73.335216,14.7471738 73.1563382,15.1154516 72.9297023,15.4068406 C72.7030664,15.6982296 72.4351544,15.9151493 72.1259583,16.0576061 C71.8167622,16.200063 71.4857168,16.2712904 71.1328123,16.2712904 C70.7766702,16.2712904 70.4456249,16.200063 70.1396664,16.0576061 C69.8337079,15.9151493 69.5674148,15.6982296 69.3407789,15.4068406 C69.1141429,15.1154516 68.9360746,14.7471738 68.8065683,14.3019961 C68.6770621,13.8568184 68.61231,13.3298979 68.61231,12.7212186 C68.61231,12.1125393 68.6770621,11.5848093 68.8065683,11.1380128 C68.9360746,10.6912163 69.1141429,10.3213197 69.3407789,10.0283119 C69.5674148,9.73530404 69.8337079,9.51757496 70.1396664,9.3751181 C70.4456249,9.23266125 70.7766702,9.16143389 71.1328123,9.16143389 C71.4857168,9.16143389 71.8167622,9.23266125 72.1259583,9.3751181 C72.4351544,9.51757496 72.7030664,9.73530404 72.9297023,10.0283119 C73.1563382,10.3213197 73.335216,10.6912163 73.4663411,11.1380128 C73.5974661,11.5848093 73.6630277,12.1125393 73.6630277,12.7212186 Z M72.7645827,12.7212186 C72.7645827,12.190243 72.7200656,11.7442627 72.63103,11.383264 C72.5419945,11.0222654 72.422203,10.7316902 72.2716521,10.5115296 C72.1211011,10.291369 71.9470797,10.1335356 71.7495827,10.0380248 C71.5520857,9.94251396 71.3464976,9.89475925 71.1328123,9.89475925 C70.9191271,9.89475925 70.713539,9.94251396 70.516042,10.0380248 C70.318545,10.1335356 70.145333,10.291369 69.9964009,10.5115296 C69.8474687,10.7316902 69.7284866,11.0222654 69.6394511,11.383264 C69.5504156,11.7442627 69.5058985,12.190243 69.5058985,12.7212186 C69.5058985,13.2521941 69.5504156,13.6973651 69.6394511,14.0567449 C69.7284866,14.4161247 69.8474687,14.7058905 69.9964009,14.9260511 C70.145333,15.1462117 70.318545,15.3040451 70.516042,15.3995559 C70.713539,15.4950667 70.9191271,15.5428215 71.1328123,15.5428215 C71.3464976,15.5428215 71.5520857,15.4950667 71.7495827,15.3995559 C71.9470797,15.3040451 72.1211011,15.1462117 72.2716521,14.9260511 C72.422203,14.7058905 72.5419945,14.4161247 72.63103,14.0567449 C72.7200656,13.6973651 72.7645827,13.2521941 72.7645827,12.7212186 Z M78.9865901,15.537965 L78.9865901,16.1984435 L75.2568294,16.1984435 L75.2568294,15.537965 L76.7477624,15.537965 L76.7477624,10.7932042 C76.7477624,10.6507474 76.7526188,10.5066739 76.7623318,10.3609793 L75.5239346,11.4245439 C75.4818451,11.4601582 75.4397562,11.482012 75.3976667,11.4901061 C75.3555772,11.4982003 75.3167259,11.4990097 75.2811117,11.4925344 C75.2454974,11.4860591 75.212312,11.4731086 75.1815542,11.4536827 C75.1507965,11.4342568 75.1273239,11.4132123 75.1111356,11.3905487 L74.8391739,11.0166014 L76.912882,9.22456786 L77.6170686,9.22456786 L77.6170686,15.537965 L78.9865901,15.537965 Z"/><path id="Part-02" fill="#FFF" d="M194.426268,12.8474865 C194.694993,12.8474865 194.932148,12.8118728 195.137739,12.7406444 C195.34333,12.669416 195.516542,12.5698596 195.65738,12.4419722 C195.798218,12.3140848 195.90425,12.1611078 195.975478,11.9830368 C196.046707,11.8049657 196.082321,11.6090905 196.082321,11.3954052 C196.082321,10.9518463 195.945532,10.6054224 195.67195,10.3561229 C195.398368,10.1068234 194.983145,9.98217552 194.426268,9.98217552 L193.309282,9.98217552 L193.309282,12.8474865 L194.426268,12.8474865 Z M194.426268,9.23913724 C194.866589,9.23913724 195.249436,9.29012955 195.574821,9.39211571 C195.900205,9.49410187 196.169736,9.63898479 196.383421,9.82676882 C196.597106,10.0145529 196.756558,10.2411854 196.861782,10.5066731 C196.967006,10.7721609 197.019617,11.068402 197.019617,11.3954052 C197.019617,11.7191708 196.962959,12.0154118 196.849641,12.2841372 C196.736323,12.5528627 196.570396,12.7843516 196.351854,12.9786109 C196.133312,13.1728703 195.862972,13.3242284 195.540825,13.4326899 C195.218679,13.5411513 194.847163,13.5953813 194.426268,13.5953813 L193.309282,13.5953813 L193.309282,16.1984435 L192.371986,16.1984435 L192.371986,9.23913724 L194.426268,9.23913724 Z M200.599711,13.983898 C200.201479,13.9968486 199.86234,14.0284153 199.582283,14.078599 C199.302225,14.1287826 199.073974,14.1943442 198.897522,14.2752856 C198.72107,14.356227 198.593184,14.4517364 198.513862,14.5618167 C198.434539,14.671897 198.394878,14.794926 198.394878,14.9309076 C198.394878,15.0604138 198.415923,15.1721113 198.458012,15.2660033 C198.500102,15.3598953 198.557569,15.4367885 198.630417,15.4966851 C198.703264,15.5565817 198.78906,15.6002894 198.887809,15.6278095 C198.986557,15.6553296 199.092589,15.6690894 199.205907,15.6690894 C199.358077,15.6690894 199.497294,15.6537108 199.623562,15.622953 C199.749831,15.5921953 199.868813,15.5476782 199.980512,15.4894004 C200.092211,15.4311226 200.199052,15.361514 200.301039,15.2805726 C200.403025,15.1996313 200.502581,15.1073595 200.599711,15.0037545 L200.599711,13.983898 Z M197.807247,11.9733238 C198.07921,11.7110737 198.372213,11.5151985 198.686266,11.3856923 C199.000318,11.256186 199.348361,11.1914339 199.730405,11.1914339 C200.005605,11.1914339 200.250045,11.2367604 200.46373,11.3274148 C200.677415,11.4180691 200.857102,11.5443358 201.002797,11.7062186 C201.148491,11.8681014 201.25857,12.0639766 201.333036,12.2938502 C201.407502,12.5237237 201.444735,12.7762571 201.444735,13.0514578 L201.444735,16.1984435 L201.061074,16.1984435 C200.976895,16.1984435 200.912143,16.1846836 200.866816,16.1571636 C200.821489,16.1296435 200.785875,16.0754136 200.759974,15.9944722 L200.662845,15.5282521 C200.533339,15.6480453 200.407072,15.754077 200.284041,15.8463502 C200.16101,15.9386233 200.031506,16.0163259 199.895524,16.0794602 C199.759543,16.1425945 199.61466,16.1911586 199.460871,16.225154 C199.307082,16.2591494 199.136299,16.2761468 198.948515,16.2761468 C198.757493,16.2761468 198.577806,16.2494366 198.409448,16.1960152 C198.24109,16.1425939 198.094588,16.0624631 197.969938,15.9556205 C197.845288,15.8487779 197.746541,15.7136078 197.673694,15.5501061 C197.600847,15.3866045 197.564424,15.1931575 197.564424,14.9697593 C197.564424,14.7754999 197.617844,14.5885281 197.724687,14.4088382 C197.83153,14.2291483 198.004741,14.0696962 198.244328,13.930477 C198.483915,13.7912578 198.796344,13.6771321 199.181625,13.5880966 C199.566906,13.499061 200.039596,13.4480687 200.599711,13.4351181 L200.599711,13.0514578 C200.599711,12.6694144 200.517152,12.380458 200.352031,12.1845798 C200.186911,11.9887017 199.945709,11.890764 199.628419,11.890764 C199.414734,11.890764 199.235856,11.9174743 199.09178,11.9708956 C198.947704,12.0243169 198.823057,12.0842127 198.717833,12.1505846 C198.612609,12.2169566 198.521956,12.2768523 198.445871,12.3302736 C198.369786,12.3836949 198.294512,12.4104052 198.220046,12.4104052 C198.161768,12.4104052 198.111585,12.3950266 198.069495,12.3642688 C198.027406,12.3335111 197.991792,12.2954692 197.962653,12.250142 L197.807247,11.9733238 Z M203.669876,12.2647114 C203.825284,11.9279952 204.016302,11.6649396 204.242938,11.4755368 C204.469574,11.2861339 204.74639,11.1914339 205.073393,11.1914339 C205.176998,11.1914339 205.276554,11.2027655 205.372065,11.2254291 C205.467576,11.2480927 205.552563,11.2837064 205.627029,11.3322712 L205.563895,11.9781803 C205.544469,12.0591217 205.495905,12.0995918 205.418201,12.0995918 C205.372874,12.0995918 205.306503,12.089879 205.219087,12.070453 C205.13167,12.0510271 205.032923,12.0413143 204.922843,12.0413143 C204.767435,12.0413143 204.629027,12.0639775 204.507615,12.1093047 C204.386203,12.1546319 204.277743,12.2218122 204.182233,12.3108478 C204.086722,12.3998833 204.000925,12.5099619 203.92484,12.641087 C203.848755,12.7722121 203.779956,12.9219514 203.718441,13.0903095 L203.718441,16.1984435 L202.849135,16.1984435 L202.849135,11.2788502 L203.344493,11.2788502 C203.438385,11.2788502 203.503138,11.296657 203.538752,11.3322712 C203.574366,11.3678854 203.598648,11.4294 203.611599,11.5168167 L203.669876,12.2647114 Z M207.983295,16.2761468 C207.594776,16.2761468 207.296107,16.167687 207.087278,15.950764 C206.87845,15.7338411 206.774037,15.421412 206.774037,15.0134674 L206.774037,12.0024626 L206.181549,12.0024626 C206.129746,12.0024626 206.086038,11.987084 206.050424,11.9563262 C206.01481,11.9255685 205.997003,11.8778138 205.997003,11.8130607 L205.997003,11.4682521 L206.803175,11.3662664 L207.00229,9.84619466 C207.012003,9.79762982 207.033857,9.75796913 207.067852,9.7272114 C207.101848,9.69645367 207.146365,9.68107504 207.201405,9.68107504 L207.638486,9.68107504 L207.638486,11.3759793 L209.061429,11.3759793 L209.061429,12.0024626 L207.638486,12.0024626 L207.638486,14.9551899 C207.638486,15.1623998 207.688669,15.3161862 207.789037,15.4165535 C207.889404,15.5169208 208.018908,15.5671037 208.177553,15.5671037 C208.268208,15.5671037 208.34672,15.5549627 208.413092,15.5306803 C208.479464,15.5063979 208.536931,15.4796876 208.585496,15.4505487 C208.634061,15.4214098 208.67534,15.3946996 208.709336,15.3704171 C208.743331,15.3461347 208.773279,15.3339937 208.79918,15.3339937 C208.844507,15.3339937 208.884977,15.3615134 208.920592,15.4165535 L209.173128,15.8293526 C209.024195,15.9685717 208.844508,16.077841 208.634061,16.1571636 C208.423613,16.2364861 208.206693,16.2761468 207.983295,16.2761468 Z M217.275468,12.7212186 C217.275468,13.3298979 217.209906,13.8568184 217.078781,14.3019961 C216.947656,14.7471738 216.768778,15.1154516 216.542142,15.4068406 C216.315507,15.6982296 216.047595,15.9151493 215.738398,16.0576061 C215.429202,16.200063 215.098157,16.2712904 214.745253,16.2712904 C214.38911,16.2712904 214.058065,16.200063 213.752107,16.0576061 C213.446148,15.9151493 213.179855,15.6982296 212.953219,15.4068406 C212.726583,15.1154516 212.548515,14.7471738 212.419009,14.3019961 C212.289502,13.8568184 212.22475,13.3298979 212.22475,12.7212186 C212.22475,12.1125393 212.289502,11.5848093 212.419009,11.1380128 C212.548515,10.6912163 212.726583,10.3213197 212.953219,10.0283119 C213.179855,9.73530404 213.446148,9.51757496 213.752107,9.3751181 C214.058065,9.23266125 214.38911,9.16143389 214.745253,9.16143389 C215.098157,9.16143389 215.429202,9.23266125 215.738398,9.3751181 C216.047595,9.51757496 216.315507,9.73530404 216.542142,10.0283119 C216.768778,10.3213197 216.947656,10.6912163 217.078781,11.1380128 C217.209906,11.5848093 217.275468,12.1125393 217.275468,12.7212186 Z M216.377023,12.7212186 C216.377023,12.190243 216.332506,11.7442627 216.24347,11.383264 C216.154435,11.0222654 216.034643,10.7316902 215.884092,10.5115296 C215.733541,10.291369 215.55952,10.1335356 215.362023,10.0380248 C215.164526,9.94251396 214.958938,9.89475925 214.745253,9.89475925 C214.531567,9.89475925 214.325979,9.94251396 214.128482,10.0380248 C213.930985,10.1335356 213.757773,10.291369 213.608841,10.5115296 C213.459909,10.7316902 213.340927,11.0222654 213.251891,11.383264 C213.162856,11.7442627 213.118339,12.190243 213.118339,12.7212186 C213.118339,13.2521941 213.162856,13.6973651 213.251891,14.0567449 C213.340927,14.4161247 213.459909,14.7058905 213.608841,14.9260511 C213.757773,15.1462117 213.930985,15.3040451 214.128482,15.3995559 C214.325979,15.4950667 214.531567,15.5428215 214.745253,15.5428215 C214.958938,15.5428215 215.164526,15.4950667 215.362023,15.3995559 C215.55952,15.3040451 215.733541,15.1462117 215.884092,14.9260511 C216.034643,14.7058905 216.154435,14.4161247 216.24347,14.0567449 C216.332506,13.6973651 216.377023,13.2521941 216.377023,12.7212186 Z M222.44848,15.3777018 C222.542372,15.3777018 222.616837,15.4052215 222.671877,15.4602616 C222.726917,15.5153018 222.754437,15.5865291 222.754437,15.6739459 L222.754437,16.1984435 L218.111662,16.1984435 L218.111662,15.9021994 C218.111662,15.840684 218.124612,15.7775506 218.150514,15.7127975 C218.176415,15.6480444 218.216885,15.5881487 218.271925,15.5331085 L220.50104,13.2942808 C220.685586,13.1064967 220.853942,12.9260001 221.006112,12.7527856 C221.158281,12.579571 221.287786,12.4055496 221.394628,12.2307162 C221.501471,12.0558828 221.58403,11.8786238 221.642308,11.6989339 C221.700586,11.519244 221.729724,11.3274158 221.729724,11.1234435 C221.729724,10.9194712 221.697348,10.7405934 221.632595,10.5868047 C221.567842,10.4330161 221.479617,10.30594 221.367918,10.2055726 C221.256219,10.1052053 221.124286,10.029931 220.972116,9.97974729 C220.819947,9.92956363 220.656447,9.90447217 220.481614,9.90447217 C220.303543,9.90447217 220.140044,9.93037303 219.991112,9.98217552 C219.842179,10.033978 219.710247,10.1060148 219.59531,10.198288 C219.480373,10.2905611 219.384055,10.3998304 219.306351,10.526099 C219.228647,10.6523675 219.173608,10.7915846 219.141231,10.9437545 C219.102379,11.0570724 219.049768,11.1323468 218.983396,11.1695798 C218.917024,11.2068129 218.823943,11.2173351 218.70415,11.2011468 L218.252499,11.1234435 C218.297826,10.8061532 218.386051,10.5252908 218.517176,10.2808478 C218.648301,10.0364048 218.813419,9.83162611 219.012535,9.66650566 C219.211651,9.50138522 219.439093,9.37592794 219.694868,9.29013006 C219.950642,9.20433219 220.227458,9.16143389 220.525322,9.16143389 C220.819949,9.16143389 221.095145,9.20514159 221.35092,9.29255829 C221.606695,9.379975 221.828471,9.50705108 222.016255,9.67379035 C222.204039,9.84052962 222.35135,10.0436895 222.458193,10.283276 C222.565036,10.5228625 222.618456,10.7948215 222.618456,11.0991612 C222.618456,11.3581736 222.579605,11.598566 222.501901,11.8203454 C222.424197,12.0421248 222.318975,12.2533787 222.186231,12.4541133 C222.053487,12.654848 221.90051,12.8507232 221.727296,13.0417449 C221.554081,13.2327666 221.370347,13.4254042 221.176088,13.6196636 L219.340346,15.4942569 C219.469852,15.4586426 219.600975,15.4303136 219.733719,15.4092688 C219.866463,15.3882241 219.994349,15.3777018 220.11738,15.3777018 L222.44848,15.3777018 Z"/><path id="Rectangle-6-Copy-90" fill="#95A5A6" d="M126.267943,117.490309 L128.349282,117.490309 C129.11561,117.490309 129.736842,118.111541 129.736842,118.877869 L129.736842,118.877869 C129.736842,119.644197 129.11561,120.265429 128.349282,120.265429 L126.267943,120.265429 C125.501614,120.265429 124.880383,119.644197 124.880383,118.877869 L124.880383,118.877869 C124.880383,118.111541 125.501614,117.490309 126.267943,117.490309 Z" opacity=".4"/><path id="Rectangle-6-Copy-91" fill="#95A5A6" d="M134.593301,117.490309 L136.674641,117.490309 C137.440969,117.490309 138.062201,118.111541 138.062201,118.877869 L138.062201,118.877869 C138.062201,119.644197 137.440969,120.265429 136.674641,120.265429 L134.593301,120.265429 C133.826973,120.265429 133.205742,119.644197 133.205742,118.877869 L133.205742,118.877869 C133.205742,118.111541 133.826973,117.490309 134.593301,117.490309 Z" opacity=".4"/><path id="Rectangle-6-Copy-93" fill="#95A5A6" d="M151.244019,117.490309 L153.325359,117.490309 C154.091687,117.490309 154.712919,118.111541 154.712919,118.877869 L154.712919,118.877869 C154.712919,119.644197 154.091687,120.265429 153.325359,120.265429 L151.244019,120.265429 C150.477691,120.265429 149.856459,119.644197 149.856459,118.877869 L149.856459,118.877869 C149.856459,118.111541 150.477691,117.490309 151.244019,117.490309 Z" opacity=".4"/><path id="Rectangle-6-Copy-94" fill="#95A5A6" d="M159.569378,117.490309 L161.650718,117.490309 C162.417046,117.490309 163.038278,118.111541 163.038278,118.877869 L163.038278,118.877869 C163.038278,119.644197 162.417046,120.265429 161.650718,120.265429 L159.569378,120.265429 C158.80305,120.265429 158.181818,119.644197 158.181818,118.877869 L158.181818,118.877869 C158.181818,118.111541 158.80305,117.490309 159.569378,117.490309 Z" opacity=".4"/><path id="Rectangle-6-Copy-95" fill="#95A5A6" d="M167.894737,117.490309 L169.976077,117.490309 C170.742405,117.490309 171.363636,118.111541 171.363636,118.877869 L171.363636,118.877869 C171.363636,119.644197 170.742405,120.265429 169.976077,120.265429 L167.894737,120.265429 C167.128409,120.265429 166.507177,119.644197 166.507177,118.877869 L166.507177,118.877869 C166.507177,118.111541 167.128409,117.490309 167.894737,117.490309 Z" opacity=".4"/><path id="Rectangle-6-Copy-96" fill="#95A5A6" d="M176.220096,117.490309 L178.301435,117.490309 C179.067764,117.490309 179.688995,118.111541 179.688995,118.877869 L179.688995,118.877869 C179.688995,119.644197 179.067764,120.265429 178.301435,120.265429 L176.220096,120.265429 C175.453768,120.265429 174.832536,119.644197 174.832536,118.877869 L174.832536,118.877869 C174.832536,118.111541 175.453768,117.490309 176.220096,117.490309 Z" opacity=".4"/><path id="Rectangle-6-Copy-99" fill="#95A5A6" d="M201.196172,117.490309 L203.277512,117.490309 C204.04384,117.490309 204.665072,118.111541 204.665072,118.877869 L204.665072,118.877869 C204.665072,119.644197 204.04384,120.265429 203.277512,120.265429 L201.196172,120.265429 C200.429844,120.265429 199.808612,119.644197 199.808612,118.877869 L199.808612,118.877869 C199.808612,118.111541 200.429844,117.490309 201.196172,117.490309 Z" opacity=".4"/><path id="Rectangle-6-Copy-100" fill="#95A5A6" d="M209.521531,117.490309 L211.602871,117.490309 C212.369199,117.490309 212.990431,118.111541 212.990431,118.877869 L212.990431,118.877869 C212.990431,119.644197 212.369199,120.265429 211.602871,120.265429 L209.521531,120.265429 C208.755203,120.265429 208.133971,119.644197 208.133971,118.877869 L208.133971,118.877869 C208.133971,118.111541 208.755203,117.490309 209.521531,117.490309 Z" opacity=".4"/><path id="Rectangle-6-Copy-101" fill="#95A5A6" d="M217.84689,117.490309 L219.92823,117.490309 C220.694558,117.490309 221.315789,118.111541 221.315789,118.877869 L221.315789,118.877869 C221.315789,119.644197 220.694558,120.265429 219.92823,120.265429 L217.84689,120.265429 C217.080562,120.265429 216.45933,119.644197 216.45933,118.877869 L216.45933,118.877869 C216.45933,118.111541 217.080562,117.490309 217.84689,117.490309 Z" opacity=".4"/><path id="Rectangle-6-Copy-102" fill="#95A5A6" d="M226.172249,117.490309 L228.253589,117.490309 C229.019917,117.490309 229.641148,118.111541 229.641148,118.877869 L229.641148,118.877869 C229.641148,119.644197 229.019917,120.265429 228.253589,120.265429 L226.172249,120.265429 C225.405921,120.265429 224.784689,119.644197 224.784689,118.877869 L224.784689,118.877869 C224.784689,118.111541 225.405921,117.490309 226.172249,117.490309 Z" opacity=".4"/></g></g></g></svg>