<svg xmlns="http://www.w3.org/2000/svg" xmlns:xlink="http://www.w3.org/1999/xlink" width="290" height="183" version="1.1" viewBox="0 0 290 183"><title>Group 10</title><desc>Created with Sketch.</desc><g id="Page-1" fill="none" fill-rule="evenodd" stroke="none" stroke-width="1"><g id="Premium-Page-Design-for-weForms" transform="translate(-565.000000, -1003.000000)"><g id="Group-10" transform="translate(565.000000, 1003.000000)"><path id="Rectangle-11-Copy-10" fill="#FFF" d="M3.46889952,0 L286.5311,0 C288.446921,-3.51930481e-16 290,1.55307922 290,3.46889952 L290,179.5311 C290,181.446921 288.446921,183 286.5311,183 L3.46889952,183 C1.55307922,183 2.93156981e-14,181.446921 1.37667655e-14,179.5311 L0,3.46889952 C-2.3462032e-16,1.55307922 1.55307922,3.51930481e-16 3.46889952,0 Z"/><path id="Rectangle-6-Copy-122" fill="#EAEDED" d="M37.0813397,128 L252.91866,128 C254.068152,128 255,128.931848 255,130.08134 L255,158.91866 C255,160.068152 254.068152,161 252.91866,161 L37.0813397,161 C35.9318475,161 35,160.068152 35,158.91866 L35,130.08134 C35,128.931848 35.9318475,128 37.0813397,128 Z"/><text id="Reply-to-Copy" fill="#758598" font-family="Lato-Medium, Lato" font-size="12" font-weight="400" letter-spacing=".109" line-spacing="20.813"><tspan x="169" y="28">Reply to</tspan></text><text id="To" fill="#758598" font-family="Lato-Medium, Lato" font-size="12" font-weight="400" letter-spacing=".109" line-spacing="20.813"><tspan x="36" y="28">To</tspan></text><path id="Rectangle-6-Copy-98" fill="#BDDFCD" d="M42,42 L44,42 C47.3137085,42 50,44.6862915 50,48 L50,48 C50,51.3137085 47.3137085,54 44,54 L42,54 C38.6862915,54 36,51.3137085 36,48 L36,48 C36,44.6862915 38.6862915,42 42,42 Z"/><path id="Rectangle-6-Copy-135" fill="#DAB9E3" d="M175,42 L177,42 C180.313708,42 183,44.6862915 183,48 L183,48 C183,51.3137085 180.313708,54 177,54 L175,54 C171.686292,54 169,51.3137085 169,48 L169,48 C169,44.6862915 171.686292,42 175,42 Z"/><path id="Rectangle-6-Copy-137" fill="#E3C7C5" d="M42,87 L64,87 C67.3137085,87 70,89.6862915 70,93 L70,93 C70,96.3137085 67.3137085,99 64,99 L42,99 C38.6862915,99 36,96.3137085 36,93 L36,93 C36,89.6862915 38.6862915,87 42,87 Z"/><path id="Rectangle-6-Copy-103" fill="#95A5A6" d="M64,42 L93,42 C96.3137085,42 99,44.6862915 99,48 L99,48 C99,51.3137085 96.3137085,54 93,54 L64,54 C60.6862915,54 58,51.3137085 58,48 L58,48 C58,44.6862915 60.6862915,42 64,42 Z" opacity=".2"/><path id="Rectangle-6-Copy-136" fill="#95A5A6" d="M197,42 L216,42 C219.313708,42 222,44.6862915 222,48 L222,48 C222,51.3137085 219.313708,54 216,54 L197,54 C193.686292,54 191,51.3137085 191,48 L191,48 C191,44.6862915 193.686292,42 197,42 Z" opacity=".2"/><path id="Rectangle-6-Copy-138" fill="#95A5A6" d="M84,87 L171,87 C174.313708,87 177,89.6862915 177,93 L177,93 C177,96.3137085 174.313708,99 171,99 L84,99 C80.6862915,99 78,96.3137085 78,93 L78,93 C78,89.6862915 80.6862915,87 84,87 Z" opacity=".2"/><path id="Rectangle-6-Copy-142" fill="#4A90E2" d="M39.9688995,73 L65.0311005,73 C67.2230632,73 69,74.7769368 69,76.9688995 L69,77.0311005 C69,79.2230632 67.2230632,81 65.0311005,81 L39.9688995,81 C37.7769368,81 36,79.2230632 36,77.0311005 L36,76.9688995 C36,74.7769368 37.7769368,73 39.9688995,73 Z" opacity=".2"/><path id="Rectangle-6-Copy-143" fill="#7ED321" d="M38.4688995,113 L73.5311005,113 C75.4469208,113 77,114.553079 77,116.4689 L77,116.5311 C77,118.446921 75.4469208,120 73.5311005,120 L38.4688995,120 C36.5530792,120 35,118.446921 35,116.5311 L35,116.4689 C35,114.553079 36.5530792,113 38.4688995,113 Z" opacity=".2"/></g></g></g></svg>