<svg xmlns="http://www.w3.org/2000/svg" xmlns:xlink="http://www.w3.org/1999/xlink" width="289" height="183" version="1.1" viewBox="0 0 289 183"><title>Group 14</title><desc>Created with Sketch.</desc><defs><path id="path-1" d="M2.842944,0.186813187 L37.7642838,0.186813187 C38.8203008,0.186813187 39.6763717,1.0428841 39.6763717,2.0989011 L39.6763717,17.3956044 C39.6763717,18.4516214 38.8203008,19.3076923 37.7642838,19.3076923 L2.842944,19.3076923 C1.786927,19.3076923 0.930856085,18.4516214 0.930856085,17.3956044 L0.930856085,2.0989011 C0.930856085,1.0428841 1.786927,0.186813187 2.842944,0.186813187 Z"/><filter id="filter-2" width="147.2%" height="195.6%" x="-23.6%" y="-37.3%" filterUnits="objectBoundingBox"><feMorphology in="SourceAlpha" operator="dilate" radius=".637" result="shadowSpreadOuter1"/><feOffset dx="0" dy="2" in="shadowSpreadOuter1" result="shadowOffsetOuter1"/><feGaussianBlur in="shadowOffsetOuter1" result="shadowBlurOuter1" stdDeviation="2.5"/><feComposite in="shadowBlurOuter1" in2="SourceAlpha" operator="out" result="shadowBlurOuter1"/><feColorMatrix in="shadowBlurOuter1" type="matrix" values="0 0 0 0 0 0 0 0 0 0 0 0 0 0 0 0 0 0 0.052196558 0"/></filter><path id="path-3" d="M92.0956157,11.1868132 L124.027265,11.1868132 C125.083282,11.1868132 125.939353,12.0428841 125.939353,13.0989011 L125.939353,28.3956044 C125.939353,29.4516214 125.083282,30.3076923 124.027265,30.3076923 L92.0956157,30.3076923 C91.0395987,30.3076923 90.1835278,29.4516214 90.1835278,28.3956044 L90.1835278,13.0989011 C90.1835278,12.0428841 91.0395987,11.1868132 92.0956157,11.1868132 Z"/><filter id="filter-4" width="151.1%" height="195.6%" x="-25.6%" y="-37.3%" filterUnits="objectBoundingBox"><feMorphology in="SourceAlpha" operator="dilate" radius=".637" result="shadowSpreadOuter1"/><feOffset dx="0" dy="2" in="shadowSpreadOuter1" result="shadowOffsetOuter1"/><feGaussianBlur in="shadowOffsetOuter1" result="shadowBlurOuter1" stdDeviation="2.5"/><feComposite in="shadowBlurOuter1" in2="SourceAlpha" operator="out" result="shadowBlurOuter1"/><feColorMatrix in="shadowBlurOuter1" type="matrix" values="0 0 0 0 0 0 0 0 0 0 0 0 0 0 0 0 0 0 0.052196558 0"/></filter><path id="path-5" d="M12.8742872,90 L19.848042,90 C20.904059,90 21.7601299,90.8560709 21.7601299,91.9120879 L21.7601299,97.6483516 C21.7601299,98.7043686 20.904059,99.5604396 19.848042,99.5604396 L12.8742872,99.5604396 C11.8182702,99.5604396 10.9621993,98.7043686 10.9621993,97.6483516 L10.9621993,91.9120879 C10.9621993,90.8560709 11.8182702,90 12.8742872,90 Z"/><filter id="filter-6" width="257.4%" height="277.8%" x="-78.7%" y="-68%" filterUnits="objectBoundingBox"><feOffset dx="0" dy="2" in="SourceAlpha" result="shadowOffsetOuter1"/><feGaussianBlur in="shadowOffsetOuter1" result="shadowBlurOuter1" stdDeviation="2.5"/><feComposite in="shadowBlurOuter1" in2="SourceAlpha" operator="out" result="shadowBlurOuter1"/><feColorMatrix in="shadowBlurOuter1" type="matrix" values="0 0 0 0 0 0 0 0 0 0 0 0 0 0 0 0 0 0 0.052196558 0"/></filter><path id="path-7" d="M12.7100185,125.912088 L19.6837733,125.912088 C20.7397903,125.912088 21.5958612,126.768159 21.5958612,127.824176 L21.5958612,133.56044 C21.5958612,134.616457 20.7397903,135.472527 19.6837733,135.472527 L12.7100185,135.472527 C11.6540015,135.472527 10.7979306,134.616457 10.7979306,133.56044 L10.7979306,127.824176 C10.7979306,126.768159 11.6540015,125.912088 12.7100185,125.912088 Z"/><filter id="filter-8" width="257.4%" height="277.8%" x="-78.7%" y="-68%" filterUnits="objectBoundingBox"><feOffset dx="0" dy="2" in="SourceAlpha" result="shadowOffsetOuter1"/><feGaussianBlur in="shadowOffsetOuter1" result="shadowBlurOuter1" stdDeviation="2.5"/><feComposite in="shadowBlurOuter1" in2="SourceAlpha" operator="out" result="shadowBlurOuter1"/><feColorMatrix in="shadowBlurOuter1" type="matrix" values="0 0 0 0 0 0 0 0 0 0 0 0 0 0 0 0 0 0 0.052196558 0"/></filter><path id="path-9" d="M12.7100185,162.241758 L19.6837733,162.241758 C20.7397903,162.241758 21.5958612,163.097829 21.5958612,164.153846 L21.5958612,169.89011 C21.5958612,170.946127 20.7397903,171.802198 19.6837733,171.802198 L12.7100185,171.802198 C11.6540015,171.802198 10.7979306,170.946127 10.7979306,169.89011 L10.7979306,164.153846 C10.7979306,163.097829 11.6540015,162.241758 12.7100185,162.241758 Z"/><filter id="filter-10" width="257.4%" height="277.8%" x="-78.7%" y="-68%" filterUnits="objectBoundingBox"><feOffset dx="0" dy="2" in="SourceAlpha" result="shadowOffsetOuter1"/><feGaussianBlur in="shadowOffsetOuter1" result="shadowBlurOuter1" stdDeviation="2.5"/><feComposite in="shadowBlurOuter1" in2="SourceAlpha" operator="out" result="shadowBlurOuter1"/><feColorMatrix in="shadowBlurOuter1" type="matrix" values="0 0 0 0 0 0 0 0 0 0 0 0 0 0 0 0 0 0 0.052196558 0"/></filter></defs><g id="Page-1" fill="none" fill-rule="evenodd" stroke="none" stroke-width="1"><g id="Premium-Page-Design-for-weForms" transform="translate(-909.000000, -1003.000000)"><g id="Group-14" transform="translate(909.000000, 1003.000000)"><path id="Rectangle-11-Copy-10" fill="#FFF" d="M3.46889952,0 L285.534537,0 C287.450357,-3.51930481e-16 289.003436,1.55307922 289.003436,3.46889952 L289.003436,179.5311 C289.003436,181.446921 287.450357,183 285.534537,183 L3.46889952,183 C1.55307922,183 8.93988649e-16,181.446921 -1.46549439e-14,179.5311 L-8.8817842e-16,3.46889952 C-1.12279874e-15,1.55307922 1.55307922,3.51930481e-16 3.46889952,0 Z"/><path id="Name" fill="#16A085" d="M38.3694936,56.4198022 L38.3694936,62.8131868 L37.9382115,62.8131868 C37.870036,62.8131868 37.812977,62.8012895 37.7670326,62.7774945 C37.7210882,62.7536995 37.6758856,62.7135461 37.6314233,62.657033 L33.9455179,57.8385714 C33.9514462,57.9129308 33.9558924,57.9858018 33.9588565,58.0571868 C33.9618207,58.1285718 33.9633027,58.1954942 33.9633027,58.257956 L33.9633027,62.8131868 L33.2074476,62.8131868 L33.2074476,56.4198022 L33.6520683,56.4198022 C33.6906023,56.4198022 33.7232074,56.4220329 33.7498848,56.4264945 C33.7765622,56.4309561 33.8002751,56.4383919 33.8210241,56.4488022 C33.8417732,56.4592125 33.862522,56.4740842 33.883271,56.4934176 C33.9040201,56.512751 33.9262509,56.5372892 33.9499641,56.567033 L37.6358695,61.381033 C37.6299412,61.3036992 37.624754,61.2285974 37.6203078,61.1557253 C37.6158615,61.0828531 37.6136385,61.0137 37.6136385,60.9482637 L37.6136385,56.4198022 L38.3694936,56.4198022 Z M42.198486,60.7787253 C41.8338953,60.7906228 41.5234049,60.8196225 41.2670057,60.8657253 C41.0106065,60.9118281 40.8016369,60.9720582 40.6400906,61.0464176 C40.4785443,61.1207769 40.361462,61.2085196 40.2888402,61.3096484 C40.2162185,61.4107771 40.1799082,61.5238016 40.1799082,61.6487253 C40.1799082,61.7677002 40.1991749,61.8703146 40.2377089,61.9565714 C40.2762429,62.0428283 40.3288558,62.1134686 40.3955492,62.1684945 C40.4622426,62.2235204 40.5407915,62.2636739 40.6311982,62.288956 C40.7216048,62.3142382 40.8186794,62.3268791 40.9224247,62.3268791 C41.0617399,62.3268791 41.1891965,62.3127511 41.3047985,62.2844945 C41.4204004,62.256238 41.5293314,62.2153409 41.6315947,62.1618022 C41.7338579,62.1082635 41.8316735,62.0443154 41.9250443,61.969956 C42.0184151,61.8955967 42.1095614,61.8108283 42.198486,61.7156484 L42.198486,60.7787253 Z M39.6419172,58.9316484 C39.890906,58.6907241 40.1591578,58.5107772 40.4466806,58.3918022 C40.7342034,58.2728272 41.052845,58.2133407 41.402615,58.2133407 C41.654568,58.2133407 41.8783582,58.2549813 42.0739922,58.3382637 C42.2696263,58.4215462 42.4341343,58.537545 42.5675212,58.6862637 C42.7009081,58.8349824 42.8016877,59.0149293 42.8698632,59.2261099 C42.9380388,59.4372904 42.972126,59.6692881 42.972126,59.9221099 L42.972126,62.8131868 L42.6208757,62.8131868 C42.5438077,62.8131868 42.4845255,62.8005459 42.4430274,62.7752637 C42.4015293,62.7499816 42.3689241,62.7001615 42.3452108,62.6258022 L42.2562867,62.1974945 C42.1377206,62.3075463 42.0221204,62.4049556 41.9094826,62.4897253 C41.7968448,62.5744949 41.6782805,62.6458788 41.5537861,62.7038791 C41.4292916,62.7618794 41.2966478,62.8064943 41.1558506,62.8377253 C41.0150533,62.8689562 40.8586966,62.8845714 40.6867757,62.8845714 C40.5118907,62.8845714 40.3473827,62.8600332 40.1932468,62.810956 C40.0391109,62.7618789 39.904985,62.6882642 39.7908651,62.5901099 C39.6767452,62.4919556 39.5863399,62.3677773 39.5196465,62.2175714 C39.452953,62.0673655 39.4196068,61.8896494 39.4196068,61.6844176 C39.4196068,61.5059552 39.4685146,61.3341876 39.5663317,61.1691099 C39.6641487,61.0040321 39.8227285,60.8575464 40.0420758,60.7296484 C40.2614231,60.6017503 40.5474595,60.4969052 40.9001937,60.4151099 C41.2529278,60.3333146 41.6856876,60.2864689 42.198486,60.2745714 L42.198486,59.9221099 C42.198486,59.5711338 42.1229013,59.3056749 41.9717295,59.1257253 C41.8205577,58.9457757 41.5997316,58.8558022 41.3092447,58.8558022 C41.1136106,58.8558022 40.9498436,58.8803404 40.8179388,58.9294176 C40.6860341,58.9784948 40.5719159,59.0335198 40.4755809,59.0944945 C40.379246,59.1554692 40.2962509,59.2104943 40.2265933,59.2595714 C40.1569358,59.3086486 40.0880202,59.3331868 40.0198447,59.3331868 C39.96649,59.3331868 39.9205463,59.3190587 39.8820123,59.2908022 C39.8434783,59.2625456 39.8108732,59.2275973 39.7841958,59.185956 L39.6419172,58.9316484 Z M44.2578882,62.8131868 L44.2578882,58.2936484 L44.7336323,58.2936484 C44.8462701,58.2936484 44.9159266,58.3486734 44.942604,58.4587253 L45.0004047,58.9227253 C45.1663973,58.7174935 45.3531361,58.5494439 45.5606268,58.4185714 C45.7681174,58.287699 46.0082102,58.2222637 46.2809122,58.2222637 C46.5832558,58.2222637 46.8285358,58.3070321 47.0167594,58.4765714 C47.2049831,58.6461107 47.3405911,58.8751341 47.4235874,59.1636484 C47.4887987,59.0000578 47.5725348,58.8587772 47.674798,58.7398022 C47.7770613,58.6208272 47.8919205,58.5226744 48.0193791,58.4453407 C48.1468376,58.3680069 48.2824456,58.3114947 48.426207,58.2758022 C48.5699684,58.2401097 48.7159507,58.2222637 48.8641583,58.2222637 C49.1012906,58.2222637 49.3124833,58.2601864 49.4977428,58.336033 C49.6830023,58.4118795 49.8401001,58.5226733 49.9690407,58.6684176 C50.0979813,58.8141619 50.1965379,58.9933652 50.2647135,59.206033 C50.332889,59.4187007 50.3669762,59.6618521 50.3669762,59.9354945 L50.3669762,62.8131868 L49.5711052,62.8131868 L49.5711052,59.9354945 C49.5711052,59.581544 49.4940384,59.3131108 49.3399025,59.1301868 C49.1857665,58.9472628 48.9634584,58.8558022 48.6729715,58.8558022 C48.5425487,58.8558022 48.4187972,58.8788532 48.3017132,58.924956 C48.1846292,58.9710588 48.0816264,59.0387248 47.9927018,59.127956 C47.9037772,59.2171873 47.8333797,59.3294682 47.781507,59.4648022 C47.7296343,59.6001362 47.7036984,59.7570321 47.7036984,59.9354945 L47.7036984,62.8131868 L46.9078274,62.8131868 L46.9078274,59.9354945 C46.9078274,59.5726209 46.8352067,59.3019569 46.6899633,59.1234945 C46.5447198,58.9450321 46.332786,58.8558022 46.0541557,58.8558022 C45.8585216,58.8558022 45.677711,58.9085965 45.5117185,59.0141868 C45.3457259,59.1197771 45.1930744,59.2632885 45.0537592,59.4447253 L45.0537592,62.8131868 L44.2578882,62.8131868 Z M54.6672665,60.0604176 C54.6672665,59.8760064 54.6413306,59.7072132 54.5894579,59.554033 C54.5375853,59.4008527 54.4620005,59.2684951 54.3627014,59.156956 C54.2634023,59.045417 54.1426149,58.9591615 54.0003355,58.8981868 C53.8580562,58.8372121 53.6965123,58.8067253 53.515699,58.8067253 C53.1362875,58.8067253 52.8361715,58.917519 52.6153422,59.1391099 C52.3945128,59.3607007 52.2574228,59.6678002 52.204068,60.0604176 L54.6672665,60.0604176 Z M55.3075203,62.1796484 C55.2097033,62.2986233 55.092621,62.4019812 54.95627,62.4897253 C54.819919,62.5774693 54.6739366,62.6495968 54.5183186,62.7061099 C54.3627006,62.762623 54.2018977,62.8050072 54.0359052,62.8332637 C53.8699126,62.8615203 53.7054046,62.8756484 53.5423763,62.8756484 C53.2311402,62.8756484 52.9443628,62.822854 52.6820353,62.7172637 C52.4197077,62.6116735 52.1929535,62.4570083 52.0017656,62.2532637 C51.8105778,62.0495191 51.6616313,61.7974447 51.5549218,61.497033 C51.4482124,61.1966212 51.3948584,60.851599 51.3948584,60.461956 C51.3948584,60.1466724 51.4430252,59.8522138 51.5393601,59.5785714 C51.6356951,59.304929 51.7742671,59.0677263 51.9550805,58.866956 C52.1358938,58.6661858 52.3567198,58.5085464 52.6175653,58.394033 C52.8784107,58.2795196 53.1718574,58.2222637 53.4979142,58.2222637 C53.7676521,58.2222637 54.0173782,58.2676223 54.2471,58.3583407 C54.4768218,58.4490591 54.6754171,58.5799295 54.8428917,58.750956 C55.0103663,58.9219825 55.1415281,59.1331599 55.236381,59.3844945 C55.3312339,59.6358291 55.3786596,59.9221083 55.3786596,60.2433407 C55.3786596,60.3682644 55.3653211,60.4515456 55.3386438,60.4931868 C55.3119664,60.534828 55.2615766,60.5556484 55.1874727,60.5556484 L52.1773908,60.5556484 C52.1862832,60.8411882 52.2255577,61.0895447 52.2952153,61.3007253 C52.3648729,61.5119058 52.4619474,61.6881348 52.5864418,61.8294176 C52.7109362,61.9707003 52.8591416,62.076289 53.0310625,62.1461868 C53.2029833,62.2160846 53.3956504,62.251033 53.6090694,62.251033 C53.8076676,62.251033 53.9788448,62.2279819 54.1226062,62.1818791 C54.2663676,62.1357763 54.3901191,62.0859563 54.4938645,62.0324176 C54.5976098,61.9788789 54.68431,61.9290588 54.7539676,61.882956 C54.8236252,61.8368532 54.8836484,61.8138022 54.934039,61.8138022 C54.9992503,61.8138022 55.0496401,61.839084 55.08521,61.8896484 L55.3075203,62.1796484 Z"/><path id="Shortcode" fill="#16A085" d="M80.2934119,57.4191868 C80.2667345,57.4638024 80.2378345,57.4972636 80.2067108,57.5195714 C80.1755872,57.5418792 80.1377949,57.553033 80.0933326,57.553033 C80.042942,57.553033 79.9836598,57.5277512 79.9154843,57.4771868 C79.8473088,57.4266225 79.7620907,57.3708538 79.6598274,57.3098791 C79.5575642,57.2489045 79.4345537,57.1931358 79.2907923,57.1425714 C79.1470309,57.0920071 78.9728895,57.0667253 78.768363,57.0667253 C78.5756931,57.0667253 78.4059979,57.0927507 78.2592723,57.1448022 C78.1125468,57.1968537 77.9895363,57.2674941 77.8902372,57.3567253 C77.790938,57.4459565 77.7160943,57.5508016 77.6657037,57.6712637 C77.6153131,57.7917259 77.5901182,57.9218528 77.5901182,58.0616484 C77.5901182,58.2401108 77.6338388,58.3880837 77.7212813,58.5055714 C77.8087238,58.6230592 77.924324,58.7234428 78.0680854,58.8067253 C78.2118468,58.8900077 78.3748728,58.9621352 78.5571682,59.0231099 C78.7394635,59.0840846 78.9262024,59.1472891 79.1173902,59.2127253 C79.308578,59.2781615 79.4953169,59.3517761 79.6776123,59.4335714 C79.8599076,59.5153667 80.0229336,59.6187247 80.166695,59.7436484 C80.3104564,59.8685721 80.4260566,60.02175 80.5134991,60.2031868 C80.6009416,60.3846236 80.6446622,60.6076983 80.6446622,60.8724176 C80.6446622,61.1520087 80.5972365,61.4144933 80.5023836,61.6598791 C80.4075307,61.905265 80.2689587,62.1186731 80.0866633,62.3001099 C79.9043679,62.4815467 79.6805777,62.6243145 79.4152861,62.7284176 C79.1499944,62.8325207 78.8483964,62.8845714 78.510483,62.8845714 C78.0955016,62.8845714 77.7190599,62.8094696 77.3811465,62.6592637 C77.0432331,62.5090579 76.7542325,62.3060599 76.5141362,62.0502637 L76.7631237,61.6398022 C76.786837,61.6070841 76.815737,61.5795715 76.8498248,61.5572637 C76.8839125,61.5349559 76.9217049,61.5238022 76.9632031,61.5238022 C77.001737,61.5238022 77.0454576,61.5394174 77.0943661,61.5706484 C77.1432747,61.6018793 77.1988517,61.6412891 77.2610989,61.6888791 C77.3233461,61.7364691 77.3944847,61.7885199 77.4745168,61.845033 C77.5545489,61.9015461 77.6456953,61.9535968 77.7479585,62.0011868 C77.8502218,62.0487768 77.966563,62.0881867 78.0969858,62.1194176 C78.2274085,62.1506485 78.3741318,62.1662637 78.5371602,62.1662637 C78.7416868,62.1662637 78.9239794,62.1380076 79.0840437,62.0814945 C79.2441079,62.0249814 79.3797158,61.9454181 79.4908716,61.8428022 C79.6020273,61.7401863 79.6872454,61.6174952 79.7465285,61.4747253 C79.8058115,61.3319553 79.8354526,61.1728287 79.8354526,60.9973407 C79.8354526,60.8040064 79.791732,60.6456233 79.7042895,60.5221868 C79.616847,60.3987503 79.5019878,60.2953924 79.3597085,60.2121099 C79.2174291,60.1288274 79.0544032,60.0581871 78.8706257,60.0001868 C78.6868483,59.9421865 78.5001095,59.8826999 78.3104037,59.8217253 C78.1206979,59.7607506 77.9339591,59.6901103 77.7501816,59.6098022 C77.5664042,59.5294941 77.4033782,59.4253926 77.2610989,59.2974945 C77.1188196,59.1695964 77.0039604,59.0097262 76.9165179,58.8178791 C76.8290754,58.626032 76.7853548,58.3888293 76.7853548,58.1062637 C76.7853548,57.8802113 76.8290754,57.6615981 76.9165179,57.4504176 C77.0039604,57.239237 77.131417,57.0518543 77.2988917,56.8882637 C77.4663663,56.7246732 77.6723718,56.5938027 77.9169144,56.4956484 C78.161457,56.397494 78.4423062,56.3484176 78.7594706,56.3484176 C79.1151689,56.3484176 79.4389977,56.4049298 79.7309667,56.517956 C80.0229358,56.6309823 80.2800721,56.7945704 80.5023836,57.0087253 L80.2934119,57.4191868 Z M82.4728616,58.895956 C82.6655315,58.6907242 82.8789473,58.5271361 83.1131154,58.4051868 C83.3472834,58.2832375 83.6170173,58.2222637 83.922325,58.2222637 C84.1683497,58.2222637 84.3854706,58.2631608 84.5736943,58.344956 C84.761918,58.4267513 84.9190157,58.5427502 85.0449922,58.692956 C85.1709687,58.8431619 85.2665612,59.0238524 85.3317725,59.235033 C85.3969839,59.4462135 85.4295891,59.6796984 85.4295891,59.9354945 L85.4295891,62.8131868 L84.6337181,62.8131868 L84.6337181,59.9354945 C84.6337181,59.5934415 84.5559102,59.3279826 84.4002922,59.1391099 C84.2446742,58.9502372 84.0082866,58.8558022 83.6911223,58.8558022 C83.4569542,58.8558022 83.2383512,58.9123145 83.0353068,59.0253407 C82.8322623,59.1383669 82.6447825,59.2915448 82.4728616,59.4848791 L82.4728616,62.8131868 L81.6769906,62.8131868 L81.6769906,56.2413407 L82.4728616,56.2413407 L82.4728616,58.895956 Z M88.6183277,58.2222637 C88.9473487,58.2222637 89.2437595,58.2772888 89.5075691,58.3873407 C89.7713787,58.4973925 89.9966509,58.6535448 90.1833925,58.8558022 C90.3701341,59.0580596 90.5131523,59.3026982 90.6124515,59.5897253 C90.7117506,59.8767524 90.7613994,60.1972363 90.7613994,60.5511868 C90.7613994,60.9081117 90.7117506,61.2293392 90.6124515,61.5148791 C90.5131523,61.800419 90.3701341,62.044314 90.1833925,62.2465714 C89.9966509,62.4488289 89.7713787,62.6042376 89.5075691,62.7128022 C89.2437595,62.8213668 88.9473487,62.8756484 88.6183277,62.8756484 C88.2863426,62.8756484 87.9877088,62.8213668 87.7224171,62.7128022 C87.4571254,62.6042376 87.2311122,62.4488289 87.0443706,62.2465714 C86.857629,62.044314 86.7146107,61.800419 86.6153116,61.5148791 C86.5160125,61.2293392 86.4663637,60.9081117 86.4663637,60.5511868 C86.4663637,60.1972363 86.5160125,59.8767524 86.6153116,59.5897253 C86.7146107,59.3026982 86.857629,59.0580596 87.0443706,58.8558022 C87.2311122,58.6535448 87.4571254,58.4973925 87.7224171,58.3873407 C87.9877088,58.2772888 88.2863426,58.2222637 88.6183277,58.2222637 Z M88.6183277,62.2554945 C89.0629506,62.2554945 89.3949308,62.1060345 89.614278,61.8071099 C89.8336253,61.5081853 89.9432973,61.0910356 89.9432973,60.5556484 C89.9432973,60.0172867 89.8336253,59.5979063 89.614278,59.2974945 C89.3949308,58.9970827 89.0629506,58.8468791 88.6183277,58.8468791 C88.3930521,58.8468791 88.19668,58.8855454 88.0292054,58.9628791 C87.8617307,59.0402128 87.7224176,59.1517502 87.6112619,59.2974945 C87.5001062,59.4432388 87.4171112,59.6224422 87.3622743,59.8351099 C87.3074375,60.0477776 87.2800195,60.2879547 87.2800195,60.5556484 C87.2800195,61.0910356 87.3904326,61.5081853 87.6112619,61.8071099 C87.8320913,62.1060345 88.1677765,62.2554945 88.6183277,62.2554945 Z M92.594045,59.1993407 C92.7363243,58.8900058 92.9112067,58.6483415 93.1186974,58.4743407 C93.3261881,58.3003398 93.5796193,58.2133407 93.8789987,58.2133407 C93.9738516,58.2133407 94.0649979,58.2237508 94.1524404,58.2445714 C94.239883,58.265392 94.3176908,58.2981097 94.3858663,58.3427253 L94.3280656,58.9361099 C94.3102807,59.0104692 94.2658191,59.0476484 94.1946794,59.0476484 C94.1531813,59.0476484 94.0924171,59.0387254 94.0123849,59.0208791 C93.9323528,59.0030329 93.8419475,58.9941099 93.7411663,58.9941099 C93.598887,58.9941099 93.4721714,59.0149302 93.3610157,59.0565714 C93.2498599,59.0982127 93.1505623,59.15993 93.0631198,59.2417253 C92.9756773,59.3235206 92.8971284,59.4246477 92.8274708,59.5451099 C92.7578133,59.665572 92.694826,59.8031348 92.6385071,59.9578022 L92.6385071,62.8131868 L91.8426361,62.8131868 L91.8426361,58.2936484 L92.2961491,58.2936484 C92.3821096,58.2936484 92.4413917,58.3100072 92.4739974,58.3427253 C92.5066031,58.3754434 92.5288339,58.4319556 92.5406905,58.5122637 L92.594045,59.1993407 Z M96.543085,62.8845714 C96.1873867,62.8845714 95.9139477,62.7849314 95.7227599,62.5856484 C95.531572,62.3863653 95.4359795,62.0993425 95.4359795,61.7245714 L95.4359795,58.9584176 L94.8935423,58.9584176 C94.8461159,58.9584176 94.8061004,58.9442895 94.7734947,58.916033 C94.7408891,58.8877764 94.7245865,58.8439051 94.7245865,58.7844176 L94.7245865,58.4676484 L95.4626568,58.373956 L95.6449512,56.9774945 C95.6538437,56.9328789 95.6738514,56.8964434 95.704975,56.8681868 C95.7360986,56.8399303 95.7768551,56.8258022 95.8272457,56.8258022 L96.2274043,56.8258022 L96.2274043,58.3828791 L97.5301429,58.3828791 L97.5301429,58.9584176 L96.2274043,58.9584176 L96.2274043,61.671033 C96.2274043,61.8613929 96.273348,62.0026735 96.3652367,62.0948791 C96.4571255,62.1870847 96.5756898,62.2331868 96.7209333,62.2331868 C96.8039295,62.2331868 96.8758092,62.2220331 96.9365743,62.1997253 C96.9973394,62.1774175 97.0499523,62.1528793 97.0944146,62.1261099 C97.1388769,62.0993405 97.1766693,62.0748023 97.2077929,62.0524945 C97.2389165,62.0301867 97.2663345,62.019033 97.2900477,62.019033 C97.3315459,62.019033 97.3685972,62.0443148 97.4012029,62.0948791 L97.6324056,62.4741099 C97.4960546,62.602008 97.3315466,62.7023916 97.1388767,62.7752637 C96.9462068,62.8481359 96.7476115,62.8845714 96.543085,62.8845714 Z M101.54143,59.0967253 C101.517717,59.1294434 101.494004,59.1547252 101.47029,59.1725714 C101.446577,59.1904177 101.413972,59.1993407 101.372474,59.1993407 C101.328012,59.1993407 101.279104,59.1807511 101.225749,59.1435714 C101.172394,59.1063918 101.106443,59.0654947 101.027893,59.0208791 C100.949343,58.9762635 100.853009,58.9353665 100.738889,58.8981868 C100.62477,58.8610071 100.484715,58.8424176 100.318723,58.8424176 C100.096412,58.8424176 99.9007804,58.8818274 99.7318237,58.9606484 C99.562867,59.0394693 99.4213308,59.1532374 99.3072109,59.301956 C99.193091,59.4506747 99.1071319,59.6306217 99.0493309,59.8418022 C98.99153,60.0529827 98.9626299,60.2894419 98.9626299,60.5511868 C98.9626299,60.8248292 98.993753,61.0679806 99.0560002,61.2806484 C99.1182474,61.4933161 99.2064297,61.6717758 99.3205495,61.816033 C99.4346694,61.9602901 99.5725005,62.0703403 99.7340468,62.1461868 C99.8955931,62.2220333 100.077145,62.259956 100.278707,62.259956 C100.471377,62.259956 100.629957,62.236905 100.754451,62.1908022 C100.878946,62.1446994 100.981948,62.0933922 101.063463,62.0368791 C101.144977,61.980366 101.213151,61.9290588 101.267988,61.882956 C101.322825,61.8368532 101.37692,61.8138022 101.430275,61.8138022 C101.495486,61.8138022 101.545876,61.839084 101.581446,61.8896484 L101.803756,62.1796484 C101.705939,62.3015977 101.594785,62.4056992 101.47029,62.491956 C101.345796,62.5782129 101.21167,62.6503404 101.067909,62.7083407 C100.924147,62.7663409 100.773719,62.8087251 100.616619,62.8354945 C100.459519,62.8622639 100.299457,62.8756484 100.136428,62.8756484 C99.854834,62.8756484 99.5932514,62.8235976 99.351673,62.7194945 C99.1100946,62.6153914 98.9003839,62.4644442 98.7225347,62.2666484 C98.5446856,62.0688525 98.4053725,61.8257011 98.3045913,61.5371868 C98.2038101,61.2486726 98.1534203,60.9200092 98.1534203,60.5511868 C98.1534203,60.2150826 98.200105,59.9042652 98.2934758,59.6187253 C98.3868466,59.3331854 98.5231956,59.0870596 98.7025268,58.8803407 C98.881858,58.6736217 99.1026841,58.5122643 99.3650116,58.3962637 C99.6273391,58.2802632 99.9289371,58.2222637 100.269815,58.2222637 C100.586979,58.2222637 100.866346,58.2735709 101.107925,58.3761868 C101.349503,58.4788027 101.56366,58.6238013 101.750402,58.8111868 L101.54143,59.0967253 Z M104.55232,58.2222637 C104.881341,58.2222637 105.177752,58.2772888 105.441562,58.3873407 C105.705371,58.4973925 105.930643,58.6535448 106.117385,58.8558022 C106.304127,59.0580596 106.447145,59.3026982 106.546444,59.5897253 C106.645743,59.8767524 106.695392,60.1972363 106.695392,60.5511868 C106.695392,60.9081117 106.645743,61.2293392 106.546444,61.5148791 C106.447145,61.800419 106.304127,62.044314 106.117385,62.2465714 C105.930643,62.4488289 105.705371,62.6042376 105.441562,62.7128022 C105.177752,62.8213668 104.881341,62.8756484 104.55232,62.8756484 C104.220335,62.8756484 103.921701,62.8213668 103.65641,62.7128022 C103.391118,62.6042376 103.165105,62.4488289 102.978363,62.2465714 C102.791621,62.044314 102.648603,61.800419 102.549304,61.5148791 C102.450005,61.2293392 102.400356,60.9081117 102.400356,60.5511868 C102.400356,60.1972363 102.450005,59.8767524 102.549304,59.5897253 C102.648603,59.3026982 102.791621,59.0580596 102.978363,58.8558022 C103.165105,58.6535448 103.391118,58.4973925 103.65641,58.3873407 C103.921701,58.2772888 104.220335,58.2222637 104.55232,58.2222637 Z M104.55232,62.2554945 C104.996943,62.2554945 105.328923,62.1060345 105.54827,61.8071099 C105.767618,61.5081853 105.87729,61.0910356 105.87729,60.5556484 C105.87729,60.0172867 105.767618,59.5979063 105.54827,59.2974945 C105.328923,58.9970827 104.996943,58.8468791 104.55232,58.8468791 C104.327045,58.8468791 104.130672,58.8855454 103.963198,58.9628791 C103.795723,59.0402128 103.65641,59.1517502 103.545254,59.2974945 C103.434099,59.4432388 103.351104,59.6224422 103.296267,59.8351099 C103.24143,60.0477776 103.214012,60.2879547 103.214012,60.5556484 C103.214012,61.0910356 103.324425,61.5081853 103.545254,61.8071099 C103.766084,62.1060345 104.101769,62.2554945 104.55232,62.2554945 Z M110.711125,59.3688791 C110.562917,59.1695961 110.402855,59.0305462 110.230935,58.9517253 C110.059014,58.8729044 109.866347,58.8334945 109.652928,58.8334945 C109.234982,58.8334945 108.913376,58.9836981 108.688101,59.2841099 C108.462825,59.5845216 108.350189,60.0128251 108.350189,60.569033 C108.350189,60.863496 108.375384,61.1155704 108.425775,61.3252637 C108.476165,61.5349571 108.550268,61.7074682 108.648085,61.8428022 C108.745902,61.9781362 108.865948,62.0770327 109.008228,62.1394945 C109.150507,62.2019564 109.312051,62.2331868 109.492864,62.2331868 C109.75371,62.2331868 109.981205,62.1737002 110.175357,62.0547253 C110.369509,61.9357503 110.548097,61.7677007 110.711125,61.5505714 L110.711125,59.3688791 Z M111.50255,56.2413407 L111.50255,62.8131868 L111.031252,62.8131868 C110.918614,62.8131868 110.847475,62.7581617 110.817834,62.6481099 L110.746695,62.0993407 C110.554025,62.3313418 110.334681,62.5187246 110.088656,62.6614945 C109.842631,62.8042645 109.558077,62.8756484 109.234984,62.8756484 C108.977103,62.8756484 108.742938,62.8258283 108.532484,62.7261868 C108.322029,62.6265453 108.1427,62.4800596 107.994493,62.2867253 C107.846285,62.093391 107.732167,61.8524703 107.652135,61.563956 C107.572103,61.2754418 107.532087,60.9438041 107.532087,60.569033 C107.532087,60.2359031 107.576549,59.9258293 107.665473,59.6388022 C107.754398,59.3517751 107.881855,59.102675 108.047847,58.8914945 C108.21384,58.680314 108.417622,58.5144951 108.659201,58.394033 C108.900779,58.2735708 109.172736,58.2133407 109.475079,58.2133407 C109.750746,58.2133407 109.987133,58.2601863 110.184249,58.3538791 C110.381366,58.4475719 110.556989,58.5776988 110.711125,58.7442637 L110.711125,56.2413407 L111.50255,56.2413407 Z M115.851748,60.0604176 C115.851748,59.8760064 115.825812,59.7072132 115.77394,59.554033 C115.722067,59.4008527 115.646482,59.2684951 115.547183,59.156956 C115.447884,59.045417 115.327097,58.9591615 115.184817,58.8981868 C115.042538,58.8372121 114.880994,58.8067253 114.700181,58.8067253 C114.320769,58.8067253 114.020653,58.917519 113.799824,59.1391099 C113.578995,59.3607007 113.441905,59.6678002 113.38855,60.0604176 L115.851748,60.0604176 Z M116.492002,62.1796484 C116.394185,62.2986233 116.277103,62.4019812 116.140752,62.4897253 C116.004401,62.5774693 115.858418,62.6495968 115.7028,62.7061099 C115.547182,62.762623 115.38638,62.8050072 115.220387,62.8332637 C115.054394,62.8615203 114.889886,62.8756484 114.726858,62.8756484 C114.415622,62.8756484 114.128845,62.822854 113.866517,62.7172637 C113.60419,62.6116735 113.377435,62.4570083 113.186247,62.2532637 C112.99506,62.0495191 112.846113,61.7974447 112.739404,61.497033 C112.632694,61.1966212 112.57934,60.851599 112.57934,60.461956 C112.57934,60.1466724 112.627507,59.8522138 112.723842,59.5785714 C112.820177,59.304929 112.958749,59.0677263 113.139562,58.866956 C113.320376,58.6661858 113.541202,58.5085464 113.802047,58.394033 C114.062892,58.2795196 114.356339,58.2222637 114.682396,58.2222637 C114.952134,58.2222637 115.20186,58.2676223 115.431582,58.3583407 C115.661304,58.4490591 115.859899,58.5799295 116.027374,58.750956 C116.194848,58.9219825 116.32601,59.1331599 116.420863,59.3844945 C116.515716,59.6358291 116.563141,59.9221083 116.563141,60.2433407 C116.563141,60.3682644 116.549803,60.4515456 116.523126,60.4931868 C116.496448,60.534828 116.446058,60.5556484 116.371955,60.5556484 L113.361873,60.5556484 C113.370765,60.8411882 113.410039,61.0895447 113.479697,61.3007253 C113.549355,61.5119058 113.646429,61.6881348 113.770924,61.8294176 C113.895418,61.9707003 114.043623,62.076289 114.215544,62.1461868 C114.387465,62.2160846 114.580132,62.251033 114.793551,62.251033 C114.992149,62.251033 115.163327,62.2279819 115.307088,62.1818791 C115.450849,62.1357763 115.574601,62.0859563 115.678346,62.0324176 C115.782092,61.9788789 115.868792,61.9290588 115.938449,61.882956 C116.008107,61.8368532 116.06813,61.8138022 116.118521,61.8138022 C116.183732,61.8138022 116.234122,61.839084 116.269692,61.8896484 L116.492002,62.1796484 Z"/><path id="Entries" fill="#16A085" d="M142.576511,62.1082637 L142.572064,62.8131868 L138.646064,62.8131868 L138.646064,56.4198022 L142.572064,56.4198022 L142.572064,57.1247253 L139.508628,57.1247253 L139.508628,59.2484176 L141.989611,59.2484176 L141.989611,59.9265714 L139.508628,59.9265714 L139.508628,62.1082637 L142.576511,62.1082637 Z M144.298001,58.9494945 C144.395818,58.8394427 144.499562,58.7398026 144.609236,58.6505714 C144.718909,58.5613402 144.835251,58.4847512 144.958263,58.4208022 C145.081275,58.3568532 145.211696,58.3077767 145.349529,58.2735714 C145.487362,58.2393661 145.636309,58.2222637 145.796373,58.2222637 C146.042397,58.2222637 146.259518,58.2631608 146.447742,58.344956 C146.635966,58.4267513 146.793064,58.5427502 146.91904,58.692956 C147.045016,58.8431619 147.140609,59.0238524 147.20582,59.235033 C147.271032,59.4462135 147.303637,59.6796984 147.303637,59.9354945 L147.303637,62.8131868 L146.507766,62.8131868 L146.507766,59.9354945 C146.507766,59.5934415 146.429958,59.3279826 146.27434,59.1391099 C146.118722,58.9502372 145.882334,58.8558022 145.56517,58.8558022 C145.331002,58.8558022 145.112399,58.9123145 144.909355,59.0253407 C144.70631,59.1383669 144.51883,59.2915448 144.346909,59.4848791 L144.346909,62.8131868 L143.551038,62.8131868 L143.551038,58.2936484 L144.026783,58.2936484 C144.13942,58.2936484 144.209077,58.3486734 144.235754,58.4587253 L144.298001,58.9494945 Z M149.914369,62.8845714 C149.55867,62.8845714 149.285231,62.7849314 149.094044,62.5856484 C148.902856,62.3863653 148.807263,62.0993425 148.807263,61.7245714 L148.807263,58.9584176 L148.264826,58.9584176 C148.2174,58.9584176 148.177384,58.9442895 148.144778,58.916033 C148.112173,58.8877764 148.09587,58.8439051 148.09587,58.7844176 L148.09587,58.4676484 L148.83394,58.373956 L149.016235,56.9774945 C149.025127,56.9328789 149.045135,56.8964434 149.076259,56.8681868 C149.107382,56.8399303 149.148139,56.8258022 149.198529,56.8258022 L149.598688,56.8258022 L149.598688,58.3828791 L150.901427,58.3828791 L150.901427,58.9584176 L149.598688,58.9584176 L149.598688,61.671033 C149.598688,61.8613929 149.644632,62.0026735 149.73652,62.0948791 C149.828409,62.1870847 149.946973,62.2331868 150.092217,62.2331868 C150.175213,62.2331868 150.247093,62.2220331 150.307858,62.1997253 C150.368623,62.1774175 150.421236,62.1528793 150.465698,62.1261099 C150.510161,62.0993405 150.547953,62.0748023 150.579077,62.0524945 C150.6102,62.0301867 150.637618,62.019033 150.661331,62.019033 C150.70283,62.019033 150.739881,62.0443148 150.772487,62.0948791 L151.003689,62.4741099 C150.867338,62.602008 150.70283,62.7023916 150.51016,62.7752637 C150.31749,62.8481359 150.118895,62.8845714 149.914369,62.8845714 Z M152.551778,59.1993407 C152.694057,58.8900058 152.868939,58.6483415 153.07643,58.4743407 C153.283921,58.3003398 153.537352,58.2133407 153.836731,58.2133407 C153.931584,58.2133407 154.022731,58.2237508 154.110173,58.2445714 C154.197616,58.265392 154.275424,58.2981097 154.343599,58.3427253 L154.285798,58.9361099 C154.268013,59.0104692 154.223552,59.0476484 154.152412,59.0476484 C154.110914,59.0476484 154.05015,59.0387254 153.970118,59.0208791 C153.890086,59.0030329 153.79968,58.9941099 153.698899,58.9941099 C153.55662,58.9941099 153.429904,59.0149302 153.318748,59.0565714 C153.207593,59.0982127 153.108295,59.15993 153.020853,59.2417253 C152.93341,59.3235206 152.854861,59.4246477 152.785204,59.5451099 C152.715546,59.665572 152.652559,59.8031348 152.59624,59.9578022 L152.59624,62.8131868 L151.800369,62.8131868 L151.800369,58.2936484 L152.253882,58.2936484 C152.339842,58.2936484 152.399124,58.3100072 152.43173,58.3427253 C152.464336,58.3754434 152.486567,58.4319556 152.498423,58.5122637 L152.551778,59.1993407 Z M155.953934,58.2936484 L155.953934,62.8131868 L155.162509,62.8131868 L155.162509,58.2936484 L155.953934,58.2936484 Z M156.12289,56.8748791 C156.12289,56.9522128 156.107329,57.0243403 156.076205,57.0912637 C156.045081,57.1581871 156.003584,57.2176737 155.951711,57.2697253 C155.899839,57.3217768 155.839074,57.3626738 155.769417,57.3924176 C155.699759,57.4221613 155.626397,57.437033 155.549329,57.437033 C155.472262,57.437033 155.400382,57.4221613 155.333688,57.3924176 C155.266995,57.3626738 155.208454,57.3217768 155.158063,57.2697253 C155.107673,57.2176737 155.067657,57.1581871 155.038016,57.0912637 C155.008374,57.0243403 154.993554,56.9522128 154.993554,56.8748791 C154.993554,56.7975454 155.008374,56.7239308 155.038016,56.654033 C155.067657,56.5841352 155.107673,56.5231614 155.158063,56.4711099 C155.208454,56.4190583 155.266995,56.3781613 155.333688,56.3484176 C155.400382,56.3186738 155.472262,56.3038022 155.549329,56.3038022 C155.626397,56.3038022 155.699759,56.3186738 155.769417,56.3484176 C155.839074,56.3781613 155.899839,56.4190583 155.951711,56.4711099 C156.003584,56.5231614 156.045081,56.5841352 156.076205,56.654033 C156.107329,56.7239308 156.12289,56.7975454 156.12289,56.8748791 Z M160.347595,60.0604176 C160.347595,59.8760064 160.321659,59.7072132 160.269786,59.554033 C160.217914,59.4008527 160.142329,59.2684951 160.04303,59.156956 C159.943731,59.045417 159.822943,58.9591615 159.680664,58.8981868 C159.538385,58.8372121 159.376841,58.8067253 159.196027,58.8067253 C158.816616,58.8067253 158.5165,58.917519 158.295671,59.1391099 C158.074841,59.3607007 157.937751,59.6678002 157.884396,60.0604176 L160.347595,60.0604176 Z M160.987849,62.1796484 C160.890032,62.2986233 160.772949,62.4019812 160.636598,62.4897253 C160.500247,62.5774693 160.354265,62.6495968 160.198647,62.7061099 C160.043029,62.762623 159.882226,62.8050072 159.716234,62.8332637 C159.550241,62.8615203 159.385733,62.8756484 159.222705,62.8756484 C158.911469,62.8756484 158.624691,62.822854 158.362364,62.7172637 C158.100036,62.6116735 157.873282,62.4570083 157.682094,62.2532637 C157.490906,62.0495191 157.34196,61.7974447 157.23525,61.497033 C157.128541,61.1966212 157.075187,60.851599 157.075187,60.461956 C157.075187,60.1466724 157.123354,59.8522138 157.219689,59.5785714 C157.316024,59.304929 157.454596,59.0677263 157.635409,58.866956 C157.816222,58.6661858 158.037048,58.5085464 158.297894,58.394033 C158.558739,58.2795196 158.852186,58.2222637 159.178243,58.2222637 C159.44798,58.2222637 159.697707,58.2676223 159.927428,58.3583407 C160.15715,58.4490591 160.355746,58.5799295 160.52322,58.750956 C160.690695,58.9219825 160.821857,59.1331599 160.916709,59.3844945 C161.011562,59.6358291 161.058988,59.9221083 161.058988,60.2433407 C161.058988,60.3682644 161.04565,60.4515456 161.018972,60.4931868 C160.992295,60.534828 160.941905,60.5556484 160.867801,60.5556484 L157.857719,60.5556484 C157.866612,60.8411882 157.905886,61.0895447 157.975544,61.3007253 C158.045201,61.5119058 158.142276,61.6881348 158.26677,61.8294176 C158.391265,61.9707003 158.53947,62.076289 158.711391,62.1461868 C158.883312,62.2160846 159.075979,62.251033 159.289398,62.251033 C159.487996,62.251033 159.659173,62.2279819 159.802935,62.1818791 C159.946696,62.1357763 160.070448,62.0859563 160.174193,62.0324176 C160.277938,61.9788789 160.364638,61.9290588 160.434296,61.882956 C160.503954,61.8368532 160.563977,61.8138022 160.614367,61.8138022 C160.679579,61.8138022 160.729969,61.839084 160.765538,61.8896484 L160.987849,62.1796484 Z M164.732363,59.0387253 C164.696793,59.1041615 164.641957,59.1368791 164.567854,59.1368791 C164.523391,59.1368791 164.473001,59.1205203 164.416683,59.0878022 C164.360364,59.0550841 164.291448,59.0186486 164.209934,58.9784945 C164.12842,58.9383405 164.031345,58.9011613 163.918707,58.866956 C163.80607,58.8327507 163.672685,58.8156484 163.518549,58.8156484 C163.385162,58.8156484 163.265116,58.8327507 163.158406,58.866956 C163.051697,58.9011613 162.96055,58.948007 162.884964,59.0074945 C162.809378,59.066982 162.751578,59.1361351 162.711562,59.214956 C162.671546,59.293777 162.651538,59.3792889 162.651538,59.4714945 C162.651538,59.5874951 162.684885,59.6841608 162.751578,59.7614945 C162.818272,59.8388282 162.906454,59.9057506 163.016127,59.9622637 C163.125801,60.0187768 163.250294,60.0685969 163.389609,60.1117253 C163.528924,60.1548537 163.671942,60.2009558 163.818668,60.250033 C163.965393,60.2991101 164.108412,60.3533916 164.247727,60.4128791 C164.387042,60.4723666 164.511534,60.5467248 164.621208,60.635956 C164.730882,60.7251873 164.819064,60.8344939 164.885757,60.9638791 C164.952451,61.0932644 164.985797,61.2486731 164.985797,61.4301099 C164.985797,61.6383161 164.948746,61.8309039 164.874642,62.0078791 C164.800538,62.1848544 164.690866,62.3380323 164.545623,62.4674176 C164.400379,62.5968028 164.222533,62.6986736 164.012078,62.773033 C163.801623,62.8473923 163.558566,62.8845714 163.2829,62.8845714 C162.9687,62.8845714 162.684145,62.8332642 162.429228,62.7306484 C162.174311,62.6280325 161.957931,62.4964184 161.780082,62.3358022 L161.966823,62.0324176 C161.990536,61.9937507 162.018695,61.9640074 162.051301,61.9431868 C162.083906,61.9223662 162.125404,61.911956 162.175794,61.911956 C162.229149,61.911956 162.285467,61.9327763 162.34475,61.9744176 C162.404033,62.0160588 162.475913,62.0621609 162.560391,62.1127253 C162.64487,62.1632896 162.747872,62.2093917 162.869403,62.251033 C162.990933,62.2926742 163.142102,62.3134945 163.322916,62.3134945 C163.477052,62.3134945 163.611919,62.2934178 163.727521,62.2532637 C163.843122,62.2131097 163.939456,62.1588282 164.016524,62.0904176 C164.093592,62.022007 164.150651,61.9431873 164.187703,61.853956 C164.224755,61.7647248 164.243281,61.6695463 164.243281,61.5684176 C164.243281,61.4434939 164.209934,61.3401359 164.143241,61.2583407 C164.076547,61.1765454 163.988365,61.1066486 163.878692,61.0486484 C163.769018,60.9906481 163.643784,60.9400845 163.502987,60.896956 C163.36219,60.8538276 163.218431,60.8084691 163.071705,60.7608791 C162.924979,60.7132891 162.78122,60.6590076 162.640423,60.598033 C162.499626,60.5370583 162.374392,60.4604693 162.264719,60.3682637 C162.155045,60.2760581 162.066863,60.1622901 162.000169,60.026956 C161.933476,59.891622 161.90013,59.7272903 161.90013,59.533956 C161.90013,59.3614424 161.935699,59.1956235 162.006839,59.0364945 C162.077978,58.8773655 162.181722,58.737572 162.318073,58.6171099 C162.454424,58.4966477 162.621896,58.4007256 162.820494,58.3293407 C163.019093,58.2579557 163.245847,58.2222637 163.500764,58.2222637 C163.797179,58.2222637 164.063208,58.2691094 164.298858,58.3628022 C164.534508,58.456495 164.738291,58.5851347 164.910212,58.7487253 L164.732363,59.0387253 Z"/><path id="Views" fill="#16A085" d="M190.828651,56.4198022 L188.232067,62.8131868 L187.458427,62.8131868 L184.861842,56.4198022 L185.551004,56.4198022 C185.628072,56.4198022 185.690318,56.4391353 185.737745,56.4778022 C185.785171,56.5164691 185.820741,56.5655455 185.844454,56.625033 L187.640721,61.1356484 C187.679255,61.2367771 187.717048,61.3468272 187.7541,61.4658022 C187.791151,61.5847772 187.824498,61.709699 187.854139,61.8405714 C187.883781,61.709699 187.914904,61.5847772 187.94751,61.4658022 C187.980115,61.3468272 188.015685,61.2367771 188.054218,61.1356484 L189.84604,56.625033 C189.863825,56.5744686 189.898653,56.5276229 189.950526,56.4844945 C190.002398,56.4413661 190.065386,56.4198022 190.139489,56.4198022 L190.828651,56.4198022 Z M192.398971,58.2936484 L192.398971,62.8131868 L191.607546,62.8131868 L191.607546,58.2936484 L192.398971,58.2936484 Z M192.567927,56.8748791 C192.567927,56.9522128 192.552365,57.0243403 192.521242,57.0912637 C192.490118,57.1581871 192.44862,57.2176737 192.396748,57.2697253 C192.344875,57.3217768 192.284111,57.3626738 192.214453,57.3924176 C192.144796,57.4221613 192.071434,57.437033 191.994366,57.437033 C191.917298,57.437033 191.845419,57.4221613 191.778725,57.3924176 C191.712032,57.3626738 191.65349,57.3217768 191.6031,57.2697253 C191.552709,57.2176737 191.512694,57.1581871 191.483052,57.0912637 C191.453411,57.0243403 191.43859,56.9522128 191.43859,56.8748791 C191.43859,56.7975454 191.453411,56.7239308 191.483052,56.654033 C191.512694,56.5841352 191.552709,56.5231614 191.6031,56.4711099 C191.65349,56.4190583 191.712032,56.3781613 191.778725,56.3484176 C191.845419,56.3186738 191.917298,56.3038022 191.994366,56.3038022 C192.071434,56.3038022 192.144796,56.3186738 192.214453,56.3484176 C192.284111,56.3781613 192.344875,56.4190583 192.396748,56.4711099 C192.44862,56.5231614 192.490118,56.5841352 192.521242,56.654033 C192.552365,56.7239308 192.567927,56.7975454 192.567927,56.8748791 Z M196.792632,60.0604176 C196.792632,59.8760064 196.766696,59.7072132 196.714823,59.554033 C196.66295,59.4008527 196.587366,59.2684951 196.488066,59.156956 C196.388767,59.045417 196.26798,58.9591615 196.125701,58.8981868 C195.983421,58.8372121 195.821877,58.8067253 195.641064,58.8067253 C195.261653,58.8067253 194.961537,58.917519 194.740707,59.1391099 C194.519878,59.3607007 194.382788,59.6678002 194.329433,60.0604176 L196.792632,60.0604176 Z M197.432885,62.1796484 C197.335068,62.2986233 197.217986,62.4019812 197.081635,62.4897253 C196.945284,62.5774693 196.799302,62.6495968 196.643684,62.7061099 C196.488066,62.762623 196.327263,62.8050072 196.16127,62.8332637 C195.995278,62.8615203 195.83077,62.8756484 195.667741,62.8756484 C195.356505,62.8756484 195.069728,62.822854 194.8074,62.7172637 C194.545073,62.6116735 194.318319,62.4570083 194.127131,62.2532637 C193.935943,62.0495191 193.786996,61.7974447 193.680287,61.497033 C193.573577,61.1966212 193.520223,60.851599 193.520223,60.461956 C193.520223,60.1466724 193.56839,59.8522138 193.664725,59.5785714 C193.76106,59.304929 193.899632,59.0677263 194.080445,58.866956 C194.261259,58.6661858 194.482085,58.5085464 194.74293,58.394033 C195.003776,58.2795196 195.297222,58.2222637 195.623279,58.2222637 C195.893017,58.2222637 196.142743,58.2676223 196.372465,58.3583407 C196.602187,58.4490591 196.800782,58.5799295 196.968257,58.750956 C197.135731,58.9219825 197.266893,59.1331599 197.361746,59.3844945 C197.456599,59.6358291 197.504025,59.9221083 197.504025,60.2433407 C197.504025,60.3682644 197.490686,60.4515456 197.464009,60.4931868 C197.437331,60.534828 197.386942,60.5556484 197.312838,60.5556484 L194.302756,60.5556484 C194.311648,60.8411882 194.350923,61.0895447 194.42058,61.3007253 C194.490238,61.5119058 194.587312,61.6881348 194.711807,61.8294176 C194.836301,61.9707003 194.984507,62.076289 195.156428,62.1461868 C195.328348,62.2160846 195.521015,62.251033 195.734434,62.251033 C195.933033,62.251033 196.10421,62.2279819 196.247971,62.1818791 C196.391733,62.1357763 196.515484,62.0859563 196.61923,62.0324176 C196.722975,61.9788789 196.809675,61.9290588 196.879333,61.882956 C196.94899,61.8368532 197.009013,61.8138022 197.059404,61.8138022 C197.124615,61.8138022 197.175005,61.839084 197.210575,61.8896484 L197.432885,62.1796484 Z M204.721027,58.2936484 L203.262671,62.8131868 L202.635756,62.8131868 C202.558688,62.8131868 202.505334,62.7626232 202.475692,62.6614945 L201.479742,59.5964176 C201.456029,59.528007 201.436762,59.4588538 201.421941,59.388956 C201.40712,59.3190583 201.3923,59.2499051 201.377479,59.1814945 C201.362658,59.2499051 201.347838,59.3190583 201.333017,59.388956 C201.318196,59.4588538 201.29893,59.5294941 201.275216,59.6008791 L200.261481,62.6614945 C200.234804,62.7626232 200.175522,62.8131868 200.083633,62.8131868 L199.487841,62.8131868 L198.029485,58.2936484 L198.651954,58.2936484 C198.714202,58.2936484 198.766815,58.3100072 198.809795,58.3427253 C198.852775,58.3754434 198.881675,58.4141097 198.896496,58.4587253 L199.75906,61.3676484 C199.809451,61.5818033 199.849466,61.7840577 199.879107,61.9744176 C199.905785,61.8762632 199.933203,61.7766232 199.961362,61.6754945 C199.989522,61.5743658 200.019904,61.4717514 200.05251,61.3676484 L201.003998,58.4408791 C201.018819,58.3962635 201.044755,58.3590844 201.081806,58.3293407 C201.118858,58.2995969 201.164061,58.2847253 201.217416,58.2847253 L201.56422,58.2847253 C201.623503,58.2847253 201.672411,58.2995969 201.710945,58.3293407 C201.749479,58.3590844 201.776156,58.3962635 201.790976,58.4408791 L202.720234,61.3676484 C202.752839,61.4717514 202.78248,61.5743658 202.809158,61.6754945 C202.835835,61.7766232 202.86103,61.8762632 202.884743,61.9744176 C202.899564,61.8762632 202.91809,61.7773668 202.940321,61.6777253 C202.962552,61.5780838 202.987006,61.4747258 203.013683,61.3676484 L203.894032,58.4587253 C203.908853,58.4111353 203.937012,58.3717254 203.97851,58.3404945 C204.020008,58.3092636 204.068916,58.2936484 204.125235,58.2936484 L204.721027,58.2936484 Z M208.163199,59.0387253 C208.127629,59.1041615 208.072793,59.1368791 207.998689,59.1368791 C207.954227,59.1368791 207.903837,59.1205203 207.847518,59.0878022 C207.791199,59.0550841 207.722284,59.0186486 207.64077,58.9784945 C207.559256,58.9383405 207.462181,58.9011613 207.349543,58.866956 C207.236905,58.8327507 207.103521,58.8156484 206.949385,58.8156484 C206.815998,58.8156484 206.695951,58.8327507 206.589242,58.866956 C206.482532,58.9011613 206.391386,58.948007 206.3158,59.0074945 C206.240214,59.066982 206.182414,59.1361351 206.142398,59.214956 C206.102382,59.293777 206.082374,59.3792889 206.082374,59.4714945 C206.082374,59.5874951 206.115721,59.6841608 206.182414,59.7614945 C206.249107,59.8388282 206.33729,59.9057506 206.446963,59.9622637 C206.556637,60.0187768 206.681129,60.0685969 206.820445,60.1117253 C206.95976,60.1548537 207.102778,60.2009558 207.249504,60.250033 C207.396229,60.2991101 207.539247,60.3533916 207.678563,60.4128791 C207.817878,60.4723666 207.94237,60.5467248 208.052044,60.635956 C208.161718,60.7251873 208.2499,60.8344939 208.316593,60.9638791 C208.383287,61.0932644 208.416633,61.2486731 208.416633,61.4301099 C208.416633,61.6383161 208.379581,61.8309039 208.305478,62.0078791 C208.231374,62.1848544 208.121702,62.3380323 207.976458,62.4674176 C207.831215,62.5968028 207.653368,62.6986736 207.442914,62.773033 C207.232459,62.8473923 206.989402,62.8845714 206.713736,62.8845714 C206.399535,62.8845714 206.114981,62.8332642 205.860064,62.7306484 C205.605147,62.6280325 205.388767,62.4964184 205.210918,62.3358022 L205.397658,62.0324176 C205.421372,61.9937507 205.449531,61.9640074 205.482136,61.9431868 C205.514742,61.9223662 205.55624,61.911956 205.60663,61.911956 C205.659985,61.911956 205.716303,61.9327763 205.775586,61.9744176 C205.834869,62.0160588 205.906749,62.0621609 205.991227,62.1127253 C206.075705,62.1632896 206.178708,62.2093917 206.300238,62.251033 C206.421769,62.2926742 206.572938,62.3134945 206.753752,62.3134945 C206.907887,62.3134945 207.042754,62.2934178 207.158356,62.2532637 C207.273958,62.2131097 207.370292,62.1588282 207.44736,62.0904176 C207.524428,62.022007 207.581487,61.9431873 207.618539,61.853956 C207.655591,61.7647248 207.674116,61.6695463 207.674116,61.5684176 C207.674116,61.4434939 207.64077,61.3401359 207.574077,61.2583407 C207.507383,61.1765454 207.419201,61.1066486 207.309527,61.0486484 C207.199854,60.9906481 207.07462,60.9400845 206.933823,60.896956 C206.793026,60.8538276 206.649266,60.8084691 206.502541,60.7608791 C206.355815,60.7132891 206.212056,60.6590076 206.071259,60.598033 C205.930462,60.5370583 205.805228,60.4604693 205.695554,60.3682637 C205.585881,60.2760581 205.497698,60.1622901 205.431005,60.026956 C205.364312,59.891622 205.330965,59.7272903 205.330965,59.533956 C205.330965,59.3614424 205.366535,59.1956235 205.437674,59.0364945 C205.508814,58.8773655 205.612558,58.737572 205.748909,58.6171099 C205.88526,58.4966477 206.052732,58.4007256 206.25133,58.3293407 C206.449928,58.2579557 206.676683,58.2222637 206.9316,58.2222637 C207.228015,58.2222637 207.494044,58.2691094 207.729694,58.3628022 C207.965344,58.456495 208.169126,58.5851347 208.341047,58.7487253 L208.163199,59.0387253 Z"/><path id="Conversion" fill="#16A085" d="M231.084081,61.1887692 C231.131508,61.1887692 231.173005,61.2081024 231.208575,61.2467692 L231.550933,61.6170769 C231.290088,61.9204631 230.973669,62.1569222 230.601668,62.3264615 C230.229667,62.4960008 229.779863,62.5807692 229.252244,62.5807692 C228.795765,62.5807692 228.38079,62.5012059 228.007306,62.3420769 C227.633823,62.1829479 227.315182,61.9598732 227.051372,61.6728462 C226.787562,61.3858191 226.583039,61.0415405 226.437795,60.64 C226.292552,60.2384595 226.219931,59.7967716 226.219931,59.3149231 C226.219931,58.8330745 226.295516,58.3913866 226.446688,57.9898462 C226.59786,57.5883057 226.810534,57.2432835 227.084718,56.9547692 C227.358903,56.666255 227.687178,56.4424367 228.069553,56.2833077 C228.451929,56.1241787 228.874314,56.0446154 229.336722,56.0446154 C229.790238,56.0446154 230.190392,56.1174865 230.537198,56.2632308 C230.884004,56.4089751 231.189307,56.606768 231.453117,56.8566154 L231.168559,57.2536923 C231.150774,57.283436 231.127803,57.3079743 231.099643,57.3273077 C231.071484,57.3466411 231.033691,57.3563077 230.986265,57.3563077 C230.93291,57.3563077 230.8677,57.327308 230.790632,57.2693077 C230.713564,57.2113074 230.612784,57.1466157 230.48829,57.0752308 C230.363795,57.0038458 230.20818,56.9391541 230.021438,56.8811538 C229.834696,56.8231536 229.604978,56.7941538 229.332276,56.7941538 C229.003255,56.7941538 228.702398,56.8514097 228.429696,56.9659231 C228.156994,57.0804365 227.922088,57.2462553 227.724972,57.4633846 C227.527856,57.6805139 227.374463,57.9452292 227.26479,58.2575385 C227.155116,58.5698477 227.10028,58.9223057 227.10028,59.3149231 C227.10028,59.7134892 227.157339,60.0689215 227.271459,60.3812308 C227.385579,60.69354 227.541195,60.9575117 227.738311,61.1731538 C227.935427,61.388796 228.16811,61.5531276 228.436365,61.6661538 C228.704621,61.7791801 228.994363,61.8356923 229.305599,61.8356923 C229.495304,61.8356923 229.666482,61.8245386 229.819136,61.8022308 C229.971789,61.779923 230.112585,61.7449746 230.241525,61.6973846 C230.370466,61.6497946 230.490512,61.5895645 230.601668,61.5166923 C230.712824,61.4438201 230.823237,61.356821 230.93291,61.2556923 C230.983301,61.2110767 231.033691,61.1887692 231.084081,61.1887692 Z M234.255035,57.9184615 C234.584056,57.9184615 234.880467,57.9734866 235.144277,58.0835385 C235.408086,58.1935903 235.633358,58.3497426 235.8201,58.552 C236.006842,58.7542574 236.14986,58.998896 236.249159,59.2859231 C236.348458,59.5729502 236.398107,59.8934341 236.398107,60.2473846 C236.398107,60.6043095 236.348458,60.925537 236.249159,61.2110769 C236.14986,61.4966168 236.006842,61.7405118 235.8201,61.9427692 C235.633358,62.1450267 235.408086,62.3004354 235.144277,62.409 C234.880467,62.5175646 234.584056,62.5718462 234.255035,62.5718462 C233.92305,62.5718462 233.624416,62.5175646 233.359125,62.409 C233.093833,62.3004354 232.86782,62.1450267 232.681078,61.9427692 C232.494336,61.7405118 232.351318,61.4966168 232.252019,61.2110769 C232.15272,60.925537 232.103071,60.6043095 232.103071,60.2473846 C232.103071,59.8934341 232.15272,59.5729502 232.252019,59.2859231 C232.351318,58.998896 232.494336,58.7542574 232.681078,58.552 C232.86782,58.3497426 233.093833,58.1935903 233.359125,58.0835385 C233.624416,57.9734866 233.92305,57.9184615 234.255035,57.9184615 Z M234.255035,61.9516923 C234.699658,61.9516923 235.031638,61.8022323 235.250986,61.5033077 C235.470333,61.2043831 235.580005,60.7872334 235.580005,60.2518462 C235.580005,59.7134845 235.470333,59.2941041 235.250986,58.9936923 C235.031638,58.6932805 234.699658,58.5430769 234.255035,58.5430769 C234.02976,58.5430769 233.833387,58.5817432 233.665913,58.6590769 C233.498438,58.7364106 233.359125,58.847948 233.247969,58.9936923 C233.136814,59.1394366 233.053819,59.31864 232.998982,59.5313077 C232.944145,59.7439754 232.916727,59.9841525 232.916727,60.2518462 C232.916727,60.7872334 233.02714,61.2043831 233.247969,61.5033077 C233.468799,61.8022323 233.804484,61.9516923 234.255035,61.9516923 Z M238.226306,58.6456923 C238.324123,58.5356405 238.427867,58.4360004 238.537541,58.3467692 C238.647214,58.257538 238.763556,58.180949 238.886568,58.117 C239.00958,58.053051 239.140001,58.0039745 239.277834,57.9697692 C239.415667,57.9355639 239.564614,57.9184615 239.724678,57.9184615 C239.970703,57.9184615 240.187824,57.9593586 240.376047,58.0411538 C240.564271,58.1229491 240.721369,58.238948 240.847345,58.3891538 C240.973322,58.5393597 241.068914,58.7200502 241.134125,58.9312308 C241.199337,59.1424113 241.231942,59.3758962 241.231942,59.6316923 L241.231942,62.5093846 L240.436071,62.5093846 L240.436071,59.6316923 C240.436071,59.2896393 240.358263,59.0241804 240.202645,58.8353077 C240.047027,58.646435 239.81064,58.552 239.493475,58.552 C239.259307,58.552 239.040704,58.6085123 238.83766,58.7215385 C238.634615,58.8345647 238.447135,58.9877426 238.275215,59.1810769 L238.275215,62.5093846 L237.479344,62.5093846 L237.479344,57.9898462 L237.955088,57.9898462 C238.067725,57.9898462 238.137382,58.0448712 238.164059,58.1549231 L238.226306,58.6456923 Z M246.288088,57.9898462 L244.451804,62.5093846 L243.740411,62.5093846 L241.904128,57.9898462 L242.548828,57.9898462 C242.614039,57.9898462 242.667393,58.006205 242.708891,58.0389231 C242.750389,58.0716412 242.778548,58.1103075 242.793369,58.1549231 L243.936044,61.0638462 C243.971614,61.173898 244.002737,61.2809738 244.029415,61.3850769 C244.056092,61.48918 244.081287,61.5932815 244.105,61.6973846 C244.128713,61.5932815 244.153908,61.48918 244.180586,61.3850769 C244.207263,61.2809738 244.239868,61.173898 244.278402,61.0638462 L245.434416,58.1549231 C245.452201,58.1073331 245.481842,58.0679232 245.52334,58.0366923 C245.564838,58.0054614 245.613746,57.9898462 245.670065,57.9898462 L246.288088,57.9898462 Z M249.98814,59.7566154 C249.98814,59.5722042 249.962204,59.403411 249.910331,59.2502308 C249.858459,59.0970505 249.782874,58.9646929 249.683575,58.8531538 C249.584276,58.7416148 249.463488,58.6553593 249.321209,58.5943846 C249.17893,58.53341 249.017386,58.5029231 248.836572,58.5029231 C248.457161,58.5029231 248.157045,58.6137168 247.936216,58.8353077 C247.715386,59.0568985 247.578296,59.363998 247.524941,59.7566154 L249.98814,59.7566154 Z M250.628394,61.8758462 C250.530577,61.9948211 250.413494,62.098179 250.277143,62.1859231 C250.140792,62.2736671 249.99481,62.3457946 249.839192,62.4023077 C249.683574,62.4588208 249.522771,62.501205 249.356779,62.5294615 C249.190786,62.5577181 249.026278,62.5718462 248.86325,62.5718462 C248.552014,62.5718462 248.265236,62.5190518 248.002909,62.4134615 C247.740581,62.3078713 247.513827,62.1532061 247.322639,61.9494615 C247.131451,61.7457169 246.982505,61.4936425 246.875795,61.1932308 C246.769086,60.892819 246.715732,60.5477968 246.715732,60.1581538 C246.715732,59.8428702 246.763899,59.5484116 246.860234,59.2747692 C246.956568,59.0011268 247.095141,58.7639241 247.275954,58.5631538 C247.456767,58.3623836 247.677593,58.2047442 247.938439,58.0902308 C248.199284,57.9757174 248.492731,57.9184615 248.818788,57.9184615 C249.088525,57.9184615 249.338252,57.9638201 249.567973,58.0545385 C249.797695,58.1452569 249.99629,58.2761274 250.163765,58.4471538 C250.33124,58.6181803 250.462402,58.8293577 250.557254,59.0806923 C250.652107,59.3320269 250.699533,59.6183061 250.699533,59.9395385 C250.699533,60.0644622 250.686195,60.1477434 250.659517,60.1893846 C250.63284,60.2310258 250.58245,60.2518462 250.508346,60.2518462 L247.498264,60.2518462 C247.507157,60.537386 247.546431,60.7857425 247.616089,60.9969231 C247.685746,61.2081036 247.782821,61.3843326 247.907315,61.5256154 C248.03181,61.6668981 248.180015,61.7724868 248.351936,61.8423846 C248.523857,61.9122824 248.716524,61.9472308 248.929943,61.9472308 C249.128541,61.9472308 249.299718,61.9241797 249.44348,61.8780769 C249.587241,61.8319741 249.710993,61.7821541 249.814738,61.7286154 C249.918483,61.6750767 250.005183,61.6252566 250.074841,61.5791538 C250.144499,61.5330511 250.204522,61.51 250.254912,61.51 C250.320124,61.51 250.370514,61.5352818 250.406083,61.5858462 L250.628394,61.8758462 Z M252.501055,58.8955385 C252.643335,58.5862036 252.818217,58.3445393 253.025708,58.1705385 C253.233198,57.9965376 253.48663,57.9095385 253.786009,57.9095385 C253.880862,57.9095385 253.972008,57.9199486 254.059451,57.9407692 C254.146893,57.9615898 254.224701,57.9943075 254.292876,58.0389231 L254.235076,58.6323077 C254.217291,58.706667 254.172829,58.7438462 254.10169,58.7438462 C254.060191,58.7438462 253.999427,58.7349232 253.919395,58.7170769 C253.839363,58.6992307 253.748958,58.6903077 253.648177,58.6903077 C253.505897,58.6903077 253.379182,58.711128 253.268026,58.7527692 C253.15687,58.7944105 253.057573,58.8561278 252.97013,58.9379231 C252.882687,59.0197184 252.804139,59.1208456 252.734481,59.2413077 C252.664823,59.3617698 252.601836,59.4993326 252.545517,59.654 L252.545517,62.5093846 L251.749646,62.5093846 L251.749646,57.9898462 L252.203159,57.9898462 C252.28912,57.9898462 252.348402,58.006205 252.381008,58.0389231 C252.413613,58.0716412 252.435844,58.1281534 252.447701,58.2084615 L252.501055,58.8955385 Z M257.66391,58.7349231 C257.62834,58.8003593 257.573504,58.8330769 257.4994,58.8330769 C257.454938,58.8330769 257.404548,58.8167181 257.348229,58.784 C257.29191,58.7512819 257.222995,58.7148464 257.14148,58.6746923 C257.059966,58.6345383 256.962892,58.5973591 256.850254,58.5631538 C256.737616,58.5289485 256.604231,58.5118462 256.450095,58.5118462 C256.316708,58.5118462 256.196662,58.5289485 256.089952,58.5631538 C255.983243,58.5973591 255.892097,58.6442048 255.816511,58.7036923 C255.740925,58.7631798 255.683125,58.8323329 255.643109,58.9111538 C255.603093,58.9899748 255.583085,59.0754867 255.583085,59.1676923 C255.583085,59.2836929 255.616431,59.3803586 255.683125,59.4576923 C255.749818,59.535026 255.838,59.6019484 255.947674,59.6584615 C256.057347,59.7149746 256.18184,59.7647947 256.321155,59.8079231 C256.46047,59.8510515 256.603489,59.8971536 256.750214,59.9462308 C256.89694,59.9953079 257.039958,60.0495894 257.179273,60.1090769 C257.318588,60.1685644 257.443081,60.2429226 257.552754,60.3321538 C257.662428,60.4213851 257.75061,60.5306917 257.817304,60.6600769 C257.883997,60.7894622 257.917343,60.9448709 257.917343,61.1263077 C257.917343,61.3345139 257.880292,61.5271017 257.806188,61.7040769 C257.732084,61.8810522 257.622412,62.0342301 257.477169,62.1636154 C257.331925,62.2930006 257.154079,62.3948714 256.943624,62.4692308 C256.733169,62.5435901 256.490112,62.5807692 256.214446,62.5807692 C255.900246,62.5807692 255.615692,62.5294621 255.360775,62.4268462 C255.105857,62.3242303 254.889478,62.1926162 254.711628,62.032 L254.898369,61.7286154 C254.922082,61.6899485 254.950241,61.6602052 254.982847,61.6393846 C255.015453,61.618564 255.05695,61.6081538 255.107341,61.6081538 C255.160696,61.6081538 255.217014,61.6289742 255.276297,61.6706154 C255.33558,61.7122566 255.407459,61.7583587 255.491938,61.8089231 C255.576416,61.8594874 255.679419,61.9055895 255.800949,61.9472308 C255.922479,61.988872 256.073649,62.0096923 256.254462,62.0096923 C256.408598,62.0096923 256.543465,61.9896156 256.659067,61.9494615 C256.774669,61.9093075 256.871002,61.855026 256.94807,61.7866154 C257.025138,61.7182048 257.082197,61.6393851 257.119249,61.5501538 C257.156301,61.4609226 257.174827,61.3657441 257.174827,61.2646154 C257.174827,61.1396917 257.141481,61.0363337 257.074787,60.9545385 C257.008094,60.8727432 256.919912,60.8028464 256.810238,60.7448462 C256.700564,60.6868459 256.575331,60.6362823 256.434533,60.5931538 C256.293736,60.5500254 256.149977,60.5046669 256.003251,60.4570769 C255.856526,60.4094869 255.712767,60.3552054 255.571969,60.2942308 C255.431172,60.2332561 255.305939,60.1566671 255.196265,60.0644615 C255.086591,59.9722559 254.998409,59.8584879 254.931716,59.7231538 C254.865022,59.5878198 254.831676,59.4234881 254.831676,59.2301538 C254.831676,59.0576402 254.867245,58.8918213 254.938385,58.7326923 C255.009525,58.5735633 255.113268,58.4337698 255.249619,58.3133077 C255.38597,58.1928456 255.553443,58.0969234 255.752041,58.0255385 C255.950639,57.9541535 256.177393,57.9184615 256.43231,57.9184615 C256.728726,57.9184615 256.994754,57.9653072 257.230404,58.059 C257.466055,58.1526928 257.669837,58.2813325 257.841758,58.4449231 L257.66391,58.7349231 Z M259.80779,57.9898462 L259.80779,62.5093846 L259.016365,62.5093846 L259.016365,57.9898462 L259.80779,57.9898462 Z M259.976746,56.5710769 C259.976746,56.6484106 259.961184,56.7205381 259.93006,56.7874615 C259.898937,56.854385 259.857439,56.9138715 259.805567,56.9659231 C259.753694,57.0179746 259.69293,57.0588716 259.623272,57.0886154 C259.553615,57.1183591 259.480253,57.1332308 259.403185,57.1332308 C259.326117,57.1332308 259.254237,57.1183591 259.187544,57.0886154 C259.12085,57.0588716 259.062309,57.0179746 259.011919,56.9659231 C258.961528,56.9138715 258.921513,56.854385 258.891871,56.7874615 C258.86223,56.7205381 258.847409,56.6484106 258.847409,56.5710769 C258.847409,56.4937432 258.86223,56.4201286 258.891871,56.3502308 C258.921513,56.280333 258.961528,56.2193592 259.011919,56.1673077 C259.062309,56.1152562 259.12085,56.0743591 259.187544,56.0446154 C259.254237,56.0148716 259.326117,56 259.403185,56 C259.480253,56 259.553615,56.0148716 259.623272,56.0446154 C259.69293,56.0743591 259.753694,56.1152562 259.805567,56.1673077 C259.857439,56.2193592 259.898937,56.280333 259.93006,56.3502308 C259.961184,56.4201286 259.976746,56.4937432 259.976746,56.5710769 Z M263.085453,57.9184615 C263.414473,57.9184615 263.710884,57.9734866 263.974694,58.0835385 C264.238503,58.1935903 264.463776,58.3497426 264.650517,58.552 C264.837259,58.7542574 264.980277,58.998896 265.079576,59.2859231 C265.178875,59.5729502 265.228524,59.8934341 265.228524,60.2473846 C265.228524,60.6043095 265.178875,60.925537 265.079576,61.2110769 C264.980277,61.4966168 264.837259,61.7405118 264.650517,61.9427692 C264.463776,62.1450267 264.238503,62.3004354 263.974694,62.409 C263.710884,62.5175646 263.414473,62.5718462 263.085453,62.5718462 C262.753467,62.5718462 262.454834,62.5175646 262.189542,62.409 C261.92425,62.3004354 261.698237,62.1450267 261.511495,61.9427692 C261.324754,61.7405118 261.181736,61.4966168 261.082436,61.2110769 C260.983137,60.925537 260.933488,60.6043095 260.933488,60.2473846 C260.933488,59.8934341 260.983137,59.5729502 261.082436,59.2859231 C261.181736,58.998896 261.324754,58.7542574 261.511495,58.552 C261.698237,58.3497426 261.92425,58.1935903 262.189542,58.0835385 C262.454834,57.9734866 262.753467,57.9184615 263.085453,57.9184615 Z M263.085453,61.9516923 C263.530075,61.9516923 263.862056,61.8022323 264.081403,61.5033077 C264.30075,61.2043831 264.410422,60.7872334 264.410422,60.2518462 C264.410422,59.7134845 264.30075,59.2941041 264.081403,58.9936923 C263.862056,58.6932805 263.530075,58.5430769 263.085453,58.5430769 C262.860177,58.5430769 262.663805,58.5817432 262.49633,58.6590769 C262.328855,58.7364106 262.189542,58.847948 262.078387,58.9936923 C261.967231,59.1394366 261.884236,59.31864 261.829399,59.5313077 C261.774562,59.7439754 261.747144,59.9841525 261.747144,60.2518462 C261.747144,60.7872334 261.857557,61.2043831 262.078387,61.5033077 C262.299216,61.8022323 262.634901,61.9516923 263.085453,61.9516923 Z M267.056724,58.6456923 C267.154541,58.5356405 267.258284,58.4360004 267.367958,58.3467692 C267.477632,58.257538 267.593973,58.180949 267.716985,58.117 C267.839998,58.053051 267.970418,58.0039745 268.108251,57.9697692 C268.246085,57.9355639 268.395031,57.9184615 268.555095,57.9184615 C268.80112,57.9184615 269.018241,57.9593586 269.206465,58.0411538 C269.394688,58.1229491 269.551786,58.238948 269.677762,58.3891538 C269.803739,58.5393597 269.899331,58.7200502 269.964543,58.9312308 C270.029754,59.1424113 270.062359,59.3758962 270.062359,59.6316923 L270.062359,62.5093846 L269.266488,62.5093846 L269.266488,59.6316923 C269.266488,59.2896393 269.18868,59.0241804 269.033062,58.8353077 C268.877444,58.646435 268.641057,58.552 268.323892,58.552 C268.089724,58.552 267.871121,58.6085123 267.668077,58.7215385 C267.465033,58.8345647 267.277553,58.9877426 267.105632,59.1810769 L267.105632,62.5093846 L266.309761,62.5093846 L266.309761,57.9898462 L266.785505,57.9898462 C266.898143,57.9898462 266.967799,58.0448712 266.994477,58.1549231 L267.056724,58.6456923 Z"/><g id="Group-13" transform="translate(133.539519, 11.000000)"><g id="Rectangle-Copy-130" opacity=".303"><use fill="#000" fill-opacity="1" filter="url(#filter-2)" xlink:href="#path-1"/><path fill="#48B4E9" fill-opacity=".068" fill-rule="evenodd" stroke="#4A90E2" stroke-width=".637" d="M2.842944,-0.131868132 L37.7642838,-0.131868132 C38.9963037,-0.131868132 39.9950531,0.866881272 39.9950531,2.0989011 L39.9950531,17.3956044 C39.9950531,18.6276242 38.9963037,19.6263736 37.7642838,19.6263736 L2.842944,19.6263736 C1.61092417,19.6263736 0.612174767,18.6276242 0.612174767,17.3956044 L0.612174767,2.0989011 C0.612174767,0.866881272 1.61092417,-0.131868132 2.842944,-0.131868132 Z"/></g><text id="Apply" fill="#4A90E2" font-family="Lato-Regular, Lato" font-size="8.923" font-weight="normal" letter-spacing=".081"><tspan x="9.188" y="13.011">Apply</tspan></text></g><g id="Rectangle-Copy-135" opacity=".303"><use fill="#000" fill-opacity="1" filter="url(#filter-4)" xlink:href="#path-3"/><path fill="#48B4E9" fill-opacity=".068" fill-rule="evenodd" stroke="#4A90E2" stroke-width=".637" d="M92.0956157,10.8681319 L124.027265,10.8681319 C125.259285,10.8681319 126.258034,11.8668813 126.258034,13.0989011 L126.258034,28.3956044 C126.258034,29.6276242 125.259285,30.6263736 124.027265,30.6263736 L92.0956157,30.6263736 C90.8635959,30.6263736 89.8648465,29.6276242 89.8648465,28.3956044 L89.8648465,13.0989011 C89.8648465,11.8668813 90.8635959,10.8681319 92.0956157,10.8681319 Z"/></g><g id="Rectangle-Copy-131"><use fill="#000" fill-opacity="1" filter="url(#filter-6)" xlink:href="#path-5"/><path fill="#FFF" fill-rule="evenodd" stroke="#E5EBED" stroke-linejoin="square" stroke-width=".637" d="M12.8742872,90.3186813 C11.9942731,90.3186813 11.2808806,91.0320738 11.2808806,91.9120879 L11.2808806,97.6483516 C11.2808806,98.5283658 11.9942731,99.2417582 12.8742872,99.2417582 L19.848042,99.2417582 C20.7280562,99.2417582 21.4414486,98.5283658 21.4414486,97.6483516 L21.4414486,91.9120879 C21.4414486,91.0320738 20.7280562,90.3186813 19.848042,90.3186813 L12.8742872,90.3186813 Z"/></g><g id="Rectangle-Copy-133"><use fill="#000" fill-opacity="1" filter="url(#filter-8)" xlink:href="#path-7"/><path fill="#FFF" fill-rule="evenodd" stroke="#E5EBED" stroke-linejoin="square" stroke-width=".637" d="M12.7100185,126.230769 C11.8300043,126.230769 11.1166119,126.944162 11.1166119,127.824176 L11.1166119,133.56044 C11.1166119,134.440454 11.8300043,135.153846 12.7100185,135.153846 L19.6837733,135.153846 C20.5637874,135.153846 21.2771799,134.440454 21.2771799,133.56044 L21.2771799,127.824176 C21.2771799,126.944162 20.5637874,126.230769 19.6837733,126.230769 L12.7100185,126.230769 Z"/></g><g id="Rectangle-Copy-134"><use fill="#000" fill-opacity="1" filter="url(#filter-10)" xlink:href="#path-9"/><path fill="#FFF" fill-rule="evenodd" stroke="#E5EBED" stroke-linejoin="square" stroke-width=".637" d="M12.7100185,162.56044 C11.8300043,162.56044 11.1166119,163.273832 11.1166119,164.153846 L11.1166119,169.89011 C11.1166119,170.770124 11.8300043,171.483516 12.7100185,171.483516 L19.6837733,171.483516 C20.5637874,171.483516 21.2771799,170.770124 21.2771799,169.89011 L21.2771799,164.153846 C21.2771799,163.273832 20.5637874,162.56044 19.6837733,162.56044 L12.7100185,162.56044 Z"/></g><path id="Rectangle-10-Copy-10" fill="#D8D8D8" d="M34.3058797,93.4065934 L57.1589441,93.4065934 C58.2149611,93.4065934 59.0710321,94.2626643 59.0710321,95.3186813 L59.0710321,95.3186813 C59.0710321,96.3746983 58.2149611,97.2307692 57.1589441,97.2307692 L34.3058797,97.2307692 C33.2498627,97.2307692 32.3937918,96.3746983 32.3937918,95.3186813 L32.3937918,95.3186813 C32.3937918,94.2626643 33.2498627,93.4065934 34.3058797,93.4065934 Z" opacity=".65"/><path id="Rectangle-10-Copy-11" fill="#D8D8D8" d="M78.1327744,93.4065934 L112.418942,93.4065934 C113.474959,93.4065934 114.33103,94.2626643 114.33103,95.3186813 L114.33103,95.3186813 C114.33103,96.3746983 113.474959,97.2307692 112.418942,97.2307692 L78.1327744,97.2307692 C77.0767574,97.2307692 76.2206865,96.3746983 76.2206865,95.3186813 L76.2206865,95.3186813 C76.2206865,94.2626643 77.0767574,93.4065934 78.1327744,93.4065934 Z" opacity=".65"/><path id="Rectangle-10-Copy-12" fill="#D8D8D8" d="M139.744496,93.4065934 L148.623768,93.4065934 C149.679785,93.4065934 150.535856,94.2626643 150.535856,95.3186813 L150.535856,95.3186813 C150.535856,96.3746983 149.679785,97.2307692 148.623768,97.2307692 L139.744496,97.2307692 C138.688479,97.2307692 137.832408,96.3746983 137.832408,95.3186813 L137.832408,95.3186813 C137.832408,94.2626643 138.688479,93.4065934 139.744496,93.4065934 Z" opacity=".65"/><path id="Rectangle-10-Copy-13" fill="#D8D8D8" d="M186.747253,93.4065934 L195.626525,93.4065934 C196.682542,93.4065934 197.538613,94.2626643 197.538613,95.3186813 L197.538613,95.3186813 C197.538613,96.3746983 196.682542,97.2307692 195.626525,97.2307692 L186.747253,97.2307692 C185.691236,97.2307692 184.835165,96.3746983 184.835165,95.3186813 L184.835165,95.3186813 C184.835165,94.2626643 185.691236,93.4065934 186.747253,93.4065934 Z" opacity=".65"/><path id="Rectangle-10-Copy-14" fill="#D8D8D8" d="M227.398286,93.4065934 L255.332729,93.4065934 C256.388746,93.4065934 257.244817,94.2626643 257.244817,95.3186813 L257.244817,95.3186813 C257.244817,96.3746983 256.388746,97.2307692 255.332729,97.2307692 L227.398286,97.2307692 C226.342269,97.2307692 225.486198,96.3746983 225.486198,95.3186813 L225.486198,95.3186813 C225.486198,94.2626643 226.342269,93.4065934 227.398286,93.4065934 Z" opacity=".65"/><path id="Rectangle-10-Copy-10" fill="#D8D8D8" d="M34.3058797,129.098901 L57.1589441,129.098901 C58.2149611,129.098901 59.0710321,129.954972 59.0710321,131.010989 L59.0710321,131.010989 C59.0710321,132.067006 58.2149611,132.923077 57.1589441,132.923077 L34.3058797,132.923077 C33.2498627,132.923077 32.3937918,132.067006 32.3937918,131.010989 L32.3937918,131.010989 C32.3937918,129.954972 33.2498627,129.098901 34.3058797,129.098901 Z" opacity=".65"/><path id="Rectangle-10-Copy-11" fill="#D8D8D8" d="M78.1327744,129.098901 L112.418942,129.098901 C113.474959,129.098901 114.33103,129.954972 114.33103,131.010989 L114.33103,131.010989 C114.33103,132.067006 113.474959,132.923077 112.418942,132.923077 L78.1327744,132.923077 C77.0767574,132.923077 76.2206865,132.067006 76.2206865,131.010989 L76.2206865,131.010989 C76.2206865,129.954972 77.0767574,129.098901 78.1327744,129.098901 Z" opacity=".65"/><path id="Rectangle-10-Copy-12" fill="#D8D8D8" d="M139.744496,129.098901 L148.623768,129.098901 C149.679785,129.098901 150.535856,129.954972 150.535856,131.010989 L150.535856,131.010989 C150.535856,132.067006 149.679785,132.923077 148.623768,132.923077 L139.744496,132.923077 C138.688479,132.923077 137.832408,132.067006 137.832408,131.010989 L137.832408,131.010989 C137.832408,129.954972 138.688479,129.098901 139.744496,129.098901 Z" opacity=".65"/><path id="Rectangle-10-Copy-13" fill="#D8D8D8" d="M186.747253,129.098901 L195.626525,129.098901 C196.682542,129.098901 197.538613,129.954972 197.538613,131.010989 L197.538613,131.010989 C197.538613,132.067006 196.682542,132.923077 195.626525,132.923077 L186.747253,132.923077 C185.691236,132.923077 184.835165,132.067006 184.835165,131.010989 L184.835165,131.010989 C184.835165,129.954972 185.691236,129.098901 186.747253,129.098901 Z" opacity=".65"/><path id="Rectangle-10-Copy-14" fill="#D8D8D8" d="M227.398286,129.098901 L255.332729,129.098901 C256.388746,129.098901 257.244817,129.954972 257.244817,131.010989 L257.244817,131.010989 C257.244817,132.067006 256.388746,132.923077 255.332729,132.923077 L227.398286,132.923077 C226.342269,132.923077 225.486198,132.067006 225.486198,131.010989 L225.486198,131.010989 C225.486198,129.954972 226.342269,129.098901 227.398286,129.098901 Z" opacity=".65"/><path id="Rectangle-10-Copy-10" fill="#D8D8D8" d="M34.3058797,164.153846 L57.1589441,164.153846 C58.2149611,164.153846 59.0710321,165.009917 59.0710321,166.065934 L59.0710321,166.065934 C59.0710321,167.121951 58.2149611,167.978022 57.1589441,167.978022 L34.3058797,167.978022 C33.2498627,167.978022 32.3937918,167.121951 32.3937918,166.065934 L32.3937918,166.065934 C32.3937918,165.009917 33.2498627,164.153846 34.3058797,164.153846 Z" opacity=".65"/><path id="Rectangle-10-Copy-11" fill="#D8D8D8" d="M78.1327744,164.153846 L112.418942,164.153846 C113.474959,164.153846 114.33103,165.009917 114.33103,166.065934 L114.33103,166.065934 C114.33103,167.121951 113.474959,167.978022 112.418942,167.978022 L78.1327744,167.978022 C77.0767574,167.978022 76.2206865,167.121951 76.2206865,166.065934 L76.2206865,166.065934 C76.2206865,165.009917 77.0767574,164.153846 78.1327744,164.153846 Z" opacity=".65"/><path id="Rectangle-10-Copy-12" fill="#D8D8D8" d="M139.744496,164.153846 L148.623768,164.153846 C149.679785,164.153846 150.535856,165.009917 150.535856,166.065934 L150.535856,166.065934 C150.535856,167.121951 149.679785,167.978022 148.623768,167.978022 L139.744496,167.978022 C138.688479,167.978022 137.832408,167.121951 137.832408,166.065934 L137.832408,166.065934 C137.832408,165.009917 138.688479,164.153846 139.744496,164.153846 Z" opacity=".65"/><path id="Rectangle-10-Copy-13" fill="#D8D8D8" d="M186.747253,164.153846 L195.626525,164.153846 C196.682542,164.153846 197.538613,165.009917 197.538613,166.065934 L197.538613,166.065934 C197.538613,167.121951 196.682542,167.978022 195.626525,167.978022 L186.747253,167.978022 C185.691236,167.978022 184.835165,167.121951 184.835165,166.065934 L184.835165,166.065934 C184.835165,165.009917 185.691236,164.153846 186.747253,164.153846 Z" opacity=".65"/><path id="Rectangle-10-Copy-14" fill="#D8D8D8" d="M227.398286,164.153846 L255.332729,164.153846 C256.388746,164.153846 257.244817,165.009917 257.244817,166.065934 L257.244817,166.065934 C257.244817,167.121951 256.388746,167.978022 255.332729,167.978022 L227.398286,167.978022 C226.342269,167.978022 225.486198,167.121951 225.486198,166.065934 L225.486198,166.065934 C225.486198,165.009917 226.342269,164.153846 227.398286,164.153846 Z" opacity=".65"/><text id="All-Forms" fill="#2C3847" font-family="Lato-Bold, Lato" font-size="14.659" font-weight="bold" letter-spacing=".133" line-spacing="25.495"><tspan x="18.935" y="22">All Forms</tspan></text><path id="Rectangle-6-Copy-113" fill="#5DAED6" d="M99.7198746,17.5604396 L117.038178,17.5604396 C118.446201,17.5604396 119.587629,18.7018675 119.587629,20.1098901 L119.587629,21.3846154 C119.587629,22.792638 118.446201,23.9340659 117.038178,23.9340659 L99.7198746,23.9340659 C98.311852,23.9340659 97.1704241,22.792638 97.1704241,21.3846154 L97.1704241,20.1098901 C97.1704241,18.7018675 98.311852,17.5604396 99.7198746,17.5604396 Z" opacity=".2"/><g id="Group-4" opacity=".2" transform="translate(220.240550, 15.000000)"><path id="Rectangle-6-Copy-114" fill="#95A5A6" d="M3.46935539,0.010989011 L11.7090744,0.010989011 C13.1170971,0.010989011 14.258525,1.1524169 14.258525,2.56043956 L14.258525,9.57142857 C14.258525,10.9794512 13.1170971,12.1208791 11.7090744,12.1208791 L3.46935539,12.1208791 C2.06133273,12.1208791 0.919904837,10.9794512 0.919904837,9.57142857 L0.919904837,2.56043956 C0.919904837,1.1524169 2.06133273,0.010989011 3.46935539,0.010989011 Z"/><path id="Rectangle-6-Copy-117" fill="#2ECC71" d="M3.46935539,0.010989011 L11.7090744,0.010989011 C13.1170971,0.010989011 14.258525,1.1524169 14.258525,2.56043956 L14.258525,9.57142857 C14.258525,10.9794512 13.1170971,12.1208791 11.7090744,12.1208791 L3.46935539,12.1208791 C2.06133273,12.1208791 0.919904837,10.9794512 0.919904837,9.57142857 L0.919904837,2.56043956 C0.919904837,1.1524169 2.06133273,0.010989011 3.46935539,0.010989011 Z"/><path id="Rectangle-6-Copy-115" fill="#95A5A6" d="M21.2541822,0.010989011 L29.4939013,0.010989011 C30.9019239,0.010989011 32.0433518,1.1524169 32.0433518,2.56043956 L32.0433518,9.57142857 C32.0433518,10.9794512 30.9019239,12.1208791 29.4939013,12.1208791 L21.2541822,12.1208791 C19.8461596,12.1208791 18.7047317,10.9794512 18.7047317,9.57142857 L18.7047317,2.56043956 C18.7047317,1.1524169 19.8461596,0.010989011 21.2541822,0.010989011 Z"/><path id="Rectangle-6-Copy-118" fill="#BD10E0" d="M21.2541822,0.010989011 L29.4939013,0.010989011 C30.9019239,0.010989011 32.0433518,1.1524169 32.0433518,2.56043956 L32.0433518,9.57142857 C32.0433518,10.9794512 30.9019239,12.1208791 29.4939013,12.1208791 L21.2541822,12.1208791 C19.8461596,12.1208791 18.7047317,10.9794512 18.7047317,9.57142857 L18.7047317,2.56043956 C18.7047317,1.1524169 19.8461596,0.010989011 21.2541822,0.010989011 Z"/><path id="Rectangle-6-Copy-116" fill="#95A5A6" d="M39.0390091,0.010989011 L47.2787281,0.010989011 C48.6867508,0.010989011 49.8281787,1.1524169 49.8281787,2.56043956 L49.8281787,9.57142857 C49.8281787,10.9794512 48.6867508,12.1208791 47.2787281,12.1208791 L39.0390091,12.1208791 C37.6309864,12.1208791 36.4895586,10.9794512 36.4895586,9.57142857 L36.4895586,2.56043956 C36.4895586,1.1524169 37.6309864,0.010989011 39.0390091,0.010989011 Z"/><path id="Rectangle-6-Copy-119" fill="#E94F44" d="M39.0390091,0.010989011 L47.2787281,0.010989011 C48.6867508,0.010989011 49.8281787,1.1524169 49.8281787,2.56043956 L49.8281787,9.57142857 C49.8281787,10.9794512 48.6867508,12.1208791 47.2787281,12.1208791 L39.0390091,12.1208791 C37.6309864,12.1208791 36.4895586,10.9794512 36.4895586,9.57142857 L36.4895586,2.56043956 C36.4895586,1.1524169 37.6309864,0.010989011 39.0390091,0.010989011 Z"/></g><path id="Line" fill-rule="nonzero" stroke="#E5E5E5" stroke-linecap="square" d="M288.145944,77.5 L1.04316547,77.5"/><path id="Line" fill-rule="nonzero" stroke="#E5E5E5" stroke-linecap="square" d="M288.145944,113.5 L1.04316547,113.5"/><path id="Line" fill-rule="nonzero" stroke="#E5E5E5" stroke-linecap="square" d="M288.145944,149.5 L1.04316547,149.5"/></g></g></g></svg>